<svg width="23" height="22" viewBox="0 0 23 22" fill="none" xmlns="http://www.w3.org/2000/svg">
<path d="M21.2306 3.52183V8.80457H19.4642V12.3264H17.6947V14.0873H15.9252V15.8482H14.1558V17.6092H12.3863V19.3701H10.6168V17.6092H8.84738V15.8482H7.07792V14.0873H5.30845V12.3264H3.53899V8.80457H5.30845V5.28274H7.07792V3.52183H5.30845V5.28274H3.53899V8.80457H1.76953V3.52183H3.53899V1.76091H8.84738V3.52183H10.6168V5.28274H12.3863V3.52183H14.1558V1.76091H19.4642V3.52183H21.2306Z" fill="#ED1C24"/>
<path d="M7.07781 3.52182H5.30835V5.28274H7.07781V3.52182Z" fill="white"/>
<path d="M5.30828 5.28275H3.53882V8.80458H5.30828V5.28275Z" fill="white"/>
<path d="M1.76946 3.52184H0V8.80458H1.76946V3.52184Z" fill="black"/>
<path d="M17.6945 14.0873H15.925V15.8482H17.6945V14.0873Z" fill="black"/>
<path d="M19.464 12.3264H17.6946V14.0873H19.464V12.3264Z" fill="black"/>
<path d="M21.2336 8.80458H19.4641V12.3264H21.2336V8.80458Z" fill="black"/>
<path d="M22.9999 3.52184H21.2305V8.80458H22.9999V3.52184Z" fill="black"/>
<path d="M21.2336 1.76091H19.4641V3.52183H21.2336V1.76091Z" fill="black"/>
<path d="M8.8472 0H3.53882V1.76092H8.8472V0Z" fill="black"/>
<path d="M10.6166 1.76091H8.84717V3.52183H10.6166V1.76091Z" fill="black"/>
<path d="M12.3862 3.52184H10.6167V5.28275H12.3862V3.52184Z" fill="black"/>
<path d="M14.1557 1.76091H12.3862V3.52183H14.1557V1.76091Z" fill="black"/>
<path d="M19.4641 0H14.1558V1.76092H19.4641V0Z" fill="black"/>
<path d="M3.53899 8.80458H1.76953V12.3264H3.53899V8.80458Z" fill="black"/>
<path d="M5.30828 12.3264H3.53882V14.0873H5.30828V12.3264Z" fill="black"/>
<path d="M7.07781 14.0873H5.30835V15.8482H7.07781V14.0873Z" fill="black"/>
<path d="M8.84734 15.8483H7.07788V17.6092H8.84734V15.8483Z" fill="black"/>
<path d="M10.6166 17.6092H8.84717V19.3701H10.6166V17.6092Z" fill="black"/>
<path d="M12.3862 19.3701H10.6167V21.131H12.3862V19.3701Z" fill="black"/>
<path d="M14.1557 17.6092H12.3862V19.3701H14.1557V17.6092Z" fill="black"/>
<path d="M15.9252 15.8483H14.1558V17.6092H15.9252V15.8483Z" fill="black"/>
<path d="M3.53899 1.76091H1.76953V3.52183H3.53899V1.76091Z" fill="black"/>
</svg>
