<svg width="21" height="22" viewBox="0 0 21 22" fill="none" xmlns="http://www.w3.org/2000/svg">
  <path d="M19.3005 3.52183V8.80457H17.6947V12.3264H16.0861V14.0873H14.4775V15.8482H12.8689V17.6092H11.2603V19.3701H9.65165V17.6092H8.04305V15.8482H6.43445V14.0873H4.82585V12.3264H3.21724V8.80457H4.82585V5.28274H6.43445V3.52183H4.82585V5.28274H3.21724V8.80457H1.60864V3.52183H3.21724V1.76091H8.04305V3.52183H9.65165V5.28274H11.2603V3.52183H12.8689V1.76091H17.6947V3.52183H19.3005Z" fill="#808080"/>
  <path d="M6.43429 3.52182H4.82568V5.28274H6.43429V3.52182Z" fill="#808080"/>
  <path d="M4.8254 5.28275H3.2168V8.80458H4.8254V5.28275Z" fill="#808080"/>
  <path d="M1.6086 3.52184H0V8.80458H1.6086V3.52184Z" fill="black"/>
  <path d="M16.0859 14.0873H14.4773V15.8483H16.0859V14.0873Z" fill="black"/>
  <path d="M17.6943 12.3264H16.0857V14.0873H17.6943V12.3264Z" fill="black"/>
  <path d="M19.3029 8.80458H17.6943V12.3264H19.3029V8.80458Z" fill="black"/>
  <path d="M20.9089 3.52184H19.3003V8.80458H20.9089V3.52184Z" fill="black"/>
  <path d="M19.3029 1.76091H17.6943V3.52183H19.3029V1.76091Z" fill="black"/>
  <path d="M8.0426 0H3.2168V1.76092H8.0426V0Z" fill="black"/>
  <path d="M9.65133 1.76091H8.04272V3.52183H9.65133V1.76091Z" fill="black"/>
  <path d="M11.26 3.52184H9.65137V5.28275H11.26V3.52184Z" fill="black"/>
  <path d="M12.8686 1.76091H11.26V3.52183H12.8686V1.76091Z" fill="black"/>
  <path d="M17.6945 0H12.8687V1.76092H17.6945V0Z" fill="black"/>
  <path d="M3.21724 8.80458H1.60864V12.3264H3.21724V8.80458Z" fill="black"/>
  <path d="M4.8254 12.3264H3.2168V14.0873H4.8254V12.3264Z" fill="black"/>
  <path d="M6.43429 14.0873H4.82568V15.8483H6.43429V14.0873Z" fill="black"/>
  <path d="M8.04293 15.8482H6.43433V17.6092H8.04293V15.8482Z" fill="black"/>
  <path d="M9.65133 17.6092H8.04272V19.3701H9.65133V17.6092Z" fill="black"/>
  <path d="M11.26 19.3701H9.65137V21.131H11.26V19.3701Z" fill="black"/>
  <path d="M12.8686 17.6092H11.26V19.3701H12.8686V17.6092Z" fill="black"/>
  <path d="M14.4773 15.8482H12.8687V17.6092H14.4773V15.8482Z" fill="black"/>
  <path d="M3.21724 1.76091H1.60864V3.52183H3.21724V1.76091Z" fill="black"/>
  </svg>
  