<svg width="21" height="16" viewBox="0 0 21 16" fill="none" xmlns="http://www.w3.org/2000/svg">
<path d="M0 15.0023C0 10.0017 0 5.0009 0 0C6.74996 0 13.5 0 20.25 0C20.25 4.998 20.25 9.9961 20.25 15.0023C13.4886 15.0023 6.74416 15.0023 0 15.0023ZM18.75 0.75398C18.5 0.75398 18.2501 0.75398 18 0.75398C17.9572 0.75258 17.9143 0.75023 17.8714 0.75023C12.2124 0.75 6.55316 0.75023 0.89391 0.75023C0.84868 0.75023 0.80344 0.75023 0.75961 0.75023C0.75961 1.00922 0.75961 1.2525 0.75961 1.50516C1.00969 1.50516 1.25039 1.50516 1.50235 1.50516C1.50235 1.75969 1.50235 2.00508 1.50235 2.25023C1.25579 2.25023 1.00946 2.25023 0.75305 2.25023C0.75305 2.51555 0.75305 2.7593 0.75305 3.00281C0.75211 3.03797 0.75024 3.07289 0.75024 3.10805C0.75 6.0368 0.75 8.9655 0.75024 11.8943C0.75024 11.9295 0.75211 11.9646 0.75305 11.9995C0.75305 12.251 0.75305 12.5027 0.75305 12.7542C0.75305 13.2511 0.75305 13.7477 0.75305 14.2481C1.01063 14.2481 1.25532 14.2481 1.5 14.2481C1.75008 14.2481 1.99993 14.2481 2.25 14.2481C3 14.2481 3.75 14.2481 4.49996 14.2481C4.75006 14.2481 4.99996 14.2481 5.24996 14.2481C5.99996 14.2481 6.74996 14.2481 7.49996 14.2481C7.75006 14.2481 7.99996 14.2481 8.24996 14.2481C8.99996 14.2481 9.74996 14.2481 10.5 14.2481C10.7501 14.2481 11 14.2481 11.25 14.2481C12 14.2481 12.75 14.2481 13.5 14.2481C13.7501 14.2481 14 14.2481 14.25 14.2481C15 14.2481 15.75 14.2481 16.5 14.2481C16.7501 14.2481 17 14.2481 17.25 14.2481C17.997 14.2481 18.744 14.2481 19.497 14.2481C19.497 13.743 19.497 13.2485 19.497 12.7542C19.497 12.5025 19.497 12.251 19.497 11.9993C19.4979 11.9641 19.4998 11.929 19.4998 11.8941C19.5 8.9653 19.5 6.0366 19.4998 3.10781C19.4998 3.07266 19.4979 3.03773 19.497 3.00258C19.497 2.75602 19.497 2.50945 19.497 2.25C19.2352 2.25 18.9915 2.25 18.7477 2.25C18.7484 1.99992 18.7491 1.75008 18.7498 1.5C18.9971 1.5 19.2446 1.5 19.4916 1.5C19.4916 1.24195 19.4916 0.99938 19.4916 0.75375C19.239 0.75398 18.9945 0.75398 18.75 0.75398Z" fill="#808181"/>
<path d="M0.000229836 15.0023C6.7444 15.0023 13.4888 15.0023 20.2502 15.0023C20.2502 9.9959 20.2502 4.9978 20.2502 0C20.5001 0 20.7502 0 21 0C21 5.2491 21 10.4984 21 15.75C14.0002 15.75 7.0001 15.75 0 15.75C0.00023 15.5023 0.000229836 15.2524 0.000229836 15.0023Z" fill="#020202"/>
<path d="M18.7504 1.50022C18.7497 1.7503 18.749 2.00015 18.7483 2.25022L18.7504 2.24858C18.5027 2.24858 18.2552 2.24858 18.0018 2.24858C18.0018 2.51202 18.0018 2.75694 18.0018 3.0021C17.7513 3.00304 17.501 3.00374 17.2504 3.00444C17.0029 3.00444 16.7554 3.00444 16.5044 3.00444C16.5044 3.26108 16.5044 3.50577 16.5044 3.75069C16.5037 4.0012 16.5028 4.2518 16.502 4.5021C16.2517 4.5026 16.0014 4.5033 15.7511 4.5037C15.7511 4.2558 15.7511 4.0078 15.7511 3.75866C15.4938 3.75866 15.251 3.75866 15.0095 3.75866C15.0095 4.0097 15.0095 4.2525 15.0095 4.5014C15.2634 4.5014 15.5085 4.5014 15.7537 4.5014C15.7532 4.7517 15.7528 5.002 15.7523 5.2523C15.5043 5.2523 15.2563 5.2523 15.0023 5.2523C15.0023 5.512 15.0023 5.7572 15.0023 6.0026C14.7517 6.0035 14.5014 6.0042 14.2509 6.0051C14.0034 6.0051 13.7559 6.0051 13.5049 6.0051C13.5049 6.2618 13.5049 6.5065 13.5049 6.7514C13.5042 7.0019 13.5032 7.2523 13.5025 7.5028C13.2522 7.5033 13.0019 7.504 12.7516 7.5044C12.7516 7.2565 12.7516 7.0085 12.7516 6.7594C12.4942 6.7594 12.2514 6.7594 12.01 6.7594C12.01 7.0104 12.01 7.2532 12.01 7.5021C12.2638 7.5021 12.509 7.5021 12.7542 7.5021C12.7537 7.7524 12.7532 8.0027 12.7528 8.253C12.5048 8.253 12.2568 8.253 12.0028 8.253C12.0028 8.513 12.0028 8.7581 12.0028 9.0033C10.7519 9.0033 9.50102 9.0033 8.24992 9.0033C8.24902 8.7527 8.24832 8.5022 8.24742 8.2516C8.24742 8.0041 8.24742 7.7564 8.24742 7.5054C7.99072 7.5054 7.74602 7.5054 7.50132 7.5054C7.25082 7.5044 7.00052 7.5037 6.74992 7.5028C6.74992 7.2548 6.74992 7.0069 6.74992 6.7526C6.49032 6.7526 6.24512 6.7526 5.99992 6.7526C5.99992 6.5046 5.99992 6.2566 5.99992 6.0023C5.74032 6.0023 5.49512 6.0023 5.24992 6.0023C5.24992 5.7544 5.24992 5.5064 5.24992 5.2521C4.99032 5.2521 4.74512 5.2521 4.49992 5.2521C4.49992 5.0041 4.49992 4.7562 4.49992 4.5019C4.24032 4.5019 3.99511 4.5019 3.74996 4.5019C3.74996 4.2539 3.74996 4.0059 3.74996 3.75163C3.49027 3.75163 3.24512 3.75163 2.99996 3.75163C2.99996 3.50366 2.99996 3.25569 2.99996 3.00163C2.74027 3.00163 2.49512 3.00163 2.24996 3.00163C2.24996 2.75366 2.24996 2.50593 2.24996 2.24812C1.99121 2.24812 1.74629 2.24812 1.50137 2.24812L1.50347 2.24976C1.50347 2.0046 1.50347 1.75921 1.50347 1.50468C1.25152 1.50468 1.01082 1.50468 0.760742 1.50468C0.760742 1.25226 0.760742 1.00874 0.760742 0.749756C0.804572 0.749756 0.849802 0.749756 0.895042 0.749756C6.55422 0.749756 12.2135 0.749756 17.8727 0.749986C17.9156 0.749986 17.9585 0.752326 18.0013 0.753736C18.0013 1.00054 18.0013 1.24733 18.0013 1.49999C18.262 1.50022 18.5062 1.50022 18.7504 1.50022ZM14.2406 5.2481C14.2406 5.0016 14.2406 4.7559 14.2406 4.5087C13.9935 4.5087 13.7507 4.5087 13.5095 4.5087C13.5095 4.7597 13.5095 5.0027 13.5095 5.2481C13.7559 5.2481 13.9933 5.2481 14.2406 5.2481ZM9.00632 7.5058C9.00632 7.7592 9.00632 7.9992 9.00632 8.2444C9.25492 8.2444 9.49782 8.2444 9.74272 8.2444C9.74272 7.9945 9.74272 7.7517 9.74272 7.5058C9.49472 7.5058 9.25452 7.5058 9.00632 7.5058ZM10.5051 8.2423C10.7596 8.2423 11.0024 8.2423 11.2443 8.2423C11.2443 7.9929 11.2443 7.7526 11.2443 7.5082C10.9954 7.5082 10.7526 7.5082 10.5051 7.5082C10.5051 7.7555 10.5051 7.9955 10.5051 8.2423ZM17.2453 1.50866C16.9928 1.50866 16.7498 1.50866 16.51 1.50866C16.51 1.76015 16.51 2.00319 16.51 2.2439C16.7596 2.2439 16.9999 2.2439 17.2453 2.2439C17.2453 1.99757 17.2453 1.75733 17.2453 1.50866Z" fill="white"/>
<path d="M10.5003 14.2485C9.75032 14.2485 9.00032 14.2485 8.25032 14.2485C8.25032 14.001 8.25032 13.7537 8.25032 13.5085C7.99112 13.5085 7.75112 13.5085 7.50032 13.5085C7.50032 13.7593 7.50032 14.0038 7.50032 14.2485C6.75032 14.2485 6.00032 14.2485 5.25032 14.2485C5.25032 14.001 5.25032 13.7537 5.25032 13.5085C4.99112 13.5085 4.75112 13.5085 4.50032 13.5085C4.50032 13.7593 4.50032 14.0038 4.50032 14.2485C3.75037 14.2485 3.00037 14.2485 2.25037 14.2485C2.25037 14.001 2.25037 13.7537 2.25037 13.5085C1.99115 13.5085 1.75115 13.5085 1.50037 13.5085C1.50037 13.7593 1.50037 14.0038 1.50037 14.2485C1.25568 14.2485 1.01099 14.2485 0.753418 14.2485C0.753418 13.7481 0.753418 13.2512 0.753418 12.7546C0.996928 12.7546 1.24045 12.7546 1.50131 12.7546C1.50131 12.489 1.50131 12.2453 1.50131 12.0013L1.49967 12.0029C1.74646 12.0029 1.99326 12.0029 2.25342 12.0029C2.25342 11.7362 2.25342 11.4953 2.25342 11.2546C2.50303 11.2539 2.75287 11.2532 3.00248 11.2525C3.00248 11.5004 3.00248 11.7484 3.00248 11.9961C3.25795 11.9961 3.49842 11.9961 3.7431 11.9961C3.7431 11.747 3.7431 11.5039 3.7431 11.2541C3.49092 11.2541 3.24576 11.2541 3.00084 11.2541C3.00084 11.0031 3.00107 10.7521 3.00107 10.501L2.99943 10.5027C3.24365 10.5027 3.4881 10.5027 3.75107 10.5027C3.75107 10.2397 3.75107 9.99528 3.75107 9.75098L3.74943 9.75268C3.99974 9.75098 4.25002 9.74958 4.50032 9.74798C4.74782 9.74798 4.99532 9.74798 5.24642 9.74798C5.24642 9.49138 5.24642 9.24638 5.24642 9.00168C5.24872 8.75258 5.25082 8.50318 5.25322 8.25408C5.75212 8.25318 6.25142 8.25248 6.75032 8.25148C6.75032 8.49568 6.75032 8.73968 6.75032 9.00168C7.01212 9.00168 7.25642 9.00168 7.50032 9.00168C7.50032 9.24598 7.50032 9.48998 7.50032 9.75198C7.76212 9.75198 8.00642 9.75198 8.25032 9.75198C8.25012 10.0028 8.24992 10.2535 8.24992 10.5043C8.00192 10.5043 7.75422 10.5043 7.50622 10.5043C7.50622 10.7598 7.50622 11.0003 7.50622 11.245C7.75512 11.245 7.99842 11.245 8.24822 11.245C8.24822 10.9928 8.24822 10.7476 8.24822 10.5027C8.99892 10.5039 9.74962 10.5048 10.5003 10.506C10.5003 10.7535 10.5003 11.001 10.5003 11.2459C10.7593 11.2459 10.9996 11.2459 11.2501 11.2459C11.2501 10.9951 11.2501 10.7504 11.2501 10.506C11.5002 10.5034 11.7503 10.5008 12.0003 10.4985C12.2474 10.4985 12.4944 10.4985 12.7501 10.4985C12.7501 10.2439 12.7501 9.99998 12.7501 9.75598C13.0002 9.75338 13.2503 9.75078 13.5003 9.74848C13.7478 9.74848 13.9953 9.74848 14.2464 9.74848C14.2464 9.49178 14.2464 9.24688 14.2464 9.00218C14.2464 8.75798 14.2464 8.51378 14.2464 8.25268C14.5124 8.25268 14.7566 8.25268 15.0011 8.25268L14.9994 8.25098C14.9994 8.49548 14.9994 8.73968 14.9994 9.00268C15.2624 9.00268 15.5066 9.00268 15.7511 9.00268L15.7494 9.00098C15.7494 9.25208 15.7496 9.50308 15.7496 9.75408C15.5017 9.75408 15.2539 9.75408 15.006 9.75408C15.006 10.0096 15.006 10.25 15.006 10.4947C15.2549 10.4947 15.4982 10.4947 15.748 10.4947C15.748 10.2425 15.748 9.99738 15.748 9.75248C15.9976 9.75318 16.2475 9.75388 16.4971 9.75428C16.4994 10.0035 16.5015 10.2528 16.5039 10.502C16.5039 10.7495 16.5039 10.9972 16.5039 11.2482C16.7605 11.2482 17.0052 11.2482 17.2499 11.2482C17.5002 11.2499 17.7505 11.2513 18.0008 11.2529L17.9992 11.2513C17.9992 11.4957 17.9992 11.74 17.9992 12.0029C18.2621 12.0029 18.5064 12.0029 18.7508 12.0029L18.7492 12.0013C18.7492 12.2523 18.7494 12.5033 18.7494 12.7543C18.5014 12.7543 18.2537 12.7543 18.0057 12.7543C18.0057 13.0098 18.0057 13.2503 18.0057 13.495C18.2546 13.495 18.4979 13.495 18.7478 13.495C18.7478 13.2428 18.7478 12.9976 18.7478 12.7527C18.9974 12.7534 19.2472 12.7539 19.4968 12.7546C19.4968 13.2491 19.4968 13.7434 19.4968 14.2485C18.7438 14.2485 17.9968 14.2485 17.2499 14.2485C17.2499 14.001 17.2499 13.7537 17.2499 13.5085C16.9907 13.5085 16.7507 13.5085 16.4999 13.5085C16.4999 13.7593 16.4999 14.0038 16.4999 14.2485C15.7499 14.2485 14.9999 14.2485 14.2499 14.2485C14.2499 14.001 14.2499 13.7537 14.2499 13.5085C13.9907 13.5085 13.7507 13.5085 13.4999 13.5085C13.4999 13.7593 13.4999 14.0038 13.4999 14.2485C12.7499 14.2485 11.9999 14.2485 11.2499 14.2485C11.2499 14.001 11.2499 13.7537 11.2499 13.5085C10.9907 13.5085 10.7507 13.5085 10.4999 13.5085C10.5003 13.7593 10.5003 14.004 10.5003 14.2485ZM6.74282 10.4994C6.74282 10.2458 6.74282 10.0028 6.74282 9.76018C6.49232 9.76018 6.24952 9.76018 6.01002 9.76018C6.01002 10.0119 6.01002 10.255 6.01002 10.4994C6.25702 10.4994 6.49442 10.4994 6.74282 10.4994ZM14.244 11.2466C14.244 10.9925 14.244 10.7525 14.244 10.5092C13.9946 10.5092 13.7518 10.5092 13.509 10.5092C13.509 10.7598 13.509 11.0026 13.509 11.2466C13.7575 11.2466 13.9977 11.2466 14.244 11.2466ZM6.74242 11.9961C6.74242 11.7451 6.74242 11.5021 6.74242 11.2609C6.49142 11.2609 6.24862 11.2609 6.00622 11.2609C6.00622 11.51 6.00622 11.7503 6.00622 11.9961C6.25232 11.9961 6.49232 11.9961 6.74242 11.9961ZM9.00622 11.9952C9.26052 11.9952 9.50052 11.9952 9.74262 11.9952C9.74262 11.7453 9.74262 11.5025 9.74262 11.2607C9.49182 11.2607 9.24882 11.2607 9.00622 11.2607C9.00622 11.5098 9.00622 11.7498 9.00622 11.9952ZM12.009 11.2571C12.009 11.51 12.009 11.7528 12.009 11.9924C12.2605 11.9924 12.5036 11.9924 12.744 11.9924C12.744 11.7425 12.744 11.5023 12.744 11.2571C12.4975 11.2571 12.2572 11.2571 12.009 11.2571ZM15.0064 11.9942C15.257 11.9942 15.4998 11.9942 15.7417 11.9942C15.7417 11.7435 15.7417 11.5004 15.7417 11.2576C15.4928 11.2576 15.2525 11.2576 15.0064 11.2576C15.0064 11.5035 15.0064 11.7437 15.0064 11.9942ZM4.50882 12.0074C4.50882 12.2598 4.50882 12.5028 4.50882 12.7426C4.76032 12.7426 5.00332 12.7426 5.24402 12.7426C5.24402 12.493 5.24402 12.2528 5.24402 12.0074C4.99752 12.0074 4.75752 12.0074 4.50882 12.0074ZM7.50552 12.7433C7.75912 12.7433 8.00192 12.7433 8.24072 12.7433C8.24072 12.4914 8.24072 12.2485 8.24072 12.0088C7.99072 12.0088 7.75072 12.0088 7.50552 12.0088C7.50552 12.2556 7.50552 12.4958 7.50552 12.7433ZM10.5104 12.0048C10.5104 12.2514 10.5104 12.497 10.5104 12.7442C10.7575 12.7442 11.0003 12.7442 11.2414 12.7442C11.2414 12.4932 11.2414 12.2502 11.2414 12.0048C10.9949 12.0048 10.7577 12.0048 10.5104 12.0048ZM13.5088 12.0074C13.5088 12.2598 13.5088 12.5028 13.5088 12.7426C13.7603 12.7426 14.0033 12.7426 14.244 12.7426C14.244 12.493 14.244 12.2528 14.244 12.0074C13.9977 12.0074 13.7575 12.0074 13.5088 12.0074ZM17.2428 12.7499C17.2428 12.4963 17.2428 12.2532 17.2428 12.0107C16.9923 12.0107 16.7495 12.0107 16.51 12.0107C16.51 12.2624 16.51 12.5054 16.51 12.7499C16.757 12.7499 16.9944 12.7499 17.2428 12.7499ZM6.00572 13.4938C6.25822 13.4938 6.50122 13.4938 6.74102 13.4938C6.74102 13.2423 6.74102 12.9992 6.74102 12.7585C6.49142 12.7585 6.25112 12.7585 6.00572 12.7585C6.00572 13.0051 6.00572 13.2451 6.00572 13.4938ZM9.74072 13.4978C9.74072 13.2421 9.74072 12.999 9.74072 12.7585C9.49092 12.7585 9.25092 12.7585 9.00782 12.7585C9.00782 13.0079 9.00782 13.251 9.00782 13.4978C9.25562 13.4978 9.49562 13.4978 9.74072 13.4978ZM12.7431 13.4999C12.7431 13.2467 12.7431 13.0037 12.7431 12.7604C12.4928 12.7604 12.25 12.7604 12.0097 12.7604C12.0097 13.0119 12.0097 13.2547 12.0097 13.4999C12.2565 13.4999 12.4939 13.4999 12.7431 13.4999ZM15.7419 13.4971C15.7419 13.2442 15.7419 13.0014 15.7419 12.7618C15.4904 12.7618 15.2474 12.7618 15.0069 12.7618C15.0069 13.0117 15.0069 13.2519 15.0069 13.4971C15.2535 13.4971 15.4935 13.4971 15.7419 13.4971Z" fill="white"/>
<path d="M0.753471 11.9995C0.752541 11.9644 0.750661 11.9294 0.750661 11.8943C0.750431 8.96553 0.750431 6.03683 0.750661 3.10807C0.750661 3.07291 0.752541 3.03799 0.753471 3.00283C1.00262 3.00213 1.25152 3.00119 1.50066 3.00049C1.50066 3.24471 1.50066 3.48869 1.50066 3.75072C1.76246 3.75072 2.00668 3.75072 2.25066 3.75072C2.25066 3.99494 2.25066 4.23893 2.25066 4.50093C2.51246 4.50093 2.75668 4.50093 3.00066 4.50093C3.00066 4.74513 3.00066 4.98913 3.00066 5.25123C3.26246 5.25123 3.50668 5.25123 3.75066 5.25123C3.75066 5.49543 3.75066 5.73943 3.75066 6.00143C4.01242 6.00143 4.25672 6.00143 4.50062 6.00143C4.50062 6.24563 4.50062 6.48963 4.50062 6.75163C4.76242 6.75163 5.00672 6.75163 5.25062 6.75163C5.24952 7.00173 5.24812 7.25183 5.24692 7.50193C5.00012 7.50193 4.75332 7.50193 4.50442 7.50193C4.50442 7.76323 4.50442 8.00763 4.50442 8.25193C4.50232 8.50103 4.50022 8.75013 4.49812 8.99913C4.24822 9.00003 3.9984 9.00073 3.74832 9.00163C3.74832 8.75373 3.74832 8.50573 3.74832 8.25803C3.49285 8.25803 3.25238 8.25803 3.00769 8.25803C3.00769 8.50713 3.00769 8.75013 3.00769 9.00003C3.25988 9.00003 3.50504 9.00003 3.74996 9.00003C3.74996 9.25103 3.74972 9.50203 3.74972 9.75303L3.75136 9.75143C3.50715 9.75143 3.26269 9.75143 2.99972 9.75143C2.99972 10.0144 2.99972 10.2588 2.99972 10.503L3.00137 10.5014C2.75105 10.503 2.50074 10.5044 2.25043 10.5061C2.00293 10.5061 1.75543 10.5061 1.50441 10.5061C1.50441 10.7627 1.50441 11.0076 1.50441 11.2523C1.50277 11.5026 1.50137 11.753 1.49972 12.0033L1.50137 12.0016C1.25199 12.0007 1.00262 12 0.753471 11.9995Z" fill="white"/>
<path d="M19.4976 3.00283C19.4986 3.03799 19.5004 3.07291 19.5004 3.10807C19.5007 6.03683 19.5007 8.96553 19.5004 11.8943C19.5004 11.9294 19.4986 11.9646 19.4976 11.9995C19.2482 12 18.9991 12.0005 18.7497 12.0012L18.7514 12.0028C18.7514 11.7583 18.7514 11.5141 18.7514 11.2512C18.4884 11.2512 18.2442 11.2512 17.9997 11.2512L18.0014 11.2528C18.0014 11.0018 18.0011 10.7508 18.0011 10.4998C18.2491 10.4998 18.4968 10.4998 18.7448 10.4998C18.7448 10.2443 18.7448 10.0038 18.7448 9.75913C18.4959 9.75913 18.2526 9.75913 18.0028 9.75913C18.0028 10.0113 18.0028 10.2565 18.0028 10.5014C17.7515 10.5014 17.5003 10.5016 17.2493 10.5016L17.2509 10.503C17.2495 10.2525 17.2483 10.0019 17.2469 9.75163C17.2469 9.50413 17.2469 9.25643 17.2469 9.00543C16.9903 9.00543 16.7456 9.00543 16.5009 9.00543C16.2506 9.00373 16.0003 9.00233 15.75 9.00073L15.7516 9.00233C15.7516 8.75793 15.7516 8.51373 15.7516 8.25073C15.4886 8.25073 15.2444 8.25073 15 8.25073L15.0016 8.25233C15.0025 8.00203 15.0035 7.75173 15.0046 7.50143C15.2514 7.50143 15.4982 7.50143 15.7471 7.50143C15.7471 7.24013 15.7471 6.99563 15.7471 6.75143C15.7483 6.50133 15.7497 6.25123 15.7509 6.00123C16.0017 6.00143 16.2525 6.00163 16.5032 6.00163C16.5032 6.24963 16.5032 6.49763 16.5032 6.74533C16.7587 6.74533 16.9992 6.74533 17.2439 6.74533C17.2439 6.49623 17.2439 6.25313 17.2439 6.00333C16.9917 6.00333 16.7465 6.00333 16.5016 6.00333C16.5014 5.75253 16.5011 5.50173 16.5011 5.25093C16.7453 5.25093 16.9893 5.25093 17.2511 5.25093C17.2511 4.98913 17.2511 4.74493 17.2511 4.50073C17.5012 4.49953 17.7513 4.49813 18.0014 4.49693C18.2489 4.49693 18.4964 4.49693 18.7474 4.49693C18.7474 4.24033 18.7474 3.99541 18.7474 3.75072C18.7485 3.50064 18.75 3.25057 18.7511 3.00049C18.9996 3.00119 19.2485 3.00213 19.4976 3.00283ZM18.745 5.25913C18.4926 5.25913 18.2498 5.25913 18.0098 5.25913C18.0098 5.51063 18.0098 5.75373 18.0098 5.99463C18.2594 5.99463 18.4996 5.99463 18.745 5.99463C18.745 5.74833 18.745 5.50803 18.745 5.25913ZM18.7448 6.75913C18.4933 6.75913 18.2505 6.75913 18.0096 6.75913C18.0096 7.01043 18.0096 7.25323 18.0096 7.49513C18.2589 7.49513 18.4989 7.49513 18.7448 7.49513C18.7448 7.24903 18.7448 7.00873 18.7448 6.75913ZM16.5089 7.50663C16.5089 7.75903 16.5089 8.00203 16.5089 8.24183C16.7603 8.24183 17.0034 8.24183 17.2441 8.24183C17.2441 7.99223 17.2441 7.75193 17.2441 7.50663C16.9978 7.50663 16.7575 7.50663 16.5089 7.50663ZM18.0091 8.25663C18.0091 8.50943 18.0091 8.75253 18.0091 8.99183C18.2608 8.99183 18.5036 8.99183 18.7441 8.99183C18.7441 8.74193 18.7441 8.50173 18.7441 8.25663C18.4975 8.25663 18.2573 8.25663 18.0091 8.25663Z" fill="white"/>
<path d="M19.4973 3.00274C19.2481 3.00204 18.9992 3.00111 18.7501 3.00041C18.7501 2.74986 18.7501 2.49908 18.7501 2.24854L18.748 2.25018C18.9917 2.25018 19.2352 2.25018 19.4973 2.25018C19.4973 2.50963 19.4973 2.75618 19.4973 3.00274Z" fill="#C0C0BF"/>
<path d="M1.50012 3.00041C1.25098 3.00111 1.00207 3.00204 0.75293 3.00274C0.75293 2.75899 0.75293 2.51525 0.75293 2.25018C1.0091 2.25018 1.25567 2.25018 1.50223 2.25018L1.50012 2.24854C1.50035 2.49908 1.50035 2.74963 1.50012 3.00041Z" fill="#C0C0BF"/>
<path d="M18.7502 0.753906C18.9947 0.753906 19.2391 0.753906 19.4918 0.753906C19.4918 0.999526 19.4918 1.24211 19.4918 1.50016C19.2448 1.50016 18.9975 1.50016 18.75 1.50016C18.7505 1.25149 18.7505 1.00281 18.7502 0.753906Z" fill="white"/>
<path d="M0.753418 11.9995C1.00279 12 1.25193 12.0005 1.50131 12.0012C1.50131 12.2452 1.50131 12.4889 1.50131 12.7545C1.24045 12.7545 0.996928 12.7545 0.753418 12.7545C0.753418 12.5027 0.753418 12.2513 0.753418 11.9995Z" fill="#C0C0BF"/>
<path d="M18.7497 12.0012C18.9991 12.0007 19.2482 12.0002 19.4976 11.9995C19.4976 12.2513 19.4976 12.5027 19.4976 12.7545C19.248 12.7538 18.9981 12.7533 18.7485 12.7526L18.7502 12.7542C18.7499 12.5032 18.7497 12.2522 18.7497 12.0012Z" fill="#C0C0BF"/>
<path d="M18.75 0.753906C18.75 1.00258 18.75 1.25149 18.75 1.50016C18.5058 1.50016 18.2614 1.50016 18 1.50016C18 1.2475 18 1.0007 18 0.753906C18.2501 0.753906 18.5002 0.753906 18.75 0.753906Z" fill="#F4E600"/>
<path d="M1.5 14.2482C1.5 14.0038 1.5 13.7591 1.5 13.5083C1.75079 13.5083 1.99079 13.5083 2.25 13.5083C2.25 13.7532 2.25 14.0007 2.25 14.2482C1.99993 14.2482 1.75008 14.2482 1.5 14.2482Z" fill="#F4E600"/>
<path d="M4.5 14.2482C4.5 14.0038 4.5 13.7591 4.5 13.5083C4.7508 13.5083 4.9908 13.5083 5.25 13.5083C5.25 13.7532 5.25 14.0007 5.25 14.2482C5 14.2482 4.7501 14.2482 4.5 14.2482Z" fill="#F4E600"/>
<path d="M7.5 14.2482C7.5 14.0038 7.5 13.7591 7.5 13.5083C7.7508 13.5083 7.9908 13.5083 8.25 13.5083C8.25 13.7532 8.25 14.0007 8.25 14.2482C8.0002 14.2482 7.7501 14.2482 7.5 14.2482Z" fill="#F4E600"/>
<path d="M10.5 14.2482C10.5 14.0038 10.5 13.7591 10.5 13.5083C10.7508 13.5083 10.9908 13.5083 11.25 13.5083C11.25 13.7532 11.25 14.0007 11.25 14.2482C11.0002 14.2482 10.7501 14.2482 10.5 14.2482Z" fill="#F4E600"/>
<path d="M13.5 14.2482C13.5 14.0038 13.5 13.7591 13.5 13.5083C13.7508 13.5083 13.9908 13.5083 14.25 13.5083C14.25 13.7532 14.25 14.0007 14.25 14.2482C14.0002 14.2482 13.7501 14.2482 13.5 14.2482Z" fill="#F4E600"/>
<path d="M16.5 14.2482C16.5 14.0038 16.5 13.7591 16.5 13.5083C16.7508 13.5083 16.9908 13.5083 17.25 13.5083C17.25 13.7532 17.25 14.0007 17.25 14.2482C17.0002 14.2482 16.7501 14.2482 16.5 14.2482Z" fill="#F4E600"/>
<path d="M8.24902 9.00279C9.49992 9.00279 10.7507 9.00279 12.0018 9.00279L11.9995 9.00049C11.9995 9.25029 11.9992 9.50039 11.9992 9.75019C10.7495 9.75069 9.50012 9.75089 8.25042 9.75139C8.25062 9.50109 8.25092 9.25079 8.25112 9.00049L8.24902 9.00279Z" fill="#808181"/>
<path d="M2.24902 3.00185C2.49418 3.00185 2.73933 3.00185 2.99902 3.00185C2.99902 3.25591 2.99902 3.50388 2.99902 3.75185L3.00136 3.7495C2.75105 3.74974 2.50074 3.74997 2.25066 3.75021C2.2509 3.49989 2.25113 3.24958 2.25137 2.99927L2.24902 3.00185Z" fill="#808181"/>
<path d="M16.5044 3.75064C16.5044 3.50595 16.5044 3.26103 16.5044 3.00439C16.7554 3.00439 17.0029 3.00439 17.2504 3.00439C17.2502 3.25282 17.2499 3.50126 17.2495 3.7497C17.0012 3.74993 16.7528 3.75017 16.5044 3.75064Z" fill="#F4E600"/>
<path d="M17.2495 3.74975C17.2497 3.50131 17.25 3.25287 17.2505 3.00443C17.501 3.00373 17.7513 3.00279 18.0019 3.00186L17.9997 2.99951C17.9997 3.24936 17.9995 3.49943 17.9995 3.74928C17.7501 3.74998 17.5008 3.75068 17.2514 3.75115L17.2495 3.74975Z" fill="#808181"/>
<path d="M18.7502 2.24829C18.7502 2.49884 18.7502 2.74962 18.7502 3.00017C18.4999 2.99993 18.2496 2.9997 17.9995 2.99946L18.0016 3.00181C18.0016 2.75689 18.0016 2.51173 18.0016 2.24829C18.2547 2.24829 18.5025 2.24829 18.7502 2.24829Z" fill="#808181"/>
<path d="M2.99902 3.75186C3.24418 3.75186 3.48933 3.75186 3.74902 3.75186C3.74902 4.00587 3.74902 4.25387 3.74902 4.50207L3.75136 4.49977C3.50105 4.49997 3.25074 4.50017 3.00066 4.50047C3.0009 4.25017 3.00113 3.99982 3.00136 3.74951L2.99902 3.75186Z" fill="#808181"/>
<path d="M15.7534 4.50108C15.5082 4.50108 15.2633 4.50108 15.0093 4.50108C15.0093 4.25218 15.0093 4.00928 15.0093 3.7583C15.2507 3.7583 15.4935 3.7583 15.7508 3.7583C15.7508 4.00768 15.7508 4.25568 15.7508 4.50338L15.7534 4.50108Z" fill="#F4E600"/>
<path d="M16.5044 3.75069C16.7528 3.75046 17.0013 3.74999 17.2497 3.74976L17.2514 3.7514C17.2511 4.0012 17.2509 4.2511 17.2507 4.5007C17.0003 4.5005 16.75 4.5002 16.5 4.5L16.5023 4.5023C16.5028 4.2516 16.5037 4.001 16.5044 3.75069Z" fill="#808181"/>
<path d="M3.74902 4.50206C3.99418 4.50206 4.23932 4.50206 4.49902 4.50206C4.49902 4.75616 4.49902 5.00406 4.49902 5.25226L4.50132 5.24996C4.25102 5.25016 4.00072 5.25046 3.75066 5.25066C3.7509 5.00036 3.75113 4.75006 3.75136 4.49976L3.74902 4.50206Z" fill="#808181"/>
<path d="M14.2403 5.24819C13.993 5.24819 13.7556 5.24819 13.5093 5.24819C13.5093 5.00279 13.5093 4.75979 13.5093 4.50879C13.7505 4.50879 13.9933 4.50879 14.2403 4.50879C14.2403 4.75599 14.2403 5.00169 14.2403 5.24819Z" fill="#F4E600"/>
<path d="M15.7509 4.5038C16.0012 4.5033 16.2515 4.5026 16.5019 4.5021L16.4995 4.5C16.4997 4.7503 16.5 5.0006 16.5002 5.2509C16.2499 5.2507 15.9996 5.2505 15.7495 5.2502L15.7519 5.2526C15.7523 5.0023 15.7528 4.752 15.7533 4.5016L15.7509 4.5038Z" fill="#808181"/>
<path d="M4.49902 5.25206C4.74422 5.25206 4.98932 5.25206 5.24902 5.25206C5.24902 5.50616 5.24902 5.75406 5.24902 6.00226L5.25132 5.99996C5.00102 6.00016 4.75072 6.00046 4.50062 6.00066C4.50092 5.75036 4.50112 5.50006 4.50132 5.24976L4.49902 5.25206Z" fill="#808181"/>
<path d="M15.0019 6.0023C15.0019 5.7572 15.0019 5.512 15.0019 5.2521C15.2559 5.2521 15.5039 5.2521 15.7519 5.2521L15.7495 5.25C15.7497 5.5003 15.75 5.7506 15.7502 6.0009C15.4999 6.0007 15.2496 6.0005 14.9995 6.0002L15.0019 6.0023Z" fill="#808181"/>
<path d="M5.24902 6.0023C5.49422 6.0023 5.73932 6.0023 5.99902 6.0023C5.99902 6.2564 5.99902 6.5044 5.99902 6.7526L6.00132 6.7502C5.75102 6.7505 5.50072 6.7507 5.25062 6.7509C5.25092 6.5006 5.25112 6.2503 5.25132 6L5.24902 6.0023Z" fill="#808181"/>
<path d="M13.5044 6.75118C13.5044 6.50648 13.5044 6.26158 13.5044 6.00488C13.7554 6.00488 14.0029 6.00488 14.2504 6.00488C14.2502 6.25338 14.2499 6.50178 14.2495 6.75018C14.0012 6.75048 13.7528 6.75068 13.5044 6.75118Z" fill="#F4E600"/>
<path d="M14.2495 6.75024C14.2497 6.50184 14.25 6.25344 14.2505 6.00494C14.501 6.00404 14.7513 6.00334 15.0019 6.00244L14.9995 6.00024C14.9993 6.25034 14.9993 6.50024 14.999 6.75024C14.7497 6.75094 14.5003 6.75144 14.2509 6.75214L14.2495 6.75024Z" fill="#808181"/>
<path d="M1.5 3.00041C1.5 2.74986 1.5 2.49908 1.5 2.24854C1.74493 2.24854 1.98961 2.24854 2.2486 2.24854C2.2486 2.50635 2.2486 2.75407 2.2486 3.00204L2.25071 2.99971C2.00063 2.99971 1.75032 3.00018 1.5 3.00041Z" fill="#808181"/>
<path d="M5.99902 6.7523C6.24422 6.7523 6.48932 6.7523 6.74902 6.7523C6.74902 7.0064 6.74902 7.2544 6.74902 7.5026L6.75132 7.5002C6.50672 7.5002 6.26222 7.5002 6.00132 7.5002C6.00132 7.2394 6.00132 6.9947 6.00132 6.75L5.99902 6.7523Z" fill="#808181"/>
<path d="M12.7534 7.50149C12.5082 7.50149 12.2633 7.50149 12.0093 7.50149C12.0093 7.25259 12.0093 7.00979 12.0093 6.75879C12.2507 6.75879 12.4935 6.75879 12.7508 6.75879C12.7508 7.00819 12.7508 7.25619 12.7508 7.50389L12.7534 7.50149Z" fill="#F4E600"/>
<path d="M13.5042 6.75124C13.7526 6.75094 14.0011 6.75054 14.2495 6.75024L14.2512 6.75194C14.2512 6.99614 14.2512 7.24064 14.2512 7.50054C13.9884 7.50054 13.744 7.50054 13.4995 7.50054L13.5019 7.50284C13.5026 7.25204 13.5033 7.00154 13.5042 6.75124Z" fill="#808181"/>
<path d="M6.74902 7.50261C6.99952 7.50351 7.24992 7.50421 7.50042 7.50521C7.50062 7.75361 7.50092 8.00201 7.50132 8.25051L7.49992 8.25211C7.25012 8.25191 7.00052 8.25161 6.75062 8.25141C6.75092 8.00111 6.75112 7.75081 6.75132 7.50051L6.74902 7.50261Z" fill="#808181"/>
<path d="M7.501 8.25043C7.5007 8.00193 7.5005 7.75353 7.5 7.50513C7.7447 7.50513 7.9894 7.50513 8.2461 7.50513C8.2461 7.75613 8.2461 8.00363 8.2461 8.25133C7.9979 8.25083 7.7494 8.25063 7.501 8.25043Z" fill="#F4E600"/>
<path d="M9.00586 7.50586C9.25426 7.50586 9.49426 7.50586 9.74226 7.50586C9.74226 7.75166 9.74226 7.99476 9.74226 8.24436C9.49736 8.24436 9.25456 8.24436 9.00586 8.24436C9.00586 7.99946 9.00586 7.75916 9.00586 7.50586Z" fill="#F4E600"/>
<path d="M10.5049 8.2424C10.5049 7.9958 10.5049 7.7556 10.5049 7.5083C10.7524 7.5083 10.9952 7.5083 11.2441 7.5083C11.2441 7.7528 11.2441 7.993 11.2441 8.2424C11.0025 8.2424 10.7594 8.2424 10.5049 8.2424Z" fill="#F4E600"/>
<path d="M12.7509 7.50419C13.0012 7.50369 13.2515 7.50299 13.5018 7.50259L13.4995 7.50049C13.4995 7.74509 13.4995 7.98979 13.4995 8.25069C13.2386 8.25069 12.9942 8.25069 12.7495 8.25069L12.7518 8.25299C12.7523 8.00269 12.7527 7.75239 12.7532 7.50209L12.7509 7.50419Z" fill="#808181"/>
<path d="M7.5012 8.25049C7.7496 8.25069 7.998 8.25119 8.2465 8.25139C8.2474 8.50189 8.2481 8.75249 8.2491 9.00299L8.2514 9.00069C8.0011 9.00089 7.7508 9.00119 7.5007 9.00139C7.5005 8.75159 7.5002 8.50169 7.5 8.25209L7.5012 8.25049Z" fill="#808181"/>
<path d="M12.0018 9.00279C12.0018 8.75759 12.0018 8.51249 12.0018 8.25259C12.2559 8.25259 12.5038 8.25259 12.7518 8.25259L12.7495 8.25049C12.7495 8.49509 12.7495 8.73979 12.7495 9.00069C12.4886 9.00069 12.2442 9.00069 11.9995 9.00069L12.0018 9.00279Z" fill="#808181"/>
<path d="M17.245 1.50879C17.245 1.75746 17.245 1.99769 17.245 2.24402C16.9996 2.24402 16.7596 2.24402 16.5098 2.24402C16.5098 2.00332 16.5098 1.76027 16.5098 1.50879C16.7496 1.50879 16.9924 1.50879 17.245 1.50879Z" fill="#F4E600"/>
<path d="M11.9993 9.00051C12.2439 9.00051 12.4884 9.00051 12.7493 9.00051C12.7493 8.73961 12.7493 8.49491 12.7493 8.25021C12.9939 8.25021 13.2384 8.25021 13.4993 8.25021C13.4993 7.98941 13.4993 7.74471 13.4993 7.50001C13.7437 7.50001 13.9882 7.50001 14.2509 7.50001C14.2509 7.24011 14.2509 6.99591 14.2509 6.75141C14.5003 6.75071 14.7496 6.75021 14.999 6.74951L15.0018 6.75211C15.0025 7.00171 15.0035 7.25111 15.0042 7.50071C15.0032 7.75101 15.0023 8.00131 15.0011 8.25171C14.7569 8.25171 14.5127 8.25171 14.2464 8.25171C14.2464 8.51271 14.2464 8.75701 14.2464 9.00121C14.002 9.00121 13.7575 9.00121 13.5004 9.00121C13.5004 9.25851 13.5004 9.50301 13.5004 9.74741C13.2504 9.75001 13.0003 9.75261 12.7502 9.75491C12.5006 9.75421 12.2512 9.75331 12.0016 9.75261L11.999 9.74981C11.9993 9.50041 11.9993 9.25061 11.9993 9.00051Z" fill="#C0C0BF"/>
<path d="M8.25064 9.75144C9.50034 9.75094 10.7498 9.75074 11.9995 9.75024L12.002 9.75314C12.0016 10.0013 12.0011 10.2497 12.0006 10.4979C11.7505 10.5005 11.5005 10.5031 11.2504 10.5054C11.0003 10.5054 10.7505 10.5054 10.5006 10.5054C9.74994 10.5042 8.99924 10.5033 8.24854 10.5021L8.25024 10.5038C8.25024 10.253 8.25044 10.0022 8.25064 9.75144Z" fill="#C0C0BF"/>
<path d="M6.75118 7.50024C6.75098 7.75064 6.75078 8.00094 6.75048 8.25124C6.25158 8.25214 5.75228 8.25284 5.25338 8.25384L5.24818 8.24914C5.24768 7.99974 5.24698 7.75064 5.24658 7.50124C5.24768 7.25114 5.24908 7.00104 5.25028 6.75094C5.50058 6.75074 5.75088 6.75054 6.00098 6.75024C6.00098 6.99494 6.00098 7.23964 6.00098 7.50054C6.26188 7.50024 6.50658 7.50024 6.75118 7.50024Z" fill="#C0C0BF"/>
<path d="M4.49805 8.99832C4.50015 8.74912 4.50225 8.50002 4.50445 8.25112C4.75235 8.25042 5.00035 8.24972 5.24855 8.24902L5.25365 8.25362C5.25135 8.50282 5.24925 8.75222 5.24695 9.00132C4.99895 9.00202 4.75095 9.00272 4.50275 9.00342L4.49805 8.99832Z" fill="#C0C0BF"/>
<path d="M7.4993 8.25212C7.4996 8.50192 7.4998 8.75182 7.5 9.00142C7.2558 9.00142 7.0118 9.00142 6.75 9.00142C6.75 8.73962 6.75 8.49542 6.75 8.25122C6.9999 8.25142 7.2497 8.25162 7.4993 8.25212Z" fill="#C0C0BF"/>
<path d="M15.3752 9.15793C15.6688 9.15793 15.9069 8.91993 15.9069 8.62633C15.9069 8.33273 15.6688 8.09473 15.3752 8.09473C15.0816 8.09473 14.8438 8.33273 14.8438 8.62633C14.8438 8.91993 15.0816 9.15793 15.3752 9.15793Z" fill="#C0C0BF"/>
<path d="M3.74946 9.75219C3.74946 9.50119 3.74969 9.25019 3.74969 8.99919L3.74805 9.00079C3.99789 8.99989 4.24778 8.99919 4.49778 8.99829L4.50248 9.00339C4.50178 9.25139 4.50108 9.49959 4.50038 9.74749C4.25008 9.74919 3.99977 9.75079 3.74946 9.75219Z" fill="#C0C0BF"/>
<path d="M4.50049 9.74776C4.50119 9.49976 4.50189 9.25156 4.50259 9.00356C4.75059 9.00286 4.99849 9.00216 5.24669 9.00146C5.24669 9.24616 5.24669 9.49086 5.24669 9.74776C4.99549 9.74776 4.74799 9.74776 4.50049 9.74776Z" fill="#F4E600"/>
<path d="M7.50049 9.00143C7.75079 9.00123 8.00109 9.00093 8.25119 9.00073C8.25099 9.25103 8.25069 9.50133 8.25049 9.75163C8.00629 9.75163 7.76229 9.75163 7.50049 9.75163C7.50049 9.48963 7.50049 9.24543 7.50049 9.00143Z" fill="#C0C0BF"/>
<path d="M13.5005 9.74776C13.5005 9.50326 13.5005 9.25876 13.5005 9.00146C13.7578 9.00146 14.0021 9.00146 14.2465 9.00146C14.2465 9.24616 14.2465 9.49086 14.2465 9.74776C13.9955 9.74776 13.748 9.74776 13.5005 9.74776Z" fill="#F4E600"/>
<path d="M15.7497 9.00073C16 9.00233 16.2503 9.00373 16.5006 9.00543C16.5013 9.25343 16.502 9.50163 16.5027 9.74953L16.4976 9.75423C16.248 9.75353 15.9981 9.75283 15.7485 9.75233L15.7502 9.75403C15.7499 9.50273 15.7497 9.25173 15.7497 9.00073Z" fill="#C0C0BF"/>
<path d="M2.99951 10.5027C2.99951 10.2582 2.99951 10.014 2.99951 9.75098C3.26248 9.75098 3.5067 9.75098 3.75115 9.75098C3.75115 9.99548 3.75115 10.2397 3.75115 10.5027C3.48818 10.5027 3.24373 10.5027 2.99951 10.5027Z" fill="#C0C0BF"/>
<path d="M6.74267 10.4992C6.49417 10.4992 6.25677 10.4992 6.00977 10.4992C6.00977 10.2547 6.00977 10.0117 6.00977 9.76001C6.24907 9.76001 6.49207 9.76001 6.74267 9.76001C6.74267 10.0025 6.74267 10.2456 6.74267 10.4992Z" fill="#F4E600"/>
<path d="M12.0005 10.498C12.001 10.2498 12.0014 10.0014 12.0019 9.75317C12.2515 9.75387 12.5009 9.75477 12.7505 9.75547C12.7505 9.99947 12.7505 10.2435 12.7505 10.498C12.4946 10.498 12.2475 10.498 12.0005 10.498Z" fill="#F4E600"/>
<path d="M15.7479 9.7522C15.7479 9.9974 15.7479 10.2423 15.7479 10.4945C15.4981 10.4945 15.255 10.4945 15.0059 10.4945C15.0059 10.2498 15.0059 10.0093 15.0059 9.7538C15.2539 9.7538 15.5016 9.7538 15.7496 9.7538L15.7479 9.7522Z" fill="#F4E600"/>
<path d="M17.2467 9.75137C17.2481 10.002 17.2493 10.2525 17.2507 10.5028C17.002 10.5023 16.7531 10.5021 16.5044 10.5016C16.5021 10.2525 16.5 10.0031 16.4976 9.75397L16.5028 9.74927C16.7508 9.74997 16.9987 9.75067 17.2467 9.75137Z" fill="#C0C0BF"/>
<path d="M2.25016 10.5054C2.50047 10.5037 2.75078 10.5023 3.0011 10.5007C3.0011 10.7517 3.00086 11.0027 3.00086 11.2537L3.0025 11.2521C2.75266 11.2528 2.50305 11.2535 2.25321 11.2542L2.24805 11.2495C2.24875 11.0016 2.24946 10.7536 2.25016 10.5054Z" fill="#C0C0BF"/>
<path d="M8.24786 10.5022C8.24786 10.7474 8.24786 10.9923 8.24786 11.2445C7.99806 11.2445 7.75496 11.2445 7.50586 11.2445C7.50586 10.9998 7.50586 10.7593 7.50586 10.5038C7.75386 10.5038 8.00156 10.5038 8.24956 10.5038L8.24786 10.5022Z" fill="#F4E600"/>
<path d="M10.5005 10.5054C10.7503 10.5054 11.0004 10.5054 11.2503 10.5054C11.2503 10.7501 11.2503 10.9945 11.2503 11.2453C10.9997 11.2453 10.7595 11.2453 10.5005 11.2453C10.5005 11.0004 10.5005 10.7529 10.5005 10.5054Z" fill="#F4E600"/>
<path d="M14.2438 11.2466C13.9975 11.2466 13.7575 11.2466 13.5088 11.2466C13.5088 11.0028 13.5088 10.7598 13.5088 10.5093C13.7516 10.5093 13.9944 10.5093 14.2438 10.5093C14.2438 10.7523 14.2438 10.9925 14.2438 11.2466Z" fill="#F4E600"/>
<path d="M16.5044 10.502C16.753 10.5025 17.002 10.5027 17.2506 10.5032L17.249 10.5017C17.2495 10.7507 17.2499 10.9993 17.2504 11.2482C17.0057 11.2482 16.761 11.2482 16.5044 11.2482C16.5044 10.997 16.5044 10.7495 16.5044 10.502Z" fill="#F4E600"/>
<path d="M17.2504 11.2479C17.2499 10.999 17.2495 10.7503 17.249 10.5014C17.5003 10.5014 17.7515 10.5012 18.0025 10.5012L18.0009 10.4995C18.0009 10.7506 18.0011 11.0016 18.0011 11.2526C17.751 11.2509 17.5007 11.2495 17.2504 11.2479Z" fill="#C0C0BF"/>
<path d="M1.49951 12.0028C1.50115 11.7525 1.50256 11.5022 1.5042 11.2519C1.75217 11.2512 2.00014 11.2505 2.24834 11.2498L2.2535 11.2544C2.2535 11.4954 2.2535 11.7361 2.2535 12.0028C1.99287 12.0028 1.74631 12.0028 1.49951 12.0028Z" fill="#C0C0BF"/>
<path d="M3.00049 11.2539C3.24541 11.2539 3.49057 11.2539 3.74276 11.2539C3.74276 11.5037 3.74276 11.747 3.74276 11.9959C3.49807 11.9959 3.2576 11.9959 3.00213 11.9959C3.00213 11.748 3.00213 11.5 3.00213 11.2522L3.00049 11.2539Z" fill="#F4E600"/>
<path d="M6.74206 11.9959C6.49196 11.9959 6.25176 11.9959 6.00586 11.9959C6.00586 11.75 6.00586 11.5098 6.00586 11.2607C6.24816 11.2607 6.49106 11.2607 6.74206 11.2607C6.74206 11.5021 6.74206 11.7449 6.74206 11.9959Z" fill="#F4E600"/>
<path d="M9.00586 11.995C9.00586 11.7496 9.00586 11.5094 9.00586 11.2605C9.24866 11.2605 9.49146 11.2605 9.74226 11.2605C9.74226 11.5023 9.74226 11.7454 9.74226 11.995C9.50016 11.995 9.25996 11.995 9.00586 11.995Z" fill="#F4E600"/>
<path d="M12.0088 11.2571C12.2572 11.2571 12.4972 11.2571 12.7438 11.2571C12.7438 11.5025 12.7438 11.7425 12.7438 11.9924C12.5033 11.9924 12.2603 11.9924 12.0088 11.9924C12.0088 11.7528 12.0088 11.51 12.0088 11.2571Z" fill="#F4E600"/>
<path d="M15.0063 11.9942C15.0063 11.7437 15.0063 11.5035 15.0063 11.2576C15.2524 11.2576 15.4924 11.2576 15.7416 11.2576C15.7416 11.5004 15.7416 11.7435 15.7416 11.9942C15.4997 11.9942 15.2569 11.9942 15.0063 11.9942Z" fill="#F4E600"/>
<path d="M18.3752 12.1583C18.6688 12.1583 18.9069 11.9203 18.9069 11.6268C18.9069 11.3332 18.6688 11.0952 18.3752 11.0952C18.0816 11.0952 17.8438 11.3332 17.8438 11.6268C17.8438 11.9203 18.0816 12.1583 18.3752 12.1583Z" fill="#C0C0BF"/>
<path d="M4.50879 12.0073C4.75739 12.0073 4.99739 12.0073 5.24399 12.0073C5.24399 12.2527 5.24399 12.4929 5.24399 12.7425C5.00329 12.7425 4.76029 12.7425 4.50879 12.7425C4.50879 12.5027 4.50879 12.2597 4.50879 12.0073Z" fill="#F4E600"/>
<path d="M7.50537 12.7433C7.50537 12.4956 7.50537 12.2556 7.50537 12.0088C7.75027 12.0088 7.99047 12.0088 8.24057 12.0088C8.24057 12.2485 8.24057 12.4916 8.24057 12.7433C8.00177 12.7433 7.75867 12.7433 7.50537 12.7433Z" fill="#F4E600"/>
<path d="M10.5103 12.0046C10.7575 12.0046 10.995 12.0046 11.2413 12.0046C11.2413 12.25 11.2413 12.493 11.2413 12.7441C11.0001 12.7441 10.7573 12.7441 10.5103 12.7441C10.5103 12.4968 10.5103 12.2512 10.5103 12.0046Z" fill="#F4E600"/>
<path d="M13.5088 12.0073C13.7574 12.0073 13.9977 12.0073 14.244 12.0073C14.244 12.2527 14.244 12.4929 14.244 12.7425C14.0031 12.7425 13.7603 12.7425 13.5088 12.7425C13.5088 12.5027 13.5088 12.2597 13.5088 12.0073Z" fill="#F4E600"/>
<path d="M17.2427 12.7497C16.9942 12.7497 16.7568 12.7497 16.5098 12.7497C16.5098 12.5052 16.5098 12.2622 16.5098 12.0105C16.7491 12.0105 16.9921 12.0105 17.2427 12.0105C17.2427 12.253 17.2427 12.4958 17.2427 12.7497Z" fill="#F4E600"/>
<path d="M6.00537 13.4936C6.00537 13.2449 6.00537 13.0047 6.00537 12.7583C6.25077 12.7583 6.49077 12.7583 6.74057 12.7583C6.74057 12.999 6.74057 13.2421 6.74057 13.4936C6.50087 13.4936 6.25777 13.4936 6.00537 13.4936Z" fill="#F4E600"/>
<path d="M9.74071 13.4975C9.49551 13.4975 9.25551 13.4975 9.00781 13.4975C9.00781 13.2507 9.00781 13.0077 9.00781 12.7583C9.25091 12.7583 9.49091 12.7583 9.74071 12.7583C9.74071 12.9988 9.74071 13.2418 9.74071 13.4975Z" fill="#F4E600"/>
<path d="M12.7432 13.4998C12.4941 13.4998 12.2566 13.4998 12.0098 13.4998C12.0098 13.2548 12.0098 13.0118 12.0098 12.7603C12.2501 12.7603 12.4929 12.7603 12.7432 12.7603C12.7432 13.0038 12.7432 13.2466 12.7432 13.4998Z" fill="#F4E600"/>
<path d="M15.7418 13.497C15.4934 13.497 15.2534 13.497 15.0068 13.497C15.0068 13.2516 15.0068 13.0116 15.0068 12.7617C15.2473 12.7617 15.4904 12.7617 15.7418 12.7617C15.7418 13.0013 15.7418 13.2441 15.7418 13.497Z" fill="#F4E600"/>
<path d="M18.7479 12.7527C18.7479 12.9978 18.7479 13.2427 18.7479 13.4949C18.4981 13.4949 18.255 13.4949 18.0059 13.4949C18.0059 13.2502 18.0059 13.0098 18.0059 12.7543C18.2539 12.7543 18.5016 12.7543 18.7496 12.7543L18.7479 12.7527Z" fill="#F4E600"/>
<path d="M1.5 3.00046C1.75032 3.00022 2.00063 2.99999 2.25071 2.99976C2.25047 3.25007 2.25024 3.50038 2.25 3.75069C2.00579 3.75069 1.7618 3.75069 1.5 3.75069C1.5 3.48866 1.5 3.24444 1.5 3.00046Z" fill="#C0C0BF"/>
<path d="M3.00119 3.74976C3.00096 4.0001 3.00072 4.2504 3.00049 4.5007C2.75627 4.5007 2.51229 4.5007 2.25049 4.5007C2.25049 4.2389 2.25049 3.99468 2.25049 3.75046C2.50057 3.75022 2.75088 3.74999 3.00119 3.74976Z" fill="#C0C0BF"/>
<path d="M3.75119 4.49976C3.75096 4.75006 3.75072 5.00036 3.75049 5.25066C3.50627 5.25066 3.26229 5.25066 3.00049 5.25066C3.00049 4.98886 3.00049 4.74466 3.00049 4.50046C3.25057 4.50046 3.50088 4.49996 3.75119 4.49976Z" fill="#C0C0BF"/>
<path d="M4.5012 5.25C4.501 5.5003 4.5007 5.7506 4.5005 6.0009C4.2563 6.0009 4.0123 6.0009 3.75049 6.0009C3.75049 5.7391 3.75049 5.4949 3.75049 5.2507C4.0006 5.2505 4.2509 5.2502 4.5012 5.25Z" fill="#C0C0BF"/>
<path d="M5.25119 6C5.25099 6.2503 5.25069 6.5006 5.25049 6.7509C5.00629 6.7509 4.76229 6.7509 4.50049 6.7509C4.50049 6.4891 4.50049 6.2449 4.50049 6.0007C4.75059 6.0007 5.00089 6.0002 5.25119 6Z" fill="#C0C0BF"/>
<path d="M5.24811 8.24912C5.00011 8.24982 4.75211 8.25052 4.50391 8.25122C4.50391 8.00692 4.50391 7.76272 4.50391 7.50122C4.75281 7.50122 4.99961 7.50122 5.24641 7.50122C5.24691 7.75052 5.24761 7.99992 5.24811 8.24912Z" fill="#F4E600"/>
<path d="M3.75007 8.99932C3.50515 8.99932 3.26 8.99932 3.00781 8.99932C3.00781 8.74952 3.00781 8.50622 3.00781 8.25732C3.2525 8.25732 3.49296 8.25732 3.74843 8.25732C3.74843 8.50522 3.74843 8.75322 3.74843 9.00092L3.75007 8.99932Z" fill="#F4E600"/>
<path d="M2.24805 11.2495C2.00008 11.2502 1.75211 11.2509 1.50391 11.2517C1.50391 11.007 1.50391 10.7623 1.50391 10.5054C1.75492 10.5054 2.00242 10.5054 2.24992 10.5054C2.24946 10.7536 2.24875 11.0016 2.24805 11.2495Z" fill="#F4E600"/>
<path d="M17.9995 2.99951C18.2498 2.99975 18.5001 2.99998 18.7502 3.00022C18.749 3.25029 18.7476 3.50037 18.7464 3.75045C18.4982 3.75092 18.25 3.75139 18.0016 3.75186L17.999 3.74904C17.9993 3.49943 17.9993 3.24959 17.9995 2.99951Z" fill="#C0C0BF"/>
<path d="M17.25 4.50067C17.2503 4.25087 17.2505 4.00097 17.2507 3.75139C17.5001 3.75068 17.7495 3.74998 17.9989 3.74951L18.0015 3.75232C18.001 4.00057 18.0005 4.24897 18 4.49717C17.7502 4.49807 17.5001 4.49927 17.25 4.50067Z" fill="#C0C0BF"/>
<path d="M18.0005 4.49703C18.001 4.24873 18.0014 4.00033 18.0019 3.75214C18.2501 3.75167 18.4983 3.7512 18.7467 3.75073C18.7467 3.99542 18.7467 4.24013 18.7467 4.49703C18.4955 4.49703 18.248 4.49703 18.0005 4.49703Z" fill="#F4E600"/>
<path d="M16.5002 5.25066C16.5 5.00036 16.4997 4.75006 16.4995 4.49976C16.7498 4.49996 17.0001 4.50016 17.2502 4.50046C17.2502 4.74466 17.2502 4.98866 17.2502 5.25066C16.9884 5.25066 16.7444 5.25066 16.5002 5.25066Z" fill="#C0C0BF"/>
<path d="M15.7502 6.0009C15.75 5.7506 15.7497 5.5003 15.7495 5.25C15.9998 5.2502 16.2501 5.2505 16.5002 5.2507C16.5004 5.5015 16.5007 5.7523 16.5007 6.003L16.5023 6.0014C16.2518 6.0012 16.001 6.0012 15.7502 6.0009Z" fill="#C0C0BF"/>
<path d="M18.7451 5.25928C18.7451 5.50788 18.7451 5.74818 18.7451 5.99468C18.4997 5.99468 18.2595 5.99468 18.0098 5.99468C18.0098 5.75378 18.0098 5.51068 18.0098 5.25928C18.2498 5.25928 18.4929 5.25928 18.7451 5.25928Z" fill="#F4E600"/>
<path d="M14.999 6.75C14.9993 6.4999 14.9993 6.2501 14.9995 6C15.2498 6.0002 15.5001 6.0005 15.7502 6.0007C15.749 6.2508 15.7476 6.5009 15.7464 6.7509C15.4982 6.7514 15.25 6.7519 15.0016 6.7523L14.999 6.75Z" fill="#C0C0BF"/>
<path d="M16.501 6.00307C16.7459 6.00307 16.9911 6.00307 17.2432 6.00307C17.2432 6.25297 17.2432 6.49626 17.2432 6.74516C16.9986 6.74516 16.7581 6.74516 16.5026 6.74516C16.5026 6.49716 16.5026 6.24916 16.5026 6.00146L16.501 6.00307Z" fill="#F4E600"/>
<path d="M15.0015 6.75262C15.2497 6.75212 15.4979 6.75162 15.7464 6.75122C15.7464 6.99542 15.7464 7.23962 15.7464 7.50122C15.4974 7.50122 15.2506 7.50122 15.0039 7.50122C15.0031 7.25162 15.0024 7.00192 15.0015 6.75262Z" fill="#F4E600"/>
<path d="M18.7445 6.75928C18.7445 7.00888 18.7445 7.24908 18.7445 7.49518C18.4989 7.49518 18.2587 7.49518 18.0093 7.49518C18.0093 7.25328 18.0093 7.01048 18.0093 6.75928C18.2502 6.75928 18.493 6.75928 18.7445 6.75928Z" fill="#F4E600"/>
<path d="M16.5088 7.50659C16.7574 7.50659 16.9977 7.50659 17.244 7.50659C17.244 7.75199 17.244 7.99219 17.244 8.24179C17.0031 8.24179 16.7603 8.24179 16.5088 8.24179C16.5088 8.00199 16.5088 7.75899 16.5088 7.50659Z" fill="#F4E600"/>
<path d="M18.0088 8.25659C18.257 8.25659 18.497 8.25659 18.7438 8.25659C18.7438 8.50169 18.7438 8.74199 18.7438 8.99179C18.5036 8.99179 18.2605 8.99179 18.0088 8.99179C18.0088 8.75249 18.0088 8.50949 18.0088 8.25659Z" fill="#F4E600"/>
<path d="M17.2463 9.75133C16.9983 9.75063 16.7504 9.74993 16.5022 9.74923C16.5015 9.50123 16.5007 9.25303 16.5 9.00513C16.7447 9.00513 16.9894 9.00513 17.2461 9.00513C17.2463 9.25633 17.2463 9.50383 17.2463 9.75133Z" fill="#F4E600"/>
<path d="M18.0026 10.5011C18.0026 10.2559 18.0026 10.011 18.0026 9.75879C18.2525 9.75879 18.4955 9.75879 18.7446 9.75879C18.7446 10.0035 18.7446 10.244 18.7446 10.4994C18.4967 10.4994 18.2489 10.4994 18.001 10.4994L18.0026 10.5011Z" fill="#F4E600"/>
</svg>
