<svg width="16" height="21" viewBox="0 0 16 21" fill="none" xmlns="http://www.w3.org/2000/svg">
<mask id="mask0_666_20211" style="mask-type:luminance" maskUnits="userSpaceOnUse" x="0" y="0" width="16" height="21">
<path d="M15.75 0H0V21H15.75V0Z" fill="white"/>
</mask>
<g mask="url(#mask0_666_20211)">
<path d="M0.0205078 0C4.1713 0 8.3221 0 12.4731 0C12.4731 0.21841 12.4731 0.43682 12.4733 0.65543C12.4733 0.87199 12.4733 1.08855 12.4733 1.31106C12.7019 1.31106 12.9162 1.31106 13.1303 1.31106L13.1289 1.30963C13.1287 1.52886 13.1287 1.74809 13.1285 1.96711C12.9119 1.96711 12.6954 1.96711 12.4733 1.96711C12.4733 2.41336 12.4733 2.84566 12.4733 3.27797C12.4739 3.49576 12.4745 3.71335 12.4749 3.93114C12.2557 3.93176 12.0367 3.93217 11.8174 3.93278L11.8189 3.93422C11.8174 3.71561 11.8158 3.49699 11.8143 3.27838C11.8143 3.05977 11.8143 2.84136 11.8143 2.62274C11.8143 2.40413 11.8143 2.18572 11.8143 1.96711C11.8143 1.7485 11.8143 1.53009 11.8143 1.31147C11.8143 1.09491 11.8143 0.87835 11.8143 0.65933C11.3714 0.65933 10.9393 0.65933 10.507 0.65933C10.2886 0.65933 10.07 0.65933 9.8515 0.65933C9.1961 0.65933 8.5407 0.65933 7.8855 0.65933C7.6671 0.65933 7.4484 0.65933 7.23 0.65933C6.5746 0.65933 5.9192 0.65933 5.2639 0.65933C5.0455 0.65933 4.8269 0.65933 4.6085 0.65933C3.9531 0.65933 3.2977 0.65933 2.6424 0.65933C2.424 0.65933 2.2054 0.65933 1.987 0.65933C1.55224 0.65933 1.11768 0.65933 0.679628 0.65933C0.679628 0.88327 0.679628 1.09737 0.679628 1.31147C0.679628 1.53009 0.679628 1.7485 0.679628 1.96711C0.679628 2.18572 0.679628 2.40413 0.679628 2.62274C0.679628 2.84136 0.679628 3.05977 0.679628 3.27838C0.679628 3.49699 0.679628 3.7154 0.679628 3.93401C0.679628 4.15263 0.679628 4.37104 0.679628 4.58965C0.679628 4.80826 0.679628 5.02667 0.679628 5.24528C0.679628 5.4639 0.679628 5.6823 0.679628 5.90092C0.679628 6.1195 0.679628 6.3379 0.679628 6.5566C0.679628 6.7752 0.679628 6.9936 0.679628 7.2122C0.679628 7.4308 0.679628 7.6492 0.679628 7.8678C0.679628 8.0864 0.679628 8.3048 0.679628 8.5235C0.679628 8.7421 0.679628 8.9605 0.679628 9.1791C0.679628 9.3977 0.679628 9.6161 0.679628 9.8347C0.679628 10.0533 0.679628 10.2717 0.679628 10.4904C0.679628 10.709 0.679628 10.9274 0.679628 11.146C0.679628 11.3646 0.679628 11.583 0.679628 11.8016C0.679628 12.0202 0.679628 12.2387 0.679628 12.4573C0.679628 12.6759 0.679628 12.8943 0.679628 13.1129C0.679628 13.3315 0.679628 13.5499 0.679628 13.7685C0.679628 13.9871 0.679628 14.2056 0.679628 14.4242C0.679628 14.6428 0.679628 14.8612 0.679628 15.0798C0.679628 15.2984 0.679628 15.5168 0.679628 15.7354C0.679628 15.9541 0.679628 16.1725 0.679628 16.3911C0.679628 16.6097 0.679628 16.8281 0.679628 17.0467C0.679628 17.2653 0.679628 17.4837 0.679628 17.7023C0.679628 17.921 0.679628 18.1394 0.679628 18.358C0.679628 18.5766 0.679628 18.795 0.679628 19.0136C0.679418 19.2314 0.679008 19.4494 0.678808 19.6672C0.678398 19.8854 0.678188 20.1036 0.677778 20.3218C0.459788 20.3234 0.241578 20.3251 0.0235777 20.3265C0.0223477 20.2779 0.0205078 20.2301 0.0205078 20.1824C0.0205078 13.455 0.0205078 6.7274 0.0205078 0Z" fill="#808181"/>
<path d="M12.475 3.93094C12.4743 3.71314 12.4737 3.49556 12.4733 3.27776C12.9095 3.27694 13.3457 3.27633 13.7819 3.27551C13.9989 3.27551 14.2159 3.27551 14.4398 3.27551C14.4398 3.0491 14.4398 2.83438 14.4398 2.61987C14.6568 2.61987 14.8738 2.61987 15.0985 2.61987C15.0985 2.8473 15.0985 3.06059 15.0985 3.27797C15.3212 3.27797 15.5358 3.27797 15.7503 3.27797C15.7503 9.1785 15.7503 15.0788 15.7503 20.9793C10.5091 20.9793 5.2677 20.9793 0.0234375 20.9793C0.0234375 20.7543 0.0234375 20.54 0.0234375 20.3255C0.241437 20.3239 0.459637 20.3222 0.677637 20.3208C0.704907 20.3218 0.732188 20.3237 0.759458 20.3237C5.5035 20.3239 10.2476 20.3239 14.9917 20.3239C15.0243 20.3239 15.0571 20.3239 15.0887 20.3239C15.0887 14.854 15.0887 9.3967 15.0887 3.93709C14.8682 3.93709 14.6537 3.93709 14.4394 3.93709C14.221 3.93709 14.0024 3.93709 13.784 3.93709C13.3476 3.93504 12.9112 3.93299 12.475 3.93094Z" fill="#020202"/>
<path d="M12.4749 3.93099C12.9113 3.93305 13.3475 3.9351 13.7839 3.93715C13.7839 4.15268 13.7839 4.36822 13.7839 4.58889C14.0109 4.58889 14.224 4.58889 14.437 4.58889C14.437 4.8077 14.437 5.02673 14.437 5.24555C14.2205 5.24555 14.0039 5.24555 13.7894 5.24555C13.7894 5.47134 13.7894 5.68175 13.7894 5.90016C14.0088 5.90016 14.2229 5.90016 14.437 5.90016C14.437 6.11896 14.437 6.33796 14.437 6.55686C14.2205 6.55686 14.0039 6.55686 13.7894 6.55686C13.7894 6.78256 13.7894 6.99306 13.7894 7.21146C14.0088 7.21146 14.2229 7.21146 14.437 7.21146C14.437 7.43026 14.437 7.64926 14.437 7.86806C14.2205 7.86806 14.0039 7.86806 13.7894 7.86806C13.7894 8.09386 13.7894 8.30426 13.7894 8.52266C14.0088 8.52266 14.2229 8.52266 14.437 8.52266C14.437 8.74156 14.437 8.96056 14.437 9.17936C14.2205 9.17936 14.0039 9.17936 13.7894 9.17936C13.7894 9.40516 13.7894 9.61556 13.7894 9.83396C14.0088 9.83396 14.2229 9.83396 14.437 9.83396C14.437 10.0528 14.437 10.2718 14.437 10.4907C14.2205 10.4907 14.0039 10.4907 13.7894 10.4907C13.7894 10.7165 13.7894 10.9269 13.7894 11.1453C14.0088 11.1453 14.2229 11.1453 14.437 11.1453C14.437 11.3641 14.437 11.5831 14.437 11.8019C14.2205 11.8019 14.0039 11.8019 13.7894 11.8019C13.7894 12.0277 13.7894 12.2381 13.7894 12.4565C14.0088 12.4565 14.2229 12.4565 14.437 12.4565C14.437 12.6754 14.437 12.8944 14.437 13.1132C14.2205 13.1132 14.0039 13.1132 13.7894 13.1132C13.7894 13.339 13.7894 13.5494 13.7894 13.7678C14.0088 13.7678 14.2229 13.7678 14.437 13.7678C14.437 13.9866 14.437 14.2057 14.437 14.4245C14.2205 14.4245 14.0039 14.4245 13.7894 14.4245C13.7894 14.6503 13.7894 14.8607 13.7894 15.0791C14.0088 15.0791 14.2229 15.0791 14.437 15.0791C14.437 15.2979 14.437 15.5169 14.437 15.7357C14.2205 15.7357 14.0039 15.7357 13.7894 15.7357C13.7894 15.9615 13.7894 16.1719 13.7894 16.3904C14.0088 16.3904 14.2229 16.3904 14.437 16.3904C14.437 16.6092 14.437 16.8282 14.437 17.047C14.2205 17.047 14.0039 17.047 13.7894 17.047C13.7894 17.2728 13.7894 17.4832 13.7894 17.7016C14.0088 17.7016 14.2229 17.7016 14.437 17.7016C14.437 17.9204 14.437 18.1395 14.437 18.3583C14.2205 18.3583 14.0039 18.3583 13.7894 18.3583C13.7894 18.5841 13.7894 18.7945 13.7894 19.0129C14.0088 19.0129 14.2229 19.0129 14.437 19.0129C14.437 19.229 14.437 19.4452 14.437 19.6669C13.991 19.6669 13.5595 19.6669 13.1278 19.6669C13.1278 19.4501 13.1278 19.2336 13.1278 19.019C12.902 19.019 12.6918 19.019 12.4734 19.019C12.4734 19.2387 12.4734 19.4528 12.4734 19.6669C11.8176 19.6669 11.1619 19.6669 10.5061 19.6669C10.5061 19.4501 10.5061 19.2336 10.5061 19.019C10.2803 19.019 10.0701 19.019 9.8517 19.019C9.8517 19.2387 9.8517 19.4528 9.8517 19.6669C9.1959 19.6669 8.54021 19.6669 7.88441 19.6669C7.88441 19.4501 7.88441 19.2336 7.88441 19.019C7.65861 19.019 7.4484 19.019 7.23 19.019C7.23 19.2387 7.23 19.4528 7.23 19.6669C6.5741 19.6669 5.9185 19.6669 5.2627 19.6669C5.2627 19.4501 5.2627 19.2336 5.2627 19.019C5.0369 19.019 4.8267 19.019 4.6083 19.019C4.6083 19.2387 4.6083 19.4528 4.6083 19.6669C3.9524 19.6669 3.2968 19.6669 2.6409 19.6669C2.6409 19.4501 2.6409 19.2336 2.6409 19.019C2.4152 19.019 2.205 19.019 1.98654 19.019C1.98654 19.2387 1.98654 19.4528 1.98654 19.6669C1.55034 19.6669 1.11414 19.6669 0.677734 19.6671C0.677944 19.4493 0.678355 19.2313 0.678555 19.0135C0.894915 19.0135 1.11106 19.0135 1.32517 19.0135C1.32517 18.7871 1.32517 18.5769 1.32517 18.3579C1.10614 18.3579 0.892255 18.3579 0.678555 18.3579C0.678555 18.1393 0.678555 17.9208 0.678555 17.7022C0.894915 17.7022 1.11106 17.7022 1.32517 17.7022C1.32517 17.4758 1.32517 17.2656 1.32517 17.0466C1.10614 17.0466 0.892255 17.0466 0.678555 17.0466C0.678555 16.828 0.678555 16.6096 0.678555 16.391C0.894915 16.391 1.11106 16.391 1.32517 16.391C1.32517 16.1646 1.32517 15.9544 1.32517 15.7353C1.10614 15.7353 0.892255 15.7353 0.678555 15.7353C0.678555 15.5167 0.678555 15.2983 0.678555 15.0797C0.894915 15.0797 1.11106 15.0797 1.32517 15.0797C1.32517 14.8533 1.32517 14.6431 1.32517 14.4241C1.10614 14.4241 0.892255 14.4241 0.678555 14.4241C0.678555 14.2054 0.678555 13.987 0.678555 13.7684C0.894915 13.7684 1.11106 13.7684 1.32517 13.7684C1.32517 13.542 1.32517 13.3318 1.32517 13.1128C1.10614 13.1128 0.892255 13.1128 0.678555 13.1128C0.678555 12.8942 0.678555 12.6758 0.678555 12.4572C0.894915 12.4572 1.11106 12.4572 1.32517 12.4572C1.32517 12.2308 1.32517 12.0205 1.32517 11.8015C1.10614 11.8015 0.892255 11.8015 0.678555 11.8015C0.678555 11.5829 0.678555 11.3645 0.678555 11.1459C0.894915 11.1459 1.11106 11.1459 1.32517 11.1459C1.32517 10.9195 1.32517 10.7093 1.32517 10.4903C1.10614 10.4903 0.892255 10.4903 0.678555 10.4903C0.678555 10.2716 0.678555 10.0532 0.678555 9.83456C0.894915 9.83456 1.11106 9.83456 1.32517 9.83456C1.32517 9.60816 1.32517 9.39796 1.32517 9.17896C1.10614 9.17896 0.892255 9.17896 0.678555 9.17896C0.678555 8.96036 0.678555 8.74196 0.678555 8.52326C0.894915 8.52326 1.11106 8.52326 1.32517 8.52326C1.32517 8.29686 1.32517 8.08666 1.32517 7.86766C1.10614 7.86766 0.892255 7.86766 0.678555 7.86766C0.678555 7.64906 0.678555 7.43066 0.678555 7.21206C0.894915 7.21206 1.11106 7.21206 1.32517 7.21206C1.32517 6.98566 1.32517 6.77546 1.32517 6.55636C1.10614 6.55636 0.892255 6.55636 0.678555 6.55636C0.678555 6.33776 0.678555 6.11936 0.678555 5.90077C0.894915 5.90077 1.11106 5.90077 1.32517 5.90077C1.32517 5.67436 1.32517 5.46416 1.32517 5.24514C1.10614 5.24514 0.892255 5.24514 0.678555 5.24514C0.678555 5.02652 0.678555 4.80811 0.678555 4.5895C0.894915 4.5895 1.11106 4.5895 1.32517 4.5895C1.32517 4.36309 1.32517 4.15289 1.32517 3.93387C1.10614 3.93387 0.892255 3.93387 0.678555 3.93387C0.678555 3.71525 0.678555 3.49684 0.678555 3.27823C0.894915 3.27823 1.11106 3.27823 1.32517 3.27823C1.32517 3.05183 1.32517 2.84162 1.32517 2.6226C1.10614 2.6226 0.892255 2.6226 0.678555 2.6226C0.678555 2.40398 0.678555 2.18558 0.678555 1.96696C0.894915 1.96696 1.11106 1.96696 1.32517 1.96696C1.32517 1.74056 1.32517 1.53035 1.32517 1.31133C1.10614 1.31133 0.892255 1.31133 0.678555 1.31133C0.678555 1.09723 0.678555 0.88312 0.678555 0.65918C1.1166 0.65918 1.55117 0.65918 1.98594 0.65918C1.98594 0.87554 1.98594 1.09189 1.98594 1.306C2.21231 1.306 2.42231 1.306 2.64141 1.306C2.64141 1.08697 2.64141 0.87308 2.64141 0.65918C3.29681 0.65918 3.9522 0.65918 4.6074 0.65918C4.6074 0.87554 4.6074 1.09189 4.6074 1.306C4.8338 1.306 5.04381 1.306 5.26291 1.306C5.26291 1.08697 5.26291 0.87308 5.26291 0.65918C5.9183 0.65918 6.5737 0.65918 7.229 0.65918C7.229 0.87554 7.229 1.09189 7.229 1.306C7.4554 1.306 7.66541 1.306 7.88441 1.306C7.88441 1.08697 7.88441 0.87308 7.88441 0.65918C8.5398 0.65918 9.1952 0.65918 9.8505 0.65918C9.8505 0.87554 9.8505 1.09189 9.8505 1.306C10.0769 1.306 10.2869 1.306 10.5059 1.306C10.5059 1.08697 10.5059 0.87308 10.5059 0.65918C10.9382 0.65918 11.3703 0.65918 11.8133 0.65918C11.8133 0.8782 11.8133 1.09476 11.8133 1.31133C11.5969 1.31133 11.3808 1.31133 11.1667 1.31133C11.1667 1.53773 11.1667 1.74794 11.1667 1.96696C11.3857 1.96696 11.5996 1.96696 11.8133 1.96696C11.8133 2.18558 11.8133 2.40398 11.8133 2.6226C11.5969 2.6226 11.3808 2.6226 11.1667 2.6226C11.1667 2.849 11.1667 3.05921 11.1667 3.27823C11.3857 3.27823 11.5996 3.27823 11.8133 3.27823C11.8147 3.49684 11.8163 3.71546 11.8178 3.93407C11.6012 3.93407 11.3849 3.93407 11.1681 3.93407C11.1681 4.15863 11.1681 4.37089 11.1681 4.58212C11.3871 4.58212 11.5994 4.58212 11.8163 4.58212C11.8163 4.36084 11.8163 4.14674 11.8163 3.93264C12.0364 3.93202 12.2556 3.93141 12.4749 3.93099ZM8.5402 17.0525C8.5402 17.266 8.5402 17.4795 8.5402 17.6951C8.7642 17.6951 8.9766 17.6951 9.1934 17.6951C9.1934 17.4748 9.1934 17.2607 9.1934 17.0468C9.1934 16.8274 9.1936 16.6081 9.1936 16.3887C9.1936 15.9527 9.1936 15.5167 9.1936 15.0805C9.1936 14.8644 9.1936 14.648 9.1936 14.4257C8.9666 14.4257 8.7527 14.4257 8.539 14.4257C8.321 14.4239 8.103 14.4218 7.8852 14.42C7.8852 14.2059 7.8852 13.9918 7.8852 13.774C7.6627 13.774 7.45001 13.774 7.23061 13.774C7.23061 13.9944 7.23061 14.2089 7.23061 14.4232V14.4245C7.01161 14.4251 6.7925 14.4255 6.5735 14.4261C6.3574 14.4261 6.1412 14.4261 5.9263 14.4261C5.9263 14.6492 5.9263 14.8615 5.9263 15.0785C6.1474 15.0785 6.3611 15.0785 6.575 15.0785C6.5737 15.2973 6.5725 15.5159 6.57111 15.7347C6.35701 15.7347 6.1431 15.7347 5.9253 15.7347C5.9253 15.9574 5.9253 16.1701 5.9253 16.3895C6.1457 16.3895 6.36 16.3895 6.5743 16.3895H6.5756C6.5752 16.609 6.5748 16.8282 6.5741 17.0476C6.3574 17.0476 6.1406 17.0476 5.924 17.0476C5.924 17.2712 5.924 17.4814 5.924 17.6955C6.1416 17.6955 6.3543 17.6955 6.5729 17.6955C6.5729 17.475 6.5729 17.2607 6.5729 17.0462C6.7923 17.0454 7.012 17.0443 7.2314 17.0435C7.666 17.0441 8.1007 17.045 8.5353 17.0456L8.5402 17.0525ZM11.1626 9.17726C11.1626 9.39386 11.1626 9.61046 11.1626 9.82716C11.3871 9.82716 11.5992 9.82716 11.8104 9.82716C11.8104 9.60796 11.8104 9.39576 11.8104 9.17876C11.5891 9.17876 11.3752 9.17876 11.1611 9.17876C11.1611 8.95976 11.1611 8.74066 11.1611 8.52146L11.1634 8.52496C11.3799 8.52496 11.5967 8.52496 11.8127 8.52496C11.8127 8.29736 11.8127 8.08706 11.8127 7.86726C11.5936 7.86726 11.3797 7.86726 11.1658 7.86726C11.1658 7.64866 11.1658 7.43026 11.1658 7.21166C11.3799 7.21166 11.5938 7.21166 11.8116 7.21166C11.8116 6.98896 11.8116 6.77626 11.8116 6.55686C11.5912 6.55686 11.3769 6.55686 11.1626 6.55686H11.1613C11.1617 6.33736 11.1621 6.11816 11.1628 5.89872C11.3795 5.89872 11.5963 5.89872 11.8129 5.89872C11.8129 5.67518 11.8129 5.46477 11.8129 5.25088C11.5953 5.25088 11.3826 5.25088 11.1642 5.25088C11.1642 5.47134 11.1642 5.68585 11.1642 5.90016C10.9448 5.90036 10.7255 5.90036 10.5061 5.90057L10.5069 5.90139C10.5061 5.68216 10.5053 5.46313 10.5045 5.24391C10.5045 5.02775 10.5045 4.8116 10.5045 4.59196C10.2801 4.59196 10.0664 4.59196 9.8527 4.59196C9.6345 4.5895 9.41611 4.58683 9.19791 4.58437C9.19791 4.37068 9.19791 4.15699 9.19791 3.93961C8.97401 3.93961 8.7617 3.93961 8.539 3.93961C8.539 4.15925 8.539 4.37294 8.539 4.58683C7.885 4.58683 7.231 4.58683 6.577 4.58683C6.577 4.37089 6.577 4.15494 6.577 3.94104C6.3486 3.94104 6.1365 3.94104 5.9228 3.94104C5.9228 4.16191 5.9228 4.3756 5.9228 4.5893C5.9216 4.80668 5.9204 5.02427 5.9193 5.24165C5.70071 5.24308 5.4821 5.24432 5.2635 5.24575C5.2635 5.02939 5.2635 4.81283 5.2635 4.59606C5.03931 4.59606 4.82711 4.59606 4.61611 4.59606C4.61611 4.81509 4.61611 5.02734 4.61611 5.24432C4.83711 5.24432 5.051 5.24432 5.2649 5.24432C5.2649 5.46108 5.2649 5.67785 5.2649 5.90385C5.03951 5.90385 4.8269 5.90385 4.605 5.90385C4.605 6.12596 4.605 6.33866 4.605 6.55966C4.3814 6.55966 4.1673 6.55966 3.95321 6.55966C3.73651 6.55966 3.5197 6.55966 3.3027 6.55966C3.3027 6.78136 3.3027 6.99156 3.3027 7.21186C3.5216 7.21186 3.7357 7.21186 3.9498 7.21186C3.951 7.43066 3.9522 7.64926 3.9537 7.86806C3.7373 7.86806 3.5209 7.86806 3.3046 7.86806C3.3046 8.09246 3.3046 8.30466 3.3046 8.52046C3.525 8.52046 3.7387 8.52046 3.9524 8.52046C4.17141 8.52106 4.3905 8.52146 4.6095 8.52206V8.52326C4.6095 8.73966 4.6095 8.95606 4.6095 9.17176C4.8341 9.17176 5.0461 9.17176 5.2633 9.17176C5.2633 8.95106 5.2633 8.73716 5.2633 8.52326V8.52206C5.4823 8.52146 5.7013 8.52106 5.9204 8.52046C6.1367 8.52046 6.35311 8.52046 6.56701 8.52046C6.56701 8.29626 6.56701 8.08386 6.56701 7.86706C6.3481 7.86706 6.1371 7.86706 5.9261 7.86706L5.9191 7.86216C5.9204 7.64536 5.92161 7.42856 5.92301 7.21186C6.13861 7.21186 6.3543 7.21186 6.5723 7.21186C6.5723 6.98396 6.5723 6.77046 6.5723 6.55726C6.5735 6.33946 6.5746 6.12166 6.5758 5.90385C6.794 5.90385 7.0122 5.90405 7.2304 5.90405C7.2304 6.11976 7.2304 6.33556 7.2304 6.55536C7.4586 6.55536 7.6721 6.55536 7.8856 6.55536H7.8868C7.8864 6.77486 7.886 6.99406 7.8854 7.21346C7.6686 7.21346 7.4519 7.21346 7.2353 7.21346C7.2353 7.43706 7.2353 7.64726 7.2353 7.86136C7.4529 7.86136 7.66561 7.86136 7.8842 7.86136C7.8842 7.64086 7.8842 7.42656 7.8842 7.21206C8.1022 7.21226 8.32 7.21246 8.538 7.21266C8.538 7.64926 8.538 8.08566 8.538 8.52226C8.3202 8.52356 8.1026 8.52476 7.8848 8.52576C7.6686 8.52576 7.45251 8.52576 7.23761 8.52576C7.23761 8.74886 7.23761 8.96116 7.23761 9.17816C7.45861 9.17816 7.6723 9.17816 7.8862 9.17816C7.885 9.39656 7.8838 9.61516 7.8825 9.83356C7.6674 9.83356 7.4521 9.83356 7.2329 9.83356C7.2329 10.0651 7.2329 10.2784 7.2329 10.4915C7.2329 11.3635 7.2329 12.2353 7.2329 13.1116C7.6764 13.1116 8.10921 13.1116 8.54191 13.1116C8.54191 13.3279 8.54191 13.5445 8.54191 13.7613C8.76601 13.7613 8.9783 13.7613 9.18931 13.7613C9.18931 13.5422 9.18931 13.33 9.18931 13.113C8.96821 13.113 8.7543 13.113 8.5404 13.113C8.5419 12.8942 8.5433 12.6756 8.54451 12.4567C8.76091 12.4567 8.977 12.4567 9.1911 12.4567C9.1911 12.2303 9.1911 12.0201 9.1911 11.8011C8.9721 11.8011 8.75821 11.8011 8.54451 11.8011C8.54451 11.5846 8.54451 11.368 8.54451 11.1422C8.76601 11.1422 8.9787 11.1422 9.2004 11.1422C9.2004 10.9203 9.2004 10.7074 9.2004 10.4866C9.4237 10.4866 9.6378 10.4866 9.8519 10.4866C10.0683 10.4866 10.2848 10.4866 10.5038 10.4866C10.5038 10.2624 10.5038 10.0483 10.5038 9.83436C10.5061 9.61596 10.5084 9.39756 10.5104 9.17896C10.7276 9.17836 10.945 9.17796 11.1626 9.17726ZM3.9457 1.96225C3.9457 1.74158 3.9457 1.52912 3.9457 1.31933C3.7258 1.31933 3.5133 1.31933 3.3027 1.31933C3.3027 1.53753 3.3027 1.74773 3.3027 1.96225C3.5181 1.96225 3.7283 1.96225 3.9457 1.96225ZM6.5672 1.96245C6.5672 1.74138 6.5672 1.52891 6.5672 1.31953C6.3473 1.31953 6.1347 1.31953 5.9247 1.31953C5.9247 1.53794 5.9247 1.74814 5.9247 1.96245C6.14 1.96245 6.35 1.96245 6.5672 1.96245ZM8.54491 1.95937C8.76621 1.95937 8.97871 1.95937 9.18771 1.95937C9.18771 1.73933 9.18771 1.52666 9.18771 1.31686C8.9692 1.31686 8.75921 1.31686 8.54491 1.31686C8.54491 1.53261 8.54491 1.74261 8.54491 1.95937ZM1.99393 1.97147C1.99393 2.19234 1.99393 2.4048 1.99393 2.61439C2.2138 2.61439 2.4262 2.61439 2.6366 2.61439C2.6366 2.39599 2.6366 2.18599 2.6366 1.97147C2.4211 1.97147 2.2111 1.97147 1.99393 1.97147ZM5.2557 2.6187C5.2557 2.39578 5.2557 2.18311 5.2557 1.97209C5.0377 1.97209 4.8275 1.97209 4.6144 1.97209C4.6144 2.18988 4.6144 2.40234 4.6144 2.6187C4.8306 2.6187 5.04061 2.6187 5.2557 2.6187ZM7.23701 1.97127C7.23701 2.19214 7.23701 2.4046 7.23701 2.61419C7.45681 2.61419 7.6693 2.61419 7.8797 2.61419C7.8797 2.39578 7.8797 2.18578 7.8797 1.97127C7.6643 1.97127 7.45431 1.97127 7.23701 1.97127ZM10.5026 1.97455C10.2807 1.97455 10.0683 1.97455 9.8562 1.97455C9.8562 2.19234 9.8562 2.40255 9.8562 2.61665C10.0736 2.61665 10.2861 2.61665 10.5026 2.61665C10.5026 2.4007 10.5026 2.1907 10.5026 1.97455ZM3.3046 2.6269C3.3046 2.84777 3.3046 3.06023 3.3046 3.26982C3.5244 3.26982 3.7369 3.26982 3.9473 3.26982C3.9473 3.05142 3.9473 2.84141 3.9473 2.6269C3.732 2.6269 3.522 2.6269 3.3046 2.6269ZM6.5696 2.62813C6.3522 2.62813 6.14001 2.62813 5.9257 2.62813C5.9257 2.84654 5.9257 3.059 5.9257 3.27044C6.14491 3.27044 6.3574 3.27044 6.5696 3.27044C6.5696 3.05285 6.5696 2.84285 6.5696 2.62813ZM8.5478 2.6269C8.5478 2.84757 8.5478 3.06023 8.5478 3.26982C8.7677 3.26982 8.98011 3.26982 9.19051 3.26982C9.19051 3.05162 9.19051 2.84141 9.19051 2.6269C8.97521 2.6269 8.7652 2.6269 8.5478 2.6269ZM1.99331 3.28315C1.99331 3.50218 1.99331 3.71484 1.99331 3.92607C2.2125 3.92607 2.425 3.92607 2.6373 3.92607C2.6373 3.70828 2.6373 3.49828 2.6373 3.28315C2.4223 3.28315 2.2123 3.28315 1.99331 3.28315ZM4.6101 3.9271C4.8318 3.9271 5.0443 3.9271 5.2561 3.9271C5.2561 3.70808 5.2561 3.49541 5.2561 3.28623C5.0361 3.28623 4.8236 3.28623 4.6101 3.28623C4.6101 3.50238 4.6101 3.71013 4.6101 3.9271ZM7.87951 3.92894C7.87951 3.70664 7.87951 3.49664 7.87951 3.28479C7.6613 3.28479 7.4488 3.28479 7.2374 3.28479C7.2374 3.50402 7.2374 3.71669 7.2374 3.92894C7.455 3.92894 7.66501 3.92894 7.87951 3.92894ZM10.4995 3.92915C10.4995 3.70828 10.4995 3.49582 10.4995 3.28623C10.2797 3.28623 10.0672 3.28623 9.8568 3.28623C9.8568 3.50464 9.8568 3.71464 9.8568 3.92915C10.0724 3.92915 10.2824 3.92915 10.4995 3.92915ZM3.9477 3.94043C3.7287 3.94043 3.51621 3.94043 3.30501 3.94043C3.30501 4.15966 3.30501 4.37232 3.30501 4.58458C3.52261 4.58458 3.7328 4.58458 3.9477 4.58458C3.9477 4.36945 3.9477 4.15945 3.9477 3.94043ZM2.6346 5.24062C2.6346 5.01934 2.6346 4.80668 2.6346 4.5977C2.4145 4.5977 2.2021 4.5977 1.99229 4.5977C1.99229 4.81611 1.99229 5.02632 1.99229 5.24062C2.2078 5.24062 2.4178 5.24062 2.6346 5.24062ZM13.1239 4.59463C12.902 4.59463 12.692 4.59463 12.4794 4.59463C12.4794 4.81263 12.4794 5.02509 12.4794 5.23755C12.6982 5.23755 12.9106 5.23755 13.1239 5.23755C13.1239 5.02037 13.1239 4.81016 13.1239 4.59463ZM3.9487 5.25252C3.7268 5.25252 3.51441 5.25252 3.30231 5.25252C3.30231 5.47031 3.30231 5.68052 3.30231 5.89462C3.51971 5.89462 3.7322 5.89462 3.9487 5.89462C3.9487 5.67867 3.9487 5.46867 3.9487 5.25252ZM2.6338 6.55246C2.6338 6.32896 2.6338 6.11626 2.6338 5.9061C2.4156 5.9061 2.2054 5.9061 1.9929 5.9061C1.9929 6.12406 1.9929 6.33676 1.9929 6.55246C2.2095 6.55246 2.4195 6.55246 2.6338 6.55246ZM12.4779 6.54926C12.6974 6.54926 12.9098 6.54926 13.1206 6.54926C13.1206 6.32976 13.1206 6.11716 13.1206 5.90549C12.9029 5.90549 12.6929 5.90549 12.4779 5.90549C12.4779 6.12066 12.4779 6.33066 12.4779 6.54926ZM2.6348 7.86276C2.6348 7.64206 2.6348 7.42966 2.6348 7.21986C2.415 7.21986 2.20251 7.21986 1.99189 7.21986C1.99189 7.43806 1.99189 7.64826 1.99189 7.86276C2.20741 7.86276 2.4174 7.86276 2.6348 7.86276ZM13.1227 7.86256C13.1227 7.64026 13.1227 7.43026 13.1227 7.21836C12.9045 7.21836 12.692 7.21836 12.4806 7.21836C12.4806 7.43766 12.4806 7.65026 12.4806 7.86256C12.6982 7.86256 12.9082 7.86256 13.1227 7.86256ZM1.99393 8.52746C1.99393 8.74826 1.99393 8.96076 1.99393 9.17036C2.2138 9.17036 2.4262 9.17036 2.6366 9.17036C2.6366 8.95196 2.6366 8.74196 2.6366 8.52746C2.4211 8.52746 2.2111 8.52746 1.99393 8.52746ZM12.4777 8.52676C12.4777 8.74806 12.4777 8.95826 12.4777 9.17276C12.6951 9.17276 12.9076 9.17276 13.1217 9.17276C13.1217 8.95436 13.1217 8.74196 13.1217 8.52676C12.9051 8.52676 12.6951 8.52676 12.4777 8.52676ZM3.9479 9.18426C3.7305 9.18426 3.5183 9.18426 3.304 9.18426C3.304 9.40266 3.304 9.61516 3.304 9.82656C3.5232 9.82656 3.7357 9.82656 3.9479 9.82656C3.9479 9.60896 3.9479 9.39876 3.9479 9.18426ZM6.56631 9.83026C6.56631 9.60736 6.56631 9.39466 6.56631 9.18366C6.34831 9.18366 6.1381 9.18366 5.92511 9.18366C5.92511 9.40146 5.92511 9.61396 5.92511 9.83026C6.14141 9.83026 6.35141 9.83026 6.56631 9.83026ZM1.99331 9.83906C1.99331 10.0582 1.99331 10.2708 1.99331 10.4821C2.2125 10.4821 2.425 10.4821 2.6373 10.4821C2.6373 10.2643 2.6373 10.0543 2.6373 9.83906C2.4223 9.83906 2.2123 9.83906 1.99331 9.83906ZM5.2582 10.4853C5.2582 10.2634 5.2582 10.0532 5.2582 9.84056C5.0402 9.84056 4.8277 9.84056 4.61541 9.84056C4.61541 10.0596 4.61541 10.2721 4.61541 10.4853C4.83281 10.4853 5.0428 10.4853 5.2582 10.4853ZM13.1239 9.84136C12.9033 9.84136 12.6906 9.84136 12.4812 9.84136C12.4812 10.0612 12.4812 10.2739 12.4812 10.4843C12.6994 10.4843 12.9096 10.4843 13.1239 10.4843C13.1239 10.2688 13.1239 10.0588 13.1239 9.84136ZM3.9442 11.1432C3.9442 10.9277 3.9442 10.7128 3.9442 10.4966C3.7283 10.4966 3.5158 10.4966 3.3052 10.4966C3.3052 10.716 3.3052 10.9287 3.3052 11.1432C3.5205 11.1432 3.7281 11.1432 3.9442 11.1432ZM5.9261 10.4946C5.9261 10.7146 5.9261 10.9273 5.9261 11.1375C6.1457 11.1375 6.3582 11.1375 6.5692 11.1375C6.5692 10.9195 6.5692 10.7093 6.5692 10.4946C6.3539 10.4946 6.1439 10.4946 5.9261 10.4946ZM11.1667 11.1381C11.3877 11.1381 11.6002 11.1381 11.8094 11.1381C11.8094 10.918 11.8094 10.7056 11.8094 10.4954C11.591 10.4954 11.381 10.4954 11.1667 10.4954C11.1667 10.7109 11.1667 10.9209 11.1667 11.1381ZM1.99105 11.7937C2.2117 11.7937 2.4242 11.7937 2.6338 11.7937C2.6338 11.5739 2.6338 11.3612 2.6338 11.1508C2.4156 11.1508 2.2054 11.1508 1.99105 11.1508C1.99105 11.3663 1.99105 11.5763 1.99105 11.7937ZM4.6144 11.1471C4.6144 11.3686 4.6144 11.5811 4.6144 11.7937C4.8332 11.7937 5.0457 11.7937 5.2555 11.7937C5.2555 11.5739 5.2555 11.3612 5.2555 11.1471C5.0397 11.1471 4.8322 11.1471 4.6144 11.1471ZM10.5022 11.1525C10.2817 11.1525 10.0693 11.1525 9.85951 11.1525C9.85951 11.3723 9.85951 11.5848 9.85951 11.7956C10.0777 11.7956 10.2877 11.7956 10.5022 11.7956C10.5022 11.5802 10.5022 11.37 10.5022 11.1525ZM13.1211 11.7964C13.1211 11.5757 13.1211 11.3631 13.1211 11.1535C12.9012 11.1535 12.6887 11.1535 12.4783 11.1535C12.4783 11.3717 12.4783 11.5819 12.4783 11.7964C12.6939 11.7964 12.9039 11.7964 13.1211 11.7964ZM3.3019 12.4494C3.5226 12.4494 3.735 12.4494 3.9446 12.4494C3.9446 12.2295 3.9446 12.0169 3.9446 11.8064C3.7264 11.8064 3.5164 11.8064 3.3019 11.8064C3.3019 12.0218 3.3019 12.232 3.3019 12.4494ZM5.9263 11.8054C5.9263 12.0263 5.9263 12.2387 5.9263 12.4483C6.1461 12.4483 6.3586 12.4483 6.56901 12.4483C6.56901 12.2299 6.56901 12.0199 6.56901 11.8054C6.35351 11.8054 6.1435 11.8054 5.9263 11.8054ZM11.8112 12.4547C11.8112 12.2332 11.8112 12.0208 11.8112 11.8081C11.5924 11.8081 11.3799 11.8081 11.1701 11.8081C11.1701 12.0279 11.1701 12.2406 11.1701 12.4547C11.3859 12.4547 11.5936 12.4547 11.8112 12.4547ZM2.635 13.1075C2.635 12.8874 2.635 12.6747 2.635 12.4645C2.41541 12.4645 2.20291 12.4645 1.99189 12.4645C1.99189 12.6825 1.99189 12.8927 1.99189 13.1075C2.20701 13.1075 2.41701 13.1075 2.635 13.1075ZM5.259 12.4635C5.0389 12.4635 4.8265 12.4635 4.6163 12.4635C4.6163 12.6832 4.6163 12.8958 4.6163 13.1068C4.8343 13.1068 5.0443 13.1068 5.259 13.1068C5.259 12.8917 5.259 12.6815 5.259 12.4635ZM9.8587 12.4611C9.8587 12.6817 9.8587 12.8944 9.8587 13.104C10.0785 13.104 10.291 13.104 10.5014 13.104C10.5014 12.8858 10.5014 12.6756 10.5014 12.4611C10.2861 12.4611 10.0759 12.4611 9.8587 12.4611ZM13.1213 13.1075C13.1213 12.8872 13.1213 12.6747 13.1213 12.4645C12.9016 12.4645 12.6892 12.4645 12.4781 12.4645C12.4781 12.6825 12.4781 12.8927 12.4781 13.1075C12.6935 13.1075 12.9035 13.1075 13.1213 13.1075ZM3.9491 13.1204C3.7256 13.1204 3.51311 13.1204 3.30291 13.1204C3.30291 13.3388 3.30291 13.5488 3.30291 13.7615C3.52091 13.7615 3.7334 13.7615 3.9491 13.7615C3.9491 13.5449 3.9491 13.3349 3.9491 13.1204ZM6.56981 13.1194C6.34921 13.1194 6.1367 13.1194 5.9271 13.1194C5.9271 13.3392 5.9271 13.5519 5.9271 13.7623C6.14531 13.7623 6.35531 13.7623 6.56981 13.7623C6.56981 13.5469 6.56981 13.3367 6.56981 13.1194ZM11.8135 13.1198C11.5916 13.1198 11.3791 13.1198 11.1671 13.1198C11.1671 13.3376 11.1671 13.5478 11.1671 13.7619C11.3845 13.7619 11.5969 13.7619 11.8135 13.7619C11.8135 13.5461 11.8135 13.3359 11.8135 13.1198ZM2.635 14.4185C2.635 14.1987 2.635 13.986 2.635 13.7756C2.4156 13.7756 2.2029 13.7756 1.99167 13.7756C1.99167 13.9936 1.99167 14.2038 1.99167 14.4185C2.2068 14.4185 2.41701 14.4185 2.635 14.4185ZM4.613 14.4165C4.8328 14.4165 5.0453 14.4165 5.2557 14.4165C5.2557 14.1968 5.2557 13.9844 5.2557 13.7729C5.0377 13.7729 4.8277 13.7729 4.613 13.7729C4.613 13.9881 4.613 14.1983 4.613 14.4165ZM10.5 14.4185C10.5 14.1991 10.5 13.9864 10.5 13.7756C10.2805 13.7756 10.0681 13.7756 9.8564 13.7756C9.8564 13.9934 9.8564 14.2036 9.8564 14.4185C10.0713 14.4185 10.2813 14.4185 10.5 14.4185ZM13.1198 14.4212C13.1198 14.2057 13.1198 13.9907 13.1198 13.7746C12.9039 13.7746 12.6914 13.7746 12.4808 13.7746C12.4808 13.994 12.4808 14.2067 12.4808 14.4212C12.6961 14.4212 12.9037 14.4212 13.1198 14.4212ZM3.3042 14.4284C3.3042 14.6478 3.3042 14.8605 3.3042 15.0713C3.5236 15.0713 3.7361 15.0713 3.9477 15.0713C3.9477 14.8535 3.9477 14.6433 3.9477 14.4284C3.7328 14.4284 3.5228 14.4284 3.3042 14.4284ZM11.1669 15.0719C11.3871 15.0719 11.5996 15.0719 11.8096 15.0719C11.8096 14.8521 11.8096 14.6396 11.8096 14.4288C11.5914 14.4288 11.3814 14.4288 11.1669 14.4288C11.1669 14.6441 11.1669 14.8541 11.1669 15.0719ZM1.99393 15.0836C1.99393 15.3045 1.99393 15.5169 1.99393 15.7265C2.2138 15.7265 2.4262 15.7265 2.6366 15.7265C2.6366 15.5081 2.6366 15.2981 2.6366 15.0836C2.4211 15.0836 2.2111 15.0836 1.99393 15.0836ZM4.613 15.7277C4.8328 15.7277 5.0453 15.7277 5.2557 15.7277C5.2557 15.5081 5.2557 15.2956 5.2557 15.0842C5.0377 15.0842 4.8277 15.0842 4.613 15.0842C4.613 15.2993 4.613 15.5093 4.613 15.7277ZM10.5002 15.7296C10.5002 15.5106 10.5002 15.2979 10.5002 15.0867C10.2809 15.0867 10.0685 15.0867 9.8562 15.0867C9.8562 15.3045 9.8562 15.5145 9.8562 15.7296C10.0711 15.7296 10.2811 15.7296 10.5002 15.7296ZM13.1235 15.0846C12.9061 15.0846 12.6937 15.0846 12.4796 15.0846C12.4796 15.303 12.4796 15.5155 12.4796 15.7269C12.6988 15.7269 12.9113 15.7269 13.1235 15.7269C13.1235 15.5093 13.1235 15.2993 13.1235 15.0846ZM3.3046 15.7392C3.3046 15.9597 3.3046 16.1724 3.3046 16.3821C3.5242 16.3821 3.73691 16.3821 3.9475 16.3821C3.9475 16.1639 3.9475 15.9537 3.9475 15.7392C3.7322 15.7392 3.5222 15.7392 3.3046 15.7392ZM11.1695 15.739C11.1695 15.9599 11.1695 16.1724 11.1695 16.3819C11.3894 16.3819 11.6018 16.3819 11.8122 16.3819C11.8122 16.1635 11.8122 15.9535 11.8122 15.739C11.5967 15.739 11.3867 15.739 11.1695 15.739ZM1.99208 16.3947C1.99208 16.6168 1.99208 16.8268 1.99208 17.0394C2.2101 17.0394 2.4225 17.0394 2.6348 17.0394C2.6348 16.8204 2.6348 16.6079 2.6348 16.3947C2.4174 16.3947 2.2074 16.3947 1.99208 16.3947ZM4.6128 17.0386C4.8334 17.0386 5.0459 17.0386 5.2555 17.0386C5.2555 16.8188 5.2555 16.6061 5.2555 16.3957C5.0373 16.3957 4.8271 16.3957 4.6128 16.3957C4.6128 16.611 4.6128 16.8212 4.6128 17.0386ZM9.8583 16.3951C9.8583 16.6149 9.8583 16.8276 9.8583 17.038C10.0777 17.038 10.2904 17.038 10.5016 17.038C10.5016 16.82 10.5016 16.6098 10.5016 16.3951C10.2865 16.3951 10.0765 16.3951 9.8583 16.3951ZM13.1221 17.0439C13.1221 16.8225 13.1221 16.61 13.1221 16.3973C12.9033 16.3973 12.6908 16.3973 12.481 16.3973C12.481 16.6172 12.481 16.8298 12.481 17.0439C12.6967 17.0439 12.9043 17.0439 13.1221 17.0439ZM3.9485 17.0509C3.727 17.0509 3.5168 17.0509 3.3033 17.0509C3.3033 17.2685 3.3033 17.4812 3.3033 17.6944C3.522 17.6944 3.7344 17.6944 3.9485 17.6944C3.9485 17.4775 3.9485 17.2673 3.9485 17.0509ZM11.1697 17.0501C11.1697 17.2718 11.1697 17.4842 11.1697 17.693C11.3898 17.693 11.6022 17.693 11.812 17.693C11.812 17.4744 11.812 17.2642 11.812 17.0501C11.5961 17.0501 11.3861 17.0501 11.1697 17.0501ZM2.6375 17.7086C2.4172 17.7086 2.2047 17.7086 1.99475 17.7086C1.99475 17.9284 1.99475 18.1409 1.99475 18.3517C2.2129 18.3517 2.4229 18.3517 2.6375 18.3517C2.6375 18.1364 2.6375 17.9262 2.6375 17.7086ZM4.61401 17.7061C4.61401 17.9284 4.61401 18.1384 4.61401 18.3503C4.83221 18.3503 5.0447 18.3503 5.2561 18.3503C5.2561 18.1311 5.2561 17.9184 5.2561 17.7061C5.0385 17.7061 4.82851 17.7061 4.61401 17.7061ZM7.8797 18.3525C7.8797 18.1306 7.8797 17.9204 7.8797 17.7078C7.6617 17.7078 7.44921 17.7078 7.23701 17.7078C7.23701 17.9268 7.23701 18.1393 7.23701 18.3525C7.45431 18.3525 7.6643 18.3525 7.8797 18.3525ZM10.4995 18.3525C10.4995 18.1319 10.4995 17.9192 10.4995 17.7096C10.2797 17.7096 10.0672 17.7096 9.8568 17.7096C9.8568 17.9278 9.8568 18.138 9.8568 18.3525C10.0722 18.3525 10.2822 18.3525 10.4995 18.3525ZM13.1241 17.7088C12.9029 17.7088 12.6904 17.7088 12.4814 17.7088C12.4814 17.9288 12.4814 18.1415 12.4814 18.3513C12.6998 18.3513 12.9098 18.3513 13.1241 18.3513C13.1241 18.1358 13.1241 17.9256 13.1241 17.7088ZM3.29951 19.0061C3.52111 19.0061 3.7336 19.0061 3.94541 19.0061C3.94541 18.7871 3.94541 18.5744 3.94541 18.3653C3.7254 18.3653 3.51291 18.3653 3.29951 18.3653C3.29951 18.5812 3.29951 18.7889 3.29951 19.0061ZM6.5686 19.0078C6.5686 18.7855 6.5686 18.5755 6.5686 18.3636C6.3504 18.3636 6.13791 18.3636 5.92651 18.3636C5.92651 18.5828 5.92651 18.7955 5.92651 19.0078C6.1441 19.0078 6.3541 19.0078 6.5686 19.0078ZM8.5478 18.3616C8.5478 18.5822 8.5478 18.7949 8.5478 19.0045C8.7677 19.0045 8.98011 19.0045 9.19051 19.0045C9.19051 18.7863 9.19051 18.5761 9.19051 18.3616C8.97521 18.3616 8.7652 18.3616 8.5478 18.3616ZM11.1679 18.3618C11.1679 18.5791 11.1679 18.7916 11.1679 19.0059C11.3861 19.0059 11.5986 19.0059 11.81 19.0059C11.81 18.7867 11.81 18.574 11.81 18.3618C11.5924 18.3618 11.3824 18.3618 11.1679 18.3618Z" fill="white"/>
<path d="M0.678198 19.6662C1.11441 19.6662 1.55061 19.6662 1.98701 19.666C2.20526 19.666 2.42326 19.666 2.64146 19.666C3.29726 19.666 3.95286 19.666 4.60876 19.666C4.82696 19.666 5.04496 19.666 5.26316 19.666C5.91896 19.666 6.57466 19.666 7.23046 19.666C7.44866 19.666 7.66666 19.666 7.88486 19.666C8.54066 19.666 9.19636 19.666 9.85216 19.666C10.0704 19.666 10.2884 19.666 10.5066 19.666C11.1625 19.666 11.8181 19.666 12.4739 19.666C12.6921 19.666 12.9101 19.666 13.1283 19.666C13.5598 19.666 13.9915 19.666 14.4376 19.666C14.4376 19.4443 14.4376 19.2281 14.4376 19.012C14.4376 18.7938 14.4376 18.5756 14.4376 18.3574C14.4376 18.1386 14.4376 17.9195 14.4376 17.7007C14.4376 17.4825 14.4376 17.2643 14.4376 17.0461C14.4376 16.8273 14.4376 16.6083 14.4376 16.3894C14.4376 16.1712 14.4376 15.953 14.4376 15.7348C14.4376 15.516 14.4376 15.297 14.4376 15.0782C14.4376 14.86 14.4376 14.6418 14.4376 14.4236C14.4376 14.2047 14.4376 13.9857 14.4376 13.7669C14.4376 13.5487 14.4376 13.3305 14.4376 13.1123C14.4376 12.8935 14.4376 12.6745 14.4376 12.4556C14.4376 12.2374 14.4376 12.0192 14.4376 11.801C14.4376 11.5822 14.4376 11.3632 14.4376 11.1444C14.4376 10.9262 14.4376 10.708 14.4376 10.4898C14.4376 10.2709 14.4376 10.0519 14.4376 9.8331C14.4376 9.6149 14.4376 9.3967 14.4376 9.1785C14.4376 8.9597 14.4376 8.7406 14.4376 8.5218C14.4376 8.3036 14.4376 8.0854 14.4376 7.8672C14.4376 7.6484 14.4376 7.4294 14.4376 7.2106C14.4376 6.9924 14.4376 6.7742 14.4376 6.5559C14.4376 6.3371 14.4376 6.1181 14.4376 5.89929C14.4376 5.68108 14.4376 5.46288 14.4376 5.24468C14.4376 5.02586 14.4376 4.80684 14.4376 4.58802C14.4384 4.37084 14.439 4.15366 14.4396 3.93628C14.6541 3.93628 14.8684 3.93628 15.0889 3.93628C15.0889 9.3959 15.0889 14.853 15.0889 20.323C15.0573 20.323 15.0245 20.323 14.9919 20.323C10.2478 20.323 5.50366 20.323 0.759618 20.3228C0.732348 20.3228 0.705068 20.321 0.677788 20.32C0.677588 20.1026 0.677998 19.8844 0.678198 19.6662Z" fill="#C0C0BF"/>
<path d="M13.7817 3.27564C13.3455 3.27646 12.9093 3.27708 12.4731 3.2779C12.4731 2.84559 12.4731 2.41329 12.4731 1.96704C12.6952 1.96704 12.9118 1.96704 13.1283 1.96704C13.1283 2.1836 13.1283 2.39996 13.1283 2.62267C13.356 2.62267 13.5699 2.62267 13.7838 2.62267C13.783 2.84026 13.7823 3.05805 13.7817 3.27564Z" fill="white"/>
<path d="M11.8141 1.96691C11.6004 1.96691 11.3865 1.96691 11.1675 1.96691C11.1675 1.74789 11.1675 1.53769 11.1675 1.31128C11.3816 1.31128 11.5977 1.31128 11.8141 1.31128C11.8141 1.52969 11.8141 1.7483 11.8141 1.96691Z" fill="#F4E600"/>
<path d="M13.1285 1.30957C13.342 1.30957 13.5552 1.30957 13.7825 1.30957C13.7825 1.53105 13.7825 1.74946 13.7825 1.96807L13.7841 1.96643C13.5653 1.96664 13.3467 1.96684 13.1279 1.96725C13.1283 1.74803 13.1283 1.5288 13.1285 1.30957Z" fill="#020203"/>
<path d="M0.679199 1.31128C0.892889 1.31128 1.10679 1.31128 1.32581 1.31128C1.32581 1.5303 1.32581 1.74051 1.32581 1.96691C1.11171 1.96691 0.895559 1.96691 0.679199 1.96691C0.679199 1.7483 0.679199 1.52969 0.679199 1.31128Z" fill="#F4E600"/>
<path d="M0.679199 2.62231C0.892889 2.62231 1.10679 2.62231 1.32581 2.62231C1.32581 2.84134 1.32581 3.05154 1.32581 3.27795C1.11171 3.27795 0.895559 3.27795 0.679199 3.27795C0.679199 3.05954 0.679199 2.84093 0.679199 2.62231Z" fill="#F4E600"/>
<path d="M11.8141 3.27795C11.6004 3.27795 11.3865 3.27795 11.1675 3.27795C11.1675 3.05893 11.1675 2.84872 11.1675 2.62231C11.3816 2.62231 11.5977 2.62231 11.8141 2.62231C11.8141 2.84093 11.8141 3.05954 11.8141 3.27795Z" fill="#F4E600"/>
<path d="M12.4731 0.655518C12.6876 0.655518 12.9021 0.655518 13.1302 0.655518C13.1302 0.876998 13.1302 1.09418 13.1302 1.31115C12.9161 1.31115 12.7018 1.31115 12.4731 1.31115C12.4731 1.08864 12.4731 0.872078 12.4731 0.655518Z" fill="#020203"/>
<path d="M0.679199 3.93359C0.892889 3.93359 1.10679 3.93359 1.32581 3.93359C1.32581 4.15262 1.32581 4.36282 1.32581 4.58923C1.11171 4.58923 0.895559 4.58923 0.679199 4.58923C0.679199 4.37062 0.679199 4.15221 0.679199 3.93359Z" fill="#F4E600"/>
<path d="M10.5065 0.658936C10.5065 0.872826 10.5065 1.08673 10.5065 1.30575C10.2875 1.30575 10.0775 1.30575 9.85107 1.30575C9.85107 1.09165 9.85107 0.875286 9.85107 0.658936C10.0697 0.658936 10.2881 0.658936 10.5065 0.658936Z" fill="#F4E600"/>
<path d="M7.88538 0.658936C7.88538 0.872826 7.88538 1.08673 7.88538 1.30575C7.66638 1.30575 7.45638 1.30575 7.22998 1.30575C7.22998 1.09165 7.22998 0.875286 7.22998 0.658936C7.44838 0.658936 7.66698 0.658936 7.88538 0.658936Z" fill="#F4E600"/>
<path d="M0.679199 5.24487C0.892889 5.24487 1.10679 5.24487 1.32581 5.24487C1.32581 5.4639 1.32581 5.6741 1.32581 5.90051C1.11171 5.90051 0.895559 5.90051 0.679199 5.90051C0.679199 5.68189 0.679199 5.46328 0.679199 5.24487Z" fill="#F4E600"/>
<path d="M0.679199 6.55591C0.892889 6.55591 1.10679 6.55591 1.32581 6.55591C1.32581 6.77491 1.32581 6.98511 1.32581 7.21151C1.11171 7.21151 0.895559 7.21151 0.679199 7.21151C0.679199 6.99311 0.679199 6.77451 0.679199 6.55591Z" fill="#F4E600"/>
<path d="M0.679199 7.86719C0.892889 7.86719 1.10679 7.86719 1.32581 7.86719C1.32581 8.08619 1.32581 8.29639 1.32581 8.52279C1.11171 8.52279 0.895559 8.52279 0.679199 8.52279C0.679199 8.30419 0.679199 8.08579 0.679199 7.86719Z" fill="#F4E600"/>
<path d="M0.679199 9.17847C0.892889 9.17847 1.10679 9.17847 1.32581 9.17847C1.32581 9.39747 1.32581 9.60767 1.32581 9.83407C1.11171 9.83407 0.895559 9.83407 0.679199 9.83407C0.679199 9.61547 0.679199 9.39687 0.679199 9.17847Z" fill="#F4E600"/>
<path d="M0.679199 10.4897C0.892889 10.4897 1.10679 10.4897 1.32581 10.4897C1.32581 10.7088 1.32581 10.919 1.32581 11.1454C1.11171 11.1454 0.895559 11.1454 0.679199 11.1454C0.679199 10.9268 0.679199 10.7082 0.679199 10.4897Z" fill="#F4E600"/>
<path d="M0.679199 11.8008C0.892889 11.8008 1.10679 11.8008 1.32581 11.8008C1.32581 12.0198 1.32581 12.23 1.32581 12.4564C1.11171 12.4564 0.895559 12.4564 0.679199 12.4564C0.679199 12.238 0.679199 12.0194 0.679199 11.8008Z" fill="#F4E600"/>
<path d="M0.679199 13.1121C0.892889 13.1121 1.10679 13.1121 1.32581 13.1121C1.32581 13.3311 1.32581 13.5413 1.32581 13.7677C1.11171 13.7677 0.895559 13.7677 0.679199 13.7677C0.679199 13.5491 0.679199 13.3307 0.679199 13.1121Z" fill="#F4E600"/>
<path d="M0.679199 14.4233C0.892889 14.4233 1.10679 14.4233 1.32581 14.4233C1.32581 14.6424 1.32581 14.8526 1.32581 15.079C1.11171 15.079 0.895559 15.079 0.679199 15.079C0.679199 14.8604 0.679199 14.6417 0.679199 14.4233Z" fill="#F4E600"/>
<path d="M5.2638 0.658936C5.2638 0.872826 5.2638 1.08673 5.2638 1.30575C5.0448 1.30575 4.8348 1.30575 4.6084 1.30575C4.6084 1.09165 4.6084 0.875286 4.6084 0.658936C4.8268 0.658936 5.0452 0.658936 5.2638 0.658936Z" fill="#F4E600"/>
<path d="M0.679199 15.7344C0.892889 15.7344 1.10679 15.7344 1.32581 15.7344C1.32581 15.9535 1.32581 16.1637 1.32581 16.3901C1.11171 16.3901 0.895559 16.3901 0.679199 16.3901C0.679199 16.1717 0.679199 15.953 0.679199 15.7344Z" fill="#F4E600"/>
<path d="M0.679199 17.0457C0.892889 17.0457 1.10679 17.0457 1.32581 17.0457C1.32581 17.2647 1.32581 17.4749 1.32581 17.7013C1.11171 17.7013 0.895559 17.7013 0.679199 17.7013C0.679199 17.4827 0.679199 17.2643 0.679199 17.0457Z" fill="#F4E600"/>
<path d="M2.64176 0.658936C2.64176 0.872826 2.64176 1.08673 2.64176 1.30575C2.42276 1.30575 2.21276 1.30575 1.98633 1.30575C1.98633 1.09165 1.98633 0.875286 1.98633 0.658936C2.20496 0.658936 2.42336 0.658936 2.64176 0.658936Z" fill="#F4E600"/>
<path d="M0.679199 18.3569C0.892889 18.3569 1.10679 18.3569 1.32581 18.3569C1.32581 18.576 1.32581 18.7862 1.32581 19.0126C1.11171 19.0126 0.895559 19.0126 0.679199 19.0126C0.679199 18.794 0.679199 18.5753 0.679199 18.3569Z" fill="#F4E600"/>
<path d="M13.7817 3.27547C13.7823 3.05768 13.7829 2.84009 13.7838 2.6223C14.0028 2.62209 14.222 2.62209 14.441 2.62189L14.4396 2.61963C14.4396 2.83435 14.4396 3.04886 14.4396 3.27526C14.2157 3.27547 13.9987 3.27547 13.7817 3.27547Z" fill="#808181"/>
<path d="M14.439 3.93701C14.4383 4.15419 14.4375 4.37137 14.4369 4.58875C14.2238 4.58875 14.0108 4.58875 13.7837 4.58875C13.7837 4.36809 13.7837 4.15255 13.7837 3.93701C14.0021 3.93701 14.2206 3.93701 14.439 3.93701Z" fill="#F4E600"/>
<path d="M14.4408 2.62211C14.2218 2.62231 14.0026 2.62231 13.7836 2.62252C13.7838 2.4037 13.784 2.18488 13.7844 1.96606L13.7827 1.9677C13.9987 1.9677 14.2146 1.9677 14.441 1.9677C14.4408 2.19021 14.4408 2.40616 14.4408 2.62211Z" fill="#020203"/>
<path d="M5.26312 5.24556C5.48172 5.24412 5.70032 5.24289 5.91892 5.24145C6.13452 5.24145 6.35022 5.24145 6.57112 5.24145C6.57112 5.01833 6.57112 4.80546 6.57112 4.59259L6.57662 4.58643C7.23062 4.58643 7.88462 4.58643 8.53862 4.58643L8.54422 4.59259C8.54422 4.80792 8.54422 5.02325 8.54422 5.24125C8.76992 5.24125 8.98322 5.24125 9.19632 5.24125C9.41492 5.24248 9.63332 5.24371 9.85192 5.24515L9.85092 5.24412C9.85092 5.46048 9.85092 5.67704 9.85092 5.90119C10.0792 5.90119 10.2929 5.90119 10.5068 5.90119L10.5059 5.90037C10.5059 6.11657 10.5059 6.33267 10.5059 6.55667C10.734 6.55667 10.9477 6.55667 11.1612 6.55667H11.1624C11.1634 6.77487 11.1646 6.99307 11.1657 7.21147C11.1657 7.43007 11.1657 7.64847 11.1657 7.86707C11.1648 8.08627 11.164 8.30557 11.1634 8.52477L11.1612 8.52127C10.9454 8.52127 10.7295 8.52127 10.51 8.52127C10.51 8.75157 10.51 8.96507 10.51 9.17857C10.5078 9.39697 10.5055 9.61537 10.5035 9.83397C10.2877 9.83397 10.072 9.83397 9.85152 9.83397C9.85152 10.0594 9.85152 10.2729 9.85152 10.4862C9.63742 10.4862 9.42332 10.4862 9.20002 10.4862C9.20002 10.707 9.20002 10.9197 9.20002 11.1418C8.97832 11.1418 8.76562 11.1418 8.54422 11.1418C8.54422 11.3676 8.54422 11.5841 8.54422 11.8007C8.54422 12.0193 8.54422 12.2377 8.54422 12.4563C8.54272 12.6752 8.54132 12.8938 8.54012 13.1126L8.54152 13.1112C8.10882 13.1112 7.67592 13.1112 7.23252 13.1112C7.23252 12.2349 7.23252 11.3629 7.23252 10.4911C7.44842 10.4911 7.66442 10.4911 7.88222 10.4911C7.88222 10.2606 7.88222 10.0469 7.88222 9.83297C7.88342 9.61457 7.88462 9.39597 7.88592 9.17747L7.88562 9.17877C8.10202 9.17877 8.31842 9.17877 8.53762 9.17877C8.53762 8.94987 8.53762 8.73577 8.53762 8.52167C8.53762 8.08507 8.53762 7.64867 8.53762 7.21207C8.53762 6.99567 8.53762 6.77937 8.53762 6.55477C8.31392 6.55477 8.10022 6.55477 7.88652 6.55477H7.88522C7.88522 6.33797 7.88522 6.12107 7.88522 5.90345C7.65862 5.90345 7.44432 5.90345 7.23002 5.90345C7.01182 5.90345 6.79362 5.90324 6.57542 5.90324C6.35882 5.90324 6.14232 5.90324 5.92222 5.90324C5.92222 6.12797 5.92222 6.34207 5.92222 6.55637C5.92222 6.77457 5.92242 6.99307 5.92242 7.21127C5.92122 7.42797 5.92002 7.64477 5.91852 7.86157C5.70262 7.86157 5.48642 7.86157 5.26272 7.86157C5.26272 8.09387 5.26272 8.30757 5.26272 8.52127V8.52247C5.04472 8.52247 4.82692 8.52247 4.60892 8.52247V8.52127C4.60892 8.30507 4.60892 8.08897 4.60892 7.86627C4.38022 7.86627 4.16662 7.86627 3.95292 7.86627L3.95312 7.86747C3.95182 7.64867 3.95062 7.43007 3.94922 7.21127C3.95042 6.99387 3.95142 6.77647 3.95272 6.55907C4.16682 6.55907 4.38092 6.55907 4.60442 6.55907C4.60442 6.33797 4.60442 6.12537 4.60442 5.90324C4.82632 5.90324 5.03902 5.90324 5.26432 5.90324C5.26432 5.67725 5.26432 5.46048 5.26432 5.24371L5.26312 5.24556Z" fill="#2B4B9B"/>
<path d="M7.88539 14.4199C8.10339 14.4217 8.32139 14.4238 8.53919 14.4256C8.53919 14.6411 8.53919 14.8567 8.53919 15.0804C8.76769 15.0804 8.98069 15.0804 9.19379 15.0804C9.19379 15.5164 9.19379 15.9524 9.19379 16.3886C8.97809 16.3886 8.76209 16.3886 8.53549 16.3886C8.53549 16.6185 8.53549 16.832 8.53549 17.0455C8.10089 17.0449 7.66619 17.044 7.23159 17.0434C7.23159 16.8277 7.23159 16.6119 7.23159 16.3894C7.00229 16.3894 6.78909 16.3894 6.57579 16.3894H6.57449C6.57349 16.1712 6.57249 15.953 6.57129 15.7346C6.57249 15.5158 6.57369 15.2972 6.57519 15.0784L6.57499 15.0796C6.79109 15.0796 7.00729 15.0796 7.23099 15.0796C7.23099 14.8518 7.23099 14.6381 7.23099 14.4246V14.4233C7.44899 14.4221 7.66719 14.4209 7.88539 14.4199Z" fill="#2B4B9B"/>
<path d="M3.94573 1.96226C3.72833 1.96226 3.51833 1.96226 3.30273 1.96226C3.30273 1.74775 3.30273 1.53755 3.30273 1.31934C3.51333 1.31934 3.72583 1.31934 3.94573 1.31934C3.94573 1.52914 3.94573 1.74181 3.94573 1.96226Z" fill="#F4E600"/>
<path d="M6.5673 1.9625C6.3503 1.9625 6.1401 1.9625 5.9248 1.9625C5.9248 1.74799 5.9248 1.53799 5.9248 1.31958C6.135 1.31958 6.3474 1.31958 6.5673 1.31958C6.5673 1.52896 6.5673 1.74142 6.5673 1.9625Z" fill="#F4E600"/>
<path d="M8.54492 1.9594C8.54492 1.74264 8.54492 1.53243 8.54492 1.31689C8.75932 1.31689 8.96932 1.31689 9.18772 1.31689C9.18772 1.52669 9.18772 1.73935 9.18772 1.9594C8.97872 1.9594 8.76622 1.9594 8.54492 1.9594Z" fill="#F4E600"/>
<path d="M1.99414 1.97144C2.21152 1.97144 2.42152 1.97144 2.63682 1.97144C2.63682 2.18595 2.63682 2.39615 2.63682 2.61436C2.42642 2.61436 2.21402 2.61436 1.99414 2.61436C1.99414 2.40456 1.99414 2.1921 1.99414 1.97144Z" fill="#F4E600"/>
<path d="M5.25556 2.61878C5.04046 2.61878 4.83046 2.61878 4.61426 2.61878C4.61426 2.40262 4.61426 2.18996 4.61426 1.97217C4.82736 1.97217 5.03756 1.97217 5.25556 1.97217C5.25556 2.18319 5.25556 2.39586 5.25556 2.61878Z" fill="#F4E600"/>
<path d="M7.2373 1.97119C7.4544 1.97119 7.6644 1.97119 7.88 1.97119C7.88 2.1857 7.88 2.39591 7.88 2.61411C7.6696 2.61411 7.4571 2.61411 7.2373 2.61411C7.2373 2.40473 7.2373 2.19206 7.2373 1.97119Z" fill="#F4E600"/>
<path d="M10.5024 1.97461C10.5024 2.19076 10.5024 2.40076 10.5024 2.61671C10.2858 2.61671 10.0734 2.61671 9.85596 2.61671C9.85596 2.4024 9.85596 2.1924 9.85596 1.97461C10.0681 1.97461 10.2805 1.97461 10.5024 1.97461Z" fill="#F4E600"/>
<path d="M3.30469 2.62671C3.52189 2.62671 3.73209 2.62671 3.94739 2.62671C3.94739 2.84122 3.94739 3.05143 3.94739 3.26963C3.73699 3.26963 3.52449 3.26963 3.30469 3.26963C3.30469 3.06004 3.30469 2.84758 3.30469 2.62671Z" fill="#F4E600"/>
<path d="M6.56968 2.62793C6.56968 2.84244 6.56968 3.05265 6.56968 3.27024C6.35748 3.27024 6.14498 3.27024 5.92578 3.27024C5.92578 3.0588 5.92578 2.84613 5.92578 2.62793C6.13988 2.62793 6.35228 2.62793 6.56968 2.62793Z" fill="#F4E600"/>
<path d="M8.54785 2.62671C8.76515 2.62671 8.97515 2.62671 9.19055 2.62671C9.19055 2.84122 9.19055 3.05143 9.19055 3.26963C8.98015 3.26963 8.76765 3.26963 8.54785 3.26963C8.54785 3.06004 8.54785 2.84758 8.54785 2.62671Z" fill="#F4E600"/>
<path d="M1.99316 3.28296C2.21215 3.28296 2.42215 3.28296 2.63715 3.28296C2.63715 3.49809 2.63715 3.70809 2.63715 3.92588C2.42505 3.92588 2.21255 3.92588 1.99316 3.92588C1.99316 3.71465 1.99316 3.50198 1.99316 3.28296Z" fill="#F4E600"/>
<path d="M4.60986 3.927C4.60986 3.70983 4.60986 3.50208 4.60986 3.28613C4.82336 3.28613 5.03606 3.28613 5.25586 3.28613C5.25586 3.49531 5.25586 3.70777 5.25586 3.927C5.04406 3.927 4.83156 3.927 4.60986 3.927Z" fill="#F4E600"/>
<path d="M7.87941 3.92882C7.66491 3.92882 7.4549 3.92882 7.2373 3.92882C7.2373 3.71656 7.2373 3.5039 7.2373 3.28467C7.4488 3.28467 7.66121 3.28467 7.87941 3.28467C7.87941 3.49631 7.87941 3.70651 7.87941 3.92882Z" fill="#F4E600"/>
<path d="M10.4996 3.92905C10.2825 3.92905 10.0725 3.92905 9.85693 3.92905C9.85693 3.71454 9.85693 3.50434 9.85693 3.28613C10.0673 3.28613 10.2798 3.28613 10.4996 3.28613C10.4996 3.49572 10.4996 3.70818 10.4996 3.92905Z" fill="#F4E600"/>
<path d="M3.94788 3.94043C3.94788 4.15945 3.94788 4.36966 3.94788 4.58458C3.73268 4.58458 3.52268 4.58458 3.30518 4.58458C3.30518 4.37232 3.30518 4.15986 3.30518 3.94043C3.51638 3.94043 3.72878 3.94043 3.94788 3.94043Z" fill="#F4E600"/>
<path d="M5.92236 4.58917C5.92236 4.37548 5.92236 4.16179 5.92236 3.94092C6.13606 3.94092 6.34786 3.94092 6.57656 3.94092C6.57656 4.15482 6.57656 4.37076 6.57656 4.58671L6.57096 4.59286C6.35466 4.59143 6.13846 4.5904 5.92236 4.58917Z" fill="#F4E600"/>
<path d="M8.53857 4.58692C8.53857 4.37303 8.53857 4.15913 8.53857 3.9397C8.76127 3.9397 8.97367 3.9397 9.19747 3.9397C9.19747 4.15728 9.19747 4.37097 9.19747 4.58467L9.19087 4.59061C8.97537 4.59143 8.75958 4.59246 8.54408 4.59328L8.53857 4.58692Z" fill="#F4E600"/>
<path d="M11.8176 3.93237C11.8176 4.14647 11.8176 4.36058 11.8176 4.58186C11.6007 4.58186 11.3884 4.58186 11.1694 4.58186C11.1694 4.37062 11.1694 4.15837 11.1694 3.93381C11.3862 3.93381 11.6027 3.93381 11.8191 3.93381L11.8176 3.93237Z" fill="#F4E600"/>
<path d="M2.63448 5.24058C2.41768 5.24058 2.20768 5.24058 1.99219 5.24058C1.99219 5.02627 1.99219 4.81606 1.99219 4.59766C2.20198 4.59766 2.41448 4.59766 2.63448 4.59766C2.63448 4.80663 2.63448 5.01909 2.63448 5.24058Z" fill="#F4E600"/>
<path d="M5.26452 5.2442C5.05062 5.2442 4.83682 5.2442 4.61572 5.2442C4.61572 5.02743 4.61572 4.81518 4.61572 4.59595C4.82692 4.59595 5.03902 4.59595 5.26312 4.59595C5.26312 4.81272 5.26312 5.02907 5.26312 5.24543L5.26452 5.2442Z" fill="#F4E600"/>
<path d="M5.92216 4.58911C6.13826 4.59034 6.35446 4.59137 6.57056 4.5926C6.57056 4.80547 6.57056 5.01834 6.57056 5.24147C6.34976 5.24147 6.13416 5.24147 5.91846 5.24147C5.91966 5.02408 5.92096 4.8065 5.92216 4.58911Z" fill="#058181"/>
<path d="M9.85192 5.2454C9.63322 5.24417 9.41482 5.24294 9.19622 5.2415C9.19462 5.02432 9.19272 4.80735 9.19092 4.59017L9.19752 4.58423C9.41572 4.58669 9.63412 4.58935 9.85232 4.59181C9.85232 4.80981 9.85212 5.02761 9.85192 5.2454Z" fill="#C0C0BF"/>
<path d="M9.85159 5.24542C9.85179 5.02762 9.85199 4.80983 9.85219 4.59204C10.0659 4.59204 10.2796 4.59204 10.504 4.59204C10.504 4.81168 10.504 5.02783 10.504 5.24398C10.2862 5.24419 10.0684 5.24419 9.85059 5.24439L9.85159 5.24542Z" fill="#F4E600"/>
<path d="M13.124 4.59448C13.124 4.81002 13.124 5.02023 13.124 5.2374C12.9107 5.2374 12.6983 5.2374 12.4795 5.2374C12.4795 5.02494 12.4795 4.81248 12.4795 4.59448C12.6921 4.59448 12.9021 4.59448 13.124 4.59448Z" fill="#F4E600"/>
<path d="M3.94865 5.25244C3.94865 5.46859 3.94865 5.67859 3.94865 5.89454C3.73205 5.89454 3.51965 5.89454 3.30225 5.89454C3.30225 5.68023 3.30225 5.47023 3.30225 5.25244C3.51425 5.25244 3.72675 5.25244 3.94865 5.25244Z" fill="#F4E600"/>
<path d="M9.85059 5.24455C10.0684 5.24434 10.2862 5.24414 10.504 5.24414C10.5048 5.46337 10.5056 5.68239 10.5064 5.90162C10.2926 5.90162 10.0787 5.90162 9.85059 5.90162C9.85059 5.67726 9.85059 5.46091 9.85059 5.24455Z" fill="#C0C0BF"/>
<path d="M11.164 5.90025C11.164 5.68595 11.164 5.47144 11.164 5.25098C11.3824 5.25098 11.5951 5.25098 11.8127 5.25098C11.8127 5.46487 11.8127 5.67528 11.8127 5.89882C11.5961 5.89882 11.3793 5.89882 11.1626 5.89882L11.164 5.90025Z" fill="#F4E600"/>
<path d="M14.4373 5.24536C14.4373 5.46356 14.4373 5.68177 14.4373 5.89997C14.2232 5.89997 14.0091 5.89997 13.7896 5.89997C13.7896 5.68156 13.7896 5.47136 13.7896 5.24536C14.0039 5.24536 14.2207 5.24536 14.4373 5.24536Z" fill="#F4E600"/>
<path d="M2.63356 6.55244C2.41906 6.55244 2.20906 6.55244 1.99268 6.55244C1.99268 6.33644 1.99268 6.12404 1.99268 5.90601C2.20516 5.90601 2.41536 5.90601 2.63356 5.90601C2.63356 6.11624 2.63356 6.32864 2.63356 6.55244Z" fill="#F4E600"/>
<path d="M5.92236 6.5567C5.92236 6.3426 5.92236 6.1285 5.92236 5.90356C6.14246 5.90356 6.35906 5.90356 6.57556 5.90356C6.57436 6.1214 6.57336 6.3392 6.57206 6.5569C6.35536 6.5569 6.13896 6.5567 5.92236 6.5567Z" fill="#C0C0BF"/>
<path d="M7.22998 5.90381C7.44428 5.90381 7.65858 5.90381 7.88518 5.90381C7.88518 6.1216 7.88518 6.3384 7.88518 6.5551C7.67168 6.5551 7.45818 6.5551 7.22998 6.5551C7.22998 6.3355 7.22998 6.1196 7.22998 5.90381Z" fill="#F4E600"/>
<path d="M11.1611 6.55707C10.9476 6.55707 10.7339 6.55707 10.5059 6.55707C10.5059 6.33307 10.5059 6.11697 10.5059 5.90078C10.7253 5.90058 10.9445 5.90057 11.164 5.90037L11.1625 5.89893C11.1619 6.11817 11.1615 6.33757 11.1611 6.55707Z" fill="#C0C0BF"/>
<path d="M12.478 6.54926C12.478 6.33066 12.478 6.12046 12.478 5.90552C12.6929 5.90552 12.9029 5.90552 13.1207 5.90552C13.1207 6.11736 13.1207 6.32986 13.1207 6.54926C12.9099 6.54926 12.6975 6.54926 12.478 6.54926Z" fill="#F4E600"/>
<path d="M3.95275 6.55933C3.95145 6.77673 3.95045 6.99413 3.94925 7.21153C3.73515 7.21153 3.52105 7.21153 3.30225 7.21153C3.30225 6.99123 3.30225 6.78083 3.30225 6.55933C3.51915 6.55933 3.73595 6.55933 3.95275 6.55933Z" fill="#F4E600"/>
<path d="M5.92236 6.55688C6.13896 6.55688 6.35556 6.55709 6.57206 6.55709C6.57206 6.77059 6.57206 6.98379 6.57206 7.21169C6.35406 7.21169 6.13836 7.21169 5.92286 7.21169C5.92256 6.99349 5.92236 6.77508 5.92236 6.55688Z" fill="#F4E600"/>
<path d="M7.88639 6.55518C8.10009 6.55518 8.31379 6.55518 8.53759 6.55518C8.53759 6.77978 8.53759 6.99608 8.53759 7.21248C8.31959 7.21228 8.10179 7.21207 7.88379 7.21187L7.88519 7.21327C7.88559 6.99407 7.88599 6.77458 7.88639 6.55518Z" fill="#C0C0BF"/>
<path d="M11.1658 7.21169C11.1648 6.99349 11.1638 6.77528 11.1626 6.55688C11.3769 6.55688 11.5912 6.55688 11.8116 6.55688C11.8116 6.77628 11.8116 6.98899 11.8116 7.21169C11.5938 7.21169 11.3797 7.21169 11.1658 7.21169Z" fill="#F4E600"/>
<path d="M14.4373 6.55664C14.4373 6.77484 14.4373 6.99304 14.4373 7.21124C14.2232 7.21124 14.0091 7.21124 13.7896 7.21124C13.7896 6.99284 13.7896 6.78264 13.7896 6.55664C14.0039 6.55664 14.2207 6.55664 14.4373 6.55664Z" fill="#F4E600"/>
<path d="M2.63466 7.86263C2.41726 7.86263 2.20726 7.86263 1.9917 7.86263C1.9917 7.64813 1.9917 7.43793 1.9917 7.21973C2.20236 7.21973 2.41476 7.21973 2.63466 7.21973C2.63466 7.42953 2.63466 7.64193 2.63466 7.86263Z" fill="#F4E600"/>
<path d="M7.88376 7.21191C7.88376 7.42621 7.88376 7.64071 7.88376 7.86121C7.66536 7.86121 7.45266 7.86121 7.23486 7.86121C7.23486 7.64711 7.23486 7.43681 7.23486 7.21331C7.45146 7.21331 7.66826 7.21331 7.88496 7.21331L7.88376 7.21191Z" fill="#F4E600"/>
<path d="M13.1226 7.86246C12.9081 7.86246 12.6981 7.86246 12.4805 7.86246C12.4805 7.65016 12.4805 7.43756 12.4805 7.21826C12.6919 7.21826 12.9044 7.21826 13.1226 7.21826C13.1226 7.42996 13.1226 7.64016 13.1226 7.86246Z" fill="#F4E600"/>
<path d="M3.952 8.5203C3.7383 8.5203 3.5247 8.5203 3.3042 8.5203C3.3042 8.3045 3.3042 8.0923 3.3042 7.8679C3.5206 7.8679 3.7369 7.8679 3.9533 7.8679L3.9531 7.8667C3.9527 8.0845 3.9522 8.3025 3.952 8.5203Z" fill="#F4E600"/>
<path d="M3.95215 8.5201C3.95255 8.3023 3.95295 8.0845 3.95325 7.8667C4.16685 7.8667 4.38055 7.8667 4.60925 7.8667C4.60925 8.0896 4.60925 8.3058 4.60925 8.5217C4.39025 8.5211 4.17115 8.5205 3.95215 8.5201Z" fill="#C0C0BF"/>
<path d="M5.2627 8.52176C5.2627 8.30806 5.2627 8.09436 5.2627 7.86206C5.4864 7.86206 5.7026 7.86206 5.9185 7.86206L5.9255 7.86696C5.9237 8.08476 5.9216 8.30256 5.9198 8.52036C5.7009 8.52076 5.4819 8.52116 5.2627 8.52176Z" fill="#C0C0BF"/>
<path d="M5.91992 8.5201C5.92182 8.3023 5.92382 8.0845 5.92572 7.8667C6.13672 7.8667 6.34772 7.8667 6.56662 7.8667C6.56662 8.0833 6.56662 8.2957 6.56662 8.5201C6.35272 8.5201 6.13632 8.5201 5.91992 8.5201Z" fill="#F4E600"/>
<path d="M11.1631 8.52513C11.1639 8.30593 11.1647 8.08673 11.1654 7.86743C11.3793 7.86743 11.5934 7.86743 11.8122 7.86743C11.8122 8.08733 11.8122 8.29753 11.8122 8.52513C11.5964 8.52513 11.3799 8.52513 11.1631 8.52513Z" fill="#F4E600"/>
<path d="M14.4373 7.86792C14.4373 8.08612 14.4373 8.30432 14.4373 8.52252C14.2232 8.52252 14.0091 8.52252 13.7896 8.52252C13.7896 8.30412 13.7896 8.09392 13.7896 7.86792C14.0039 7.86792 14.2207 7.86792 14.4373 7.86792Z" fill="#F4E600"/>
<path d="M1.99414 8.52734C2.21152 8.52734 2.42152 8.52734 2.63682 8.52734C2.63682 8.74194 2.63682 8.95214 2.63682 9.17034C2.42642 9.17034 2.21402 9.17034 1.99414 9.17034C1.99414 8.96074 1.99414 8.74824 1.99414 8.52734Z" fill="#F4E600"/>
<path d="M4.60889 8.52319C4.82689 8.52319 5.04469 8.52319 5.26269 8.52319C5.26269 8.73709 5.26269 8.95099 5.26269 9.17159C5.04569 9.17159 4.83349 9.17159 4.60889 9.17159C4.60889 8.95589 4.60889 8.73949 4.60889 8.52319Z" fill="#F4E600"/>
<path d="M7.88591 9.17779C7.67201 9.17779 7.4583 9.17779 7.2373 9.17779C7.2373 8.96079 7.2373 8.74869 7.2373 8.52539C7.4524 8.52539 7.66831 8.52539 7.88451 8.52539C7.88491 8.74319 7.8853 8.96099 7.8855 9.17879L7.88591 9.17779Z" fill="#F4E600"/>
<path d="M7.88528 9.17912C7.88488 8.96132 7.88448 8.74352 7.88428 8.52572C8.10208 8.52452 8.31968 8.52322 8.53748 8.52222C8.53748 8.73632 8.53748 8.95022 8.53748 9.17932C8.31798 9.17912 8.10168 9.17912 7.88528 9.17912Z" fill="#C0C0BF"/>
<path d="M10.5098 9.17878C10.5098 8.96528 10.5098 8.75178 10.5098 8.52148C10.7292 8.52148 10.945 8.52148 11.1609 8.52148C11.1609 8.74048 11.1609 8.95958 11.1609 9.17878L11.1624 9.17738C10.9448 9.17798 10.7274 9.17838 10.5098 9.17878Z" fill="#808181"/>
<path d="M12.478 8.52661C12.6952 8.52661 12.9052 8.52661 13.1219 8.52661C13.1219 8.74181 13.1219 8.95421 13.1219 9.17261C12.9078 9.17261 12.6954 9.17261 12.478 9.17261C12.478 8.95811 12.478 8.74791 12.478 8.52661Z" fill="#F4E600"/>
<path d="M3.9481 9.18408C3.9481 9.39858 3.9481 9.60878 3.9481 9.82638C3.7358 9.82638 3.5234 9.82638 3.3042 9.82638C3.3042 9.61498 3.3042 9.40228 3.3042 9.18408C3.5185 9.18408 3.7309 9.18408 3.9481 9.18408Z" fill="#F4E600"/>
<path d="M6.56649 9.83019C6.35139 9.83019 6.14139 9.83019 5.92529 9.83019C5.92529 9.61409 5.92529 9.40139 5.92529 9.18359C6.13829 9.18359 6.34859 9.18359 6.56649 9.18359C6.56649 9.39459 6.56649 9.60729 6.56649 9.83019Z" fill="#F4E600"/>
<path d="M11.1611 9.17875C11.3752 9.17875 11.5891 9.17875 11.8104 9.17875C11.8104 9.39595 11.8104 9.60815 11.8104 9.82715C11.5994 9.82715 11.3871 9.82715 11.1625 9.82715C11.1625 9.61025 11.1625 9.39365 11.1625 9.17725L11.1611 9.17875Z" fill="#F4E600"/>
<path d="M14.4373 9.1792C14.4373 9.3974 14.4373 9.6156 14.4373 9.8338C14.2232 9.8338 14.0091 9.8338 13.7896 9.8338C13.7896 9.6154 13.7896 9.4052 13.7896 9.1792C14.0039 9.1792 14.2207 9.1792 14.4373 9.1792Z" fill="#F4E600"/>
<path d="M1.99316 9.83911C2.21215 9.83911 2.42215 9.83911 2.63715 9.83911C2.63715 10.0542 2.63715 10.2642 2.63715 10.482C2.42505 10.482 2.21255 10.482 1.99316 10.482C1.99316 10.2707 1.99316 10.0583 1.99316 9.83911Z" fill="#F4E600"/>
<path d="M5.25842 10.4853C5.04312 10.4853 4.83312 10.4853 4.61572 10.4853C4.61572 10.272 4.61572 10.0596 4.61572 9.84058C4.82792 9.84058 5.04042 9.84058 5.25842 9.84058C5.25842 10.0532 5.25842 10.2632 5.25842 10.4853Z" fill="#F4E600"/>
<path d="M7.88212 9.83325C7.88212 10.047 7.88212 10.2609 7.88212 10.4914C7.66412 10.4914 7.44812 10.4914 7.23242 10.4914C7.23242 10.2781 7.23242 10.0651 7.23242 9.83345C7.45182 9.83325 7.66702 9.83325 7.88212 9.83325Z" fill="#C0C0BF"/>
<path d="M9.85107 10.4862C9.85107 10.2729 9.85107 10.0594 9.85107 9.83398C10.0716 9.83398 10.2873 9.83398 10.5031 9.83398C10.5031 10.0481 10.5031 10.262 10.5031 10.4862C10.284 10.4862 10.0677 10.4862 9.85107 10.4862Z" fill="#F4E600"/>
<path d="M13.1237 9.84131C13.1237 10.0587 13.1237 10.2687 13.1237 10.4842C12.9092 10.4842 12.6992 10.4842 12.481 10.4842C12.481 10.2738 12.481 10.0612 12.481 9.84131C12.6904 9.84131 12.9028 9.84131 13.1237 9.84131Z" fill="#F4E600"/>
<path d="M3.94418 11.1432C3.72808 11.1432 3.52048 11.1432 3.30518 11.1432C3.30518 10.9287 3.30518 10.7163 3.30518 10.4966C3.51578 10.4966 3.72848 10.4966 3.94418 10.4966C3.94418 10.7128 3.94418 10.9277 3.94418 11.1432Z" fill="#F4E600"/>
<path d="M5.92627 10.4944C6.14407 10.4944 6.35427 10.4944 6.56947 10.4944C6.56947 10.7092 6.56947 10.9194 6.56947 11.1374C6.35837 11.1374 6.14597 11.1374 5.92627 11.1374C5.92627 10.927 5.92627 10.7145 5.92627 10.4944Z" fill="#F4E600"/>
<path d="M11.1665 11.1381C11.1665 10.9211 11.1665 10.7109 11.1665 10.4954C11.3809 10.4954 11.5909 10.4954 11.8093 10.4954C11.8093 10.7056 11.8093 10.9181 11.8093 11.1381C11.5999 11.1381 11.3874 11.1381 11.1665 11.1381Z" fill="#F4E600"/>
<path d="M14.4373 10.4902C14.4373 10.7084 14.4373 10.9266 14.4373 11.1448C14.2232 11.1448 14.0091 11.1448 13.7896 11.1448C13.7896 10.9264 13.7896 10.7162 13.7896 10.4902C14.0039 10.4902 14.2207 10.4902 14.4373 10.4902Z" fill="#F4E600"/>
<path d="M1.99121 11.7935C1.99121 11.5761 1.99121 11.3661 1.99121 11.1506C2.20572 11.1506 2.41572 11.1506 2.63392 11.1506C2.63392 11.361 2.63392 11.5737 2.63392 11.7935C2.42452 11.7935 2.21212 11.7935 1.99121 11.7935Z" fill="#F4E600"/>
<path d="M4.61426 11.147C4.83206 11.147 5.03956 11.147 5.25536 11.147C5.25536 11.3611 5.25536 11.5738 5.25536 11.7936C5.04556 11.7936 4.83306 11.7936 4.61426 11.7936C4.61426 11.5812 4.61426 11.3685 4.61426 11.147Z" fill="#F4E600"/>
<path d="M10.5021 11.1523C10.5021 11.3699 10.5021 11.5801 10.5021 11.7955C10.2876 11.7955 10.0776 11.7955 9.85938 11.7955C9.85938 11.5846 9.85938 11.3722 9.85938 11.1523C10.0692 11.1523 10.2817 11.1523 10.5021 11.1523Z" fill="#F4E600"/>
<path d="M13.1212 11.7962C12.9038 11.7962 12.6938 11.7962 12.4785 11.7962C12.4785 11.5817 12.4785 11.3715 12.4785 11.1533C12.6889 11.1533 12.9014 11.1533 13.1212 11.1533C13.1212 11.3631 13.1212 11.5755 13.1212 11.7962Z" fill="#F4E600"/>
<path d="M3.30176 12.4494C3.30176 12.232 3.30176 12.0218 3.30176 11.8064C3.51626 11.8064 3.72626 11.8064 3.94446 11.8064C3.94446 12.0168 3.94446 12.2295 3.94446 12.4494C3.73486 12.4494 3.52246 12.4494 3.30176 12.4494Z" fill="#F4E600"/>
<path d="M5.92627 11.8054C6.14347 11.8054 6.35347 11.8054 6.56897 11.8054C6.56897 12.0199 6.56897 12.2301 6.56897 12.4483C6.35857 12.4483 6.14607 12.4483 5.92627 12.4483C5.92627 12.2387 5.92627 12.0263 5.92627 11.8054Z" fill="#F4E600"/>
<path d="M8.54395 12.4564C8.54395 12.2378 8.54395 12.0194 8.54395 11.8008C8.75765 11.8008 8.97155 11.8008 9.19065 11.8008C9.19065 12.0198 9.19065 12.23 9.19065 12.4564C8.97675 12.4564 8.76035 12.4564 8.54395 12.4564Z" fill="#F4E600"/>
<path d="M11.8114 12.4547C11.5936 12.4547 11.3861 12.4547 11.1704 12.4547C11.1704 12.2406 11.1704 12.0279 11.1704 11.8081C11.3802 11.8081 11.5926 11.8081 11.8114 11.8081C11.8114 12.0207 11.8114 12.2332 11.8114 12.4547Z" fill="#F4E600"/>
<path d="M14.4373 11.8015C14.4373 12.0197 14.4373 12.2379 14.4373 12.4561C14.2232 12.4561 14.0091 12.4561 13.7896 12.4561C13.7896 12.2377 13.7896 12.0274 13.7896 11.8015C14.0039 11.8015 14.2207 11.8015 14.4373 11.8015Z" fill="#F4E600"/>
<path d="M2.63486 13.1073C2.41706 13.1073 2.20686 13.1073 1.9917 13.1073C1.9917 12.8926 1.9917 12.6824 1.9917 12.4644C2.20276 12.4644 2.41516 12.4644 2.63486 12.4644C2.63486 12.6746 2.63486 12.8873 2.63486 13.1073Z" fill="#F4E600"/>
<path d="M5.25891 12.4634C5.25891 12.6814 5.25891 12.8914 5.25891 13.1068C5.04421 13.1068 4.83421 13.1068 4.61621 13.1068C4.61621 12.8957 4.61621 12.6831 4.61621 12.4634C4.82621 12.4634 5.03871 12.4634 5.25891 12.4634Z" fill="#F4E600"/>
<path d="M9.85889 12.4609C10.0762 12.4609 10.2862 12.4609 10.5016 12.4609C10.5016 12.6754 10.5016 12.8857 10.5016 13.1039C10.2912 13.1039 10.0787 13.1039 9.85889 13.1039C9.85889 12.8943 9.85889 12.6818 9.85889 12.4609Z" fill="#F4E600"/>
<path d="M13.1212 13.1073C12.9034 13.1073 12.6932 13.1073 12.478 13.1073C12.478 12.8926 12.478 12.6824 12.478 12.4644C12.6891 12.4644 12.9015 12.4644 13.1212 12.4644C13.1212 12.6746 13.1212 12.8873 13.1212 13.1073Z" fill="#F4E600"/>
<path d="M3.94942 13.1204C3.94942 13.3349 3.94942 13.5449 3.94942 13.7615C3.73342 13.7615 3.52102 13.7615 3.30322 13.7615C3.30322 13.5488 3.30322 13.3388 3.30322 13.1204C3.51342 13.1204 3.72582 13.1204 3.94942 13.1204Z" fill="#F4E600"/>
<path d="M6.56995 13.1194C6.56995 13.3367 6.56995 13.547 6.56995 13.7623C6.35545 13.7623 6.14545 13.7623 5.92725 13.7623C5.92725 13.5519 5.92725 13.3392 5.92725 13.1194C6.13685 13.1194 6.34935 13.1194 6.56995 13.1194Z" fill="#F4E600"/>
<path d="M8.54004 13.1127C8.75394 13.1127 8.96784 13.1127 9.18894 13.1127C9.18894 13.3295 9.18894 13.5417 9.18894 13.761C8.97774 13.761 8.76564 13.761 8.54154 13.761C8.54154 13.5442 8.54154 13.3278 8.54154 13.1113L8.54004 13.1127Z" fill="#F4E600"/>
<path d="M11.8134 13.1196C11.8134 13.3357 11.8134 13.5457 11.8134 13.7617C11.5969 13.7617 11.3844 13.7617 11.167 13.7617C11.167 13.5474 11.167 13.3374 11.167 13.1196C11.3791 13.1196 11.5915 13.1196 11.8134 13.1196Z" fill="#F4E600"/>
<path d="M14.4373 13.1128C14.4373 13.331 14.4373 13.5492 14.4373 13.7674C14.2232 13.7674 14.0091 13.7674 13.7896 13.7674C13.7896 13.549 13.7896 13.3388 13.7896 13.1128C14.0039 13.1128 14.2207 13.1128 14.4373 13.1128Z" fill="#F4E600"/>
<path d="M2.635 14.4183C2.4168 14.4183 2.2068 14.4183 1.9917 14.4183C1.9917 14.2034 1.9917 13.9934 1.9917 13.7754C2.2029 13.7754 2.4154 13.7754 2.635 13.7754C2.635 13.986 2.635 14.1985 2.635 14.4183Z" fill="#F4E600"/>
<path d="M4.61279 14.4163C4.61279 14.1981 4.61279 13.9879 4.61279 13.7727C4.82759 13.7727 5.03759 13.7727 5.25559 13.7727C5.25559 13.9842 5.25559 14.1966 5.25559 14.4163C5.04509 14.4163 4.83269 14.4163 4.61279 14.4163Z" fill="#F4E600"/>
<path d="M7.88507 14.4199C7.66687 14.4209 7.44867 14.4221 7.23047 14.4231C7.23047 14.2088 7.23047 13.9943 7.23047 13.7739C7.44987 13.7739 7.66257 13.7739 7.88507 13.7739C7.88507 13.9917 7.88507 14.2058 7.88507 14.4199Z" fill="#F4E600"/>
<path d="M10.5 14.4183C10.2814 14.4183 10.0714 14.4183 9.85645 14.4183C9.85645 14.2034 9.85645 13.9932 9.85645 13.7754C10.0681 13.7754 10.2805 13.7754 10.5 13.7754C10.5 13.9862 10.5 14.1987 10.5 14.4183Z" fill="#F4E600"/>
<path d="M13.1201 14.421C12.9039 14.421 12.6964 14.421 12.481 14.421C12.481 14.2065 12.481 13.994 12.481 13.7744C12.6917 13.7744 12.9043 13.7744 13.1201 13.7744C13.1201 13.9905 13.1201 14.2054 13.1201 14.421Z" fill="#F4E600"/>
<path d="M3.3042 14.4282C3.5228 14.4282 3.7328 14.4282 3.9477 14.4282C3.9477 14.6431 3.9477 14.8533 3.9477 15.0711C3.7361 15.0711 3.5236 15.0711 3.3042 15.0711C3.3042 14.8601 3.3042 14.6476 3.3042 14.4282Z" fill="#F4E600"/>
<path d="M6.57497 15.0781C6.36107 15.0781 6.14737 15.0781 5.92627 15.0781C5.92627 14.8612 5.92627 14.6489 5.92627 14.4258C6.14147 14.4258 6.35737 14.4258 6.57357 14.4258C6.57397 14.6436 6.57437 14.8614 6.57457 15.0792L6.57497 15.0781Z" fill="#F4E600"/>
<path d="M6.57473 15.0793C6.57433 14.8615 6.57393 14.6437 6.57373 14.4259C6.79273 14.4253 7.01183 14.4249 7.23083 14.4243C7.23083 14.638 7.23083 14.8515 7.23083 15.0793C7.00703 15.0793 6.79093 15.0793 6.57473 15.0793Z" fill="#C0C0BF"/>
<path d="M9.19366 15.0803C8.98056 15.0803 8.76746 15.0803 8.53906 15.0803C8.53906 14.8568 8.53906 14.641 8.53906 14.4255C8.75276 14.4255 8.96636 14.4255 9.19366 14.4255C9.19366 14.6478 9.19366 14.8642 9.19366 15.0803Z" fill="#C0C0BF"/>
<path d="M11.167 15.0718C11.167 14.854 11.167 14.644 11.167 14.4287C11.3815 14.4287 11.5917 14.4287 11.8097 14.4287C11.8097 14.6395 11.8097 14.8522 11.8097 15.0718C11.5997 15.0718 11.3872 15.0718 11.167 15.0718Z" fill="#F4E600"/>
<path d="M14.4373 14.4238C14.4373 14.642 14.4373 14.8602 14.4373 15.0784C14.2232 15.0784 14.0091 15.0784 13.7896 15.0784C13.7896 14.86 13.7896 14.6498 13.7896 14.4238C14.0039 14.4238 14.2207 14.4238 14.4373 14.4238Z" fill="#F4E600"/>
<path d="M1.99414 15.0835C2.21152 15.0835 2.42152 15.0835 2.63682 15.0835C2.63682 15.298 2.63682 15.5082 2.63682 15.7264C2.42642 15.7264 2.21402 15.7264 1.99414 15.7264C1.99414 15.5166 1.99414 15.3042 1.99414 15.0835Z" fill="#F4E600"/>
<path d="M4.61279 15.7275C4.61279 15.5093 4.61279 15.2991 4.61279 15.084C4.82759 15.084 5.03759 15.084 5.25559 15.084C5.25559 15.2954 5.25559 15.5079 5.25559 15.7275C5.04509 15.7275 4.83269 15.7275 4.61279 15.7275Z" fill="#F4E600"/>
<path d="M10.4999 15.7294C10.2809 15.7294 10.0709 15.7294 9.85596 15.7294C9.85596 15.5142 9.85596 15.3042 9.85596 15.0864C10.0681 15.0864 10.2805 15.0864 10.4999 15.0864C10.4999 15.2977 10.4999 15.5101 10.4999 15.7294Z" fill="#F4E600"/>
<path d="M13.1235 15.0845C13.1235 15.299 13.1235 15.5093 13.1235 15.7268C12.9112 15.7268 12.6987 15.7268 12.4795 15.7268C12.4795 15.5154 12.4795 15.3027 12.4795 15.0845C12.6938 15.0845 12.9063 15.0845 13.1235 15.0845Z" fill="#F4E600"/>
<path d="M3.30469 15.739C3.52229 15.739 3.73229 15.739 3.94759 15.739C3.94759 15.9535 3.94759 16.1638 3.94759 16.382C3.73699 16.382 3.52429 16.382 3.30469 16.382C3.30469 16.172 3.30469 15.9595 3.30469 15.739Z" fill="#F4E600"/>
<path d="M6.57109 15.7344C6.57209 15.9526 6.57329 16.1708 6.57439 16.3893C6.36009 16.3893 6.14579 16.3893 5.92529 16.3893C5.92529 16.1698 5.92529 15.9572 5.92529 15.7344C6.14289 15.7344 6.35699 15.7344 6.57109 15.7344Z" fill="#F4E600"/>
<path d="M11.1694 15.739C11.3865 15.739 11.5965 15.739 11.8121 15.739C11.8121 15.9535 11.8121 16.1637 11.8121 16.3819C11.6019 16.3819 11.3892 16.3819 11.1694 16.3819C11.1694 16.1725 11.1694 15.9598 11.1694 15.739Z" fill="#F4E600"/>
<path d="M14.4373 15.7351C14.4373 15.9533 14.4373 16.1716 14.4373 16.3898C14.2232 16.3898 14.0091 16.3898 13.7896 16.3898C13.7896 16.1713 13.7896 15.9611 13.7896 15.7351C14.0039 15.7351 14.2207 15.7351 14.4373 15.7351Z" fill="#F4E600"/>
<path d="M1.99219 16.3945C2.2075 16.3945 2.4175 16.3945 2.6349 16.3945C2.6349 16.6078 2.6349 16.8203 2.6349 17.0393C2.4226 17.0393 2.2102 17.0393 1.99219 17.0393C1.99219 16.8266 1.99219 16.6166 1.99219 16.3945Z" fill="#F4E600"/>
<path d="M4.61279 17.0384C4.61279 16.821 4.61279 16.611 4.61279 16.3955C4.82729 16.3955 5.03729 16.3955 5.25549 16.3955C5.25549 16.6059 5.25549 16.8185 5.25549 17.0384C5.04589 17.0384 4.83349 17.0384 4.61279 17.0384Z" fill="#F4E600"/>
<path d="M6.57594 16.3892C6.78914 16.3892 7.00244 16.3892 7.23174 16.3892C7.23174 16.6117 7.23174 16.8275 7.23174 17.0432C7.01214 17.044 6.79264 17.0451 6.57324 17.0459L6.57464 17.0473C6.57484 16.8279 6.57524 16.6087 6.57594 16.3892Z" fill="#C0C0BF"/>
<path d="M8.53516 17.0453C8.53516 16.8318 8.53516 16.6183 8.53516 16.3884C8.76196 16.3884 8.97776 16.3884 9.19346 16.3884C9.19346 16.6079 9.19326 16.8271 9.19326 17.0465C8.97546 17.0484 8.75786 17.0504 8.54006 17.0523L8.53516 17.0453Z" fill="#C0C0BF"/>
<path d="M9.8584 16.395C10.0766 16.395 10.2866 16.395 10.5017 16.395C10.5017 16.6099 10.5017 16.8199 10.5017 17.0379C10.2905 17.0379 10.078 17.0379 9.8584 17.0379C9.8584 16.8273 9.8584 16.6148 9.8584 16.395Z" fill="#F4E600"/>
<path d="M13.1221 17.0438C12.9043 17.0438 12.6967 17.0438 12.481 17.0438C12.481 16.8297 12.481 16.6171 12.481 16.3972C12.6908 16.3972 12.9032 16.3972 13.1221 16.3972C13.1221 16.6099 13.1221 16.8223 13.1221 17.0438Z" fill="#F4E600"/>
<path d="M3.94842 17.0508C3.94842 17.2671 3.94842 17.4773 3.94842 17.6943C3.73432 17.6943 3.52192 17.6943 3.30322 17.6943C3.30322 17.4808 3.30322 17.2684 3.30322 17.0508C3.51692 17.0508 3.72692 17.0508 3.94842 17.0508Z" fill="#F4E600"/>
<path d="M6.57273 17.0459C6.57273 17.2602 6.57273 17.4747 6.57273 17.6952C6.35433 17.6952 6.14163 17.6952 5.92383 17.6952C5.92383 17.4811 5.92383 17.2709 5.92383 17.0473C6.14043 17.0473 6.35723 17.0473 6.57393 17.0473L6.57273 17.0459Z" fill="#F4E600"/>
<path d="M8.54053 17.0523C8.75833 17.0505 8.97593 17.0484 9.19373 17.0466C9.19373 17.2605 9.19373 17.4746 9.19373 17.6948C8.97693 17.6948 8.76463 17.6948 8.54053 17.6948C8.54053 17.4793 8.54053 17.2658 8.54053 17.0523Z" fill="#F4E600"/>
<path d="M11.1699 17.05C11.3863 17.05 11.5965 17.05 11.8122 17.05C11.8122 17.2643 11.8122 17.4743 11.8122 17.6929C11.6026 17.6929 11.3902 17.6929 11.1699 17.6929C11.1699 17.4841 11.1699 17.2715 11.1699 17.05Z" fill="#F4E600"/>
<path d="M14.4373 17.0464C14.4373 17.2646 14.4373 17.4828 14.4373 17.701C14.2232 17.701 14.0091 17.701 13.7896 17.701C13.7896 17.4826 13.7896 17.2724 13.7896 17.0464C14.0039 17.0464 14.2207 17.0464 14.4373 17.0464Z" fill="#F4E600"/>
<path d="M2.63738 17.7085C2.63738 17.9263 2.63738 18.1363 2.63738 18.3516C2.42288 18.3516 2.21258 18.3516 1.99463 18.3516C1.99463 18.1408 1.99463 17.9281 1.99463 17.7085C2.20438 17.7085 2.41688 17.7085 2.63738 17.7085Z" fill="#F4E600"/>
<path d="M4.61377 17.7061C4.82827 17.7061 5.03827 17.7061 5.25587 17.7061C5.25587 17.9183 5.25587 18.131 5.25587 18.3502C5.04447 18.3502 4.83197 18.3502 4.61377 18.3502C4.61377 18.1386 4.61377 17.9284 4.61377 17.7061Z" fill="#F4E600"/>
<path d="M7.88 18.3526C7.6646 18.3526 7.4546 18.3526 7.2373 18.3526C7.2373 18.1393 7.2373 17.9268 7.2373 17.7078C7.4495 17.7078 7.662 17.7078 7.88 17.7078C7.88 17.9205 7.88 18.1305 7.88 18.3526Z" fill="#F4E600"/>
<path d="M10.4996 18.3525C10.2823 18.3525 10.0723 18.3525 9.85693 18.3525C9.85693 18.1379 9.85693 17.9277 9.85693 17.7095C10.0673 17.7095 10.2798 17.7095 10.4996 17.7095C10.4996 17.9191 10.4996 18.1316 10.4996 18.3525Z" fill="#F4E600"/>
<path d="M13.1242 17.7087C13.1242 17.9254 13.1242 18.1357 13.1242 18.3512C12.9099 18.3512 12.6999 18.3512 12.4814 18.3512C12.4814 18.1414 12.4814 17.9287 12.4814 17.7087C12.6904 17.7087 12.9029 17.7087 13.1242 17.7087Z" fill="#F4E600"/>
<path d="M3.2998 19.006C3.2998 18.7889 3.2998 18.5811 3.2998 18.3652C3.5132 18.3652 3.7259 18.3652 3.9458 18.3652C3.9458 18.5744 3.9458 18.7868 3.9458 19.006C3.7339 19.006 3.5215 19.006 3.2998 19.006Z" fill="#F4E600"/>
<path d="M6.56837 19.0077C6.35387 19.0077 6.14387 19.0077 5.92627 19.0077C5.92627 18.7954 5.92627 18.5828 5.92627 18.3635C6.13767 18.3635 6.35017 18.3635 6.56837 18.3635C6.56837 18.5754 6.56837 18.7854 6.56837 19.0077Z" fill="#F4E600"/>
<path d="M8.54785 18.3616C8.76515 18.3616 8.97515 18.3616 9.19055 18.3616C9.19055 18.5761 9.19055 18.7863 9.19055 19.0045C8.98015 19.0045 8.76765 19.0045 8.54785 19.0045C8.54785 18.7949 8.54785 18.5822 8.54785 18.3616Z" fill="#F4E600"/>
<path d="M11.168 18.3618C11.3825 18.3618 11.5925 18.3618 11.8101 18.3618C11.8101 18.5741 11.8101 18.7867 11.8101 19.0059C11.5986 19.0059 11.3862 19.0059 11.168 19.0059C11.168 18.7916 11.168 18.5792 11.168 18.3618Z" fill="#F4E600"/>
<path d="M14.4373 18.3574C14.4373 18.5756 14.4373 18.7938 14.4373 19.012C14.2232 19.012 14.0091 19.012 13.7896 19.012C13.7896 18.7936 13.7896 18.5834 13.7896 18.3574C14.0039 18.3574 14.2207 18.3574 14.4373 18.3574Z" fill="#F4E600"/>
<path d="M2.64172 19.666C2.42372 19.666 2.20552 19.666 1.9873 19.666C1.9873 19.4519 1.9873 19.2376 1.9873 19.0181C2.20572 19.0181 2.41592 19.0181 2.64172 19.0181C2.64172 19.2326 2.64172 19.4492 2.64172 19.666Z" fill="#F4E600"/>
<path d="M5.26329 19.666C5.04529 19.666 4.82709 19.666 4.60889 19.666C4.60889 19.4519 4.60889 19.2376 4.60889 19.0181C4.82729 19.0181 5.03749 19.0181 5.26329 19.0181C5.26329 19.2326 5.26329 19.4492 5.26329 19.666Z" fill="#F4E600"/>
<path d="M7.88438 19.666C7.66638 19.666 7.44818 19.666 7.22998 19.666C7.22998 19.4519 7.22998 19.2376 7.22998 19.0181C7.44838 19.0181 7.65858 19.0181 7.88438 19.0181C7.88438 19.2326 7.88438 19.4492 7.88438 19.666Z" fill="#F4E600"/>
<path d="M10.5065 19.666C10.2885 19.666 10.0703 19.666 9.85205 19.666C9.85205 19.4519 9.85205 19.2376 9.85205 19.0181C10.0705 19.0181 10.2807 19.0181 10.5065 19.0181C10.5065 19.2326 10.5065 19.4492 10.5065 19.666Z" fill="#F4E600"/>
<path d="M13.128 19.666C12.91 19.666 12.6918 19.666 12.4736 19.666C12.4736 19.4519 12.4736 19.2376 12.4736 19.0181C12.692 19.0181 12.9022 19.0181 13.128 19.0181C13.128 19.2326 13.128 19.4492 13.128 19.666Z" fill="#F4E600"/>
<path d="M13.7846 1.96606C13.7844 2.18488 13.7842 2.4037 13.7838 2.62252C13.5699 2.62252 13.356 2.62252 13.1284 2.62252C13.1284 2.3998 13.1284 2.18324 13.1284 1.96688C13.347 1.96668 13.5658 1.96647 13.7846 1.96606Z" fill="#808181"/>
<path d="M9.19123 4.59033C9.19313 4.80751 9.19473 5.02448 9.19653 5.24166C8.98353 5.24166 8.77023 5.24166 8.54443 5.24166C8.54443 5.02366 8.54443 4.80833 8.54443 4.593C8.75993 4.59197 8.97573 4.59115 9.19123 4.59033Z" fill="#058181"/>
</g>
</svg>
