<svg width="21" height="21" viewBox="0 0 21 21" fill="none" xmlns="http://www.w3.org/2000/svg">
<mask id="mask0_666_19498" style="mask-type:luminance" maskUnits="userSpaceOnUse" x="0" y="0" width="21" height="21">
<path d="M21 0H0V21H21V0Z" fill="white"/>
</mask>
<g mask="url(#mask0_666_19498)">
<path d="M20.9998 20.9792C14.0091 20.9792 7.01856 20.9792 0.0229492 20.9792C0.0229492 19.2303 0.0229492 17.4877 0.0229492 15.7355C0.240339 15.7355 0.457509 15.7355 0.674899 15.7355L0.673259 15.7339C0.673459 16.1334 0.673459 16.5329 0.673869 16.9322C0.674689 17.6251 0.675719 18.3183 0.676739 19.0113C0.676539 19.2299 0.676329 19.4485 0.676129 19.6671C0.676129 19.8837 0.676129 20.1002 0.676129 20.316C1.55694 20.316 2.42175 20.316 3.29764 20.316C3.29764 20.0941 3.29764 19.88 3.29764 19.6657C3.51584 19.6669 3.73405 19.6681 3.95225 19.6696L3.95081 19.6681C3.95081 19.8843 3.95081 20.1004 3.95081 20.3207C4.17966 20.3207 4.39316 20.3207 4.60666 20.3207C4.82526 20.3209 5.04386 20.3211 5.26246 20.3213C5.27606 20.3219 5.28976 20.3234 5.30326 20.3234C6.79096 20.3236 8.27836 20.3236 9.76596 20.3231C9.79206 20.3231 9.81806 20.3178 9.85456 20.3137C9.85456 20.0939 9.85456 19.8796 9.85456 19.6653C10.0712 19.6653 10.2878 19.6653 10.5115 19.6653C10.5115 19.8929 10.5115 20.1029 10.5115 20.318C11.168 20.318 11.817 20.318 12.4772 20.318C12.4772 20.1008 12.4772 19.8882 12.4772 19.6646C12.7007 19.6646 12.9134 19.6646 13.1287 19.6646C13.1287 19.4393 13.1287 19.2252 13.1287 19.0109C13.1308 18.7929 13.1326 18.5751 13.1347 18.3571L13.1328 18.3589C13.3504 18.3573 13.568 18.3554 13.7856 18.3538C13.7856 19.0072 13.7856 19.6607 13.7856 20.3231C13.8512 20.3231 13.8984 20.3231 13.9455 20.3231C15.2045 20.3223 16.4637 20.3217 17.7227 20.3209C17.9413 20.3207 18.1599 20.3205 18.3785 20.3203C18.5945 20.3203 18.8104 20.3203 19.0305 20.3203C19.0305 20.0955 19.0305 19.882 19.0305 19.6687C19.2499 19.6685 19.4691 19.6683 19.6885 19.6679C19.6885 19.8841 19.6881 20.0998 19.6881 20.3154C19.9158 20.3154 20.1252 20.3154 20.3419 20.3154C20.3419 20.0939 20.3419 19.8802 20.3419 19.6665C20.3417 19.2293 20.3415 18.7922 20.3413 18.355C20.3413 18.1372 20.3413 17.9196 20.3413 17.7018C20.3415 17.4832 20.3417 17.2646 20.3419 17.046C20.3425 16.8274 20.343 16.6086 20.3436 16.39L20.345 16.3885C20.5632 16.3887 20.7816 16.3891 20.9998 16.3893C20.9998 17.9198 20.9998 19.4495 20.9998 20.9792Z" fill="#020203"/>
<path d="M7.23159 0.65646C7.23119 0.43764 7.23089 0.21882 7.23049 0C8.76039 0 10.2903 0 11.8202 0C11.8202 0.21861 11.82 0.43723 11.82 0.65584C11.601 0.65666 11.3821 0.65748 11.1631 0.65851C10.7261 0.65851 10.2891 0.65851 9.85209 0.65871C9.81119 0.65769 9.77059 0.65584 9.72979 0.65584C8.89639 0.65543 8.06299 0.65502 7.22949 0.65461L7.23159 0.65646Z" fill="#434342"/>
<path d="M11.8198 0.65584C11.8198 0.43723 11.82 0.21861 11.82 0C12.257 0 12.6942 0 13.1313 0C13.1308 0.21882 13.1304 0.43784 13.1302 0.65666L13.1319 0.65502C12.9139 0.65604 12.6959 0.65687 12.4779 0.65789C12.2584 0.65707 12.039 0.65646 11.8198 0.65584Z" fill="#020203"/>
<path d="M18.3761 7.21071C18.3761 7.42521 18.3761 7.63991 18.3761 7.86201C17.5051 7.86201 16.6368 7.86201 15.7614 7.86201C15.7614 9.83221 15.7614 11.7948 15.7614 13.7654C16.1918 13.7654 16.6235 13.7654 17.0646 13.7654C17.0646 13.9901 17.0646 14.2073 17.0646 14.4243L17.0663 14.4226C16.8483 14.4235 16.6303 14.4245 16.4123 14.4253C15.9738 14.4245 15.5356 14.4237 15.0971 14.4229C15.0965 14.204 15.0961 13.985 15.0955 13.7662C15.0965 13.7492 15.0983 13.7322 15.0983 13.7151C15.0985 12.4467 15.0985 11.1781 15.0983 9.90971C15.0983 9.88691 15.0951 9.86421 15.093 9.83711C14.8725 9.83711 14.6584 9.83711 14.4443 9.83711C14.2249 9.83711 14.0053 9.83691 13.7858 9.83691C13.5693 9.83691 13.3525 9.83691 13.1288 9.83691C13.1288 9.38901 13.1288 8.95671 13.1288 8.52421C13.5639 8.52421 13.9989 8.52421 14.4458 8.52421C14.4458 8.74901 14.4458 8.95881 14.4458 9.17201C14.6673 9.17201 14.8766 9.17201 15.0893 9.17201C15.0893 8.73501 15.0893 8.30481 15.0893 7.87531C14.4337 7.87531 13.7875 7.87531 13.1302 7.87531C13.1302 8.09741 13.1302 8.31151 13.1302 8.52581C12.9122 8.52601 12.6944 8.52621 12.4764 8.52621C12.2578 8.52581 12.0394 8.52541 11.8208 8.52501C11.8208 8.30821 11.8208 8.09151 11.8208 7.87511C10.7187 7.87511 9.63507 7.87511 8.54857 7.87511C8.54857 8.09251 8.54857 8.30211 8.54857 8.52361C8.76507 8.52361 8.97487 8.52361 9.19987 8.52361C9.19987 8.74751 9.19987 8.95981 9.19987 9.17021C9.64367 9.17021 10.0719 9.17021 10.5118 9.17021C10.5118 8.95221 10.5118 8.74241 10.5118 8.52361C10.9566 8.52361 11.3893 8.52361 11.822 8.52361C11.821 8.74181 11.82 8.96021 11.8187 9.17841L11.8198 9.17741C11.6032 9.17741 11.3866 9.17741 11.1631 9.17741C11.1631 9.40581 11.1631 9.61991 11.1631 9.83381L11.1641 9.83281C10.9453 9.83421 10.7265 9.83571 10.5077 9.83711C10.2897 9.83711 10.0715 9.83711 9.85347 9.83711C9.63437 9.83711 9.41537 9.83711 9.19637 9.83711C8.97957 9.83711 8.76307 9.83711 8.53767 9.83711C8.53767 9.60861 8.53767 9.39581 8.53767 9.17821C8.31457 9.17821 8.10017 9.17821 7.88587 9.17821C7.88487 8.96001 7.88367 8.74161 7.88267 8.52341C7.88267 8.30681 7.88267 8.09021 7.88267 7.86731C7.65867 7.86731 7.44457 7.86731 7.23047 7.86731C7.23067 7.65121 7.23087 7.43501 7.23127 7.21871C7.23457 7.21561 7.23457 7.21231 7.23127 7.20901C8.10497 7.20861 8.97857 7.20841 9.85197 7.20801C9.89627 7.20901 9.94057 7.21111 9.98487 7.21111C12.7826 7.21151 15.5801 7.21191 18.3777 7.21211L18.3761 7.21071Z" fill="#020203"/>
<path d="M13.7884 1.3103C14.0029 1.3103 14.2176 1.3103 14.4401 1.3103C14.4401 1.96635 14.4401 2.61665 14.4401 3.27495C14.6612 3.27495 14.8745 3.27495 15.096 3.27495C15.096 3.93325 15.096 4.58355 15.096 5.24185C15.3171 5.24185 15.5303 5.24185 15.7535 5.24185C15.7535 5.46703 15.7535 5.68421 15.7535 5.90139L15.7551 5.89974C13.572 5.89974 11.389 5.89974 9.19629 5.89974C9.19629 5.67334 9.19629 5.45903 9.19629 5.24473C10.2861 5.24473 11.3759 5.24473 12.4788 5.24473C12.4788 5.01729 12.4788 4.8034 12.4788 4.5895C12.6959 4.5895 12.9131 4.5895 13.1301 4.5895C13.1301 4.80586 13.1301 5.02222 13.1301 5.23652C13.5784 5.23652 14.0062 5.23652 14.436 5.23652C14.436 4.80053 14.436 4.37294 14.436 3.93202C14.2154 3.93202 14.0017 3.93202 13.7878 3.93202C13.7874 3.71361 13.787 3.4952 13.7866 3.2768C13.7866 2.62178 13.7866 1.96676 13.7868 1.31174L13.7884 1.3103Z" fill="#020203"/>
<path d="M15.7534 5.90154C16.6246 5.90154 17.496 5.90154 18.3762 5.90154C18.3762 6.1234 18.3762 6.3402 18.3762 6.557L18.378 6.5551C17.5042 6.5549 16.6306 6.5545 15.7567 6.5543C15.7561 6.3361 15.7555 6.1179 15.7551 5.8999L15.7534 5.90154Z" fill="#020203"/>
<path d="M18.376 15.08C18.8104 15.08 19.2449 15.08 19.6873 15.08C19.6873 15.3025 19.6873 15.5191 19.6873 15.7356L19.6889 15.734C19.254 15.734 18.8192 15.734 18.3777 15.734C18.3777 15.5068 18.3777 15.2927 18.3777 15.0784L18.376 15.08Z" fill="#020203"/>
<path d="M17.0645 14.4243C17.4989 14.4243 17.9334 14.4243 18.376 14.4243C18.376 14.6468 18.376 14.8633 18.376 15.0799L18.3776 15.0783C17.9427 15.0783 17.5079 15.0783 17.0664 15.0783C17.0664 14.851 17.0664 14.6369 17.0664 14.4226L17.0645 14.4243Z" fill="#020203"/>
<path d="M18.376 6.55708C18.8085 6.55708 19.241 6.55708 19.6809 6.55708C19.6809 6.77258 19.6809 6.98768 19.6809 7.21078C19.246 7.21078 18.811 7.21078 18.376 7.21078L18.3779 7.21268C18.3779 6.99348 18.3779 6.77438 18.3779 6.55518L18.376 6.55708Z" fill="#020203"/>
<path d="M13.1304 0.656625C13.3452 0.656625 13.5601 0.656625 13.7881 0.656625C13.7881 0.876265 13.7881 1.09324 13.7881 1.31021L13.7867 1.31165C13.5685 1.31145 13.3505 1.31104 13.1323 1.31083C13.1323 1.09222 13.1323 0.873395 13.1323 0.654785L13.1304 0.656625Z" fill="#020203"/>
<path d="M19.6872 15.7357C19.9019 15.7357 20.1168 15.7357 20.3449 15.7357C20.3449 15.9554 20.3449 16.1724 20.3449 16.3893L20.3435 16.3908C20.1242 16.3901 19.9052 16.3897 19.686 16.3891C19.687 16.1707 19.688 15.9523 19.6889 15.7339L19.6872 15.7357Z" fill="#020203"/>
<path d="M2.64208 6.55507C2.42757 6.55507 2.21306 6.55507 1.98973 6.55507C1.98973 6.33917 1.98973 6.12607 1.98973 5.90438C1.76824 5.90438 1.55517 5.90438 1.33594 5.90438C1.33594 5.68289 1.33594 5.46982 1.33594 5.24813C1.54778 5.24813 1.76065 5.24813 1.98255 5.24813C1.98255 5.02664 1.98255 4.81356 1.98255 4.58716C3.08136 4.58716 4.1716 4.58716 5.2617 4.58716C5.2642 4.58962 5.2667 4.59208 5.2691 4.59434C5.2679 4.81008 5.2665 5.02582 5.2652 5.24177C5.2142 5.24279 5.1633 5.24464 5.1122 5.24484C4.5067 5.24607 3.90126 5.2471 3.29566 5.24792C3.0789 5.24792 2.86233 5.24792 2.64023 5.24792C2.64023 5.6915 2.64023 6.12417 2.64023 6.55717L2.64208 6.55507Z" fill="#434342"/>
<path d="M4.6062 7.21223C3.9551 7.21223 3.30377 7.21223 2.64198 7.21223C2.64198 6.98913 2.64198 6.77213 2.64198 6.55493L2.64014 6.55703C4.1678 6.55703 5.6956 6.55703 7.232 6.55703C7.232 6.78093 7.232 6.99503 7.232 7.20933C7.2353 7.21263 7.2353 7.21573 7.232 7.21893C7.2017 7.21653 7.1711 7.21203 7.1408 7.21203C6.2957 7.21183 5.4509 7.21203 4.6062 7.21223Z" fill="#434342"/>
<path d="M4.60596 7.2122C5.45066 7.212 6.29566 7.2118 7.14036 7.212C7.17066 7.212 7.20126 7.2165 7.23156 7.2189C7.23136 7.4351 7.23116 7.6512 7.23096 7.8676L7.23306 7.8697C6.79886 7.8697 6.36476 7.8697 5.91826 7.8697C5.91826 8.3132 5.91826 8.7443 5.91826 9.1754C5.70086 9.1756 5.48356 9.1758 5.26616 9.1762C5.26506 8.9592 5.26386 8.7423 5.26286 8.5251C5.26286 8.3083 5.26286 8.0918 5.26286 7.8676C5.03376 7.8676 4.82256 7.8676 4.61136 7.8676C4.60946 7.649 4.60766 7.4306 4.60596 7.2122Z" fill="#2D0E0F"/>
<path d="M4.60874 13.7688C4.60874 13.5545 4.60874 13.34 4.60874 13.1179C4.82304 13.1179 5.03595 13.1179 5.25615 13.1179C5.25615 12.6768 5.25615 12.2435 5.25615 11.8024C5.04355 11.8024 4.83044 11.8024 4.60874 11.8024C4.60874 11.578 4.60874 11.361 4.60874 11.1443L4.60645 11.1465C4.82485 11.1453 5.04355 11.1438 5.26215 11.1426C5.48035 11.1443 5.69875 11.1459 5.91695 11.1475C5.91755 11.2191 5.91875 11.2907 5.91895 11.3623C5.92025 11.9451 5.92104 12.5279 5.92204 13.1105C5.92144 13.3294 5.92105 13.5484 5.92045 13.7672C5.70055 13.768 5.48075 13.7688 5.26105 13.7697C5.04305 13.7688 4.82505 13.7678 4.60705 13.767L4.60874 13.7688Z" fill="#020203"/>
<path d="M4.60907 11.1441C4.39457 11.1441 4.18027 11.1441 3.95898 11.1441C3.95898 10.2728 3.95898 9.40302 3.95898 8.52322C4.17467 8.52322 4.39147 8.52322 4.60847 8.52322L4.60747 8.52222C4.60867 8.74122 4.60987 8.96012 4.61137 9.17912C4.61137 9.39712 4.61137 9.61532 4.61137 9.83332C4.61137 10.0523 4.61137 10.2713 4.61137 10.4904C4.60987 10.709 4.60847 10.9278 4.60707 11.1464L4.60907 11.1441Z" fill="#020203"/>
<path d="M5.26709 3.27881C5.26709 2.62645 5.26709 1.9739 5.26709 1.31211C5.48709 1.31211 5.70369 1.31211 5.92049 1.31211L5.91859 1.31006C5.91959 1.96549 5.92049 2.62092 5.92149 3.27635C5.70329 3.27717 5.48529 3.27799 5.26709 3.27881Z" fill="#434342"/>
<path d="M5.92026 1.31227C5.92026 1.09837 5.92026 0.884265 5.92026 0.656625C6.35836 0.656625 6.79516 0.656625 7.23176 0.656625L7.22966 0.654785C7.22966 0.871955 7.22966 1.08894 7.22966 1.31042C6.78466 1.31042 6.35156 1.31042 5.91846 1.31042L5.92026 1.31227Z" fill="#434342"/>
<path d="M0.67519 15.7356C0.67519 15.5215 0.67519 15.3074 0.67519 15.08C1.11282 15.08 1.54964 15.08 1.98646 15.08L1.98481 15.0784C1.98584 15.2968 1.98666 15.5152 1.98769 15.7336C1.76764 15.7346 1.54738 15.7356 1.32733 15.7367C1.10934 15.7358 0.89134 15.7348 0.67334 15.734L0.67519 15.7356Z" fill="#020203"/>
<path d="M1.98602 15.0799C1.98602 14.8658 1.98602 14.6517 1.98602 14.4243C2.42366 14.4243 2.86048 14.4243 3.29729 14.4243L3.29565 14.4226C3.29565 14.6392 3.29565 14.856 3.29565 15.0783C2.8492 15.0783 2.41668 15.0783 1.98438 15.0783L1.98602 15.0799Z" fill="#020203"/>
<path d="M3.29734 14.4244C3.29734 14.2103 3.29734 13.9962 3.29734 13.7687C3.73498 13.7687 4.17184 13.7687 4.60884 13.7687L4.60714 13.7671C4.60714 13.9837 4.60714 14.2004 4.60714 14.4227C4.16074 14.4227 3.72821 14.4227 3.2959 14.4227L3.29734 14.4244Z" fill="#020203"/>
<path d="M4.61132 7.86743C4.82262 7.86743 5.03382 7.86743 5.26292 7.86743C5.26292 8.09163 5.26292 8.30833 5.26292 8.52493C5.04452 8.52413 4.82592 8.52303 4.60742 8.52223L4.60852 8.52323C4.60952 8.30463 4.61052 8.08603 4.61132 7.86743Z" fill="#020203"/>
<path d="M5.26123 4.58706C5.26303 4.36906 5.26493 4.15086 5.26673 3.93286C5.48473 3.93368 5.70273 3.93471 5.92073 3.93553C5.92093 4.1527 5.92113 4.36988 5.92133 4.58706C5.70373 4.58952 5.48613 4.59198 5.26863 4.59444C5.26613 4.59198 5.26363 4.58952 5.26123 4.58706Z" fill="#434342"/>
<path d="M5.92109 3.93549C5.70309 3.93467 5.48509 3.93364 5.26709 3.93282C5.26709 3.71482 5.26709 3.49683 5.26709 3.27883C5.48509 3.27801 5.70329 3.27719 5.92129 3.27637L5.91989 3.27719C5.91969 3.49601 5.91949 3.71462 5.91929 3.93344L5.92109 3.93549Z" fill="#020203"/>
<path d="M9.85431 19.6656C9.85431 19.8799 9.85431 20.094 9.85431 20.314C9.81801 20.3179 9.79191 20.3235 9.76571 20.3235C8.27811 20.3239 6.79061 20.3237 5.30301 20.3237C5.28941 20.3237 5.27571 20.3224 5.26221 20.3216C5.26281 19.667 5.26341 19.0124 5.26401 18.3578C5.47811 18.3578 5.69201 18.3578 5.91971 18.3578C5.91971 18.1301 5.91971 17.9162 5.91971 17.7021C6.13581 17.7021 6.35221 17.7021 6.58001 17.7021C6.58001 17.4727 6.58001 17.2633 6.58001 17.0426C7.01951 17.0426 7.44731 17.0426 7.88591 17.0426C7.88591 16.8174 7.88591 16.6035 7.88591 16.3896C8.10461 16.3899 8.32301 16.3899 8.54161 16.3901C8.54161 17.0422 8.54161 17.6942 8.54161 18.3572C8.76981 18.3572 8.98351 18.3572 9.19701 18.3572C9.19701 18.7911 9.19701 19.2253 9.19701 19.6676C9.42731 19.6676 9.64101 19.6676 9.85491 19.6676L9.85431 19.6656Z" fill="#434342"/>
<path d="M13.1283 19.0115C13.1283 19.2257 13.1283 19.44 13.1283 19.6653C12.913 19.6653 12.7003 19.6653 12.4768 19.6653C12.4768 19.8889 12.4768 20.1013 12.4768 20.3187C11.8166 20.3187 11.1676 20.3187 10.5111 20.3187C10.5111 20.1036 10.5111 19.8934 10.5111 19.666C10.2874 19.666 10.0708 19.666 9.85419 19.666L9.85509 19.6678C9.85549 19.4492 9.85589 19.2304 9.85629 19.0118C10.0696 19.0118 10.2831 19.0118 10.5004 19.0118C10.5004 18.7886 10.5004 18.577 10.5004 18.358C10.2783 18.358 10.0644 18.358 9.85059 18.358L9.85239 18.3598C9.85239 17.923 9.85219 17.486 9.85219 17.0492C10.4551 17.0481 11.0581 17.0463 11.661 17.0461C12.1515 17.0461 12.6421 17.0479 13.1324 17.0492C13.1324 17.486 13.1324 17.923 13.1322 18.3598L13.1341 18.358C12.9177 18.358 12.7013 18.358 12.4821 18.358C12.4821 18.5819 12.4821 18.7911 12.4821 19.0118C12.7015 19.0115 12.915 19.0115 13.1283 19.0115Z" fill="#35679A"/>
<path d="M17.7226 20.3213C16.4636 20.3221 15.2044 20.3227 13.9455 20.3235C13.8983 20.3235 13.8511 20.3235 13.7855 20.3235C13.7855 19.6611 13.7855 19.0078 13.7855 18.3542L13.7847 18.3556C14.001 18.3556 14.2176 18.3556 14.4428 18.3556C14.4428 17.909 14.4428 17.4773 14.4428 17.0454C14.6593 17.0454 14.8759 17.0454 15.104 17.0454C15.104 17.2738 15.104 17.4834 15.104 17.7047C15.3256 17.7047 15.5352 17.7047 15.7563 17.7047C15.7563 18.1446 15.7563 18.5726 15.7563 19.0129C16.2003 19.0129 16.6326 19.0129 17.0649 19.0129C17.0649 19.227 17.0649 19.4409 17.0649 19.6685C17.2926 19.6685 17.5067 19.6685 17.7206 19.6685C17.7214 19.8863 17.722 20.1039 17.7226 20.3213Z" fill="#434342"/>
<path d="M0.67334 15.7339C0.89134 15.7347 1.10934 15.7357 1.32733 15.7366C1.32733 15.9503 1.32733 16.1641 1.32733 16.3928C1.55497 16.3928 1.76866 16.3928 1.98235 16.3928C1.98235 16.6065 1.98235 16.8202 1.98235 17.0484C2.42963 17.0484 2.86173 17.0484 3.29383 17.0484C3.29424 17.2656 3.29465 17.4828 3.29506 17.7C2.64271 17.7 1.99015 17.7 1.32754 17.7C1.32754 18.145 1.32754 18.5726 1.32754 19.011C1.1038 19.011 0.89031 19.011 0.67683 19.011C0.6758 18.3181 0.67478 17.6249 0.67396 16.932C0.67354 16.5329 0.67354 16.1334 0.67334 15.7339Z" fill="#808181"/>
<path d="M0.676601 19.0112C0.890081 19.0112 1.10378 19.0112 1.32731 19.0112C1.32731 18.5728 1.32731 18.1452 1.32731 17.7002C1.98992 17.7002 2.64227 17.7002 3.29483 17.7002C3.29483 17.9186 3.29483 18.137 3.29483 18.3554C3.08114 18.3554 2.86724 18.3554 2.63899 18.3554C2.63899 18.5834 2.63899 18.7973 2.63899 19.011C2.42509 19.011 2.2112 19.011 1.98151 19.011C1.98151 19.2378 1.98151 19.4501 1.98151 19.6671C1.53567 19.6671 1.10583 19.6671 0.675781 19.6671C0.675981 19.4485 0.676191 19.2299 0.676601 19.0112Z" fill="#666733"/>
<path d="M0.675781 19.667C1.10562 19.667 1.53546 19.667 1.98151 19.667C1.98151 19.45 1.98151 19.2378 1.98151 19.011C2.2112 19.011 2.42509 19.011 2.63899 19.011L2.64207 19.014C2.64207 19.2296 2.64207 19.4449 2.64207 19.6676C2.87134 19.6676 3.08462 19.6676 3.29811 19.6676L3.29729 19.6658C3.29729 19.8801 3.29729 20.0942 3.29729 20.3161C2.4214 20.3161 1.55659 20.3161 0.675781 20.3161C0.675781 20.1001 0.675781 19.8836 0.675781 19.667Z" fill="#434342"/>
<path d="M20.3412 18.3556C20.3414 18.7929 20.3416 19.2299 20.3418 19.6671C20.1238 19.6675 19.906 19.6677 19.688 19.6681C19.688 19.4528 19.6884 19.2377 19.6884 19.0111C19.46 19.0111 19.2471 19.0111 19.0342 19.0111C19.0342 18.5751 19.0342 18.1391 19.0342 17.7029C19.252 17.702 19.4698 17.7012 19.6876 17.7004L19.6895 17.7022C19.6895 17.9186 19.6895 18.1352 19.6895 18.3556C19.9185 18.3556 20.1298 18.3556 20.3412 18.3556Z" fill="#666733"/>
<path d="M5.26423 18.3579C5.26363 19.0125 5.26293 19.6671 5.26233 20.3217C5.04373 20.3215 4.82513 20.3213 4.60653 20.3211C4.60653 20.1058 4.60653 19.8904 4.60653 19.6685C4.37703 19.6685 4.16393 19.6685 3.95068 19.6685L3.95212 19.67C3.95212 19.4509 3.95212 19.2317 3.95212 19.0127C4.16783 19.0127 4.38383 19.0127 4.60773 19.0127C4.60773 18.7836 4.60773 18.5703 4.60773 18.3571C4.82593 18.3569 5.04433 18.3564 5.26253 18.3562L5.26423 18.3579Z" fill="#666733"/>
<path d="M13.1323 18.3597C13.1323 17.9229 13.1323 17.4859 13.1325 17.0491C13.3505 17.0482 13.5687 17.0472 13.7867 17.0464C13.7859 17.483 13.7853 17.9194 13.7845 18.356L13.7853 18.3546C13.5673 18.3562 13.3497 18.3579 13.1323 18.3597Z" fill="#6F91CB"/>
<path d="M19.686 16.389C19.9052 16.3896 20.1242 16.3901 20.3435 16.3907C20.3428 16.6093 20.3424 16.8281 20.3418 17.0467C20.1244 17.0469 19.9073 17.0471 19.6899 17.0471L19.6868 17.0441C19.6872 16.8254 19.6876 16.6068 19.6878 16.3882L19.686 16.389Z" fill="#434342"/>
<path d="M19.6902 17.0473C19.9076 17.0471 20.1248 17.0469 20.3422 17.0469C20.342 17.2655 20.3418 17.4841 20.3416 17.7027C20.1244 17.7027 19.907 17.7025 19.6898 17.7025L19.688 17.7007C19.6886 17.4827 19.6894 17.2649 19.6902 17.0473Z" fill="#666733"/>
<path d="M19.6895 17.7024C19.9067 17.7024 20.1241 17.7026 20.3413 17.7026C20.3413 17.9204 20.3413 18.138 20.3413 18.3558C20.13 18.3558 19.9186 18.3558 19.6895 18.3558C19.6895 18.1354 19.6895 17.9188 19.6895 17.7024Z" fill="#808181"/>
<path d="M13.1286 19.0117C12.9154 19.0117 12.7019 19.0117 12.4824 19.0117C12.4824 18.791 12.4824 18.5818 12.4824 18.3579C12.7017 18.3579 12.918 18.3579 13.1344 18.3579C13.1325 18.5757 13.1305 18.7937 13.1286 19.0117Z" fill="#6F91CB"/>
<path d="M3.9521 19.0125C3.9521 19.2315 3.9521 19.4507 3.9521 19.6698C3.7339 19.6685 3.5157 19.6673 3.29749 19.6659L3.2983 19.6677C3.2983 19.4495 3.2983 19.2313 3.2983 19.0129L3.29688 19.0143C3.51549 19.0139 3.73349 19.0129 3.9521 19.0125Z" fill="#808181"/>
<path d="M19.0342 19.011C19.2471 19.011 19.4598 19.011 19.6884 19.011C19.6884 19.2376 19.6884 19.4531 19.6884 19.6684C19.469 19.6686 19.2498 19.6688 19.0303 19.6693L19.0324 19.6701C19.032 19.4515 19.0316 19.2328 19.0314 19.0142L19.0342 19.011Z" fill="#434342"/>
<path d="M3.95068 19.6682C4.16397 19.6682 4.37727 19.6682 4.60647 19.6682C4.60647 19.8903 4.60647 20.1056 4.60647 20.3208C4.39307 20.3208 4.17937 20.3208 3.95068 20.3208C3.95068 20.1005 3.95068 19.8844 3.95068 19.6682Z" fill="#808181"/>
<path d="M17.7226 20.3215C17.722 20.1039 17.7213 19.8865 17.7207 19.6689L17.7226 19.6671C17.9414 19.6675 18.16 19.6677 18.3788 19.6679L18.3776 19.6663C18.378 19.8845 18.3782 20.1025 18.3786 20.3207C18.1598 20.3211 17.9412 20.3213 17.7226 20.3215Z" fill="#666733"/>
<path d="M18.3781 20.3209C18.3777 20.1027 18.3775 19.8847 18.377 19.6665C18.5954 19.6677 18.8137 19.6687 19.0321 19.67L19.03 19.6691C19.03 19.8826 19.03 20.0961 19.03 20.3207C18.81 20.3209 18.594 20.3209 18.3781 20.3209Z" fill="#808181"/>
<path d="M19.688 19.668C19.906 19.6676 20.124 19.6674 20.3417 19.667C20.3417 19.8807 20.3417 20.0946 20.3417 20.3159C20.1248 20.3159 19.9156 20.3159 19.688 20.3159C19.688 20.1005 19.688 19.8844 19.688 19.668Z" fill="#434342"/>
<path d="M5.91797 1.31018C6.35117 1.31018 6.78427 1.31018 7.22927 1.31018C7.22927 1.08869 7.22927 0.871721 7.22927 0.654541C8.06267 0.654951 8.89617 0.655161 9.72957 0.655771C9.77037 0.655771 9.81097 0.657621 9.85177 0.658641C9.85177 0.874591 9.85177 1.09033 9.85177 1.31571C9.62517 1.31571 9.41557 1.31571 9.19657 1.31571C9.19657 1.53925 9.19657 1.75294 9.19657 1.96643C8.97987 1.96643 8.76367 1.96581 8.53667 1.96581C8.53667 1.73859 8.53667 1.52838 8.53667 1.31797C8.31597 1.31797 8.10597 1.31797 7.88637 1.31797C7.88637 1.75766 7.88637 2.19037 7.88637 2.62329L7.88717 2.62247C7.66817 2.62268 7.44887 2.62288 7.22987 2.62309C7.22987 2.40693 7.22987 2.19058 7.22987 1.97278C7.00537 1.97278 6.79617 1.97278 6.58247 1.97278C6.58247 2.19058 6.58247 2.40222 6.58247 2.62186C6.80377 2.62186 7.01747 2.62186 7.23117 2.62186C7.23047 2.83965 7.23007 3.05724 7.22947 3.27503C6.79287 3.27585 6.35627 3.27667 5.91947 3.27749L5.92087 3.27667C5.92007 2.62104 5.91907 1.96561 5.91797 1.31018Z" fill="#CCCAE6"/>
<path d="M11.1633 0.658432C11.3823 0.657612 11.6011 0.656792 11.8202 0.655762C11.8202 1.08971 11.8202 1.52365 11.8202 1.96724C12.049 1.96724 12.2627 1.96724 12.4764 1.96724C12.4764 2.1838 12.4764 2.40057 12.4764 2.62226C12.1021 2.62226 11.7443 2.62267 11.3864 2.62226C10.6565 2.62144 9.92668 2.62021 9.19678 2.61918C9.19698 2.40139 9.19718 2.1838 9.19758 1.96601C9.85118 1.96601 10.5044 1.96662 11.1635 1.96662C11.1633 1.51812 11.1633 1.08827 11.1633 0.658432Z" fill="#808181"/>
<path d="M11.1633 0.658447C11.1633 1.08829 11.1633 1.51814 11.1633 1.96644C10.5042 1.96644 9.85058 1.96644 9.19678 1.96644C9.19678 1.75275 9.19678 1.53926 9.19678 1.31572C9.41598 1.31572 9.62538 1.31572 9.85198 1.31572C9.85198 1.09034 9.85198 0.874397 9.85198 0.658647C10.2893 0.658447 10.7263 0.658447 11.1633 0.658447Z" fill="#ADA990"/>
<path d="M12.4761 1.96724C12.2624 1.96724 12.0487 1.96724 11.8198 1.96724C11.8198 1.52365 11.8198 1.08971 11.8198 0.655762C12.0392 0.656382 12.2587 0.656992 12.4781 0.657612C12.4779 0.874992 12.4777 1.09237 12.4775 1.30996C12.4773 1.5294 12.4773 1.74862 12.4771 1.96806L12.4761 1.96724Z" fill="#434342"/>
<path d="M12.4775 1.31001C12.4777 1.09263 12.4779 0.875235 12.4781 0.657655C12.6961 0.656625 12.9141 0.655805 13.1321 0.654785C13.1321 0.873395 13.1321 1.09222 13.1321 1.31083L13.128 1.30857C12.9112 1.30919 12.6945 1.3096 12.4775 1.31001Z" fill="#808181"/>
<path d="M7.88603 9.17822C8.10033 9.17822 8.31463 9.17822 8.53783 9.17822C8.53783 9.39582 8.53783 9.60862 8.53783 9.83712C8.76313 9.83712 8.97973 9.83712 9.19653 9.83712C9.19653 10.0524 9.19653 10.2678 9.19653 10.4901C9.42723 10.4901 9.64033 10.4901 9.85353 10.4901L9.85213 10.4886C9.85213 10.7044 9.85213 10.9201 9.85213 11.1478C10.0799 11.1478 10.2928 11.1478 10.5059 11.1478C10.5059 11.3631 10.5059 11.5782 10.5059 11.8011C10.7378 11.8011 10.9509 11.8011 11.164 11.8011C11.164 12.0173 11.1636 12.2332 11.1636 12.4498C11.3902 12.4498 11.5996 12.4498 11.8219 12.4498C11.8219 12.23 11.8219 12.0165 11.8219 11.803C12.0391 11.803 12.2562 11.803 12.4734 11.803C12.4734 12.0189 12.4734 12.2347 12.4734 12.4496C12.7023 12.4496 12.9117 12.4496 13.1331 12.4496C13.1331 12.2297 13.1331 12.0163 13.1331 11.803C13.3509 11.8024 13.5685 11.802 13.7863 11.8013C13.7861 12.4568 13.7859 13.1122 13.7857 13.7678C12.6959 13.7678 11.6061 13.7678 10.5145 13.7678C10.5145 13.9914 10.5145 14.204 10.5145 14.4261C10.7348 14.4261 10.9489 14.4261 11.163 14.4261C11.163 14.6421 11.163 14.858 11.163 15.0824C11.8286 15.0824 12.4742 15.0824 13.1284 15.0824C13.1284 15.3045 13.1284 15.518 13.1284 15.7317C12.6918 15.7335 12.2552 15.7351 11.8184 15.737C11.6006 15.737 11.383 15.737 11.1652 15.737C10.73 15.737 10.2949 15.737 9.84943 15.737C9.84943 15.5083 9.84943 15.2983 9.84943 15.0793C9.62493 15.0793 9.41063 15.0793 9.19633 15.0793C9.19633 14.8632 9.19633 14.647 9.19633 14.4237C8.96783 14.4237 8.75413 14.4237 8.54063 14.4237C8.54063 14.2046 8.54063 13.9858 8.54063 13.7668C8.75723 13.7668 8.97403 13.7668 9.18993 13.7668C9.18993 13.5408 9.18993 13.331 9.18993 13.1124C8.96883 13.1124 8.75473 13.1124 8.54063 13.1124C8.54063 12.8963 8.54063 12.6801 8.54063 12.4568C8.31243 12.4568 8.09873 12.4568 7.88503 12.4568C7.88503 12.2406 7.88503 12.0245 7.88503 11.8011C7.65653 11.8011 7.44283 11.8011 7.22943 11.8011C7.22943 11.5846 7.22943 11.3678 7.22943 11.1414C7.00343 11.1414 6.79363 11.1414 6.57373 11.1414C6.57373 10.917 6.57373 10.7029 6.57373 10.4888C6.78993 10.4888 7.00603 10.4888 7.22943 10.4888C7.22943 10.2606 7.22943 10.0469 7.22943 9.83322C7.44533 9.83322 7.66153 9.83322 7.88563 9.83322C7.88563 9.60542 7.88603 9.39172 7.88603 9.17822Z" fill="#FBCC9B"/>
<path d="M13.7862 13.7678C13.7864 13.1124 13.7866 12.457 13.7868 11.8013C13.7868 11.5819 13.7868 11.3627 13.787 11.1432L13.7855 11.1447C14.0017 11.1447 14.2176 11.1447 14.4445 11.1447C14.4445 10.6986 14.4445 10.2677 14.4445 9.83691C14.6586 9.83691 14.8727 9.83691 15.0931 9.83691C15.0952 9.86391 15.0985 9.88671 15.0985 9.90951C15.0987 11.1779 15.0987 12.4465 15.0985 13.7149C15.0985 13.7319 15.0966 13.7489 15.0956 13.766C14.8802 13.766 14.6649 13.766 14.4451 13.766C14.4451 13.9987 14.4451 14.212 14.4451 14.4253C14.4434 14.6427 14.4416 14.8599 14.4399 15.0772C14.2267 15.0772 14.0132 15.0772 13.7839 15.0772C13.7839 15.3043 13.7839 15.5173 13.7839 15.7306C13.5675 15.7329 13.3512 15.7351 13.1348 15.7374L13.1291 15.7314C13.1291 15.5179 13.1291 15.3045 13.1291 15.0822C12.4749 15.0822 11.8291 15.0822 11.1636 15.0822C11.1636 14.8578 11.1636 14.6419 11.1636 14.4259C12.0352 14.4259 12.9068 14.4259 13.7864 14.4259C13.7862 14.196 13.7862 13.9819 13.7862 13.7678Z" fill="#CC9A32"/>
<path d="M7.23154 7.20936C7.23154 6.99506 7.23154 6.78096 7.23154 6.55706C5.69514 6.55706 4.16744 6.55706 2.63965 6.55706C2.63965 6.12426 2.63965 5.69139 2.63965 5.2478C2.86175 5.2478 3.07852 5.2478 3.29508 5.2478C3.29508 5.46129 3.29508 5.67477 3.29508 5.89031C3.3199 5.89503 3.33261 5.89954 3.34553 5.89954C4.20354 5.89893 5.06184 5.8981 5.91984 5.89728C5.96414 5.89831 6.00844 5.90016 6.05274 5.90016C6.66324 5.90098 7.27364 5.90159 7.88414 5.90221C7.88414 6.11776 7.88414 6.33326 7.88414 6.55276C8.11584 6.55276 8.32934 6.55276 8.54264 6.55276C8.97884 6.55436 9.41504 6.55616 9.85124 6.55786C9.85144 6.77456 9.85184 6.99136 9.85204 7.20816C8.97864 7.20876 8.10524 7.20916 7.23154 7.20936Z" fill="#CCCAE6"/>
<path d="M9.85236 7.2084C9.85216 6.9916 9.85176 6.7749 9.85156 6.5581C10.4691 6.5575 11.0866 6.5564 11.7041 6.556C13.0549 6.5552 14.406 6.5548 15.7568 6.5542C16.6307 6.5544 17.5043 6.5548 18.3781 6.555C18.3781 6.7742 18.3781 6.9933 18.3781 7.2125C15.5805 7.2121 12.783 7.2119 9.98526 7.2115C9.94096 7.2115 9.89666 7.2094 9.85236 7.2084Z" fill="#ADA990"/>
<path d="M19.6893 15.7337C19.6882 15.9521 19.6872 16.1705 19.6864 16.3889L19.6882 16.3881C19.4702 16.3895 19.2525 16.3912 19.0345 16.3926C17.9447 16.3926 16.8549 16.3926 15.752 16.3926C15.752 16.1619 15.752 15.948 15.752 15.7341C15.752 15.518 15.752 15.302 15.752 15.0758C15.9808 15.0758 16.1902 15.0758 16.4125 15.0758C16.4125 14.8523 16.4125 14.6388 16.4125 14.4253C16.6305 14.4245 16.8485 14.4234 17.0665 14.4226C17.0665 14.6367 17.0665 14.851 17.0665 15.0783C17.5081 15.0783 17.943 15.0783 18.3778 15.0783C18.3778 15.2924 18.3778 15.5067 18.3778 15.7339C18.8193 15.7337 19.2543 15.7337 19.6893 15.7337Z" fill="#808181"/>
<path d="M13.1287 8.52417C13.1287 8.95647 13.1287 9.38897 13.1287 9.83687C13.3524 9.83687 13.5692 9.83687 13.7858 9.83687C13.7856 10.2729 13.7854 10.7089 13.7854 11.1451L13.7868 11.1436C12.913 11.1434 12.0391 11.1434 11.1653 11.1432L11.1663 11.1451C11.1647 10.9271 11.1632 10.7093 11.1616 10.4913C11.1626 10.2721 11.1636 10.0526 11.1645 9.83337L11.1634 9.83437C11.3825 9.83417 11.6017 9.83397 11.8207 9.83377C11.8207 10.05 11.8207 10.2663 11.8207 10.4841C12.0453 10.4841 12.2547 10.4841 12.4681 10.4841C12.4681 10.2663 12.4681 10.0547 12.4681 9.83497C12.2469 9.83497 12.0332 9.83497 11.8193 9.83497C11.8195 9.61597 11.8197 9.39677 11.8199 9.17777L11.8189 9.17877C12.0346 9.17877 12.2503 9.17877 12.4761 9.17877C12.4761 8.95217 12.4761 8.73927 12.4761 8.52637C12.6941 8.52617 12.9119 8.52597 13.1299 8.52597L13.1287 8.52417Z" fill="#FBCC9B"/>
<path d="M11.8223 8.5235C11.3896 8.5235 10.9568 8.5235 10.512 8.5235C10.512 8.7423 10.512 8.9521 10.512 9.1701C10.0719 9.1701 9.64393 9.1701 9.20013 9.1701C9.20013 8.9597 9.20013 8.7474 9.20013 8.5235C8.97503 8.5235 8.76523 8.5235 8.54883 8.5235C8.54883 8.302 8.54883 8.0924 8.54883 7.875C9.63533 7.875 10.719 7.875 11.821 7.875C11.821 8.0916 11.821 8.3083 11.821 8.5249L11.8223 8.5235Z" fill="#434342"/>
<path d="M13.1303 8.5255C13.1303 8.3112 13.1303 8.0971 13.1303 7.875C13.7876 7.875 14.434 7.875 15.0894 7.875C15.0894 8.3044 15.0894 8.7347 15.0894 9.1717C14.8767 9.1717 14.6673 9.1717 14.4459 9.1717C14.4459 8.9584 14.4459 8.7486 14.4459 8.5239C13.999 8.5239 13.5638 8.5239 13.1289 8.5239L13.1303 8.5255Z" fill="#434342"/>
<path d="M16.4126 14.4254C16.4126 14.6389 16.4126 14.8524 16.4126 15.0759C16.1901 15.0759 15.9807 15.0759 15.7521 15.0759C15.7521 15.3019 15.7521 15.5181 15.7521 15.7342C15.5343 15.7344 15.3165 15.7344 15.0987 15.7346C15.0987 15.2972 15.0989 14.8596 15.0989 14.4221L15.0977 14.4231C15.5359 14.4238 15.9742 14.4246 16.4126 14.4254Z" fill="#434342"/>
<path d="M13.7856 11.1451C13.7858 10.7091 13.786 10.2731 13.786 9.83691C14.0054 9.83691 14.225 9.83711 14.4445 9.83711C14.4445 10.268 14.4445 10.6988 14.4445 11.1449C14.2177 11.1451 14.0017 11.1451 13.7856 11.1451Z" fill="#9A6815"/>
<path d="M14.4448 14.4257C14.4448 14.2124 14.4448 13.9991 14.4448 13.7664C14.6649 13.7664 14.88 13.7664 15.0953 13.7664C15.0959 13.9852 15.0963 14.2042 15.097 14.423L15.0982 14.422C14.8804 14.4232 14.6626 14.4245 14.4448 14.4257Z" fill="#9A6815"/>
<path d="M12.4766 8.52608C12.4766 8.73898 12.4766 8.95188 12.4766 9.17848C12.2508 9.17848 12.035 9.17848 11.8193 9.17848C11.8203 8.96028 11.8214 8.74188 11.8226 8.52368L11.8211 8.52508C12.0396 8.52528 12.258 8.52568 12.4766 8.52608Z" fill="#CC9A32"/>
<path d="M7.23078 7.86743C7.44488 7.86743 7.65898 7.86743 7.88298 7.86743C7.88298 8.09033 7.88298 8.30693 7.88298 8.52343C7.66538 8.52323 7.44758 8.52303 7.22998 8.52283C7.23108 8.30503 7.23188 8.08723 7.23288 7.86923L7.23078 7.86743Z" fill="#CC9A32"/>
<path d="M11.1644 9.83301C11.1634 10.0522 11.1624 10.2717 11.1616 10.4909C10.945 10.4915 10.7286 10.4921 10.5121 10.4927L10.5063 10.4868C10.507 10.2702 10.5076 10.0537 10.5082 9.83711C10.7268 9.83591 10.9456 9.83441 11.1644 9.83301Z" fill="#CC9A32"/>
<path d="M10.5081 9.83716C10.5075 10.0538 10.5069 10.2703 10.5063 10.4869C10.2883 10.4875 10.0705 10.4883 9.85254 10.4889L9.85394 10.4904C9.85394 10.2728 9.85394 10.055 9.85394 9.83736C10.0719 9.83736 10.2901 9.83736 10.5081 9.83716Z" fill="#FBCC9B"/>
<path d="M9.85388 9.8374C9.85388 10.055 9.85388 10.2728 9.85388 10.4904C9.64058 10.4904 9.42758 10.4904 9.19678 10.4904C9.19678 10.2679 9.19678 10.0525 9.19678 9.8374C9.41588 9.8374 9.63488 9.8374 9.85388 9.8374Z" fill="#CC9A32"/>
<path d="M11.8209 9.83329C11.6019 9.83349 11.3826 9.83369 11.1636 9.83389C11.1636 9.61979 11.1636 9.40589 11.1636 9.17749C11.3872 9.17749 11.6037 9.17749 11.8203 9.17749C11.8201 9.39649 11.8199 9.61569 11.8197 9.83469L11.8209 9.83329Z" fill="#CC9A32"/>
<path d="M7.22998 8.52302C7.44758 8.52322 7.66538 8.52342 7.88298 8.52372C7.88398 8.74192 7.88518 8.96032 7.88628 9.17852C7.66748 9.17872 7.44858 9.17912 7.22998 9.17912C7.23018 8.96012 7.23038 8.74122 7.23078 8.52222L7.22998 8.52302Z" fill="#FBCC9B"/>
<path d="M15.7569 6.55439C14.406 6.55499 13.055 6.55539 11.7041 6.55619C11.0867 6.55659 10.4692 6.55749 9.85166 6.55829C9.41546 6.55659 8.97926 6.55499 8.54306 6.55319C8.54306 6.33799 8.54306 6.12289 8.54306 5.90264C8.31066 5.90264 8.09756 5.90264 7.88456 5.90264C7.27396 5.90202 6.66366 5.9014 6.05316 5.90058C6.00886 5.90058 5.96456 5.89874 5.92026 5.89771C5.91966 5.68136 5.91906 5.46479 5.91846 5.24844C7.01146 5.24782 8.10476 5.24721 9.19786 5.24659L9.19636 5.24536C9.19636 5.45967 9.19636 5.67397 9.19636 5.90038C11.3891 5.90038 13.5722 5.90038 15.7553 5.90038C15.7557 6.11799 15.7563 6.33619 15.7569 6.55439Z" fill="#808181"/>
<path d="M12.4788 4.58977C12.4788 4.80367 12.4788 5.01757 12.4788 5.245C11.3759 5.245 10.2861 5.245 9.19627 5.245L9.19767 5.24623C9.19767 5.02967 9.19767 4.81331 9.19767 4.58649C8.74937 4.58649 8.31706 4.58649 7.88496 4.58649C7.88536 4.36849 7.88577 4.1505 7.88597 3.93229L7.88477 3.93373C8.75557 3.93373 9.62606 3.93373 10.5076 3.93373C10.5076 3.70794 10.5076 3.49445 10.5076 3.28076C11.1605 3.28076 11.8135 3.28076 12.4786 3.28076C12.4788 3.72537 12.4788 4.15767 12.4788 4.58977Z" fill="#666733"/>
<path d="M12.4788 4.58978C12.4788 4.15768 12.4788 3.72538 12.4788 3.28097C11.8137 3.28097 11.1608 3.28097 10.5078 3.28097C10.4668 3.28015 10.426 3.27831 10.385 3.27831C9.55194 3.2779 8.71874 3.27769 7.88574 3.27749L7.88714 3.27892C7.88714 3.06011 7.88714 2.84149 7.88714 2.62267L7.88634 2.62349C8.32314 2.62206 8.75974 2.62083 9.19654 2.61939C9.92644 2.62042 10.6563 2.62165 11.3861 2.62247C11.744 2.62288 12.1019 2.62247 12.4761 2.62247C12.4761 2.40057 12.4761 2.18401 12.4761 1.96745L12.477 1.96827C12.695 1.96786 12.9129 1.96745 13.1309 1.96704C13.1312 2.40386 13.1316 2.84067 13.1318 3.27749C13.1318 3.49651 13.1318 3.71574 13.1318 3.93476C13.1312 4.15317 13.1305 4.37158 13.1299 4.58999C12.9129 4.58978 12.6958 4.58978 12.4788 4.58978Z" fill="#161617"/>
<path d="M13.1304 4.58956C13.131 4.37115 13.1316 4.15275 13.1322 3.93434C13.3508 3.93352 13.5694 3.9327 13.7881 3.93188C14.002 3.93188 14.2158 3.93188 14.4363 3.93188C14.4363 4.37279 14.4363 4.80059 14.4363 5.23638C14.0065 5.23638 13.5787 5.23638 13.1304 5.23638C13.1304 5.02228 13.1304 4.80592 13.1304 4.58956Z" fill="#434342"/>
<path d="M13.1321 3.27714C13.1319 2.84032 13.1315 2.40351 13.1313 1.96669C13.1303 1.74726 13.1293 1.52803 13.1284 1.30859L13.1325 1.31085C13.3507 1.31105 13.5687 1.31146 13.7869 1.31167C13.7869 1.96669 13.7869 2.62171 13.7867 3.27673C13.5685 3.27693 13.3503 3.27714 13.1321 3.27714Z" fill="#434342"/>
<path d="M13.1318 3.27702C13.35 3.27682 13.5682 3.27682 13.7864 3.27661C13.7868 3.49502 13.7872 3.71343 13.7876 3.93184C13.569 3.93266 13.3504 3.93348 13.1318 3.9343C13.1318 3.71528 13.1318 3.49625 13.1318 3.27702Z" fill="#2D0E0F"/>
<path d="M7.88495 4.58643C8.31705 4.58643 8.74915 4.58643 9.19765 4.58643C9.19765 4.81325 9.19765 5.02981 9.19765 5.24617C8.10455 5.24679 7.01135 5.2474 5.91825 5.24802C5.70045 5.24597 5.48265 5.24371 5.26465 5.24166C5.26585 5.02592 5.26735 4.80997 5.26855 4.59423C5.48615 4.59177 5.70375 4.58931 5.92135 4.58705C6.57595 4.58684 7.23035 4.58664 7.88495 4.58643Z" fill="#020203"/>
<path d="M5.26476 5.2417C5.48256 5.24375 5.70036 5.24601 5.91836 5.24806C5.91896 5.46442 5.91956 5.68098 5.92016 5.89734C5.06216 5.89816 4.20396 5.89898 3.34586 5.89959C3.33315 5.89959 3.32023 5.89508 3.29541 5.89036C3.29541 5.67483 3.29541 5.46134 3.29541 5.24785C3.90101 5.24683 4.50636 5.2458 5.11196 5.24478C5.16286 5.24457 5.21376 5.24273 5.26476 5.2417Z" fill="#ADA990"/>
<path d="M4.61084 10.4904C4.61084 10.2713 4.61084 10.0523 4.61084 9.83335C4.82454 9.83335 5.03804 9.83335 5.25994 9.83335C5.25994 9.60875 5.25994 9.39525 5.25994 9.18185L5.26584 9.17585C5.48324 9.17565 5.70064 9.17545 5.91804 9.17505C6.13604 9.17525 6.35404 9.17525 6.57184 9.17545L6.57794 9.18135C6.57674 9.39915 6.57524 9.61675 6.57404 9.83455L6.57554 9.83315C6.35974 9.83315 6.14404 9.83315 5.92194 9.83315C5.92194 10.0609 5.92194 10.2738 5.92194 10.4867L5.91594 10.4926C5.69814 10.4918 5.48054 10.4908 5.26274 10.4899C5.04544 10.4902 4.82824 10.4904 4.61084 10.4904Z" fill="#CC9A32"/>
<path d="M6.57177 9.17573C6.35377 9.17553 6.13577 9.17553 5.91797 9.17533C5.91797 8.74423 5.91797 8.31293 5.91797 7.86963C6.36447 7.86963 6.79857 7.86963 7.23277 7.86963C7.23177 8.08743 7.23087 8.30513 7.22987 8.52313C7.01417 8.52313 6.79877 8.52253 6.57177 8.52253C6.57177 8.74953 6.57177 8.96263 6.57177 9.17573Z" fill="#65360E"/>
<path d="M4.60742 8.52222C4.82592 8.52302 5.04452 8.52412 5.26292 8.52492C5.26392 8.74192 5.26512 8.95882 5.26622 9.17602L5.26022 9.18202C5.04392 9.18112 4.82752 9.18012 4.61112 9.17932C4.60992 8.96032 4.60872 8.74122 4.60742 8.52222Z" fill="#CC9A32"/>
<path d="M3.29585 14.4227C3.72836 14.4227 4.16085 14.4227 4.60715 14.4227C4.60715 14.2004 4.60715 13.9839 4.60715 13.7671C4.82515 13.7679 5.04316 13.7689 5.26116 13.7698C5.26116 13.9834 5.26116 14.1973 5.26116 14.426C5.48876 14.426 5.70245 14.426 5.91615 14.426C5.91615 14.6397 5.91615 14.8532 5.91615 15.0816C6.14456 15.0816 6.35805 15.0816 6.57175 15.0816C6.57235 15.2988 6.57315 15.516 6.57385 15.7332C6.35745 15.7332 6.14106 15.7332 5.91405 15.7332C5.91405 15.9625 5.91405 16.172 5.91405 16.3927C5.47065 16.3927 5.03836 16.3927 4.60606 16.3927C4.16966 16.3913 3.73308 16.3896 3.29667 16.3882L3.29811 16.3896C3.29811 16.1733 3.29811 15.9569 3.29811 15.7326C2.8494 15.7326 2.41729 15.7326 1.98539 15.7326L1.98725 15.7334C1.98622 15.515 1.98539 15.2966 1.98438 15.0782C2.41688 15.0782 2.84939 15.0782 3.29564 15.0782C3.29584 14.8561 3.29585 14.6393 3.29585 14.4227Z" fill="#808181"/>
<path d="M6.57403 10.4892C6.57403 10.7033 6.57403 10.9174 6.57403 11.1418C6.79383 11.1418 7.00363 11.1418 7.22963 11.1418C7.22963 11.3684 7.22963 11.5849 7.22963 11.8015L7.23093 11.8003C7.01433 11.8003 6.79753 11.8003 6.58163 11.8003C6.58163 12.0277 6.58163 12.2373 6.58163 12.4571C6.80273 12.4571 7.01683 12.4571 7.23093 12.4571L7.22943 12.4557C7.22983 12.6747 7.23023 12.8936 7.23073 13.1126C7.01203 13.1126 6.79363 13.1126 6.57503 13.1124C6.35723 13.1118 6.13943 13.1111 5.92163 13.1103C5.92063 12.5275 5.91983 11.9447 5.91863 11.362C5.91843 11.2905 5.91733 11.2189 5.91653 11.1473C5.91613 10.9291 5.91573 10.7109 5.91553 10.4925L5.92143 10.4866C6.13923 10.4876 6.35723 10.4888 6.57503 10.4898L6.57403 10.4892Z" fill="#CC9A32"/>
<path d="M5.92223 13.1106C6.14003 13.1112 6.35783 13.1118 6.57563 13.1126C6.57563 13.331 6.57563 13.5494 6.57563 13.7678C6.35683 13.7674 6.13823 13.7668 5.91943 13.7664L5.92063 13.7674C5.92123 13.5484 5.92163 13.3294 5.92223 13.1106Z" fill="#9A6815"/>
<path d="M5.91623 14.4261C5.70253 14.4261 5.48883 14.4261 5.26123 14.4261C5.26123 14.1974 5.26123 13.9835 5.26123 13.7699C5.48103 13.769 5.70093 13.7682 5.92053 13.7674L5.91933 13.7664C5.92033 13.9844 5.92133 14.2022 5.92233 14.4202L5.91623 14.4261Z" fill="#434342"/>
<path d="M5.91601 10.4929C5.91641 10.7111 5.91681 10.9293 5.91701 11.1477C5.69881 11.1461 5.48041 11.1445 5.26221 11.1428C5.26241 10.9254 5.26261 10.7078 5.26281 10.4905C5.48041 10.4911 5.69821 10.4921 5.91601 10.4929Z" fill="#9A6815"/>
<path d="M5.26293 10.49C5.26273 10.7074 5.26253 10.925 5.26233 11.1424C5.04393 11.1436 4.82533 11.1451 4.60693 11.1463C4.60833 10.9277 4.60973 10.7089 4.61123 10.4902C4.82833 10.4902 5.04553 10.49 5.26293 10.49Z" fill="#FBCC9B"/>
<path d="M4.61084 9.1792C4.82724 9.18 5.04354 9.181 5.25994 9.1818C5.25994 9.3953 5.25994 9.6088 5.25994 9.8334C5.03804 9.8334 4.82454 9.8334 4.61084 9.8334C4.61084 9.6154 4.61084 9.3974 4.61084 9.1792Z" fill="#FBCC9B"/>
<path d="M1.98217 16.393C1.76848 16.393 1.55479 16.393 1.32715 16.393C1.32715 16.1643 1.32715 15.9504 1.32715 15.7368C1.5472 15.7357 1.76725 15.7347 1.98751 15.7337L1.98566 15.7329C1.98669 15.9509 1.98751 16.1691 1.98853 16.3871L1.98217 16.393Z" fill="#434342"/>
<path d="M7.88484 4.58633C7.23044 4.58653 6.57584 4.58674 5.92144 4.58694C5.92124 4.36977 5.92105 4.15259 5.92085 3.93541L5.91895 3.93336C6.57465 3.93295 7.23025 3.93254 7.88605 3.93213C7.88545 4.15033 7.88504 4.36833 7.88484 4.58633Z" fill="#808181"/>
<path d="M7.88605 3.93214C7.23045 3.93255 6.57475 3.93296 5.91895 3.93337C5.91915 3.71455 5.91935 3.49594 5.91955 3.27712C6.35615 3.2763 6.79275 3.27548 7.22955 3.27466C7.44885 3.27609 7.66784 3.27732 7.88704 3.27876L7.88564 3.27732C7.88544 3.49614 7.88525 3.71476 7.88485 3.93357L7.88605 3.93214Z" fill="#161617"/>
<path d="M11.1657 15.7371C11.3835 15.7371 11.6011 15.7371 11.8189 15.7371C11.8189 15.9532 11.8189 16.1692 11.8189 16.3872C12.2668 16.3872 12.6983 16.3872 13.13 16.3872C13.349 16.3878 13.5678 16.3882 13.7868 16.3888C13.787 16.6076 13.7872 16.8267 13.7877 17.0455L13.7868 17.0463C13.5688 17.0471 13.3506 17.0482 13.1326 17.049C12.6421 17.048 12.1515 17.0459 11.6612 17.0459C11.0583 17.0459 10.4553 17.0477 9.85239 17.049C9.63579 17.049 9.41909 17.049 9.19819 17.049C9.19819 17.4913 9.19819 17.9238 9.19819 18.3563L9.19739 18.3572C8.98369 18.3572 8.77019 18.3572 8.54199 18.3572C8.54199 17.6944 8.54199 17.0422 8.54199 16.3901C8.76099 16.389 8.97999 16.388 9.19899 16.387C9.85159 16.387 10.5039 16.387 11.1657 16.387C11.1657 16.1647 11.1657 15.951 11.1657 15.7371Z" fill="#020203"/>
<path d="M4.60645 16.3927C5.03875 16.3927 5.47104 16.3927 5.91444 16.3927C5.91444 16.1721 5.91444 15.9625 5.91444 15.7332C6.14144 15.7332 6.35785 15.7332 6.57415 15.7332C6.79255 15.734 7.01075 15.735 7.22915 15.7359C7.22915 15.951 7.22915 16.1663 7.22915 16.3901C7.46075 16.3901 7.67375 16.3901 7.88665 16.3901C7.88665 16.604 7.88625 16.8172 7.88625 17.0426C7.44755 17.0426 7.01975 17.0426 6.58035 17.0426C6.58035 17.2631 6.58035 17.4727 6.58035 17.7021C6.35245 17.7021 6.13635 17.7021 5.91995 17.7021L5.91815 17.7003C5.91815 17.4848 5.91815 17.2692 5.91815 17.0467C5.68965 17.0467 5.47635 17.0467 5.26335 17.0467C5.04465 17.0461 4.82625 17.0453 4.60765 17.0447L4.60894 17.0459C4.60804 16.8281 4.60725 16.6105 4.60645 16.3927Z" fill="#666733"/>
<path d="M9.85637 19.0114C9.85597 19.2301 9.85557 19.4489 9.85517 19.6675C9.64127 19.6675 9.42757 19.6675 9.19727 19.6675C9.19727 19.2251 9.19727 18.791 9.19727 18.357L9.19807 18.3562C9.41627 18.3572 9.63427 18.3583 9.85247 18.3595L9.85067 18.3577C9.85247 18.5755 9.85457 18.7934 9.85637 19.0114Z" fill="#020203"/>
<path d="M8.54183 16.3899C8.32323 16.3897 8.10483 16.3897 7.88623 16.3895C7.88623 16.1705 7.88663 15.9519 7.88663 15.7329C8.10403 15.7345 8.32113 15.7362 8.53853 15.7378C8.53963 15.9552 8.54083 16.1726 8.54183 16.3899Z" fill="#020203"/>
<path d="M5.91982 17.7021C5.91982 17.9162 5.91982 18.1301 5.91982 18.3578C5.69212 18.3578 5.47802 18.3578 5.26412 18.3578L5.26232 18.3559C5.26252 18.1371 5.26272 17.9185 5.26292 17.6997L5.26172 17.7013C5.48052 17.7009 5.69912 17.7007 5.91792 17.7003L5.91982 17.7021Z" fill="#666733"/>
<path d="M9.85215 18.3597C9.63395 18.3587 9.41595 18.3577 9.19775 18.3564C9.19775 17.9239 9.19775 17.4914 9.19775 17.0491C9.41865 17.0491 9.63525 17.0491 9.85195 17.0491C9.85215 17.4859 9.85215 17.9227 9.85215 18.3597Z" fill="#6F91CB"/>
<path d="M9.85629 19.0117C9.85439 18.7937 9.85239 18.5759 9.85059 18.3579C10.0644 18.3579 10.2783 18.3579 10.5004 18.3579C10.5004 18.5769 10.5004 18.7886 10.5004 19.0117C10.2831 19.0117 10.0696 19.0117 9.85629 19.0117Z" fill="#6F91CB"/>
<path d="M15.0983 15.7343C15.3161 15.7341 15.5339 15.7341 15.7517 15.7339C15.7517 15.9478 15.7517 16.1619 15.7517 16.3924C16.8546 16.3924 17.9444 16.3924 19.0342 16.3924C19.0334 16.61 19.0326 16.8278 19.0317 17.0454L19.033 17.0442C18.5988 17.0442 18.1647 17.0442 17.7205 17.0442C17.7205 17.2736 17.7205 17.4873 17.7205 17.701L17.7217 17.6998C17.506 17.6998 17.29 17.6998 17.0669 17.6998C17.0669 17.9297 17.0669 18.143 17.0669 18.3562C17.0669 18.5744 17.0669 18.7929 17.0669 19.0111L17.065 19.0129C16.6327 19.0129 16.2006 19.0129 15.7564 19.0129C15.7564 18.5726 15.7564 18.1446 15.7564 17.7047C15.5354 17.7047 15.3256 17.7047 15.1041 17.7047C15.1041 17.4834 15.1041 17.2738 15.1041 17.0454C14.8758 17.0454 14.6593 17.0454 14.4429 17.0454C14.4433 16.8272 14.4444 16.6096 14.4448 16.3914C14.6601 16.3914 14.8752 16.3914 15.099 16.3914C15.099 16.1599 15.0983 15.9472 15.0983 15.7343Z" fill="#666733"/>
<path d="M13.7847 18.3558C13.7855 17.9192 13.7861 17.4828 13.7869 17.0462L13.7878 17.0454C14.0062 17.0456 14.2246 17.0458 14.4432 17.046C14.4432 17.4777 14.4428 17.9092 14.4428 18.3558C14.2176 18.3558 14.001 18.3558 13.7847 18.3558Z" fill="#020203"/>
<path d="M17.7205 19.6689C17.5064 19.6689 17.2925 19.6689 17.0649 19.6689C17.0649 19.4413 17.0649 19.2274 17.0649 19.0133L17.0667 19.0115C17.2849 19.0117 17.5033 19.0121 17.7215 19.0123C17.7218 19.2305 17.7222 19.4487 17.7224 19.6671L17.7205 19.6689Z" fill="#666733"/>
<path d="M3.29518 18.3554C3.29518 18.137 3.29518 17.9186 3.29518 17.7002C3.29477 17.483 3.29436 17.2658 3.29395 17.0486L3.29988 17.0425C3.73629 17.0435 4.1727 17.0447 4.6091 17.0458L4.60789 17.0445C4.60809 17.264 4.60829 17.4836 4.60849 17.703L4.6099 17.7016C4.3938 17.7016 4.1774 17.7016 3.95286 17.7016C3.95286 17.9311 3.95286 18.1448 3.95286 18.3587L3.9543 18.3572C3.73568 18.3577 3.51687 18.3581 3.29825 18.3583L3.29518 18.3554Z" fill="#434342"/>
<path d="M3.2939 17.0485C2.8618 17.0485 2.4297 17.0485 1.98242 17.0485C1.98242 16.8203 1.98242 16.6066 1.98242 16.3929L1.98858 16.387C2.42519 16.388 2.8618 16.3888 3.29862 16.3898L3.29718 16.3884C3.29821 16.6064 3.29903 16.8246 3.30005 17.0426L3.2939 17.0485Z" fill="#434342"/>
<path d="M2.63916 19.0109C2.63916 18.7972 2.63916 18.5833 2.63916 18.3552C2.86742 18.3552 3.08111 18.3552 3.295 18.3552L3.29808 18.3583C3.29767 18.5769 3.29726 18.7955 3.29705 19.0141L3.29849 19.0127C3.07988 19.0131 2.86126 19.0135 2.64245 19.0137L2.63916 19.0109Z" fill="#434342"/>
<path d="M2.64258 19.0139C2.86119 19.0135 3.07981 19.0131 3.29863 19.0129C3.29863 19.2311 3.29863 19.4493 3.29863 19.6677C3.08534 19.6677 2.87186 19.6677 2.64258 19.6677C2.64258 19.445 2.64258 19.2295 2.64258 19.0139Z" fill="#020203"/>
<path d="M19.0345 17.7031C19.0345 18.1391 19.0345 18.5751 19.0345 19.0113L19.0314 19.0143C18.8126 19.0141 18.5938 19.0139 18.375 19.0139L18.3768 19.0147C18.3768 18.7986 18.3768 18.5822 18.3768 18.3577C18.1473 18.3577 17.9334 18.3577 17.7197 18.3577L17.7206 18.3595C17.721 18.1399 17.7214 17.9202 17.7218 17.7004L17.7206 17.7016C18.1576 17.701 18.5944 17.7006 19.0314 17.7L19.0345 17.7031Z" fill="#434342"/>
<path d="M19.6898 17.0472C19.6889 17.265 19.6881 17.4828 19.6873 17.7004C19.4695 17.7012 19.2517 17.702 19.0339 17.7029L19.0308 17.6998C19.0315 17.4814 19.0319 17.263 19.0325 17.0446L19.0313 17.0458C19.2497 17.0452 19.4681 17.0448 19.6865 17.0442L19.6898 17.0472Z" fill="#434342"/>
<path d="M5.26282 17.6997C5.26262 17.9185 5.26242 18.1371 5.26222 18.3559C5.04402 18.3561 4.82562 18.3565 4.60742 18.3567C4.60782 18.138 4.60912 17.9203 4.60952 17.7017L4.60802 17.7032C4.82622 17.7019 5.04462 17.7007 5.26282 17.6997Z" fill="#808181"/>
<path d="M4.60778 18.3567C4.60778 18.5699 4.60778 18.7832 4.60778 19.0123C4.38388 19.0123 4.16788 19.0123 3.95215 19.0123C3.95256 18.7937 3.95379 18.5759 3.9542 18.3573L3.95277 18.3587C4.17138 18.3583 4.38918 18.3571 4.60778 18.3567Z" fill="#808181"/>
<path d="M19.6869 17.0442C19.4685 17.0449 19.2501 17.0453 19.0317 17.0459C19.0325 16.8283 19.0333 16.6105 19.0341 16.3929C19.2521 16.3915 19.4699 16.3898 19.6879 16.3884C19.6877 16.6068 19.6873 16.8256 19.6869 17.0442Z" fill="#020203"/>
<path d="M3.95395 18.3574C3.95354 18.576 3.95292 18.7944 3.95251 19.013C3.73389 19.0134 3.51549 19.014 3.29688 19.0144C3.29729 18.7958 3.29749 18.5772 3.2979 18.3586C3.51651 18.358 3.73513 18.3578 3.95395 18.3574Z" fill="#020203"/>
<path d="M18.375 19.0137C18.5938 19.0139 18.8126 19.0139 19.0315 19.0141C19.0319 19.2327 19.0321 19.4513 19.0325 19.67C18.8141 19.6687 18.5959 19.6677 18.3775 19.6665L18.3787 19.6681C18.3775 19.4499 18.3762 19.2319 18.375 19.0137Z" fill="#020203"/>
<path d="M18.375 19.0137C18.3762 19.2319 18.3776 19.4501 18.3789 19.6681C18.1601 19.6679 17.9414 19.6675 17.7226 19.6673C17.7224 19.4491 17.722 19.2309 17.7218 19.0125C17.9404 19.0129 18.1582 19.0141 18.3768 19.0145L18.375 19.0137Z" fill="#808181"/>
<path d="M9.19643 2.61934C8.75963 2.62078 8.32303 2.62201 7.88623 2.62345C7.88623 2.19053 7.88623 1.75781 7.88623 1.31812C8.10583 1.31812 8.31583 1.31812 8.53653 1.31812C8.53653 1.52874 8.53653 1.73874 8.53653 1.96597C8.76353 1.96597 8.98033 1.96597 9.19703 1.96597C9.19703 2.18376 9.19663 2.40155 9.19643 2.61934Z" fill="#ADA990"/>
<path d="M7.88689 3.27886C7.66769 3.27742 7.44869 3.27619 7.22949 3.27475C7.23009 3.05696 7.23049 2.83937 7.23109 2.62158L7.22969 2.62302C7.44869 2.62281 7.66789 2.62261 7.88689 2.6224C7.88689 2.84142 7.88689 3.06024 7.88689 3.27886Z" fill="#ADA990"/>
<path d="M7.23112 2.62173C7.01742 2.62173 6.80352 2.62173 6.58252 2.62173C6.58252 2.40209 6.58252 2.19045 6.58252 1.97266C6.79592 1.97266 7.00532 1.97266 7.22992 1.97266C7.22992 2.19065 7.22992 2.40681 7.22992 2.62296L7.23112 2.62173Z" fill="#ADA990"/>
<path d="M13.1282 1.30859C13.1293 1.52803 13.1303 1.74726 13.1311 1.96669C12.9131 1.9671 12.6951 1.96751 12.4771 1.96792C12.4773 1.74869 12.4773 1.52926 12.4775 1.30982C12.6945 1.30962 12.9113 1.30921 13.1282 1.30859Z" fill="#666733"/>
<path d="M13.7858 13.7678C13.7858 13.9819 13.7858 14.196 13.7858 14.4261C12.9063 14.4261 12.0347 14.4261 11.1631 14.4261C10.949 14.4261 10.7347 14.4261 10.5146 14.4261C10.5146 14.2038 10.5146 13.9911 10.5146 13.7678C11.6063 13.7678 12.6961 13.7678 13.7858 13.7678Z" fill="#65360E"/>
<path d="M11.166 15.737C11.166 15.9507 11.166 16.1646 11.166 16.3869C10.5042 16.3869 9.85167 16.3869 9.19927 16.3869C9.19867 16.1691 9.19807 15.9513 9.19727 15.7337C9.19767 15.5151 9.19807 15.2967 9.19847 15.0781L9.19727 15.0793C9.41157 15.0793 9.62567 15.0793 9.85047 15.0793C9.85047 15.2981 9.85047 15.5081 9.85047 15.737C10.2957 15.737 10.7309 15.737 11.166 15.737Z" fill="#CC9A32"/>
<path d="M11.1655 11.1428C12.0394 11.143 12.9132 11.143 13.7871 11.1432C13.7871 11.3627 13.7871 11.5819 13.7869 11.8013C13.5691 11.8019 13.3515 11.8023 13.1337 11.803C12.9138 11.803 12.6938 11.803 12.4739 11.803C12.2568 11.803 12.0396 11.803 11.8224 11.803C11.603 11.8023 11.3835 11.8015 11.1641 11.8009C11.1645 11.5815 11.1651 11.3625 11.1655 11.1428Z" fill="#9A6815"/>
<path d="M13.1299 16.3871C12.6982 16.3871 12.2665 16.3871 11.8188 16.3871C11.8188 16.1693 11.8188 15.9531 11.8188 15.737C12.2554 15.7351 12.6921 15.7335 13.1289 15.7317L13.1346 15.7376C13.133 15.954 13.1315 16.1705 13.1299 16.3871Z" fill="#CC9A32"/>
<path d="M7.88545 12.4571C8.09915 12.4571 8.31285 12.4571 8.54115 12.4571C8.54115 12.6804 8.54115 12.8966 8.54115 13.1127L8.54235 13.1115C8.32335 13.1119 8.10435 13.1123 7.88525 13.1127C7.88575 12.8937 7.88615 12.6749 7.88655 12.4558L7.88545 12.4571Z" fill="#CC9A32"/>
<path d="M8.54102 13.1128C8.75512 13.1128 8.96922 13.1128 9.19032 13.1128C9.19032 13.3314 9.19032 13.5412 9.19032 13.7672C8.97432 13.7672 8.75762 13.7672 8.54102 13.7672L8.54222 13.7684C8.54222 13.5494 8.54222 13.3304 8.54222 13.1116L8.54102 13.1128Z" fill="#CC9A32"/>
<path d="M12.4736 11.803C12.6935 11.803 12.9135 11.803 13.1334 11.803C13.1334 12.0165 13.1334 12.2297 13.1334 12.4496C12.9119 12.4496 12.7025 12.4496 12.4736 12.4496C12.4736 12.2349 12.4736 12.0189 12.4736 11.803Z" fill="#CC9A32"/>
<path d="M8.54134 13.7671C8.54134 13.9861 8.54134 14.2049 8.54134 14.424L8.54254 14.4227C8.32374 14.4229 8.10494 14.4233 7.88614 14.4235C7.88594 14.2047 7.88574 13.9859 7.88574 13.7671C8.10474 13.7675 8.32374 13.7679 8.54274 13.7683L8.54134 13.7671Z" fill="#CC9A32"/>
<path d="M11.1641 11.801C11.3835 11.8016 11.603 11.8025 11.8224 11.8031C11.8224 12.0166 11.8224 12.2303 11.8224 12.4501C11.6003 12.4501 11.3907 12.4501 11.1641 12.4501C11.1641 12.2335 11.1641 12.0174 11.1641 11.801Z" fill="#CC9A32"/>
<path d="M7.22969 11.8013C7.44339 11.8013 7.65699 11.8013 7.88529 11.8013C7.88529 12.0247 7.88529 12.2408 7.88529 12.457L7.88649 12.4557C7.66749 12.4557 7.44849 12.4557 7.22949 12.4557L7.23089 12.4572C7.23089 12.2382 7.23089 12.0191 7.23089 11.8003L7.22969 11.8013Z" fill="#CC9A32"/>
<path d="M8.54143 14.4239C8.75513 14.4239 8.96883 14.4239 9.19703 14.4239C9.19703 14.6472 9.19703 14.8633 9.19703 15.0795L9.19823 15.0783C8.97903 15.0785 8.75983 15.0787 8.54053 15.0789L8.54203 15.0803C8.54223 14.8611 8.54243 14.6419 8.54263 14.4226L8.54143 14.4239Z" fill="#CC9A32"/>
<path d="M11.1654 11.1428C11.165 11.3623 11.1648 11.5817 11.1644 11.8011C10.9513 11.8011 10.7382 11.8011 10.5063 11.8011C10.5063 11.5782 10.5063 11.3631 10.5063 11.1478L10.512 11.1418C10.73 11.1428 10.9482 11.1437 11.1662 11.1447L11.1654 11.1428Z" fill="#CC9A32"/>
<path d="M9.85254 10.4888C10.0705 10.4882 10.2883 10.4874 10.5063 10.4868L10.512 10.4927C10.512 10.7091 10.512 10.9256 10.512 11.142L10.5063 11.1479C10.2934 11.1479 10.0803 11.1479 9.85254 11.1479C9.85254 10.9203 9.85254 10.7046 9.85254 10.4888Z" fill="#CC9A32"/>
<path d="M7.22963 9.8335C7.22963 10.0472 7.22963 10.2607 7.22963 10.4891C7.00623 10.4891 6.79013 10.4891 6.57393 10.4891L6.57523 10.4904C6.57523 10.2713 6.57523 10.0523 6.57523 9.8335L6.57373 9.8349C6.79273 9.8349 7.01183 9.8349 7.23083 9.8349L7.22963 9.8335Z" fill="#CC9A32"/>
<path d="M7.22998 9.17918C7.44878 9.17898 7.66748 9.17878 7.88628 9.17878C7.88628 9.39228 7.88628 9.60568 7.88628 9.83358C7.66208 9.83358 7.44618 9.83358 7.22998 9.83358L7.23128 9.83478C7.23128 9.61578 7.23128 9.39678 7.23128 9.17798L7.22998 9.17918Z" fill="#CC9A32"/>
<path d="M14.445 14.4256C14.6628 14.4244 14.8806 14.4231 15.0984 14.4219C15.0984 14.8593 15.0982 15.297 15.0982 15.7344C14.8792 15.7344 14.6605 15.734 14.4415 15.734C14.4409 15.5152 14.4405 15.2962 14.4399 15.0773C14.4417 14.8602 14.4434 14.6428 14.445 14.4256Z" fill="#020203"/>
<path d="M14.4402 15.0774C14.4408 15.2962 14.4413 15.5153 14.4419 15.7341L14.4431 15.7331C14.2255 15.7345 14.0079 15.7357 13.7903 15.7372L13.7842 15.7308C13.7842 15.5175 13.7842 15.3042 13.7842 15.0774C14.0137 15.0774 14.2269 15.0774 14.4402 15.0774Z" fill="#9A6815"/>
<path d="M13.1304 16.3873C13.132 16.1707 13.1334 15.9544 13.1351 15.7378C13.3514 15.7355 13.5678 15.7333 13.7842 15.731L13.7903 15.7374C13.7889 15.955 13.7876 16.1726 13.7862 16.3901L13.7872 16.3889C13.5682 16.3883 13.3494 16.3877 13.1304 16.3873Z" fill="#9A6815"/>
<path d="M7.88428 5.90234C8.09738 5.90234 8.31048 5.90234 8.54278 5.90234C8.54278 6.1226 8.54278 6.3377 8.54278 6.5529C8.32958 6.5529 8.11608 6.5529 7.88428 6.5529C7.88428 6.3336 7.88428 6.1181 7.88428 5.90234Z" fill="#ADA990"/>
<path d="M10.5122 11.1421C10.5122 10.9257 10.5122 10.7092 10.5122 10.4928C10.7288 10.4922 10.9454 10.4916 11.1617 10.491C11.1634 10.709 11.1648 10.9268 11.1664 11.1448C10.9484 11.1439 10.7304 11.1429 10.5122 11.1421Z" fill="#9A6815"/>
<path d="M11.8198 9.83472C12.0335 9.83472 12.2474 9.83472 12.4687 9.83472C12.4687 10.0541 12.4687 10.266 12.4687 10.4838C12.2552 10.4838 12.0458 10.4838 11.8213 10.4838C11.8213 10.2658 11.8213 10.0496 11.8213 9.83352L11.8198 9.83472Z" fill="#CC9A32"/>
<path d="M6.57178 9.17586C6.57178 8.96276 6.57178 8.74976 6.57178 8.52246C6.79888 8.52246 7.01478 8.52246 7.23058 8.52246C7.23028 8.74126 7.23008 8.96036 7.22968 9.17936L7.23098 9.17816C7.01318 9.17936 6.79558 9.18076 6.57778 9.18206L6.57178 9.17586Z" fill="#CC9A32"/>
<path d="M7.88477 3.93359C7.88497 3.71478 7.88517 3.49616 7.88557 3.27734C8.71867 3.27755 9.55186 3.27775 10.3849 3.27816C10.4259 3.27816 10.4667 3.2798 10.5078 3.28083C10.5078 3.49432 10.5078 3.7078 10.5078 3.9338C9.62606 3.93359 8.75557 3.93359 7.88477 3.93359Z" fill="#808181"/>
<path d="M6.57547 9.83325C6.57547 10.0523 6.57547 10.2713 6.57547 10.4901C6.35767 10.4891 6.13968 10.4879 5.92188 10.4869C5.92188 10.274 5.92188 10.0611 5.92188 9.83325C6.14398 9.83325 6.35977 9.83325 6.57547 9.83325Z" fill="#FBCC9B"/>
<path d="M6.57812 9.18188C6.79592 9.18058 7.01342 9.17918 7.23122 9.17798C7.23122 9.39698 7.23122 9.61598 7.23122 9.83478C7.01222 9.83478 6.79322 9.83478 6.57422 9.83478C6.57542 9.61718 6.57682 9.39938 6.57812 9.18188Z" fill="#FBCC9B"/>
<path d="M3.29974 17.0424C3.29871 16.8244 3.29789 16.6062 3.29688 16.3882C3.73329 16.3896 4.16985 16.3913 4.60625 16.3927C4.60715 16.6105 4.60796 16.8281 4.60876 17.0457C4.17256 17.0447 3.73615 17.0436 3.29974 17.0424Z" fill="#020203"/>
<path d="M3.29826 16.3897C2.86164 16.3887 2.42503 16.3879 1.98822 16.3869C1.98719 16.1689 1.98637 15.9507 1.98535 15.7327C2.41745 15.7327 2.84934 15.7327 3.29805 15.7327C3.29826 15.957 3.29826 16.1734 3.29826 16.3897Z" fill="#020203"/>
<path d="M6.57162 15.0818C6.35792 15.0818 6.14452 15.0818 5.91602 15.0818C5.91602 14.8533 5.91602 14.6398 5.91602 14.4261L5.92222 14.4202C6.13952 14.4212 6.35712 14.4224 6.57452 14.4235C6.57552 14.6408 6.57682 14.8584 6.57782 15.0758L6.57162 15.0818Z" fill="#434342"/>
<path d="M7.22888 15.736C7.01048 15.7352 6.79228 15.7342 6.57388 15.7334C6.57328 15.5162 6.57248 15.299 6.57178 15.0818L6.57798 15.0759C6.79538 15.0769 7.01298 15.0782 7.23028 15.0792C7.23078 15.2972 7.23138 15.5152 7.23198 15.7332L7.22888 15.736Z" fill="#434342"/>
<path d="M7.22998 12.4558C7.44898 12.4558 7.66798 12.4558 7.88708 12.4558C7.88668 12.6749 7.88628 12.8937 7.88578 13.1127L7.88708 13.1115C7.66798 13.1115 7.44898 13.1115 7.22998 13.1115L7.23118 13.1127C7.23098 12.8937 7.23038 12.6749 7.22998 12.4558Z" fill="#FBCC9B"/>
<path d="M6.57551 13.7678C6.57551 13.5494 6.57551 13.331 6.57551 13.1126C6.79421 13.1126 7.01261 13.1126 7.23121 13.1128L7.23001 13.1116C7.23001 13.3304 7.23021 13.5494 7.23021 13.7682L7.23141 13.767C7.01261 13.767 6.79351 13.767 6.57471 13.7672L6.57551 13.7678Z" fill="#FBCC9B"/>
<path d="M7.23123 11.8003C7.23123 12.0193 7.23123 12.2383 7.23123 12.4572C7.01713 12.4572 6.80283 12.4572 6.58203 12.4572C6.58203 12.2373 6.58203 12.0275 6.58203 11.8003C6.79793 11.8003 7.01453 11.8003 7.23123 11.8003Z" fill="#FBCC9B"/>
<path d="M6.57483 14.4234C6.35743 14.4224 6.13983 14.4212 5.92243 14.4202C5.92143 14.2022 5.92043 13.9844 5.91943 13.7664C6.13823 13.7668 6.35683 13.7674 6.57563 13.7678L6.57483 13.767C6.57483 13.9858 6.57483 14.2046 6.57483 14.4234Z" fill="#020203"/>
<path d="M9.19736 15.7337C9.19796 15.9515 9.19856 16.1693 9.19936 16.3869C8.98036 16.3879 8.76136 16.3889 8.54226 16.3899C8.54126 16.1726 8.54006 15.9552 8.53906 15.7378L8.54516 15.7314C8.76236 15.7323 8.97976 15.7331 9.19736 15.7337Z" fill="#9A6815"/>
<path d="M14.4429 17.0462C14.2245 17.046 14.0061 17.0458 13.7875 17.0456C13.7873 16.8268 13.787 16.6077 13.7866 16.3889L13.7856 16.3901C14.0042 16.3897 14.2226 16.3891 14.441 16.3887L14.4441 16.3918C14.4439 16.61 14.4433 16.828 14.4429 17.0462Z" fill="#434342"/>
<path d="M7.88699 15.7331C7.88699 15.9521 7.88699 16.1711 7.88699 16.3901C7.67389 16.3901 7.46099 16.3901 7.22949 16.3901C7.22949 16.1666 7.22949 15.9513 7.22949 15.7359L7.23259 15.7329C7.45099 15.7333 7.66959 15.7339 7.88819 15.7343L7.88699 15.7331Z" fill="#434342"/>
<path d="M5.26302 17.6998C5.04462 17.701 4.82642 17.702 4.60802 17.7033C4.60782 17.4838 4.60762 17.2642 4.60742 17.0447C4.82602 17.0454 5.04442 17.0462 5.26302 17.0468C5.26262 17.265 5.26222 17.4832 5.26182 17.7012L5.26302 17.6998Z" fill="#020203"/>
<path d="M5.26221 17.7013C5.26261 17.4831 5.26301 17.2649 5.26351 17.0469C5.47671 17.0469 5.68981 17.0469 5.91831 17.0469C5.91831 17.2694 5.91831 17.485 5.91831 17.7005C5.69971 17.7005 5.48081 17.7009 5.26221 17.7013Z" fill="#808181"/>
<path d="M8.53853 15.7381C8.32113 15.7365 8.10403 15.7348 7.88663 15.7332L7.88763 15.7344C7.88723 15.5158 7.88663 15.297 7.88623 15.0784C8.10483 15.079 8.32343 15.0796 8.54203 15.0804L8.54063 15.079C8.54203 15.2966 8.54323 15.5144 8.54473 15.732L8.53853 15.7381Z" fill="#9A6815"/>
<path d="M19.0327 17.0447C19.0321 17.2632 19.0317 17.4816 19.031 17.7C18.594 17.7006 18.1572 17.701 17.7202 17.7016C17.7202 17.4879 17.7202 17.2742 17.7202 17.0447C18.1644 17.0447 18.5985 17.0447 19.0327 17.0447Z" fill="#020203"/>
<path d="M14.4416 15.7339C14.6606 15.7339 14.8796 15.7339 15.0986 15.7339C15.0986 15.9468 15.0986 16.1598 15.0986 16.3914C14.8749 16.3914 14.6598 16.3914 14.4444 16.3914L14.4414 16.3883C14.4418 16.1699 14.4424 15.9513 14.4428 15.7329L14.4416 15.7339Z" fill="#434342"/>
<path d="M17.7217 17.7002C17.7213 17.9198 17.7209 18.1395 17.7205 18.3591C17.5027 18.3583 17.2847 18.3575 17.0669 18.3566C17.0669 18.1434 17.0669 17.9301 17.0669 17.7002C17.29 17.7002 17.5058 17.7002 17.7217 17.7002Z" fill="#020203"/>
<path d="M17.0669 18.3567C17.2847 18.3575 17.5027 18.3583 17.7205 18.3591L17.7197 18.3573C17.7201 18.5759 17.7207 18.7943 17.7211 19.0129C17.5029 19.0127 17.2851 19.0117 17.0669 19.0115C17.0669 18.7931 17.0669 18.5749 17.0669 18.3567Z" fill="#808181"/>
<path d="M4.60826 18.3574C4.38966 18.3578 4.17126 18.3584 3.95264 18.3588C3.95264 18.1451 3.95264 17.9314 3.95264 17.7017C4.17716 17.7017 4.39356 17.7017 4.60976 17.7017C4.60906 17.9203 4.60866 18.1387 4.60826 18.3574Z" fill="#020203"/>
<path d="M17.7212 19.013C17.7208 18.7944 17.7202 18.576 17.7197 18.3574C17.9334 18.3574 18.1473 18.3574 18.3768 18.3574C18.3768 18.5819 18.3768 18.7981 18.3768 19.0144C18.1582 19.0138 17.9398 19.0134 17.7212 19.013Z" fill="#020203"/>
<path d="M8.54463 15.7316C8.54323 15.5141 8.54193 15.2963 8.54053 15.0787C8.75973 15.0785 8.97903 15.0783 9.19823 15.0781C9.19783 15.2967 9.19743 15.5151 9.19693 15.7337C8.97943 15.7331 8.76203 15.7323 8.54463 15.7316Z" fill="#FBCC9B"/>
<path d="M8.54235 13.7684C8.32335 13.768 8.10435 13.7676 7.88525 13.7672L7.88655 13.7684C7.88655 13.5494 7.88655 13.3304 7.88655 13.1116L7.88525 13.1128C8.10435 13.1124 8.32335 13.112 8.54235 13.1116C8.54235 13.3306 8.54235 13.5494 8.54235 13.7684Z" fill="#FBCC9B"/>
<path d="M7.88587 13.7671C7.88607 13.9859 7.88627 14.2047 7.88627 14.4235L7.88727 14.4225C7.66847 14.4225 7.44947 14.4225 7.23067 14.4227L7.23147 14.4235C7.23147 14.2047 7.23147 13.9859 7.23167 13.7671L7.23047 13.7683C7.44947 13.7683 7.66827 13.7685 7.88727 13.7685L7.88587 13.7671Z" fill="#FBCC9B"/>
<path d="M8.54203 15.0803C8.32343 15.0797 8.10483 15.0791 7.88623 15.0782L7.88703 15.0791C7.88703 14.8603 7.88703 14.6414 7.88723 14.4226L7.88623 14.4236C8.10503 14.4234 8.32383 14.423 8.54263 14.4228C8.54243 14.6418 8.54223 14.8611 8.54203 15.0803Z" fill="#FBCC9B"/>
<path d="M14.4427 15.7332C14.4423 15.9516 14.4419 16.1702 14.4412 16.3886C14.2226 16.389 14.0042 16.3896 13.7856 16.3901C13.787 16.1725 13.7883 15.9549 13.7897 15.7373C14.0075 15.7359 14.2251 15.7344 14.4427 15.7332Z" fill="#020203"/>
<path d="M7.23079 15.0789C7.01339 15.0779 6.7959 15.0766 6.5785 15.0756C6.5775 14.8582 6.5762 14.6406 6.5752 14.4232C6.794 14.4232 7.0128 14.4232 7.2317 14.4234L7.23079 14.4226C7.23059 14.6412 7.23059 14.8601 7.23079 15.0789Z" fill="#020203"/>
<path d="M7.88607 15.0781C7.88657 15.2967 7.88717 15.5155 7.88757 15.7341C7.66897 15.7337 7.45057 15.7333 7.23187 15.7327C7.23147 15.5147 7.23087 15.2967 7.23047 15.0787C7.44927 15.0787 7.66807 15.0787 7.88697 15.0789L7.88607 15.0781Z" fill="#020203"/>
<path d="M7.88708 13.7684C7.66798 13.7684 7.44918 13.7682 7.23018 13.7682C7.23018 13.5494 7.22998 13.3304 7.22998 13.1116C7.44898 13.1116 7.66798 13.1116 7.88708 13.1116C7.88708 13.3306 7.88708 13.5494 7.88708 13.7684Z" fill="#CC9A32"/>
<path d="M7.23141 14.4233C7.01261 14.4233 6.79381 14.4233 6.57491 14.423C6.57491 14.2042 6.57491 13.9856 6.57471 13.7668C6.79351 13.7668 7.01241 13.7668 7.23141 13.7666C7.23141 13.9856 7.23141 14.2044 7.23141 14.4233Z" fill="#9A6815"/>
<path d="M7.88707 15.0791C7.66827 15.0791 7.44947 15.0791 7.23067 15.0789C7.23067 14.8601 7.23067 14.6415 7.23047 14.4226C7.44927 14.4226 7.66807 14.4226 7.88707 14.4224C7.88727 14.6415 7.88707 14.8603 7.88707 15.0791Z" fill="#9A6815"/>
</g>
</svg>
