<svg width="21" height="21" viewBox="0 0 21 21" fill="none" xmlns="http://www.w3.org/2000/svg">
<mask id="mask0_666_19259" style="mask-type:luminance" maskUnits="userSpaceOnUse" x="0" y="0" width="21" height="21">
<path d="M21 0H0V21H21V0Z" fill="white"/>
</mask>
<g mask="url(#mask0_666_19259)">
<path d="M1.33005 0.65646C1.32984 0.43764 1.32964 0.21882 1.32943 0C6.13792 0 10.9461 0 15.7546 0C15.7552 0.21841 15.756 0.43682 15.7567 0.65543C11.6067 0.65543 7.45692 0.65543 3.29716 0.65543C3.29716 0.88348 3.29716 1.09778 3.29716 1.31188C3.07834 1.31168 2.85972 1.31147 2.64091 1.31127C2.64091 1.09512 2.64091 0.87917 2.64091 0.6583C2.4106 0.6583 2.19691 0.6583 1.98302 0.6583C1.76481 0.65728 1.54681 0.65604 1.32861 0.65502L1.33005 0.65646Z" fill="#808181"/>
<path d="M18.3777 16.3905C19.2519 16.3905 20.126 16.3905 21.0002 16.3907C21.0002 16.6093 21.0002 16.8277 21.0002 17.0463C20.782 17.0463 20.5636 17.0463 20.3454 17.0465C20.126 17.0473 19.9063 17.0482 19.6869 17.049C19.6664 17.0482 19.6461 17.0465 19.6256 17.0465C16.3997 17.0463 13.174 17.0463 9.94811 17.0467C9.91861 17.0467 9.88931 17.0504 9.85441 17.0527C9.85441 17.4928 9.85441 17.9257 9.85441 18.3586C9.63561 18.359 9.41701 18.3594 9.19821 18.3598C9.19711 18.14 9.19631 17.9199 9.19531 17.7001C9.19531 17.2655 9.19531 16.8312 9.19531 16.3882C9.86241 16.3882 10.5127 16.3882 11.163 16.3882C11.3829 16.3882 11.6029 16.3882 11.8228 16.3882C11.8636 16.389 11.9046 16.3907 11.9454 16.3907C13.4742 16.3909 15.0031 16.3909 16.532 16.3907C16.7094 16.3907 16.8867 16.389 17.0641 16.3882C17.2836 16.389 17.5032 16.3899 17.7226 16.3907C17.9408 16.3905 18.1593 16.3905 18.3777 16.3905Z" fill="#808181"/>
<path d="M20.3444 1.97028C20.563 1.96905 20.7814 1.96803 21 1.9668C21 2.62243 21 3.27806 21 3.9337C20.7824 3.9337 20.565 3.9339 20.3475 3.93411C20.3454 3.71488 20.3434 3.49586 20.3413 3.27663C20.3413 3.05904 20.3413 2.84166 20.3413 2.62407C20.3423 2.40607 20.3434 2.18828 20.3444 1.97028Z" fill="#020202"/>
<path d="M20.3454 17.0463C20.5636 17.0463 20.7821 17.0463 21.0003 17.0461C21.0003 17.4831 21.0003 17.9203 21.0003 18.3574C20.7814 18.3569 20.5624 18.3565 20.3436 18.3563L20.3452 18.358C20.344 18.1387 20.3428 17.9193 20.3418 17.7001C20.343 17.4821 20.3442 17.2641 20.3454 17.0463Z" fill="#020202"/>
<path d="M21.0002 5.24476C20.7818 5.24476 20.5633 5.24496 20.3449 5.24496C20.3451 5.02614 20.3446 4.80671 20.3449 4.58789L20.3438 4.58933C20.5625 4.58912 20.7814 4.58912 21.0002 4.58892C21.0002 4.80774 21.0002 5.02635 21.0002 5.24476Z" fill="#020202"/>
<path d="M21.0002 4.58923C20.7814 4.58943 20.5625 4.58943 20.3438 4.58964C20.3451 4.37103 20.3465 4.15241 20.3479 3.934C20.5655 3.9338 20.7829 3.9338 21.0005 3.93359C21.0003 4.15221 21.0002 4.37082 21.0002 4.58923Z" fill="#808123"/>
<path d="M4.60905 18.3563C4.39455 18.3563 4.17995 18.3563 3.95215 18.3563C3.95215 13.982 3.95215 9.6136 3.95215 5.24527C3.95215 5.02687 3.95215 4.80846 3.95215 4.59025C3.95236 3.71519 3.95236 2.83991 3.95256 1.96484C4.16955 1.96484 4.38635 1.96484 4.60795 1.96484C4.60795 2.02596 4.60795 2.07005 4.60795 2.11414C4.60795 7.2651 4.60795 12.4158 4.60815 17.5668C4.60815 17.6111 4.60985 17.6554 4.61065 17.6999C4.60965 17.9193 4.60865 18.1385 4.60755 18.358L4.60905 18.3563Z" fill="#808181"/>
<path d="M6.57468 20.3244C6.14208 20.3244 5.70958 20.3244 5.26458 20.3244C5.26458 20.1012 5.26458 19.8845 5.26458 19.6677L5.26318 19.6691C6.13368 19.6691 7.00408 19.6691 7.88938 19.6691C7.88938 19.4432 7.88938 19.2299 7.88938 19.0164C8.10718 19.0152 8.32478 19.0137 8.54258 19.0125C8.54258 19.2293 8.54258 19.446 8.54258 19.6687C8.60368 19.6687 8.64778 19.6687 8.69188 19.6687C11.8735 19.6687 15.0548 19.6687 18.2364 19.6687C18.2842 19.6687 18.332 19.6702 18.3798 19.6708C18.3792 19.8892 18.3783 20.1076 18.3777 20.326L18.3792 20.3246C14.4443 20.3246 10.5095 20.3244 6.57468 20.3244Z" fill="#808181"/>
<path d="M6.57471 20.3242C10.5095 20.3242 14.4444 20.3244 18.3792 20.3244C18.3792 20.5389 18.3792 20.7536 18.3792 20.9739C14.4441 20.9739 10.5155 20.9739 6.57471 20.9739C6.57471 20.7583 6.57471 20.5414 6.57471 20.3242Z" fill="#020203"/>
<path d="M3.95187 4.58993C3.95187 4.80834 3.95187 5.02675 3.95187 5.24495C2.86291 5.24495 1.77415 5.24495 0.676156 5.24495C0.676156 5.02326 0.676156 4.80609 0.676156 4.58911L0.674316 4.59075C1.76677 4.59055 2.85942 4.59034 3.95187 4.58993Z" fill="#020203"/>
<path d="M0.676311 4.58958C0.461791 4.58958 0.247081 4.58958 0.0253906 4.58958C0.0253906 3.49795 0.0253906 2.41165 0.0253906 1.31222C0.240721 1.31222 0.457691 1.31222 0.674671 1.31222L0.673231 1.31079C0.674261 1.96601 0.675491 2.62124 0.676511 3.27626C0.675901 3.71451 0.675281 4.15297 0.674671 4.59122L0.676311 4.58958Z" fill="#808181"/>
<path d="M5.26452 19.6675C5.05002 19.6675 4.83572 19.6675 4.60882 19.6675C4.60882 19.2268 4.60882 18.7914 4.60882 18.3562L4.60742 18.3577C4.82602 18.3575 5.04482 18.3575 5.26342 18.3572C5.26322 18.7945 5.26322 19.2317 5.26302 19.6689L5.26452 19.6675Z" fill="#808181"/>
<path d="M20.3437 18.3562C20.3437 18.7906 20.3437 19.2252 20.3437 19.6675C20.1212 19.6675 19.9046 19.6675 19.688 19.6675L19.6897 19.6691C19.6897 19.2319 19.6895 18.7949 19.6895 18.3577C19.9081 18.3577 20.1267 18.3579 20.3453 18.3579L20.3437 18.3562Z" fill="#020203"/>
<path d="M18.3779 20.3258C18.3785 20.1074 18.3793 19.889 18.3799 19.6706C18.5971 19.6689 18.8145 19.6673 19.0317 19.6655C19.2509 19.6667 19.4703 19.6679 19.6895 19.6689L19.6879 19.6673C19.6879 19.8814 19.6879 20.0953 19.6879 20.3258C19.2511 20.3258 18.8145 20.3258 18.3779 20.3258Z" fill="#020203"/>
<path d="M0.674292 1.3121C0.674292 1.09779 0.674292 0.883489 0.674292 0.656459C0.896392 0.656459 1.11315 0.656459 1.32992 0.656459L1.32849 0.655029C1.32849 0.871799 1.32849 1.08856 1.32849 1.31066C1.10146 1.31066 0.887162 1.31066 0.672852 1.31066L0.674292 1.3121Z" fill="#808181"/>
<path d="M18.3778 16.3904C18.1594 16.3904 17.941 16.3904 17.7226 16.3904C17.7226 13.7699 17.7226 11.1494 17.7226 8.52479C17.4953 8.52479 17.2808 8.52479 17.0661 8.52479C17.0661 8.30539 17.0663 8.08569 17.0663 7.86629L17.0649 7.86769C17.2814 7.86769 17.4978 7.86769 17.7219 7.86769C17.7219 7.63869 17.7219 7.42479 17.7219 7.21069L17.7205 7.21209C17.9393 7.21189 18.1581 7.21169 18.377 7.21149C18.3772 10.2708 18.3778 13.3308 18.3778 16.3904Z" fill="#020203"/>
<path d="M19.6892 5.90084C19.6892 6.11533 19.6892 6.32983 19.6892 6.55643C19.4675 6.55643 19.2506 6.55643 19.0336 6.55643C19.0338 6.33763 19.0334 6.11823 19.0336 5.89941L19.0322 5.90084C19.251 5.90064 19.4704 5.90105 19.6892 5.90084Z" fill="#020203"/>
<path d="M19.0331 6.55658C19.0331 6.77118 19.0331 6.98568 19.0331 7.21228C18.8114 7.21228 18.5944 7.21228 18.3774 7.21228C18.3776 6.99348 18.3772 6.77398 18.3774 6.55518L18.376 6.55658C18.5948 6.55638 18.8142 6.55678 19.0331 6.55658Z" fill="#020203"/>
<path d="M20.3446 5.24533C20.3446 5.45984 20.3446 5.67435 20.3446 5.90097C20.1229 5.90097 19.9059 5.90097 19.6889 5.90097C19.6891 5.68215 19.6887 5.46271 19.6889 5.2439L19.6875 5.24533C19.9063 5.24513 20.1257 5.24553 20.3446 5.24533Z" fill="#020203"/>
<path d="M3.29685 1.31198C3.29685 1.09767 3.29685 0.883567 3.29685 0.655527C7.4567 0.655527 11.6064 0.655527 15.7564 0.655527L15.7545 0.654297C15.7551 0.872497 15.7558 1.0907 15.7564 1.30911C15.7086 1.30993 15.6608 1.31157 15.613 1.31157C11.726 1.31178 7.8387 1.31178 3.95166 1.31178C3.73284 1.31157 3.51423 1.31137 3.29541 1.31116L3.29685 1.31198Z" fill="#C0C0BF"/>
<path d="M0.672852 1.31042C0.887162 1.31042 1.10146 1.31042 1.32849 1.31042C1.32849 1.08832 1.32849 0.871545 1.32849 0.654785C1.54669 0.655805 1.76469 0.657035 1.98289 0.658065C1.98289 0.873185 1.98289 1.08853 1.98289 1.31104C2.21463 1.31104 2.42771 1.31104 2.64078 1.31104C2.64078 1.5278 2.64078 1.74436 2.64078 1.96994C2.87026 1.96994 3.0817 1.96994 3.29293 1.96994C3.29293 2.18568 3.29293 2.40144 3.29293 2.62723C3.06816 2.62723 2.85878 2.62723 2.63996 2.62723C2.63996 2.85138 2.63996 3.06486 2.63996 3.27856L2.64119 3.27732C2.42217 3.27773 2.20335 3.27814 1.98433 3.27856C1.98433 3.0622 1.98433 2.84564 1.98433 2.62969C1.75813 2.62969 1.54854 2.62969 1.32972 2.62969C1.32972 2.85076 1.32972 3.06466 1.32972 3.27856C1.11192 3.27773 0.893931 3.27691 0.676131 3.27589C0.675111 2.62087 0.673882 1.96565 0.672852 1.31042Z" fill="white"/>
<path d="M3.29326 1.97032C3.08182 1.97032 2.87059 1.97032 2.64111 1.97032C2.64111 1.74473 2.64111 1.52797 2.64111 1.3114C2.85993 1.31161 3.07854 1.31181 3.29736 1.31202L3.29613 1.31079C3.29736 1.52838 3.29879 1.74617 3.30002 1.96376L3.29326 1.97032Z" fill="#C0C0BF"/>
<path d="M2.6408 1.31093C2.42772 1.31093 2.21465 1.31093 1.98291 1.31093C1.98291 1.08842 1.98291 0.873089 1.98291 0.657959C2.1966 0.657959 2.4105 0.657959 2.6408 0.657959C2.6408 0.878829 2.6408 1.09498 2.6408 1.31093Z" fill="#C0C0BF"/>
<path d="M20.3445 1.97021C20.3434 2.18821 20.3424 2.40601 20.3414 2.624C19.905 2.62421 19.4688 2.62463 19.0324 2.62483C18.8142 2.62422 18.5958 2.62339 18.3776 2.62277C18.3776 2.40826 18.377 2.19313 18.377 1.97021C19.0367 1.97021 19.6907 1.97021 20.3445 1.97021Z" fill="#292E69"/>
<path d="M16.4106 1.31313C16.6241 1.31313 16.8378 1.31313 17.065 1.31313C17.065 1.53071 17.065 1.74933 17.065 1.96794L17.0673 1.96568C16.8489 1.96527 16.6304 1.96486 16.412 1.96425C16.412 1.74666 16.412 1.52887 16.412 1.31128L16.4106 1.31313Z" fill="#020203"/>
<path d="M15.7567 1.30887C15.7561 1.09066 15.7555 0.872463 15.7549 0.654053C15.9692 0.654053 16.1833 0.654053 16.4105 0.654053C16.4105 0.879433 16.4105 1.0962 16.4105 1.31317L16.4121 1.31133C16.1935 1.31051 15.9751 1.30969 15.7567 1.30887Z" fill="#808181"/>
<path d="M17.7213 2.6229C17.9399 2.6227 18.1585 2.62229 18.3771 2.62208C18.3769 2.84069 18.3771 3.06013 18.3769 3.27874L18.3783 3.27731C18.1591 3.27751 17.9399 3.27772 17.7207 3.27813C17.7211 3.0591 17.7217 2.83987 17.7221 2.62085L17.7213 2.6229Z" fill="#292E69"/>
<path d="M17.0649 1.96783C17.2811 1.96783 17.4972 1.96783 17.7212 1.96783C17.7212 2.19075 17.7212 2.40691 17.7212 2.62285L17.722 2.6208C17.5036 2.62101 17.2852 2.62121 17.0668 2.62142C17.0668 2.40281 17.0672 2.18419 17.0672 1.96558L17.0649 1.96783Z" fill="#020203"/>
<path d="M15.7565 1.30884C15.975 1.30966 16.1934 1.31048 16.4118 1.3115C16.4118 1.52909 16.4118 1.74688 16.4118 1.96447C16.4118 2.18083 16.4118 2.39719 16.4118 2.62195C16.639 2.62195 16.8529 2.62195 17.0668 2.62195C17.0672 2.84159 17.0674 3.06082 17.068 3.28046C17.0672 3.49825 17.0664 3.71584 17.0658 3.93363C16.8488 3.93363 16.632 3.93363 16.4101 3.93363C16.4101 4.16045 16.4101 4.37496 16.4101 4.58927C16.1932 4.58927 15.9764 4.58927 15.7545 4.58927C15.7545 4.81608 15.7545 5.0306 15.7545 5.2449C15.5375 5.2449 15.3208 5.2449 15.0989 5.2449C15.0989 5.47172 15.0989 5.68623 15.0989 5.90054C14.8821 5.90054 14.6655 5.90054 14.4416 5.90054C14.4416 6.12633 14.4416 6.34043 14.4416 6.55433C14.225 6.55433 14.0085 6.55433 13.7876 6.55433C13.7876 6.78343 13.7876 6.99753 13.7876 7.21163C13.5706 7.21163 13.3539 7.21163 13.132 7.21163C13.132 7.43843 13.132 7.65293 13.132 7.86723C12.915 7.86723 12.6982 7.86723 12.4763 7.86723C12.4763 8.09403 12.4763 8.30853 12.4763 8.52283C12.2593 8.52283 12.0426 8.52283 11.8207 8.52283C11.8207 8.74973 11.8207 8.96423 11.8207 9.17853C11.6023 9.17813 11.3839 9.17773 11.1655 9.17723L11.1665 9.17873C11.1665 8.96173 11.1665 8.74493 11.1665 8.52843C10.9413 8.52843 10.7282 8.52843 10.5115 8.52843C10.5115 8.74783 10.5115 8.96193 10.5115 9.17623C10.5117 9.39633 10.5117 9.61633 10.5119 9.83643C10.5111 10.0542 10.5102 10.2717 10.5096 10.4895C10.291 10.4908 10.0726 10.492 9.85398 10.4932C9.63698 10.4932 9.41978 10.4932 9.20178 10.4932C9.20178 10.7162 9.20178 10.9307 9.20178 11.1454C9.20178 11.364 9.20178 11.5826 9.20178 11.8012C9.20098 12.0198 9.20038 12.2387 9.19958 12.4573C8.98058 12.4583 8.76148 12.4591 8.54248 12.4601C8.32548 12.4601 8.10858 12.4601 7.89058 12.4601C7.89058 12.6831 7.89058 12.8976 7.89058 13.1121C7.88968 13.3311 7.88908 13.5501 7.88828 13.7691C7.66968 13.7696 7.45108 13.7702 7.23248 13.7706C7.23168 13.5503 7.23058 13.3303 7.22978 13.11C7.22978 12.8935 7.22978 12.6769 7.22978 12.4624C6.78768 12.4624 6.35658 12.4624 5.92178 12.4624C5.92178 12.6818 5.92178 12.8959 5.92178 13.11C5.92178 13.3268 5.92178 13.5434 5.92178 13.7691C6.36888 13.7691 6.80138 13.7691 7.23388 13.7691C7.23348 13.9878 7.23288 14.2062 7.23248 14.4248C7.01338 14.4256 6.79438 14.4262 6.57538 14.427C6.35838 14.427 6.14148 14.427 5.92348 14.427C5.92348 14.65 5.92348 14.8645 5.92348 15.079C5.92348 15.5142 5.92348 15.9493 5.92348 16.3841C6.14488 16.3841 6.35798 16.3841 6.58008 16.3841C6.58008 16.1649 6.58008 15.9518 6.58008 15.7348C6.63018 15.7348 6.67078 15.7348 6.71138 15.7348C7.32208 15.7338 7.93258 15.7326 8.54328 15.7315C8.76028 15.7315 8.97728 15.7315 9.19898 15.7315C9.19898 15.5086 9.19898 15.2941 9.19898 15.0796C9.41588 15.0796 9.63308 15.0796 9.85458 15.0796C9.85458 14.853 9.85458 14.6385 9.85458 14.424C10.0716 14.424 10.2888 14.424 10.5102 14.424C10.5102 14.1974 10.5102 13.9828 10.5102 13.7683C10.7272 13.7683 10.9442 13.7683 11.1692 13.7683C11.1692 13.5432 11.1692 13.3301 11.1692 13.109C11.3904 13.109 11.6035 13.109 11.8221 13.109C11.8221 12.8865 11.8221 12.672 11.8221 12.4575C12.0391 12.4575 12.2559 12.4575 12.4778 12.4575C12.4778 12.2307 12.4778 12.0161 12.4778 11.8018C12.6947 11.8018 12.9115 11.8018 13.1334 11.8018C13.1334 11.575 13.1334 11.3605 13.1334 11.1462C13.3504 11.1462 13.5671 11.1462 13.789 11.1462C13.789 10.9194 13.789 10.7049 13.789 10.4906C14.006 10.4906 14.2228 10.4906 14.4447 10.4906C14.4447 10.2637 14.4447 10.0494 14.4447 9.83493C14.6616 9.83493 14.8784 9.83493 15.1003 9.83493C15.1003 9.60813 15.1003 9.39363 15.1003 9.17933C15.3179 9.17913 15.5353 9.17913 15.7529 9.17893C15.7543 9.39673 15.7559 9.61453 15.7574 9.83213C15.7568 10.0515 15.7563 10.2709 15.7557 10.4904C15.5398 10.4904 15.3238 10.4904 15.1001 10.4904C15.1001 10.719 15.1001 10.9325 15.1001 11.146C14.8841 11.146 14.6682 11.146 14.4445 11.146C14.4445 11.3747 14.4445 11.5881 14.4445 11.8016C14.2285 11.8016 14.0126 11.8016 13.7888 11.8016C13.7888 12.0303 13.7888 12.2438 13.7888 12.4573C13.5729 12.4573 13.3569 12.4573 13.1332 12.4573C13.1332 12.6859 13.1332 12.8994 13.1332 13.1129C12.9172 13.1129 12.7013 13.1129 12.4776 13.1129C12.4776 13.3416 12.4776 13.555 12.4776 13.7685C12.2616 13.7685 12.0457 13.7685 11.8219 13.7685C11.8219 13.9972 11.8219 14.2107 11.8219 14.4242C11.6054 14.4242 11.389 14.4242 11.1728 14.4242C11.1728 14.6504 11.1728 14.86 11.1728 15.0788C11.3939 15.0788 11.6078 15.0788 11.8219 15.0788C11.8215 15.2978 11.8211 15.5166 11.8207 15.7356L11.8219 15.7344C11.6064 15.7344 11.3906 15.7344 11.1636 15.7344C11.1636 15.9625 11.1636 16.1753 11.1636 16.388C10.5133 16.388 9.86298 16.388 9.19588 16.388C9.19588 16.8308 9.19588 17.2653 9.19588 17.6999C8.98218 17.6999 8.76868 17.6999 8.53938 17.6999C8.53938 17.9271 8.53938 18.1406 8.53938 18.3541C8.32178 18.3555 8.10408 18.3567 7.88648 18.358C7.88648 18.1416 7.88648 17.9251 7.88648 17.7091C7.66028 17.7091 7.45068 17.7091 7.23188 17.7091C7.23188 17.9302 7.23188 18.1441 7.23188 18.358C7.01278 18.358 6.79398 18.358 6.57498 18.358C6.57498 18.1416 6.57498 17.9251 6.57498 17.7091C6.34878 17.7091 6.13918 17.7091 5.92038 17.7091C5.92038 17.9302 5.92038 18.1441 5.92038 18.358C5.70158 18.3578 5.48268 18.3576 5.26408 18.3576C5.26408 18.142 5.26408 17.9267 5.26408 17.6999C5.03668 17.6999 4.82378 17.6999 4.61118 17.6999C4.61028 17.6556 4.60868 17.6113 4.60868 17.5668C4.60848 12.4158 4.60848 7.26513 4.60848 2.11418C4.60848 2.07009 4.60848 2.026 4.60848 1.96488C4.38678 1.96488 4.16998 1.96488 3.95305 1.96488L3.95428 1.96693C3.95366 1.74852 3.95305 1.52991 3.95264 1.3115C7.83968 1.3115 11.727 1.3115 15.614 1.3113C15.661 1.31109 15.7088 1.30966 15.7565 1.30884ZM10.5106 3.93117C10.5106 4.14814 10.5106 4.36512 10.5106 4.58188C10.7356 4.58188 10.9454 4.58188 11.163 4.58188C11.163 4.36019 11.163 4.14568 11.163 3.93117C11.163 3.71481 11.163 3.49825 11.163 3.28374C10.9397 3.28374 10.7268 3.28374 10.5106 3.28374C10.5106 3.50338 10.5106 3.71727 10.5106 3.93117ZM6.57308 11.1429C6.57308 10.9266 6.57308 10.71 6.57308 10.4955C6.34958 10.4955 6.13688 10.4955 5.92078 10.4955C5.92078 10.7151 5.92078 10.929 5.92078 11.1429C5.92078 11.3599 5.92078 11.5769 5.92078 11.7936C6.14578 11.7936 6.35558 11.7936 6.57308 11.7936C6.57308 11.5719 6.57308 11.3574 6.57308 11.1429ZM6.57308 6.55373C6.57308 6.33733 6.57308 6.12083 6.57308 5.90628C6.34958 5.90628 6.13688 5.90628 5.92078 5.90628C5.92078 6.12593 5.92078 6.33983 5.92078 6.55373C5.92078 6.77073 5.92078 6.98763 5.92078 7.20443C6.14578 7.20443 6.35558 7.20443 6.57308 7.20443C6.57308 6.98253 6.57308 6.76823 6.57308 6.55373ZM8.54008 6.55373C8.54008 6.33713 8.54008 6.12063 8.54008 5.90607C8.09788 5.90607 7.66678 5.90607 7.23208 5.90607C7.23208 6.12553 7.23208 6.33963 7.23208 6.55373C7.23208 6.77073 7.23208 6.98763 7.23208 7.20443C7.67558 7.20443 8.10378 7.20443 8.54008 7.20443C8.54008 6.98253 8.54008 6.76823 8.54008 6.55373ZM9.19918 6.55373C9.19918 6.77073 9.19918 6.98763 9.19918 7.20443C9.64278 7.20443 10.071 7.20443 10.5072 7.20443C10.5072 6.98273 10.5072 6.76823 10.5072 6.55373C10.5072 6.33713 10.5072 6.12063 10.5072 5.90607C10.065 5.90607 9.63388 5.90607 9.19918 5.90607C9.19918 6.12553 9.19918 6.33963 9.19918 6.55373ZM9.85148 9.17623C9.85148 8.95973 9.85148 8.74313 9.85148 8.52863C9.40938 8.52863 8.97828 8.52863 8.54348 8.52863C8.54348 8.74803 8.54348 8.96213 8.54348 9.17623C8.54348 9.39323 8.54348 9.61023 8.54348 9.82693C8.98708 9.82693 9.41528 9.82693 9.85148 9.82693C9.85148 9.60503 9.85148 9.39053 9.85148 9.17623ZM11.8219 3.93117C11.8219 4.14814 11.8219 4.36512 11.8219 4.58188C12.2655 4.58188 12.6937 4.58188 13.1299 4.58188C13.1299 4.36019 13.1299 4.14568 13.1299 3.93117C13.1299 3.71461 13.1299 3.49805 13.1299 3.28353C12.6878 3.28353 12.2567 3.28353 11.8219 3.28353C11.8219 3.50317 11.8219 3.71727 11.8219 3.93117ZM9.85148 3.93117C9.85148 3.71461 9.85148 3.49805 9.85148 3.28353C9.40938 3.28353 8.97828 3.28353 8.54348 3.28353C8.54348 3.50297 8.54348 3.71707 8.54348 3.93117C8.54348 4.14814 8.54348 4.36512 8.54348 4.58188C8.98708 4.58188 9.41528 4.58188 9.85148 4.58188C9.85148 4.36019 9.85148 4.14568 9.85148 3.93117ZM7.23208 11.1431C7.23208 11.3601 7.23208 11.5771 7.23208 11.7938C7.67558 11.7938 8.10378 11.7938 8.54008 11.7938C8.54008 11.5721 8.54008 11.3576 8.54008 11.1431C8.54008 10.9266 8.54008 10.71 8.54008 10.4955C8.09788 10.4955 7.66678 10.4955 7.23208 10.4955C7.23208 10.7149 7.23208 10.929 7.23208 11.1431ZM5.92078 9.17623C5.92078 9.39323 5.92078 9.61023 5.92078 9.82693C6.58278 9.82693 7.22978 9.82693 7.88438 9.82693C7.88438 9.60503 7.88438 9.39073 7.88438 9.17623C7.88438 8.95973 7.88438 8.74293 7.88438 8.52843C7.22368 8.52843 6.57418 8.52843 5.92078 8.52843C5.92078 8.74783 5.92078 8.96193 5.92078 9.17623ZM7.88438 3.93117C7.88438 3.71461 7.88438 3.49784 7.88438 3.28333C7.22368 3.28333 6.57418 3.28333 5.92078 3.28333C5.92078 3.50276 5.92078 3.71686 5.92078 3.93117C5.92078 4.14814 5.92078 4.36512 5.92078 4.58188C6.58278 4.58188 7.22978 4.58188 7.88438 4.58188C7.88438 4.36019 7.88438 4.14568 7.88438 3.93117ZM12.4698 6.55353C12.4698 6.33043 12.4698 6.11733 12.4698 5.90689C12.2503 5.90689 12.037 5.90689 11.8266 5.90689C11.8266 6.12633 11.8266 6.33963 11.8266 6.55353C12.0436 6.55353 12.2544 6.55353 12.4698 6.55353ZM14.4397 3.28292C14.2203 3.28292 14.007 3.28292 13.7921 3.28292C13.7921 3.50092 13.7921 3.71399 13.7921 3.92892C14.0101 3.92892 14.2232 3.92892 14.4397 3.92892C14.4397 3.71338 14.4397 3.50276 14.4397 3.28292Z" fill="white"/>
<path d="M17.0639 16.3879C16.8865 16.3887 16.7091 16.3903 16.5317 16.3903C15.0028 16.3905 13.474 16.3905 11.9451 16.3903C11.9043 16.3903 11.8633 16.3887 11.8225 16.3879C11.8221 16.1701 11.8214 15.9521 11.821 15.7343L11.8198 15.7355C12.0357 15.7355 12.2517 15.7355 12.4756 15.7355C12.4756 15.5056 12.4756 15.2921 12.4756 15.0787C12.6947 15.0787 12.9135 15.0787 13.1325 15.0787C13.1325 15.295 13.1325 15.5116 13.1325 15.7275C13.3587 15.7275 13.5683 15.7275 13.7871 15.7275C13.7871 15.5065 13.7871 15.2926 13.7871 15.0787C14.0031 15.0787 14.219 15.0787 14.4428 15.0787C14.4428 14.85 14.4428 14.6365 14.4428 14.423C14.6587 14.423 14.8746 14.423 15.0984 14.423C15.0984 14.1944 15.0984 13.9809 15.0984 13.7674C15.3143 13.7674 15.5303 13.7674 15.754 13.7674C15.754 13.5387 15.754 13.3252 15.754 13.1118C15.97 13.1118 16.1859 13.1118 16.4097 13.1118C16.4097 12.8831 16.4097 12.6696 16.4097 12.4561C16.626 12.4561 16.8426 12.4561 17.0585 12.4561C17.0624 12.4869 17.0655 12.5002 17.0655 12.5135C17.0651 13.8051 17.0645 15.0965 17.0639 16.3879Z" fill="white"/>
<path d="M9.85424 18.3582C9.85424 17.9253 9.85424 17.4923 9.85424 17.0522C9.88904 17.05 9.91834 17.0463 9.94794 17.0463C13.1738 17.0461 16.3994 17.0461 19.6253 17.0461C19.6458 17.0461 19.6661 17.0477 19.6866 17.0485C19.6872 17.2663 19.6881 17.4839 19.6887 17.7017C19.2539 17.7017 18.8194 17.7017 18.3739 17.7017C18.3739 17.9281 18.3739 18.1377 18.3739 18.3578C18.1492 18.3578 17.9351 18.3578 17.7212 18.3578C17.7212 18.1414 17.7212 17.9248 17.7212 17.7089C17.495 17.7089 17.2854 17.7089 17.0665 17.7089C17.0665 17.93 17.0665 18.1439 17.0665 18.3578C16.8475 18.3578 16.6287 18.3578 16.4097 18.3578C16.4097 18.1414 16.4097 17.9248 16.4097 17.7089C16.1835 17.7089 15.9739 17.7089 15.7551 17.7089C15.7551 17.93 15.7551 18.1439 15.7551 18.3578C15.5361 18.3578 15.3172 18.3578 15.0982 18.3578C15.0982 18.1414 15.0982 17.9248 15.0982 17.7089C14.872 17.7089 14.6624 17.7089 14.4436 17.7089C14.4436 17.93 14.4436 18.1439 14.4436 18.3578C14.2246 18.3578 14.0058 18.3578 13.7867 18.3578C13.7867 18.1414 13.7867 17.9248 13.7867 17.7089C13.5605 17.7089 13.3509 17.7089 13.1321 17.7089C13.1321 17.93 13.1321 18.1439 13.1321 18.3578C12.9131 18.3578 12.6943 18.3578 12.4753 18.3578C12.4753 18.1414 12.4753 17.9248 12.4753 17.7089C12.2491 17.7089 12.0395 17.7089 11.8207 17.7089C11.8207 17.93 11.8207 18.1439 11.8207 18.3578C11.6016 18.3578 11.3828 18.3578 11.1638 18.3578C11.1638 18.1414 11.1638 17.9248 11.1638 17.7089C10.9376 17.7089 10.728 17.7089 10.5092 17.7089C10.5092 17.93 10.5092 18.1439 10.5092 18.3578C10.2904 18.3574 10.0713 18.3571 9.85254 18.3567L9.85424 18.3582Z" fill="white"/>
<path d="M17.0639 16.3877C17.0646 15.0963 17.0652 13.8049 17.0656 12.5133C17.0656 12.5 17.0625 12.4867 17.0586 12.4559C16.8427 12.4559 16.6263 12.4559 16.4097 12.4559L16.411 12.4572C16.4106 12.2381 16.4102 12.0193 16.4097 11.8003C16.6261 11.8003 16.8427 11.8003 17.0588 11.8003C17.0588 11.5741 17.0588 11.3645 17.0588 11.1457C16.8377 11.1457 16.6238 11.1457 16.4097 11.1457C16.4102 10.9267 16.4106 10.7078 16.411 10.4888L16.4097 10.49C16.6259 10.49 16.8421 10.49 17.0658 10.49C17.0658 10.2597 17.0658 10.046 17.0658 9.83241C17.0664 9.39571 17.067 8.95931 17.0676 8.52271L17.0662 8.5244C17.2807 8.5244 17.4952 8.5244 17.7227 8.5244C17.7227 11.149 17.7227 13.7694 17.7227 16.3899C17.503 16.3893 17.2836 16.3885 17.0639 16.3877Z" fill="#C0C0BF"/>
<path d="M11.8209 15.7341C11.8213 15.9519 11.8219 16.1699 11.8223 16.3877C11.6025 16.3877 11.3824 16.3877 11.1626 16.3877C11.1626 16.1748 11.1626 15.9622 11.1626 15.7341C11.3896 15.7341 11.6054 15.7341 11.8209 15.7341Z" fill="#C0C0BF"/>
<path d="M19.689 17.7017C19.6884 17.4839 19.6876 17.2663 19.687 17.0485C19.9064 17.0477 20.126 17.0469 20.3455 17.0461C20.3442 17.2641 20.343 17.4821 20.3418 17.6999C20.1242 17.7007 19.9066 17.7011 19.689 17.7017Z" fill="#C0C0BF"/>
<path d="M8.53906 18.3539C8.53906 18.1404 8.53906 17.9269 8.53906 17.6997C8.76836 17.6997 8.98186 17.6997 9.19556 17.6997C9.19656 17.9195 9.19736 18.1396 9.19836 18.3594L9.19966 18.3576C8.98166 18.3586 8.76366 18.3596 8.54566 18.3606L8.53906 18.3539Z" fill="#C0C0BF"/>
<path d="M9.19815 18.3593C9.41705 18.3589 9.63565 18.3585 9.85445 18.3581L9.85325 18.3569C9.85325 18.5728 9.85325 18.7886 9.85325 19.0129C9.62455 19.0129 9.41105 19.0129 9.19775 19.0129C9.19835 18.7945 9.19905 18.5759 9.19945 18.3575L9.19815 18.3593Z" fill="white"/>
<path d="M19.0323 2.62484C19.4687 2.62464 19.9049 2.62423 20.3413 2.62402C20.3413 2.84161 20.3413 3.05899 20.3413 3.27658C20.1274 3.27658 19.9135 3.27658 19.6848 3.27658C19.6848 3.5036 19.6848 3.71606 19.6848 3.93919C19.4601 3.93919 19.2501 3.93919 19.0292 3.93919C19.0292 4.16026 19.0292 4.37026 19.0292 4.59113C18.8081 4.59113 18.5981 4.59113 18.3736 4.59113C18.3736 4.81467 18.3736 5.02713 18.3736 5.25025C18.1488 5.25025 17.9388 5.25025 17.7179 5.25025C17.7179 5.47133 17.7179 5.68133 17.7179 5.9022C17.4969 5.9022 17.2869 5.9022 17.0623 5.9022C17.0623 6.12576 17.0623 6.33816 17.0623 6.56136C16.8375 6.56136 16.6275 6.56136 16.4067 6.56136C16.4067 6.78236 16.4067 6.99236 16.4067 7.21386C16.1811 7.21386 15.9666 7.21386 15.7523 7.21386C15.5341 7.21346 15.3161 7.21286 15.0979 7.21246C15.0979 6.99366 15.0979 6.77476 15.0977 6.55576L15.1024 6.55846C15.3177 6.55846 15.533 6.55846 15.7549 6.55846C15.7549 6.32626 15.7549 6.11306 15.7549 5.89974L15.7535 5.90117C15.9699 5.90117 16.1862 5.90117 16.4106 5.90117C16.4106 5.67189 16.4106 5.458 16.4106 5.2441L16.4091 5.24554C16.6255 5.24554 16.8418 5.24554 17.0662 5.24554C17.0662 5.01626 17.0662 4.80236 17.0662 4.58847L17.0648 4.5899C17.2811 4.5899 17.4975 4.5899 17.7218 4.5899C17.7218 4.36062 17.7218 4.14673 17.7218 3.93283L17.7204 3.93386C17.9368 3.93386 18.1531 3.93386 18.3777 3.93386C18.3777 3.70478 18.3777 3.49089 18.3777 3.2772L18.3762 3.27863C18.5922 3.27863 18.8081 3.27863 19.0319 3.27863C19.0323 3.0512 19.0323 2.83812 19.0323 2.62484Z" fill="#2B4B9B"/>
<path d="M15.7524 7.21388C15.9667 7.21388 16.181 7.21388 16.4068 7.21388C16.4068 6.99238 16.4068 6.78238 16.4068 6.56138C16.6277 6.56138 16.8377 6.56138 17.0625 6.56138C17.0625 6.33798 17.0625 6.12558 17.0625 5.90223C17.287 5.90223 17.497 5.90223 17.7181 5.90223C17.7181 5.68136 17.7181 5.47136 17.7181 5.25029C17.939 5.25029 18.149 5.25029 18.3737 5.25029C18.3737 5.02695 18.3737 4.81449 18.3737 4.59116C18.5983 4.59116 18.8083 4.59116 19.0294 4.59116C19.0294 4.3703 19.0294 4.16029 19.0294 3.93922C19.2502 3.93922 19.4602 3.93922 19.685 3.93922C19.685 3.71589 19.685 3.50343 19.685 3.27661C19.9137 3.27661 20.1276 3.27661 20.3415 3.27661C20.3435 3.49584 20.3456 3.71487 20.3476 3.93409C20.3464 4.15271 20.3449 4.37132 20.3437 4.58973L20.3447 4.58829C20.1282 4.58829 19.9116 4.58829 19.6877 4.58829C19.6877 4.81716 19.6877 5.03126 19.6877 5.24536L19.6891 5.24393C19.4725 5.24393 19.256 5.24393 19.032 5.24393C19.032 5.4728 19.032 5.6869 19.032 5.901L19.0335 5.89956C18.8169 5.89956 18.6003 5.89956 18.3764 5.89956C18.3764 6.12838 18.3764 6.34258 18.3764 6.55668L18.3778 6.55518C18.1613 6.55518 17.9447 6.55518 17.7208 6.55518C17.7208 6.78408 17.7208 6.99818 17.7208 7.21228L17.7222 7.21088C17.5056 7.21088 17.2891 7.21088 17.0651 7.21088C17.0651 7.43968 17.0651 7.65378 17.0651 7.86788L17.0666 7.86648C16.8479 7.86788 16.6293 7.86938 16.4109 7.87078C16.1921 7.86998 15.9731 7.86918 15.7543 7.86808C15.7534 7.64988 15.753 7.43188 15.7524 7.21388Z" fill="#292E69"/>
<path d="M19.689 17.7018C19.9066 17.7012 20.1242 17.7006 20.3418 17.7002C20.343 17.9194 20.3442 18.1388 20.3453 18.3581C20.1267 18.3581 19.908 18.3579 19.6894 18.3579C19.6892 18.1392 19.689 17.9204 19.689 17.7018Z" fill="#808181"/>
<path d="M19.6875 5.2452C19.6875 5.0311 19.6875 4.81699 19.6875 4.58813C19.9114 4.58813 20.128 4.58813 20.3446 4.58813C20.3444 4.80694 20.3442 5.02577 20.344 5.24459C20.1251 5.2448 19.9063 5.24499 19.6875 5.2452Z" fill="#808123"/>
<path d="M2.6402 3.27879C2.6402 3.0651 2.6402 2.85141 2.6402 2.62746C2.85882 2.62746 3.06841 2.62746 3.29317 2.62746C3.29317 2.40167 3.29317 2.18593 3.29317 1.97019L3.29973 1.96362C3.51773 1.96465 3.73573 1.96567 3.95373 1.9667L3.9525 1.96465C3.95229 2.83972 3.95229 3.71499 3.95209 4.59006C2.85943 4.59026 1.76698 4.59067 0.674316 4.59088C0.674936 4.15263 0.675547 3.71417 0.676167 3.27592C0.893957 3.27674 1.11196 3.27756 1.32975 3.27858L1.32852 3.27735C1.32852 3.49371 1.32852 3.71027 1.32852 3.92643C1.55596 3.92643 1.76555 3.92643 1.98559 3.92643C1.98559 3.70535 1.98559 3.49146 1.98559 3.27735L1.98436 3.27858C2.20339 3.27817 2.42221 3.27776 2.64123 3.27735C2.64123 3.49412 2.64123 3.71068 2.64123 3.92561C2.86825 3.92561 3.07805 3.92561 3.28928 3.92561C3.28928 3.70781 3.28928 3.49822 3.28928 3.27858C3.06861 3.27879 2.85451 3.27879 2.6402 3.27879Z" fill="#C0C0BF"/>
<path d="M4.61052 17.6997C4.82312 17.6997 5.03602 17.6997 5.26342 17.6997C5.26342 17.9265 5.26342 18.1418 5.26342 18.3574C5.04482 18.3576 4.82602 18.3576 4.60742 18.3578C4.60842 18.1383 4.60952 17.9191 4.61052 17.6997Z" fill="#C0C0BF"/>
<path d="M19.6887 17.7017C19.6887 17.9203 19.6889 18.1389 19.6889 18.3578C19.4729 18.3578 19.2568 18.3578 19.0312 18.3578C19.0312 18.8038 19.0312 19.2349 19.0312 19.6658C18.814 19.6674 18.5966 19.669 18.3795 19.6709C18.3317 19.6703 18.2839 19.6688 18.2361 19.6688C15.0545 19.6688 11.8731 19.6688 8.69162 19.6688C8.64752 19.6688 8.60342 19.6688 8.54232 19.6688C8.54232 19.4461 8.54232 19.2293 8.54232 19.0126L8.54102 19.0138C8.75992 19.0136 8.97852 19.0134 9.19732 19.0132C9.41082 19.0132 9.62412 19.0132 9.85272 19.0132C9.85272 18.789 9.85272 18.5731 9.85272 18.3572C10.0715 18.3576 10.2906 18.3578 10.5094 18.3582L10.5081 18.3569C10.5081 18.5733 10.5081 18.7899 10.5081 19.006C10.7356 19.006 10.9452 19.006 11.1652 19.006C11.1652 18.7849 11.1652 18.571 11.1652 18.3569L11.164 18.3582C11.383 18.3582 11.6018 18.3582 11.8209 18.3582L11.8196 18.3569C11.8196 18.5733 11.8196 18.7899 11.8196 19.006C12.0471 19.006 12.2566 19.006 12.4767 19.006C12.4767 18.7849 12.4767 18.571 12.4767 18.3569L12.4755 18.3582C12.6945 18.3582 12.9133 18.3582 13.1323 18.3582L13.1311 18.3569C13.1311 18.5733 13.1311 18.7899 13.1311 19.006C13.3585 19.006 13.5681 19.006 13.7882 19.006C13.7882 18.7849 13.7882 18.571 13.7882 18.3569L13.7869 18.3582C14.006 18.3582 14.2248 18.3582 14.4438 18.3582L14.4426 18.3569C14.4426 18.5733 14.4426 18.7899 14.4426 19.006C14.67 19.006 14.8796 19.006 15.0996 19.006C15.0996 18.7849 15.0996 18.571 15.0996 18.3569L15.0984 18.3582C15.3174 18.3582 15.5363 18.3582 15.7553 18.3582L15.754 18.3569C15.754 18.5733 15.754 18.7899 15.754 19.006C15.9815 19.006 16.1911 19.006 16.4111 19.006C16.4111 18.7849 16.4111 18.571 16.4111 18.3569L16.4099 18.3582C16.6289 18.3582 16.8477 18.3582 17.0668 18.3582L17.0655 18.3569C17.0655 18.5733 17.0655 18.7899 17.0655 19.006C17.293 19.006 17.5025 19.006 17.7226 19.006C17.7226 18.7849 17.7226 18.571 17.7226 18.3569L17.7214 18.3582C17.9355 18.3582 18.1494 18.3582 18.3741 18.3582C18.3741 18.1381 18.3741 17.9283 18.3741 17.7021C18.8191 17.7017 19.2539 17.7017 19.6887 17.7017Z" fill="#C0C0BF"/>
<path d="M5.26338 18.3573C5.48218 18.3575 5.70098 18.3577 5.91958 18.3577L5.91838 18.3564C5.91838 18.5728 5.91838 18.7894 5.91838 19.0055C6.14578 19.0055 6.35538 19.0055 6.57548 19.0055C6.57548 18.7844 6.57548 18.5705 6.57548 18.3564L6.57418 18.3577C6.79328 18.3577 7.01208 18.3577 7.23108 18.3577L7.22988 18.3564C7.22988 18.572 7.22988 18.7875 7.22988 19.0094C7.45748 19.0094 7.67018 19.0094 7.88288 19.0094L7.88938 19.016C7.88938 19.2295 7.88938 19.4427 7.88938 19.6687C7.00408 19.6687 6.13348 19.6687 5.26318 19.6687C5.26318 19.2317 5.26318 18.7945 5.26338 18.3573Z" fill="#C0C0BF"/>
<path d="M7.88571 18.3581C8.10331 18.3569 8.32111 18.3554 8.53871 18.354L8.54521 18.3605C8.54401 18.5781 8.54251 18.7959 8.54131 19.0137L8.54251 19.0125C8.32481 19.0137 8.10721 19.0149 7.88941 19.0164L7.88281 19.0098C7.88421 18.7922 7.88551 18.5746 7.88691 18.3569L7.88571 18.3581Z" fill="#C0C0BF"/>
<path d="M19.0312 19.6657C19.0312 19.2348 19.0312 18.8039 19.0312 18.3577C19.257 18.3577 19.473 18.3577 19.6889 18.3577C19.6889 18.7949 19.6891 19.2319 19.6891 19.6691C19.4699 19.6681 19.2508 19.6669 19.0312 19.6657Z" fill="#808181"/>
<path d="M17.7207 7.21228C17.7207 6.99818 17.7207 6.78408 17.7207 6.55518C17.9446 6.55518 18.1612 6.55518 18.3777 6.55518C18.3775 6.77398 18.3773 6.99288 18.3771 7.21168C18.1583 7.21188 17.9395 7.21208 17.7207 7.21228Z" fill="#808123"/>
<path d="M17.0649 7.86769C17.0649 7.65359 17.0649 7.43949 17.0649 7.21069C17.2889 7.21069 17.5054 7.21069 17.722 7.21069C17.722 7.42459 17.722 7.63869 17.722 7.86769C17.4978 7.86769 17.2815 7.86769 17.0649 7.86769Z" fill="#808123"/>
<path d="M16.4108 7.87076C16.6294 7.86936 16.848 7.86786 17.0664 7.86646C17.0664 8.08586 17.0662 8.30556 17.0662 8.52496L17.0676 8.52336C16.8484 8.52316 16.629 8.52266 16.4097 8.52246L16.4112 8.52396C16.411 8.30616 16.4108 8.08836 16.4108 7.87076Z" fill="#808123"/>
<path d="M18.3765 6.55643C18.3765 6.34233 18.3765 6.12823 18.3765 5.89941C18.6005 5.89941 18.817 5.89941 19.0336 5.89941C19.0334 6.11823 19.0332 6.33703 19.033 6.55583C18.8142 6.55603 18.5953 6.55623 18.3765 6.55643Z" fill="#808123"/>
<path d="M19.0322 5.90097C19.0322 5.68686 19.0322 5.47276 19.0322 5.2439C19.2561 5.2439 19.4727 5.2439 19.6892 5.2439C19.689 5.46271 19.6888 5.68153 19.6886 5.90035C19.4698 5.90056 19.251 5.90076 19.0322 5.90097Z" fill="#808123"/>
<path d="M3.95379 1.9668C3.73579 1.96577 3.51779 1.96474 3.29979 1.96372C3.29856 1.74593 3.29713 1.52834 3.2959 1.31055C3.51472 1.31075 3.73333 1.31096 3.95215 1.31116C3.95256 1.52977 3.95317 1.74839 3.95379 1.9668Z" fill="#808181"/>
<path d="M1.32984 3.27851C1.32984 3.06461 1.32984 2.85071 1.32984 2.62964C1.54866 2.62964 1.75825 2.62964 1.98445 2.62964C1.98445 2.84579 1.98445 3.06215 1.98445 3.27851L1.98568 3.27728C1.76666 3.27728 1.54763 3.27728 1.32861 3.27728L1.32984 3.27851Z" fill="#C0C0BF"/>
<path d="M19.0326 2.62485C19.0326 2.83813 19.0326 3.05121 19.0326 3.27885C18.8089 3.27885 18.593 3.27885 18.377 3.27885C18.3772 3.06023 18.3776 2.84141 18.3778 2.6228C18.5962 2.62342 18.8144 2.62424 19.0326 2.62485Z" fill="#058181"/>
<path d="M17.0671 2.62159C16.8532 2.62159 16.6395 2.62159 16.4121 2.62159C16.4121 2.39703 16.4121 2.18047 16.4121 1.96411C16.6305 1.96452 16.8489 1.96493 17.0673 1.96555C17.0673 2.18416 17.0671 2.40298 17.0671 2.62159Z" fill="#C0C0BF"/>
<path d="M18.3781 3.27743C18.3781 3.49133 18.3781 3.70523 18.3781 3.93409C18.1535 3.93409 17.9372 3.93409 17.7208 3.93409C17.721 3.71487 17.7214 3.49584 17.7217 3.27661L17.7202 3.27805C17.9396 3.27784 18.1589 3.27764 18.3781 3.27743Z" fill="#058181"/>
<path d="M17.0678 3.28018C17.0674 3.06054 17.067 2.8411 17.0664 2.62147C17.2848 2.62126 17.5032 2.62106 17.7216 2.62085C17.721 2.83987 17.7206 3.0591 17.7202 3.27813L17.7216 3.27669C17.5038 3.27792 17.2858 3.27895 17.0678 3.28018Z" fill="#C0C0BF"/>
<path d="M8.54226 15.7314C7.93156 15.7325 7.32106 15.7337 6.71036 15.7347C6.66966 15.7347 6.62906 15.7347 6.57906 15.7347C6.57906 15.9517 6.57906 16.1646 6.57906 16.384C6.35696 16.384 6.14406 16.384 5.92236 16.384C5.92236 15.9492 5.92236 15.5141 5.92236 15.0789C6.13606 15.0789 6.34996 15.0789 6.57436 15.0789C6.57436 14.8545 6.57436 14.6406 6.57436 14.4269C6.79336 14.4261 7.01236 14.4255 7.23146 14.4247L7.22936 14.4226C7.22936 14.6396 7.22936 14.8568 7.22936 15.076C7.45696 15.076 7.67156 15.076 7.88586 15.076C8.10446 15.077 8.32306 15.0781 8.54186 15.0793C8.54206 15.2965 8.54226 15.5141 8.54226 15.7314Z" fill="#808123"/>
<path d="M11.8215 12.4575C11.8215 12.672 11.8215 12.8865 11.8215 13.109C11.6031 13.109 11.3898 13.109 11.1685 13.109C11.1685 13.3301 11.1685 13.5432 11.1685 13.7683C10.9436 13.7683 10.7266 13.7683 10.5096 13.7683C10.5096 13.5524 10.509 13.3358 10.509 13.108C10.2816 13.108 10.0683 13.108 9.85497 13.108C9.85497 12.8918 9.85497 12.6755 9.85497 12.455C9.62587 12.455 9.41157 12.455 9.19727 12.455L9.19897 12.4573C9.19977 12.2387 9.20037 12.0198 9.20117 11.8012C9.41877 11.8002 9.63617 11.799 9.85377 11.7979C10.0712 11.7992 10.2885 11.8002 10.5059 11.8014C10.5059 12.0178 10.5059 12.2341 10.5059 12.4538C10.7358 12.4538 10.9495 12.4538 11.1634 12.4538C11.3822 12.4546 11.6012 12.4554 11.8201 12.4562L11.8215 12.4575Z" fill="#020203"/>
<path d="M7.8845 3.93115C7.8845 4.14566 7.8845 4.35997 7.8845 4.58187C7.2299 4.58187 6.5829 4.58187 5.9209 4.58187C5.9209 4.3651 5.9209 4.14812 5.9209 3.93115C6.5755 3.93115 7.2299 3.93115 7.8845 3.93115Z" fill="#C0C0BF"/>
<path d="M5.9209 9.17612C5.9209 8.96202 5.9209 8.74792 5.9209 8.52832C6.5743 8.52832 7.224 8.52832 7.8845 8.52832C7.8845 8.74282 7.8845 8.95942 7.8845 9.17612C7.2299 9.17612 6.5755 9.17612 5.9209 9.17612Z" fill="#020203"/>
<path d="M5.9209 9.17627C6.5755 9.17627 7.2301 9.17627 7.8845 9.17627C7.8845 9.39077 7.8845 9.60507 7.8845 9.82697C7.2297 9.82697 6.5829 9.82697 5.9209 9.82697C5.9209 9.60997 5.9209 9.39307 5.9209 9.17627Z" fill="#C0C0BF"/>
<path d="M7.8845 3.93105C7.2299 3.93105 6.5753 3.93105 5.9209 3.93105C5.9209 3.71694 5.9209 3.50284 5.9209 3.2832C6.5743 3.2832 7.224 3.2832 7.8845 3.2832C7.8845 3.49792 7.8845 3.71448 7.8845 3.93105Z" fill="#020203"/>
<path d="M5.9209 13.1098C5.9209 12.8957 5.9209 12.6816 5.9209 12.4622C6.3557 12.4622 6.7867 12.4622 7.2289 12.4622C7.2289 12.6767 7.2289 12.8933 7.2289 13.1098C6.7929 13.1098 6.3569 13.1098 5.9209 13.1098Z" fill="#020203"/>
<path d="M8.54042 11.1431C8.54042 11.3576 8.54042 11.5719 8.54042 11.7938C8.10422 11.7938 7.67602 11.7938 7.23242 11.7938C7.23242 11.5771 7.23242 11.3601 7.23242 11.1431C7.66842 11.1431 8.10442 11.1431 8.54042 11.1431Z" fill="#C0C0BF"/>
<path d="M9.85194 3.93115C9.85194 4.14566 9.85194 4.35997 9.85194 4.58187C9.41574 4.58187 8.98755 4.58187 8.54395 4.58187C8.54395 4.3651 8.54395 4.14812 8.54395 3.93115C8.97995 3.93115 9.41594 3.93115 9.85194 3.93115Z" fill="#C0C0BF"/>
<path d="M5.9209 13.1099C6.3569 13.1099 6.7929 13.1099 7.2289 13.1099C7.2297 13.3302 7.2307 13.5502 7.2316 13.7705L7.233 13.7691C6.8005 13.7691 6.3678 13.7691 5.9209 13.7691C5.9209 13.5435 5.9209 13.3267 5.9209 13.1099Z" fill="#C0C0BF"/>
<path d="M13.1303 3.93115C13.1303 4.14566 13.1303 4.35997 13.1303 4.58187C12.6941 4.58187 12.2659 4.58187 11.8223 4.58187C11.8223 4.3651 11.8223 4.14812 11.8223 3.93115C12.2583 3.93115 12.6943 3.93115 13.1303 3.93115Z" fill="#C0C0BF"/>
<path d="M13.1303 3.93109C12.6943 3.93109 12.2583 3.93109 11.8223 3.93109C11.8223 3.71698 11.8223 3.50288 11.8223 3.28345C12.2571 3.28345 12.6882 3.28345 13.1303 3.28345C13.1303 3.49796 13.1303 3.71452 13.1303 3.93109Z" fill="#020203"/>
<path d="M8.54042 11.1432C8.10442 11.1432 7.66842 11.1432 7.23242 11.1432C7.23242 10.9291 7.23242 10.715 7.23242 10.4956C7.66712 10.4956 8.09822 10.4956 8.54042 10.4956C8.54042 10.7101 8.54042 10.9267 8.54042 11.1432Z" fill="#020203"/>
<path d="M9.85194 9.17627C9.85194 9.39077 9.85194 9.60507 9.85194 9.82697C9.41574 9.82697 8.98755 9.82697 8.54395 9.82697C8.54395 9.61027 8.54395 9.39327 8.54395 9.17627C8.97995 9.17627 9.41594 9.17627 9.85194 9.17627Z" fill="#C0C0BF"/>
<path d="M9.85194 3.93109C9.41594 3.93109 8.97995 3.93109 8.54395 3.93109C8.54395 3.71698 8.54395 3.50288 8.54395 3.28345C8.97865 3.28345 9.40974 3.28345 9.85194 3.28345C9.85194 3.49796 9.85194 3.71452 9.85194 3.93109Z" fill="#020203"/>
<path d="M15.7569 9.83236C15.7555 9.61456 15.7538 9.39676 15.7524 9.17916C15.7536 8.96096 15.7548 8.74296 15.7563 8.52476C15.9747 8.52456 16.1929 8.52416 16.4113 8.52396L16.4099 8.52246C16.4105 8.95826 16.4113 9.39426 16.4119 9.83006C16.1935 9.83066 15.9753 9.83146 15.7569 9.83236Z" fill="#808123"/>
<path d="M9.85194 9.17616C9.41594 9.17616 8.97995 9.17616 8.54395 9.17616C8.54395 8.96206 8.54395 8.74796 8.54395 8.52856C8.97865 8.52856 9.40974 8.52856 9.85194 8.52856C9.85194 8.74306 9.85194 8.95966 9.85194 9.17616Z" fill="#020203"/>
<path d="M10.5072 6.55371C10.5072 6.76821 10.5072 6.98251 10.5072 7.20441C10.071 7.20441 9.64282 7.20441 9.19922 7.20441C9.19922 6.98761 9.19922 6.77071 9.19922 6.55371C9.63522 6.55371 10.0712 6.55371 10.5072 6.55371Z" fill="#C0C0BF"/>
<path d="M8.54042 6.55371C8.54042 6.76821 8.54042 6.98251 8.54042 7.20441C8.10422 7.20441 7.67602 7.20441 7.23242 7.20441C7.23242 6.98761 7.23242 6.77071 7.23242 6.55371C7.66842 6.55371 8.10442 6.55371 8.54042 6.55371Z" fill="#C0C0BF"/>
<path d="M8.54042 6.55367C8.10442 6.55367 7.66842 6.55367 7.23242 6.55367C7.23242 6.33957 7.23242 6.12547 7.23242 5.90601C7.66712 5.90601 8.09822 5.90601 8.54042 5.90601C8.54042 6.12047 8.54042 6.33707 8.54042 6.55367Z" fill="#020203"/>
<path d="M10.5072 6.55367C10.0712 6.55367 9.63522 6.55367 9.19922 6.55367C9.19922 6.33957 9.19922 6.12547 9.19922 5.90601C9.63402 5.90601 10.0651 5.90601 10.5072 5.90601C10.5072 6.12047 10.5072 6.33707 10.5072 6.55367Z" fill="#020203"/>
<path d="M12.4698 6.55338C12.2545 6.55338 12.0436 6.55338 11.8267 6.55338C11.8267 6.33928 11.8267 6.12618 11.8267 5.90674C12.0371 5.90674 12.2501 5.90674 12.4698 5.90674C12.4698 6.11718 12.4698 6.33018 12.4698 6.55338Z" fill="#020203"/>
<path d="M14.4414 6.55419C14.4414 6.34029 14.4414 6.12619 14.4414 5.90039C14.6653 5.90039 14.8821 5.90039 15.0987 5.90039C15.0999 6.11958 15.1017 6.33969 15.1028 6.55889L15.0978 6.55619C14.8807 6.55729 14.6635 6.55849 14.4463 6.55949L14.4414 6.55419Z" fill="#292E69"/>
<path d="M6.5733 6.55371C6.5733 6.76821 6.5733 6.98251 6.5733 7.20441C6.3557 7.20441 6.1459 7.20441 5.9209 7.20441C5.9209 6.98761 5.9209 6.77071 5.9209 6.55371C6.1383 6.55371 6.3557 6.55371 6.5733 6.55371Z" fill="#C0C0BF"/>
<path d="M6.5733 6.5537C6.3559 6.5537 6.1385 6.5537 5.9209 6.5537C5.9209 6.3398 5.9209 6.1257 5.9209 5.90625C6.1368 5.90625 6.3497 5.90625 6.5733 5.90625C6.5733 6.1208 6.5733 6.3373 6.5733 6.5537Z" fill="#020203"/>
<path d="M13.7871 7.2115C13.7871 6.9974 13.7871 6.7831 13.7871 6.5542C14.0082 6.5542 14.2248 6.5542 14.4411 6.5542L14.446 6.5593C14.4456 6.7767 14.445 6.9941 14.4444 7.2115L14.4454 7.2158C14.226 7.2145 14.0066 7.2125 13.7871 7.2115Z" fill="#292E69"/>
<path d="M13.1313 7.86727C13.1313 7.65297 13.1313 7.43847 13.1313 7.21167C13.3532 7.21167 13.5702 7.21167 13.787 7.21167C13.7868 7.43027 13.787 7.64967 13.7868 7.86827L13.7882 7.86687C13.5694 7.86707 13.3501 7.86707 13.1313 7.86727Z" fill="#292E69"/>
<path d="M12.4761 8.52289C12.4761 8.30849 12.4761 8.09399 12.4761 7.86719C12.698 7.86719 12.915 7.86719 13.1318 7.86719C13.1316 8.08579 13.1318 8.30529 13.1316 8.52389L13.133 8.52239C12.9142 8.52259 12.695 8.52269 12.4761 8.52289Z" fill="#292E69"/>
<path d="M15.0986 5.90026C15.0986 5.68596 15.0986 5.47145 15.0986 5.24463C15.3205 5.24463 15.5375 5.24463 15.7542 5.24463C15.754 5.46325 15.7542 5.68268 15.754 5.90129L15.7555 5.89985C15.5367 5.90006 15.3174 5.90006 15.0986 5.90026Z" fill="#292E69"/>
<path d="M10.5107 9.17612C10.5107 8.96202 10.5107 8.74772 10.5107 8.52832C10.7275 8.52832 10.9406 8.52832 11.1658 8.52832C11.1658 8.74482 11.1658 8.96162 11.1658 9.17862C10.9474 9.17782 10.7292 9.17692 10.5107 9.17612Z" fill="#020203"/>
<path d="M11.8203 9.1784C11.8203 8.9641 11.8203 8.74951 11.8203 8.52271C12.0422 8.52271 12.2592 8.52271 12.4759 8.52271C12.4757 8.74141 12.4759 8.9608 12.4757 9.1794L12.4772 9.178C12.2583 9.1782 12.0391 9.1782 11.8203 9.1784Z" fill="#292E69"/>
<path d="M15.7563 8.52438C15.755 8.74258 15.7538 8.96078 15.7524 9.17878C15.5348 9.17898 15.3174 9.17898 15.0998 9.17918L15.0986 9.17798C15.099 8.95978 15.0992 8.74128 15.0996 8.52308C15.3176 8.52238 15.5354 8.52208 15.7534 8.52148L15.7563 8.52438Z" fill="#020203"/>
<path d="M15.7544 5.24474C15.7544 5.03044 15.7544 4.81593 15.7544 4.58911C15.9762 4.58911 16.1932 4.58911 16.41 4.58911C16.4098 4.80773 16.41 5.02716 16.4098 5.24577L16.4112 5.24433C16.1924 5.24454 15.9732 5.24454 15.7544 5.24474Z" fill="#292E69"/>
<path d="M10.5107 9.17627C10.7292 9.17707 10.9476 9.17787 11.1658 9.17877L11.1647 9.17727C11.1647 9.39657 11.1649 9.61557 11.1649 9.83477C10.9469 9.83537 10.7289 9.83597 10.5109 9.83667C10.5109 9.61637 10.5107 9.39637 10.5107 9.17627Z" fill="#C0C0BF"/>
<path d="M11.1651 9.83475C11.1651 9.61555 11.165 9.39655 11.165 9.17725C11.3834 9.17775 11.6018 9.17815 11.8202 9.17855C11.82 9.39715 11.8202 9.61655 11.82 9.83515L11.8214 9.83375C11.6024 9.83395 11.3841 9.83455 11.1651 9.83475Z" fill="#292E69"/>
<path d="M15.0998 9.17918C15.0998 9.39348 15.0998 9.60798 15.0998 9.83478C14.8779 9.83478 14.6609 9.83478 14.4442 9.83478L14.4429 9.83358C14.4433 9.61538 14.4435 9.39698 14.444 9.17878C14.6622 9.17838 14.8804 9.17838 15.0986 9.17798L15.0998 9.17918Z" fill="#020203"/>
<path d="M10.5108 9.83648C10.7288 9.83578 10.9468 9.83518 11.1648 9.83458C11.1646 10.0534 11.164 10.2718 11.1638 10.4907L11.1652 10.4892C10.9464 10.4894 10.7278 10.4898 10.5089 10.49C10.5099 10.2726 10.5102 10.0542 10.5108 9.83648Z" fill="#292E69"/>
<path d="M14.444 9.83494C14.444 10.0492 14.444 10.2638 14.444 10.4906C14.2221 10.4906 14.0051 10.4906 13.7883 10.4906L13.7871 10.4893C13.7875 10.2711 13.7877 10.0527 13.7881 9.83454C14.0063 9.83414 14.2245 9.83414 14.4427 9.83374L14.444 9.83494Z" fill="#020203"/>
<path d="M15.7565 9.83238C15.9747 9.83158 16.1931 9.83068 16.4113 9.83008L16.4101 9.83648C16.4099 10.0547 16.4095 10.2727 16.4093 10.4909L16.4105 10.4896C16.1915 10.4896 15.9725 10.4896 15.7534 10.4896L15.7547 10.4909C15.7555 10.2712 15.7561 10.0518 15.7565 9.83238Z" fill="#C0C0BF"/>
<path d="M5.9209 11.143C5.9209 10.9291 5.9209 10.715 5.9209 10.4956C6.1371 10.4956 6.3497 10.4956 6.5733 10.4956C6.5733 10.7101 6.5733 10.9267 6.5733 11.143C6.3557 11.143 6.1383 11.143 5.9209 11.143Z" fill="#020203"/>
<path d="M9.20117 11.1454C9.20117 10.9309 9.20117 10.7161 9.20117 10.4932C9.41917 10.4932 9.63637 10.4932 9.85337 10.4932C9.85297 10.7102 9.85277 10.9274 9.85237 11.1443C9.63537 11.1448 9.41817 11.1452 9.20117 11.1454Z" fill="#020203"/>
<path d="M16.4102 4.58899C16.4102 4.37468 16.4102 4.16017 16.4102 3.93335C16.6321 3.93335 16.8491 3.93335 17.0659 3.93335C17.0657 4.15196 17.0659 4.3714 17.0657 4.59001L17.0671 4.58858C16.8483 4.58878 16.629 4.58878 16.4102 4.58899Z" fill="#292E69"/>
<path d="M13.7882 10.4906C13.7882 10.7049 13.7882 10.9194 13.7882 11.1462C13.5663 11.1462 13.3493 11.1462 13.1326 11.1462L13.1313 11.145C13.1317 10.9268 13.1319 10.7084 13.1324 10.4902C13.3506 10.4898 13.5688 10.4898 13.787 10.4893L13.7882 10.4906Z" fill="#020203"/>
<path d="M15.0994 11.1459C15.0994 10.9324 15.0994 10.7189 15.0994 10.4903C15.3231 10.4903 15.5391 10.4903 15.755 10.4903L15.7538 10.489C15.7542 10.7081 15.7546 10.9269 15.755 11.1459C15.536 11.1455 15.3172 11.1451 15.0981 11.1447L15.0994 11.1459Z" fill="#C0C0BF"/>
<path d="M5.9209 11.1428C6.1383 11.1428 6.3559 11.1428 6.5733 11.1428C6.5733 11.3573 6.5733 11.5716 6.5733 11.7935C6.3557 11.7935 6.1459 11.7935 5.9209 11.7935C5.9209 11.5768 5.9209 11.3598 5.9209 11.1428Z" fill="#C0C0BF"/>
<path d="M9.20117 11.1453C9.41837 11.1451 9.63537 11.1447 9.85257 11.1445L9.85457 11.1465C9.85437 11.3637 9.85397 11.5807 9.85377 11.7978C9.63617 11.7989 9.41877 11.8001 9.20117 11.8011C9.20117 11.5825 9.20117 11.3639 9.20117 11.1453Z" fill="#292E69"/>
<path d="M13.1325 11.1462C13.1325 11.3605 13.1325 11.575 13.1325 11.8018C12.9106 11.8018 12.6936 11.8018 12.4768 11.8018L12.4756 11.8006C12.476 11.5824 12.4762 11.364 12.4766 11.1458C12.6948 11.1454 12.913 11.1454 13.1312 11.145L13.1325 11.1462Z" fill="#020203"/>
<path d="M14.4436 11.8016C14.4436 11.5882 14.4436 11.3747 14.4436 11.146C14.6674 11.146 14.8833 11.146 15.0993 11.146L15.098 11.1448C15.0985 11.3638 15.0989 11.5826 15.0993 11.8016C14.8802 11.8012 14.6614 11.8008 14.4424 11.8004L14.4436 11.8016Z" fill="#C0C0BF"/>
<path d="M11.1631 3.93115C11.1631 4.14566 11.1631 4.35997 11.1631 4.58187C10.9455 4.58187 10.7357 4.58187 10.5107 4.58187C10.5107 4.3651 10.5107 4.14812 10.5107 3.93115C10.7281 3.93115 10.9455 3.93115 11.1631 3.93115Z" fill="#C0C0BF"/>
<path d="M12.4767 11.8017C12.4767 12.016 12.4767 12.2305 12.4767 12.4574C12.2548 12.4574 12.0378 12.4574 11.8211 12.4574L11.8198 12.4561C11.8203 12.2379 11.8205 12.0195 11.8209 11.8013C12.0391 11.8009 12.2573 11.8009 12.4755 11.8005L12.4767 11.8017Z" fill="#020203"/>
<path d="M13.7883 12.4572C13.7883 12.2437 13.7883 12.0302 13.7883 11.8015C14.012 11.8015 14.228 11.8015 14.4439 11.8015L14.4427 11.8003C14.4431 12.0193 14.4435 12.2382 14.4439 12.4572C14.2249 12.4568 14.0061 12.4564 13.7871 12.456L13.7883 12.4572Z" fill="#C0C0BF"/>
<path d="M7.88965 13.1122C7.88965 12.8977 7.88965 12.6832 7.88965 12.4602C8.10765 12.4602 8.32465 12.4602 8.54165 12.4602C8.54065 12.6764 8.53955 12.8928 8.53875 13.1089C8.32245 13.1099 8.10605 13.111 7.88965 13.1122Z" fill="#020203"/>
<path d="M8.53906 13.1089C8.54006 12.8928 8.54106 12.6764 8.54196 12.4602C8.76096 12.4592 8.97996 12.4584 9.19896 12.4574L9.19736 12.4551C9.19776 12.6743 9.19796 12.8938 9.19836 13.113C8.98036 13.1136 8.76236 13.1142 8.54456 13.1149L8.53906 13.1089Z" fill="#808123"/>
<path d="M13.1325 13.113C13.1325 12.8995 13.1325 12.686 13.1325 12.4574C13.3563 12.4574 13.5722 12.4574 13.7881 12.4574L13.7869 12.4561C13.7873 12.6751 13.7877 12.894 13.7881 13.113C13.5691 13.1126 13.3503 13.1122 13.1313 13.1118L13.1325 13.113Z" fill="#C0C0BF"/>
<path d="M17.0679 3.2801C17.2859 3.27887 17.5037 3.27784 17.7217 3.27661C17.7215 3.49584 17.7211 3.71487 17.7209 3.93409L17.7223 3.93307C17.5035 3.93327 17.2849 3.93368 17.066 3.93389C17.0671 3.7161 17.0671 3.49789 17.0679 3.2801Z" fill="#292E69"/>
<path d="M7.88955 13.1122C8.10585 13.1112 8.32225 13.1099 8.53855 13.1089L8.54435 13.1148C8.54375 13.3328 8.54305 13.5506 8.54245 13.7686C8.32345 13.768 8.10425 13.7676 7.88525 13.767L7.88725 13.769C7.88785 13.55 7.88865 13.3312 7.88955 13.1122Z" fill="#808123"/>
<path d="M12.4769 13.7686C12.4769 13.5551 12.4769 13.3417 12.4769 13.113C12.7006 13.113 12.9166 13.113 13.1325 13.113L13.1313 13.1118C13.1317 13.3308 13.1321 13.5496 13.1325 13.7686C12.9135 13.7682 12.6947 13.7678 12.4756 13.7674L12.4769 13.7686Z" fill="#C0C0BF"/>
<path d="M7.23139 13.7703C7.44999 13.7699 7.66859 13.7693 7.88719 13.7689L7.88509 13.7668C7.88509 13.9858 7.88489 14.2049 7.88489 14.4239L7.88659 14.4229C7.66759 14.4226 7.44849 14.4226 7.22949 14.4224L7.23159 14.4245C7.23199 14.2059 7.23259 13.9873 7.23299 13.7689L7.23139 13.7703Z" fill="#808123"/>
<path d="M10.5093 13.7682C10.5093 13.9828 10.5093 14.1973 10.5093 14.4239C10.2876 14.4239 10.0706 14.4239 9.85363 14.4239C9.85493 14.2065 9.85553 13.9887 9.85693 13.7713C10.0743 13.7701 10.2919 13.7695 10.5093 13.7682Z" fill="#020203"/>
<path d="M11.8212 14.4242C11.8212 14.2107 11.8212 13.9972 11.8212 13.7685C12.045 13.7685 12.2609 13.7685 12.4768 13.7685L12.4756 13.7673C12.4756 13.9863 12.4756 14.2051 12.4756 14.4242L12.4768 14.4229C12.2578 14.4229 12.0388 14.4229 11.8198 14.4229L11.8212 14.4242Z" fill="#C0C0BF"/>
<path d="M6.57475 14.427C6.57475 14.6407 6.57475 14.8546 6.57475 15.079C6.35045 15.079 6.13655 15.079 5.92285 15.079C5.92285 14.8645 5.92285 14.65 5.92285 14.427C6.14085 14.427 6.35785 14.427 6.57475 14.427Z" fill="#020203"/>
<path d="M14.4397 3.28296C14.4397 3.5028 14.4397 3.71342 14.4397 3.92895C14.2233 3.92895 14.01 3.92895 13.792 3.92895C13.792 3.71403 13.792 3.50096 13.792 3.28296C14.0069 3.28296 14.2202 3.28296 14.4397 3.28296Z" fill="#020203"/>
<path d="M9.85395 14.424C9.85395 14.6385 9.85395 14.853 9.85395 15.0796C9.63225 15.0796 9.41535 15.0796 9.19835 15.0796C9.19955 14.8622 9.20015 14.6444 9.20165 14.427C9.41905 14.4258 9.63655 14.4253 9.85395 14.424Z" fill="#020203"/>
<path d="M11.8209 15.0785C11.6071 15.0785 11.3929 15.0785 11.1719 15.0785C11.1719 14.8597 11.1719 14.6503 11.1719 14.4239C11.388 14.4239 11.6044 14.4239 11.8209 14.4239L11.8197 14.4226C11.8197 14.6417 11.8197 14.8605 11.8197 15.0795L11.8209 15.0785Z" fill="#C0C0BF"/>
<path d="M8.54249 15.7316C8.54229 15.5142 8.54229 15.2967 8.54199 15.0793C8.76049 15.0791 8.97909 15.0791 9.19749 15.0789C9.19749 15.2934 9.19809 15.5085 9.19809 15.7314C8.97639 15.7316 8.75939 15.7316 8.54249 15.7316Z" fill="#020203"/>
<path d="M12.4756 15.0789C12.4756 15.2924 12.4756 15.5058 12.4756 15.7357C12.2519 15.7357 12.036 15.7357 11.8198 15.7357C11.8202 15.5167 11.8206 15.2979 11.821 15.0789L11.8198 15.0801C12.0388 15.0801 12.2578 15.0801 12.4769 15.0801L12.4756 15.0789Z" fill="#C0C0BF"/>
<path d="M11.1631 3.93112C10.9457 3.93112 10.7283 3.93112 10.5107 3.93112C10.5107 3.71723 10.5107 3.50313 10.5107 3.28369C10.7267 3.28369 10.9396 3.28369 11.1631 3.28369C11.1631 3.49841 11.1631 3.71477 11.1631 3.93112Z" fill="#020203"/>
<path d="M5.91976 18.3579C5.91976 18.144 5.91976 17.9301 5.91976 17.709C6.13856 17.709 6.34816 17.709 6.57436 17.709C6.57436 17.9252 6.57436 18.1415 6.57436 18.3579L6.57556 18.3566C6.35656 18.3566 6.13756 18.3566 5.91846 18.3566L5.91976 18.3579Z" fill="#C0C0BF"/>
<path d="M7.23118 18.3579C7.23118 18.144 7.23118 17.9301 7.23118 17.709C7.44998 17.709 7.65958 17.709 7.88578 17.709C7.88578 17.9252 7.88578 18.1415 7.88578 18.3579L7.88698 18.3566C7.66798 18.3566 7.44898 18.3566 7.22998 18.3566L7.23118 18.3579Z" fill="#C0C0BF"/>
<path d="M9.85254 11.1446C9.85294 10.9276 9.85314 10.7104 9.85354 10.4934C10.0721 10.4922 10.2905 10.491 10.5091 10.4897C10.5089 10.7083 10.5091 10.9278 10.5089 11.1464L10.5104 11.145C10.292 11.1456 10.0733 11.146 9.85494 11.1466L9.85254 11.1446Z" fill="#292E69"/>
<path d="M16.4095 12.4563C16.4095 12.6698 16.4095 12.8833 16.4095 13.112C16.1858 13.112 15.9699 13.112 15.7539 13.112L15.7551 13.1132C15.7547 12.8942 15.7543 12.6754 15.7539 12.4563C15.9729 12.4567 16.1917 12.4572 16.4108 12.4576L16.4095 12.4563Z" fill="#C0C0BF"/>
<path d="M15.7542 13.1118C15.7542 13.3253 15.7542 13.5388 15.7542 13.7674C15.5305 13.7674 15.3145 13.7674 15.0986 13.7674L15.0998 13.7686C15.0994 13.5496 15.099 13.3308 15.0986 13.1118C15.3176 13.1122 15.5364 13.1126 15.7554 13.113L15.7542 13.1118Z" fill="#C0C0BF"/>
<path d="M15.0986 13.7676C15.0986 13.9811 15.0986 14.1946 15.0986 14.4233C14.8748 14.4233 14.6589 14.4233 14.4429 14.4233L14.4442 14.4245C14.4437 14.2055 14.4433 13.9866 14.4429 13.7676C14.662 13.768 14.8808 13.7684 15.0998 13.7688L15.0986 13.7676Z" fill="#C0C0BF"/>
<path d="M13.1325 15.0786C12.9135 15.0786 12.6947 15.0786 12.4756 15.0786L12.4769 15.0798C12.4769 14.8608 12.4769 14.642 12.4769 14.4229L12.4756 14.4242C12.6947 14.4238 12.9135 14.4234 13.1325 14.4229C13.1321 14.642 13.1317 14.8608 13.1313 15.0798L13.1325 15.0786Z" fill="#C0C0BF"/>
<path d="M14.4427 14.4231C14.4427 14.6365 14.4427 14.85 14.4427 15.0787C14.219 15.0787 14.003 15.0787 13.7871 15.0787L13.7883 15.0799C13.7879 14.8609 13.7875 14.6421 13.7871 14.4231C14.0061 14.4235 14.2249 14.4239 14.444 14.4243L14.4427 14.4231Z" fill="#C0C0BF"/>
<path d="M13.7871 15.0786C13.7871 15.2925 13.7871 15.5064 13.7871 15.7275C13.5683 15.7275 13.3587 15.7275 13.1325 15.7275C13.1325 15.5113 13.1325 15.2949 13.1325 15.0786L13.1313 15.0798C13.3503 15.0798 13.5693 15.0798 13.7884 15.0798L13.7871 15.0786Z" fill="#C0C0BF"/>
<path d="M10.5095 18.3579C10.5095 18.144 10.5095 17.9301 10.5095 17.709C10.7283 17.709 10.9379 17.709 11.1641 17.709C11.1641 17.9252 11.1641 18.1415 11.1641 18.3579L11.1654 18.3566C10.9463 18.3566 10.7273 18.3566 10.5083 18.3566L10.5095 18.3579Z" fill="#C0C0BF"/>
<path d="M11.821 18.3579C11.821 18.144 11.821 17.9301 11.821 17.709C12.0399 17.709 12.2494 17.709 12.4756 17.709C12.4756 17.9252 12.4756 18.1415 12.4756 18.3579L12.4769 18.3566C12.2578 18.3566 12.0388 18.3566 11.8198 18.3566L11.821 18.3579Z" fill="#C0C0BF"/>
<path d="M13.1325 18.3579C13.1325 18.144 13.1325 17.9301 13.1325 17.709C13.3513 17.709 13.5609 17.709 13.7871 17.709C13.7871 17.9252 13.7871 18.1415 13.7871 18.3579L13.7884 18.3566C13.5693 18.3566 13.3503 18.3566 13.1313 18.3566L13.1325 18.3579Z" fill="#C0C0BF"/>
<path d="M14.4436 18.3579C14.4436 18.144 14.4436 17.9301 14.4436 17.709C14.6625 17.709 14.872 17.709 15.0982 17.709C15.0982 17.9252 15.0982 18.1415 15.0982 18.3579L15.0995 18.3566C14.8805 18.3566 14.6614 18.3566 14.4424 18.3566L14.4436 18.3579Z" fill="#C0C0BF"/>
<path d="M15.7551 18.3579C15.7551 18.144 15.7551 17.9301 15.7551 17.709C15.9739 17.709 16.1835 17.709 16.4097 17.709C16.4097 17.9252 16.4097 18.1415 16.4097 18.3579L16.411 18.3566C16.1919 18.3566 15.9729 18.3566 15.7539 18.3566L15.7551 18.3579Z" fill="#C0C0BF"/>
<path d="M17.0666 18.3579C17.0666 18.144 17.0666 17.9299 17.0666 17.709C17.2854 17.709 17.495 17.709 17.7212 17.709C17.7212 17.9252 17.7212 18.1415 17.7212 18.3579L17.7225 18.3566C17.5034 18.3566 17.2844 18.3566 17.0654 18.3566L17.0666 18.3579Z" fill="#C0C0BF"/>
<path d="M16.4118 9.82982C16.4112 9.39402 16.4104 8.95802 16.4097 8.52222C16.629 8.52242 16.8484 8.52282 17.0676 8.52302C17.067 8.95962 17.0664 9.39612 17.0658 9.83272C16.8474 9.83392 16.629 9.83492 16.4106 9.83622L16.4118 9.82982Z" fill="#020203"/>
<path d="M16.4106 9.83626C16.629 9.83496 16.8474 9.83396 17.0658 9.83276C17.0658 10.0465 17.0658 10.2602 17.0658 10.4905C16.8421 10.4905 16.6259 10.4905 16.4097 10.4905C16.41 10.2725 16.4104 10.0545 16.4106 9.83626Z" fill="white"/>
<path d="M15.7551 11.1459C15.7547 10.9269 15.7543 10.7081 15.7539 10.489C15.9729 10.489 16.192 10.489 16.411 10.489C16.4106 10.7081 16.4102 10.9269 16.4097 11.1459L16.411 11.1447C16.192 11.1447 15.9729 11.1447 15.7539 11.1447L15.7551 11.1459Z" fill="white"/>
<path d="M16.4097 11.146C16.6236 11.146 16.8377 11.146 17.0588 11.146C17.0588 11.3648 17.0588 11.5742 17.0588 11.8006C16.8427 11.8006 16.6263 11.8006 16.4097 11.8006L16.411 11.8018C16.411 11.5828 16.411 11.364 16.411 11.145L16.4097 11.146Z" fill="white"/>
<path d="M16.4108 12.4574C16.1917 12.457 15.9729 12.4565 15.7539 12.4561L15.7551 12.4574C15.7551 12.2383 15.7551 12.0195 15.7551 11.8005L15.7539 11.8017C15.9729 11.8017 16.192 11.8017 16.411 11.8017L16.4097 11.8005C16.41 12.0193 16.4104 12.2383 16.4108 12.4574Z" fill="white"/>
<path d="M8.54102 19.0136C8.54232 18.7958 8.54372 18.5782 8.54492 18.3604C8.76292 18.3594 8.98092 18.3584 9.19892 18.3574C9.19832 18.5758 9.19772 18.7944 9.19732 19.0128C8.97872 19.0132 8.75992 19.0134 8.54102 19.0136Z" fill="#808181"/>
<path d="M15.0991 5.90097C15.3179 5.90076 15.5366 5.90035 15.7554 5.90015C15.7554 6.11346 15.7554 6.32666 15.7554 6.55886C15.5335 6.55886 15.3181 6.55886 15.1028 6.55886C15.1014 6.33946 15.1004 6.12016 15.0991 5.90097Z" fill="#058181"/>
<path d="M14.4448 7.21141C14.4452 6.99401 14.4458 6.77661 14.4462 6.55921C14.6634 6.55821 14.8806 6.55701 15.0978 6.55591C15.0978 6.77481 15.0978 6.99361 15.098 7.21261L15.0996 7.21101C14.8814 7.21121 14.663 7.21121 14.4448 7.21141Z" fill="#020203"/>
<path d="M15.7525 7.21394C15.7529 7.43194 15.7535 7.64994 15.7539 7.86794L15.7554 7.86654C15.5374 7.86614 15.3194 7.86554 15.1012 7.86514C15.1008 7.64714 15.1002 7.42894 15.0997 7.21094L15.0981 7.21254C15.3163 7.21294 15.5345 7.21354 15.7525 7.21394Z" fill="#020203"/>
<path d="M15.7547 5.2452C15.9735 5.24499 16.1922 5.24458 16.411 5.24438C16.411 5.45827 16.411 5.67196 16.411 5.90145C16.1866 5.90145 15.9703 5.90145 15.7539 5.90145C15.7541 5.68263 15.7545 5.46381 15.7547 5.2452Z" fill="#058181"/>
<path d="M16.4106 4.58969C16.6294 4.58948 16.848 4.58907 17.0668 4.58887C17.0668 4.80276 17.0668 5.01645 17.0668 5.24594C16.8425 5.24594 16.6261 5.24594 16.4097 5.24594C16.41 5.02712 16.4104 4.8083 16.4106 4.58969Z" fill="#058181"/>
<path d="M17.0662 3.93393C17.2851 3.93372 17.5037 3.93331 17.7225 3.93311C17.7225 4.147 17.7225 4.3607 17.7225 4.59018C17.4981 4.59018 17.2818 4.59018 17.0654 4.59018C17.0656 4.37136 17.0658 4.15254 17.0662 3.93393Z" fill="#058181"/>
<path d="M16.4108 8.5236C16.1924 8.5238 15.9742 8.5242 15.7558 8.5244L15.7529 8.5215C15.7537 8.3033 15.7544 8.0849 15.7552 7.8667L15.7537 7.8681C15.9726 7.8689 16.1916 7.8698 16.4104 7.8708C16.4106 8.0882 16.4108 8.306 16.4108 8.5236Z" fill="#020203"/>
<path d="M2.64014 3.27884C2.85445 3.27884 3.06855 3.27884 3.28963 3.27884C3.28963 3.49848 3.28963 3.70827 3.28963 3.92586C3.0784 3.92586 2.8686 3.92586 2.64158 3.92586C2.64158 3.71094 2.64158 3.49417 2.64158 3.27761L2.64014 3.27884Z" fill="white"/>
<path d="M1.3291 3.27734C1.54812 3.27734 1.76714 3.27734 1.98617 3.27734C1.98617 3.49124 1.98617 3.70534 1.98617 3.92642C1.76612 3.92642 1.55673 3.92642 1.3291 3.92642C1.3291 3.71026 1.3291 3.49391 1.3291 3.27734Z" fill="white"/>
<path d="M10.5083 18.3567C10.7273 18.3567 10.9463 18.3567 11.1654 18.3567C11.1654 18.5705 11.1654 18.7846 11.1654 19.0057C10.9453 19.0057 10.7359 19.0057 10.5083 19.0057C10.5083 18.7896 10.5083 18.573 10.5083 18.3567Z" fill="white"/>
<path d="M11.8198 18.3567C12.0388 18.3567 12.2578 18.3567 12.4769 18.3567C12.4769 18.5705 12.4769 18.7846 12.4769 19.0057C12.2568 19.0057 12.0474 19.0057 11.8198 19.0057C11.8198 18.7896 11.8198 18.573 11.8198 18.3567Z" fill="white"/>
<path d="M13.1313 18.3567C13.3503 18.3567 13.5694 18.3567 13.7884 18.3567C13.7884 18.5705 13.7884 18.7846 13.7884 19.0057C13.5683 19.0057 13.359 19.0057 13.1313 19.0057C13.1313 18.7896 13.1313 18.573 13.1313 18.3567Z" fill="white"/>
<path d="M14.4424 18.3567C14.6614 18.3567 14.8805 18.3567 15.0995 18.3567C15.0995 18.5705 15.0995 18.7846 15.0995 19.0057C14.8794 19.0057 14.67 19.0057 14.4424 19.0057C14.4424 18.7896 14.4424 18.573 14.4424 18.3567Z" fill="white"/>
<path d="M15.7539 18.3567C15.9729 18.3567 16.192 18.3567 16.411 18.3567C16.411 18.5705 16.411 18.7846 16.411 19.0057C16.1909 19.0057 15.9815 19.0057 15.7539 19.0057C15.7539 18.7896 15.7539 18.573 15.7539 18.3567Z" fill="white"/>
<path d="M17.0654 18.3567C17.2844 18.3567 17.5034 18.3567 17.7225 18.3567C17.7225 18.5705 17.7225 18.7846 17.7225 19.0057C17.5024 19.0057 17.293 19.0057 17.0654 19.0057C17.0654 18.7896 17.0654 18.573 17.0654 18.3567Z" fill="white"/>
<path d="M5.91846 18.3567C6.13756 18.3567 6.35656 18.3567 6.57556 18.3567C6.57556 18.5705 6.57556 18.7846 6.57556 19.0057C6.35556 19.0057 6.14616 19.0057 5.91846 19.0057C5.91846 18.7896 5.91846 18.573 5.91846 18.3567Z" fill="white"/>
<path d="M7.22998 18.3567C7.44898 18.3567 7.66798 18.3567 7.88698 18.3567C7.88578 18.5742 7.88438 18.7918 7.88288 19.0096C7.67028 19.0096 7.45758 19.0096 7.22998 19.0096C7.22998 18.7875 7.22998 18.5722 7.22998 18.3567Z" fill="white"/>
<path d="M7.22949 14.4226C7.44849 14.4228 7.66749 14.4228 7.88659 14.423C7.88639 14.6406 7.88619 14.8584 7.88589 15.076C7.67139 15.076 7.45709 15.076 7.22949 15.076C7.22949 14.8568 7.22949 14.6398 7.22949 14.4226Z" fill="white"/>
<path d="M7.88625 15.0758C7.88645 14.8582 7.88665 14.6404 7.88685 14.4228L7.88525 14.4239C8.10425 14.4234 8.32325 14.423 8.54255 14.4226C8.54235 14.6414 8.54235 14.8603 8.54215 15.0791C8.32365 15.0781 8.10485 15.0768 7.88625 15.0758Z" fill="#F4E600"/>
<path d="M15.1 7.21094C15.1004 7.42894 15.1011 7.64714 15.1015 7.86514C15.1009 8.08454 15.1002 8.30394 15.0994 8.52344C14.8835 8.52344 14.6677 8.52324 14.4438 8.52324C14.4438 8.75224 14.4438 8.96554 14.4438 9.17904C14.2278 9.17904 14.0121 9.17884 13.7881 9.17884C13.7881 9.40794 13.7881 9.62124 13.7881 9.83464C13.5721 9.83464 13.3565 9.83444 13.1325 9.83444C13.1325 10.0635 13.1325 10.2768 13.1325 10.4903C12.9166 10.4903 12.7008 10.4901 12.4769 10.4901C12.4769 10.7191 12.4769 10.9324 12.4769 11.1459C12.2609 11.1459 12.0452 11.1457 11.8212 11.1457C11.8212 11.3748 11.8212 11.5881 11.8212 11.8015C11.6045 11.8015 11.3879 11.8013 11.1638 11.8013C11.1638 12.0308 11.1638 12.2423 11.1638 12.4537C10.9499 12.4537 10.7362 12.4537 10.5063 12.4537C10.5063 12.2341 10.5063 12.0177 10.5063 11.8013C10.5077 11.5825 10.5089 11.3637 10.5104 11.1449L10.5089 11.1463C10.7253 11.1463 10.9417 11.1463 11.166 11.1463C11.166 10.917 11.166 10.7031 11.166 10.4892L11.1646 10.4907C11.3809 10.4907 11.5973 10.4907 11.8217 10.4907C11.8217 10.2614 11.8217 10.0475 11.8217 9.83364L11.8202 9.83504C12.0366 9.83504 12.2529 9.83504 12.4773 9.83504C12.4773 9.60584 12.4773 9.39194 12.4773 9.17804L12.4759 9.17944C12.6922 9.17944 12.9086 9.17944 13.1329 9.17944C13.1329 8.95014 13.1329 8.73624 13.1329 8.52234L13.1315 8.52384C13.3478 8.52384 13.5642 8.52384 13.7886 8.52384C13.7886 8.29454 13.7886 8.08064 13.7886 7.86674L13.7871 7.86814C14.0029 7.86814 14.2188 7.86814 14.446 7.86814C14.446 7.64134 14.446 7.42854 14.446 7.21564L14.445 7.21134C14.6632 7.21114 14.8816 7.21114 15.1 7.21094Z" fill="#2B4B9B"/>
<path d="M10.5097 11.145C10.5083 11.3638 10.5071 11.5826 10.5056 11.8014C10.2883 11.8002 10.0709 11.7992 9.85352 11.7979C9.85372 11.5807 9.85412 11.3638 9.85432 11.1466C10.0729 11.146 10.2913 11.1454 10.5097 11.145Z" fill="#058181"/>
<path d="M11.1631 12.4539C11.1631 12.2424 11.1631 12.031 11.1631 11.8015C11.3872 11.8015 11.604 11.8015 11.8208 11.8015C11.8204 12.0197 11.8202 12.2381 11.8197 12.4563C11.6009 12.4555 11.3821 12.4547 11.1631 12.4539Z" fill="#292E69"/>
<path d="M9.19829 13.113C9.19789 12.8938 9.19769 12.6743 9.19729 12.4551C9.41159 12.4551 9.62569 12.4551 9.85499 12.4551C9.85499 12.6756 9.85499 12.8919 9.85499 13.1081L9.84819 13.1138C9.63119 13.1132 9.41419 13.1126 9.19729 13.1118L9.19829 13.113Z" fill="white"/>
<path d="M10.5089 13.7676C10.2915 13.7688 10.0743 13.7701 9.85694 13.7713L9.85024 13.7645C9.84954 13.5476 9.84874 13.3306 9.84814 13.1136L9.85494 13.1079C10.0681 13.1079 10.2814 13.1079 10.5089 13.1079C10.5089 13.3357 10.5089 13.5517 10.5089 13.7676Z" fill="#808123"/>
<path d="M14.446 7.21566C14.446 7.42846 14.446 7.64136 14.446 7.86816C14.2188 7.86816 14.0028 7.86816 13.7871 7.86816C13.7873 7.64956 13.7877 7.43076 13.7879 7.21216C14.0073 7.21316 14.2265 7.21436 14.446 7.21566Z" fill="#058181"/>
<path d="M13.7884 7.8667C13.7884 8.0806 13.7884 8.2943 13.7884 8.5238C13.564 8.5238 13.3477 8.5238 13.1313 8.5238C13.1315 8.3051 13.1319 8.0863 13.1321 7.8677C13.351 7.8673 13.5696 7.8671 13.7884 7.8667Z" fill="#058181"/>
<path d="M13.1327 8.52246C13.1327 8.73636 13.1327 8.95006 13.1327 9.17956C12.9084 9.17956 12.692 9.17956 12.4756 9.17956C12.4758 8.96096 12.4763 8.74216 12.4765 8.52356C12.6953 8.52306 12.9141 8.52266 13.1327 8.52246Z" fill="#058181"/>
<path d="M12.4769 9.17798C12.4769 9.39188 12.4769 9.60558 12.4769 9.83498C12.2525 9.83498 12.0362 9.83498 11.8198 9.83498C11.82 9.61638 11.8204 9.39758 11.8206 9.17898C12.0394 9.17858 12.2583 9.17818 12.4769 9.17798Z" fill="#058181"/>
<path d="M15.0991 8.52329C15.0997 8.30389 15.1004 8.08449 15.1012 7.86499C15.3192 7.86549 15.5372 7.86609 15.7554 7.86649C15.7546 8.08469 15.7539 8.30309 15.7531 8.52129C15.5351 8.52209 15.3171 8.52269 15.0991 8.52329Z" fill="#292E69"/>
<path d="M14.4434 9.17899C14.4434 8.96549 14.4434 8.75219 14.4434 8.52319C14.6676 8.52319 14.8835 8.52319 15.0993 8.52319C15.0989 8.74139 15.0987 8.95979 15.0983 9.17799C14.88 9.17839 14.6618 9.17879 14.4434 9.17899Z" fill="#292E69"/>
<path d="M11.8211 9.83374C11.8211 10.0476 11.8211 10.2613 11.8211 10.4908C11.5968 10.4908 11.3804 10.4908 11.1641 10.4908C11.1643 10.272 11.1643 10.0529 11.1645 9.83414C11.3833 9.83394 11.6021 9.83374 11.8211 9.83374Z" fill="#058181"/>
<path d="M13.7876 9.83475C13.7876 9.62125 13.7876 9.40806 13.7876 9.17896C14.0117 9.17896 14.2277 9.17896 14.4434 9.17896C14.443 9.39716 14.4428 9.61556 14.4424 9.83376C14.2242 9.83416 14.006 9.83435 13.7876 9.83475Z" fill="#292E69"/>
<path d="M11.1654 10.4893C11.1654 10.7032 11.1654 10.9169 11.1654 11.1464C10.941 11.1464 10.7247 11.1464 10.5083 11.1464C10.5085 10.9278 10.5089 10.709 10.5091 10.4904C10.7278 10.49 10.9466 10.4896 11.1654 10.4893Z" fill="#058181"/>
<path d="M13.1323 10.4904C13.1323 10.2769 13.1323 10.0636 13.1323 9.83447C13.3564 9.83447 13.5724 9.83447 13.7881 9.83447C13.7877 10.0527 13.7875 10.2711 13.7871 10.4893C13.5689 10.4898 13.3505 10.49 13.1323 10.4904Z" fill="#292E69"/>
<path d="M12.4766 11.1459C12.4766 10.9324 12.4766 10.7191 12.4766 10.49C12.7008 10.49 12.9167 10.49 13.1325 10.49C13.1321 10.7082 13.1319 10.9267 13.1315 11.1449C12.913 11.1453 12.6948 11.1455 12.4766 11.1459Z" fill="#292E69"/>
<path d="M15.0995 11.8016C15.0991 11.5826 15.0987 11.3638 15.0983 11.1448C15.3173 11.1452 15.5361 11.1456 15.7552 11.146L15.7539 11.1448C15.7539 11.3638 15.7539 11.5826 15.7539 11.8016L15.7552 11.8004C15.5361 11.8004 15.3171 11.8004 15.0981 11.8004L15.0995 11.8016Z" fill="white"/>
<path d="M11.8208 11.8016C11.8208 11.5881 11.8208 11.3749 11.8208 11.1458C12.0449 11.1458 12.2609 11.1458 12.4766 11.1458C12.4762 11.364 12.476 11.5824 12.4756 11.8006C12.2574 11.801 12.0392 11.8012 11.8208 11.8016Z" fill="#292E69"/>
<path d="M14.4438 12.4572C14.4434 12.2382 14.443 12.0193 14.4426 11.8003C14.6616 11.8007 14.8804 11.8011 15.0994 11.8015L15.0982 11.8003C15.0982 12.0193 15.0982 12.2382 15.0982 12.4572L15.0994 12.456C14.8804 12.456 14.6614 12.456 14.4424 12.456L14.4438 12.4572Z" fill="white"/>
<path d="M13.7881 13.113C13.7876 12.894 13.7872 12.6751 13.7868 12.4561C14.0058 12.4565 14.2247 12.4569 14.4437 12.4574L14.4425 12.4561C14.4425 12.6751 14.4425 12.894 14.4425 13.113L14.4437 13.1118C14.2247 13.1118 14.0056 13.1118 13.7866 13.1118L13.7881 13.113Z" fill="white"/>
<path d="M8.54232 13.7686C8.54292 13.5506 8.54352 13.3328 8.54412 13.1148C8.76212 13.1142 8.98012 13.1136 9.19792 13.113L9.19672 13.1118C9.19652 13.3306 9.19652 13.5494 9.19632 13.7684L9.19772 13.767C8.97892 13.7672 8.75992 13.7672 8.54102 13.7674L8.54232 13.7686Z" fill="white"/>
<path d="M13.1324 13.7686C13.132 13.5496 13.1316 13.3308 13.1311 13.1118C13.3502 13.1122 13.569 13.1126 13.788 13.113L13.7868 13.1118C13.7868 13.3308 13.7868 13.5496 13.7868 13.7686L13.788 13.7674C13.569 13.7674 13.35 13.7674 13.1309 13.7674L13.1324 13.7686Z" fill="white"/>
<path d="M8.54255 14.4226C8.32345 14.4231 8.10445 14.4235 7.88525 14.4239C7.88525 14.2049 7.88545 13.9858 7.88545 13.7668C8.10445 13.7674 8.32365 13.7678 8.54275 13.7684L8.54145 13.7672C8.54125 13.986 8.54125 14.2049 8.54105 14.4239L8.54255 14.4226Z" fill="white"/>
<path d="M13.1325 14.4233C12.9135 14.4237 12.6947 14.4241 12.4756 14.4245C12.4756 14.2055 12.4756 13.9866 12.4756 13.7676C12.6947 13.768 12.9135 13.7684 13.1325 13.7688L13.1313 13.7676C13.1313 13.9866 13.1313 14.2055 13.1313 14.4245L13.1325 14.4233Z" fill="white"/>
<path d="M9.85304 14.4234C9.63574 14.4246 9.41854 14.4258 9.20114 14.4271L9.19434 14.4203C9.19564 14.2025 9.19684 13.9847 9.19804 13.7669L9.19664 13.7683C9.41444 13.7671 9.63224 13.7659 9.85004 13.7646L9.85674 13.7714C9.85554 13.9886 9.85434 14.206 9.85304 14.4234Z" fill="#808123"/>
<path d="M12.4769 14.4229C12.4769 14.642 12.4769 14.8608 12.4769 15.0798C12.2578 15.0798 12.0388 15.0798 11.8198 15.0798C11.8198 14.8608 11.8198 14.642 11.8198 14.4229C12.0388 14.4229 12.2578 14.4229 12.4769 14.4229Z" fill="white"/>
<path d="M8.54202 15.0793C8.54222 14.8605 8.54222 14.6416 8.54242 14.4228L8.54102 14.4241C8.75882 14.4228 8.97662 14.4216 9.19442 14.4204L9.20112 14.4271C9.19992 14.6445 9.19872 14.8617 9.19722 15.0791C8.97902 15.0791 8.76062 15.0793 8.54202 15.0793Z" fill="#808123"/>
<path d="M15.7554 13.1132C15.5364 13.1128 15.3176 13.1124 15.0986 13.112L15.0998 13.1132C15.0998 12.8942 15.0998 12.6754 15.0998 12.4563L15.0986 12.4576C15.3176 12.4576 15.5366 12.4576 15.7556 12.4576L15.7544 12.4563C15.7546 12.6752 15.755 12.8942 15.7554 13.1132Z" fill="white"/>
<path d="M15.0998 13.7686C14.8808 13.7682 14.662 13.7678 14.4429 13.7674L14.4442 13.7686C14.4442 13.5496 14.4442 13.3308 14.4442 13.1118L14.4429 13.113C14.662 13.113 14.881 13.113 15.1 13.113L15.0988 13.1118C15.099 13.3306 15.0994 13.5496 15.0998 13.7686Z" fill="white"/>
<path d="M14.4439 14.4242C14.2249 14.4238 14.0061 14.4233 13.7871 14.4229L13.7883 14.4242C13.7883 14.2051 13.7883 13.9863 13.7883 13.7673L13.7871 13.7685C14.0061 13.7685 14.2251 13.7685 14.4441 13.7685L14.4429 13.7673C14.4433 13.9863 14.4435 14.2053 14.4439 14.4242Z" fill="white"/>
<path d="M13.7884 15.0798C13.5693 15.0798 13.3503 15.0798 13.1313 15.0798C13.1317 14.8608 13.1321 14.642 13.1325 14.4229L13.1313 14.4242C13.3503 14.4242 13.5693 14.4242 13.7884 14.4242L13.7871 14.4229C13.7875 14.642 13.7879 14.861 13.7884 15.0798Z" fill="white"/>
<path d="M15.7539 11.8018C15.7539 11.5828 15.7539 11.364 15.7539 11.145C15.9729 11.145 16.192 11.145 16.411 11.145C16.411 11.364 16.411 11.5828 16.411 11.8018C16.1917 11.8018 15.9727 11.8018 15.7539 11.8018Z" fill="#C0C0BF"/>
<path d="M15.7552 12.4574C15.5362 12.4574 15.3172 12.4574 15.0981 12.4574C15.0981 12.2383 15.0981 12.0195 15.0981 11.8005C15.3172 11.8005 15.5362 11.8005 15.7552 11.8005C15.7552 12.0193 15.7552 12.2383 15.7552 12.4574Z" fill="#C0C0BF"/>
<path d="M9.85018 13.7647C9.63238 13.766 9.41458 13.7672 9.19678 13.7684C9.19698 13.5496 9.19698 13.3308 9.19718 13.1118C9.41418 13.1124 9.63118 13.113 9.84818 13.1138C9.84878 13.3308 9.84958 13.5478 9.85018 13.7647Z" fill="#F4E600"/>
<path d="M15.0995 13.1132C14.8805 13.1132 14.6614 13.1132 14.4424 13.1132C14.4424 12.8942 14.4424 12.6754 14.4424 12.4563C14.6614 12.4563 14.8805 12.4563 15.0995 12.4563C15.0995 12.6752 15.0995 12.8942 15.0995 13.1132Z" fill="#C0C0BF"/>
<path d="M14.4437 13.7686C14.2247 13.7686 14.0056 13.7686 13.7866 13.7686C13.7866 13.5496 13.7866 13.3308 13.7866 13.1118C14.0056 13.1118 14.2247 13.1118 14.4437 13.1118C14.4437 13.3306 14.4437 13.5496 14.4437 13.7686Z" fill="#C0C0BF"/>
<path d="M9.19442 14.4202C8.97662 14.4214 8.75882 14.4226 8.54102 14.4239C8.54122 14.2051 8.54122 13.9862 8.54142 13.7672C8.76022 13.767 8.97922 13.767 9.19812 13.7668C9.19682 13.9846 9.19562 14.2024 9.19442 14.4202Z" fill="#F4E600"/>
<path d="M13.7884 14.4242C13.5693 14.4242 13.3503 14.4242 13.1313 14.4242C13.1313 14.2051 13.1313 13.9863 13.1313 13.7673C13.3503 13.7673 13.5693 13.7673 13.7884 13.7673C13.7884 13.9863 13.7884 14.2053 13.7884 14.4242Z" fill="#C0C0BF"/>
</g>
</svg>
