<svg width="21" height="18" viewBox="0 0 21 18" fill="none" xmlns="http://www.w3.org/2000/svg">
<mask id="mask0_666_19976" style="mask-type:luminance" maskUnits="userSpaceOnUse" x="0" y="0" width="21" height="18">
<path d="M21 0H0V17.7188H21V0Z" fill="white"/>
</mask>
<g mask="url(#mask0_666_19976)">
<path d="M6.57493 0C11.1648 0 15.7546 0 20.3445 0C20.3455 0.21841 20.3465 0.43682 20.3476 0.65543C20.3465 0.69645 20.3447 0.73726 20.3447 0.77827C20.3445 3.97052 20.3445 7.1626 20.3445 10.3548C20.3445 10.3975 20.3445 10.4401 20.3445 10.482C19.4624 10.482 18.5966 10.482 17.725 10.482C17.725 10.2613 17.725 10.047 17.725 9.8327C18.159 9.8327 18.5929 9.8327 19.0359 9.8327C19.0359 9.6061 19.0359 9.3924 19.0359 9.1787C19.2514 9.1787 19.467 9.1787 19.686 9.1787C19.686 8.9476 19.686 8.7343 19.686 8.521C19.686 8.3032 19.6858 8.0852 19.6858 7.8674C19.6858 7.2118 19.6858 6.5563 19.686 5.9007C19.686 5.6815 19.6862 5.4625 19.6862 5.2432C19.686 5.0254 19.686 4.80765 19.6858 4.58965C19.6858 3.93401 19.6858 3.27858 19.686 2.62295C19.686 2.40372 19.6862 2.1847 19.6862 1.96547C19.6862 1.74891 19.6862 1.53214 19.6862 1.30901C19.4622 1.30901 19.2477 1.30901 19.0334 1.30901C19.0334 1.09327 19.0334 0.87753 19.0334 0.6581C18.8037 0.6581 18.5902 0.6581 18.3768 0.6581C18.1588 0.6581 17.941 0.6583 17.723 0.6583C17.0673 0.6583 16.4115 0.6583 15.7559 0.6583C15.5366 0.6583 15.3174 0.6581 15.0982 0.6581C14.8802 0.6581 14.6624 0.6583 14.4444 0.6583C13.7887 0.6583 13.1329 0.6583 12.4773 0.6583C12.258 0.6583 12.0388 0.6581 11.8196 0.6581C11.6016 0.6581 11.3838 0.6583 11.1658 0.6583C10.5102 0.6583 9.85433 0.6583 9.19873 0.6583C8.97953 0.6583 8.76023 0.6581 8.54103 0.6581C8.32443 0.6581 8.10793 0.6581 7.88763 0.6581C7.88763 0.88122 7.88763 1.09532 7.88763 1.30922L7.88133 1.30963C7.66743 1.30963 7.45353 1.30963 7.23323 1.30963C7.23323 1.5385 7.23323 1.7528 7.23323 1.96711C7.23323 2.1849 7.23343 2.4029 7.23343 2.62069C7.23343 2.83705 7.23343 3.0532 7.23343 3.271C7.45453 3.271 7.66663 3.271 7.88863 3.271C7.88863 3.05136 7.88863 2.83787 7.88863 2.62418C8.10543 2.62418 8.32243 2.62418 8.53923 2.62418C8.53923 2.83992 8.53923 3.05566 8.53923 3.2751C8.76913 3.2751 8.98253 3.2751 9.19603 3.2751C9.41553 3.2751 9.63493 3.2751 9.85453 3.2751C10.0723 3.2751 10.2899 3.2751 10.5077 3.2751C10.7271 3.2751 10.9466 3.2751 11.166 3.2751C11.3844 3.27469 11.6028 3.27448 11.8214 3.27407C11.8622 3.2751 11.9033 3.27715 11.9441 3.27715C13.6103 3.27735 15.2768 3.27735 16.9431 3.27735C16.9839 3.27735 17.0249 3.2794 17.0657 3.28063C17.0665 3.49802 17.0673 3.7154 17.0682 3.93258C17.0673 3.97687 17.0659 4.02138 17.0659 4.06567C17.0657 7.2544 17.0659 10.4432 17.0659 13.6317C17.0659 13.6744 17.0659 13.7171 17.0659 13.7589C16.1839 13.7589 15.318 13.7589 14.4464 13.7589C14.4464 13.5382 14.4464 13.3239 14.4464 13.1096C14.8804 13.1096 15.3143 13.1096 15.7573 13.1096C15.7573 12.883 15.7573 12.6693 15.7573 12.4556C15.9728 12.4556 16.1884 12.4556 16.4074 12.4556C16.4074 12.2245 16.4074 12.0112 16.4074 11.7979C16.4074 11.5801 16.4072 11.3621 16.4072 11.1444C16.4072 10.4887 16.4072 9.8333 16.4074 9.1779C16.4074 8.9586 16.4076 8.7396 16.4076 8.5204C16.4076 8.3026 16.4074 8.0846 16.4074 7.8668C16.4074 7.2114 16.4074 6.5557 16.4076 5.9003C16.4076 5.6811 16.4078 5.4621 16.4078 5.2428C16.4078 5.0263 16.4078 4.80949 16.4078 4.58637C16.1839 4.58637 15.9695 4.58637 15.755 4.58637C15.755 4.37062 15.755 4.15488 15.755 3.93545C15.5253 3.93545 15.3119 3.93545 15.0984 3.93545C14.8804 3.93545 14.6626 3.93565 14.4446 3.93565C13.789 3.93565 13.1331 3.93565 12.4775 3.93565C12.2582 3.93565 12.039 3.93545 11.8198 3.93545C11.6018 3.93545 11.384 3.93565 11.166 3.93565C10.5104 3.93565 9.85453 3.93565 9.19893 3.93565C8.97973 3.93565 8.76043 3.93545 8.54123 3.93545C8.32323 3.93545 8.10543 3.93565 7.88743 3.93565C7.23183 3.93565 6.57593 3.93565 5.92033 3.93545C5.70113 3.93545 5.48193 3.93524 5.26263 3.93524C5.04613 3.93524 4.82953 3.93524 4.60923 3.93524C4.60923 4.15837 4.60923 4.37247 4.60923 4.58637L4.60293 4.58678C4.38903 4.58678 4.17513 4.58678 3.95487 4.58678C3.95487 4.81564 3.95487 5.03 3.95487 5.2443C3.95508 5.4621 3.95508 5.6798 3.95528 5.8978C3.95528 6.1142 3.95528 6.3304 3.95528 6.5481C4.17633 6.5481 4.38843 6.5481 4.61053 6.5481C4.61053 6.3285 4.61053 6.115 4.61053 5.9013C4.82723 5.9013 5.04423 5.9013 5.26103 5.9013C5.26103 6.1171 5.26103 6.3328 5.26103 6.5522C5.49093 6.5522 5.70443 6.5522 5.91783 6.5522C6.13733 6.5522 6.35673 6.5522 6.57613 6.5522C6.79393 6.5522 7.01153 6.5522 7.22933 6.5522C7.44883 6.5522 7.66823 6.5522 7.88783 6.5522C8.10623 6.5518 8.32463 6.5514 8.54333 6.5512C8.58413 6.5522 8.62513 6.5543 8.66593 6.5543C10.3322 6.5545 11.9986 6.5545 13.6649 6.5545C13.7057 6.5545 13.7467 6.5566 13.7875 6.5578C13.7883 6.7752 13.7892 6.9925 13.79 7.2097C13.7892 7.254 13.7877 7.2983 13.7877 7.3428C13.7875 10.531 13.7877 13.7191 13.7877 16.9071C13.7877 16.9499 13.7877 16.9928 13.7877 17.0426C13.7291 17.0426 13.685 17.0426 13.6411 17.0426C9.36303 17.0426 5.08483 17.0426 0.806716 17.0428C0.762416 17.0428 0.718116 17.0447 0.673616 17.0457C0.456646 17.0457 0.239676 17.0457 0.0239258 17.0457C0.0239258 13.5401 0.0239258 10.0503 0.0239258 6.5514C1.1168 6.5514 2.20391 6.5514 3.29985 6.5514C3.29985 5.4557 3.29985 4.36878 3.29985 3.27325C4.39583 3.27325 5.48293 3.27325 6.57493 3.27325C6.57493 2.1767 6.57493 1.08835 6.57493 0ZM8.54283 16.3851C8.76083 16.3849 8.97863 16.3849 9.19663 16.3847C9.21373 16.3857 9.23073 16.3878 9.24773 16.3878C10.2985 16.388 11.3495 16.388 12.4004 16.3878C12.4231 16.3878 12.4459 16.3847 12.4789 16.3823C12.4789 16.162 12.4789 15.9479 12.4789 15.7338C12.6945 15.7338 12.91 15.7338 13.129 15.7338C13.129 15.5027 13.129 15.2894 13.129 15.0761C13.129 14.8583 13.1288 14.6403 13.1288 14.4225C13.1288 13.7669 13.1288 13.1115 13.129 12.456C13.129 12.2368 13.1292 12.0178 13.1292 11.7986C13.1292 11.5808 13.129 11.3628 13.129 11.145C13.129 10.4893 13.129 9.8339 13.1292 9.1785C13.1292 8.9592 13.1294 8.7402 13.1294 8.521C13.1294 8.3044 13.1294 8.0877 13.1294 7.8645C12.9055 7.8645 12.6912 7.8645 12.4769 7.8645C12.4769 7.6488 12.4769 7.4331 12.4769 7.2136C12.2472 7.2136 12.0337 7.2136 11.8202 7.2136C11.6022 7.2136 11.3844 7.2138 11.1664 7.2138C10.5108 7.2138 9.85493 7.2138 9.19933 7.2136C8.98013 7.2136 8.76083 7.2134 8.54163 7.2134C8.32363 7.2134 8.10583 7.2136 7.88783 7.2136C7.23223 7.2136 6.57643 7.2136 5.92073 7.2134C5.70153 7.2134 5.48233 7.2132 5.26303 7.2132C5.04503 7.2132 4.82723 7.2134 4.60923 7.2134C3.95364 7.2134 3.2978 7.2134 2.64217 7.2132C2.42294 7.2132 2.20371 7.213 1.98448 7.213C1.76771 7.213 1.55115 7.213 1.32782 7.213C1.32782 7.437 1.32782 7.6513 1.32782 7.8656C1.11208 7.8656 0.896336 7.8656 0.676696 7.8656C0.676696 8.0953 0.676696 8.3087 0.676696 8.5222C0.676896 8.74 0.676896 8.9578 0.677106 9.1758C0.677106 9.8312 0.677106 10.4869 0.676896 11.1423C0.676896 11.3615 0.676696 11.5806 0.676696 11.7998C0.676696 12.0176 0.676896 12.2354 0.676896 12.4534C0.675876 12.4704 0.673826 12.4874 0.673826 12.5044C0.673616 13.555 0.673616 14.6057 0.673826 15.6563C0.673826 15.679 0.676896 15.7018 0.679356 15.7348C0.899616 15.7348 1.11372 15.7348 1.32803 15.7348C1.32803 15.9504 1.32803 16.1659 1.32803 16.3847C1.55915 16.3847 1.77263 16.3847 1.98592 16.3847C2.20391 16.3845 2.42171 16.3845 2.63971 16.3845C3.29534 16.3845 3.95118 16.3845 4.60683 16.3847C4.82603 16.3847 5.04523 16.3849 5.26453 16.3849C5.48253 16.3847 5.70033 16.3847 5.91833 16.3845C6.57393 16.3845 7.22973 16.3845 7.88543 16.3847C8.10443 16.3849 8.32363 16.3849 8.54283 16.3851Z" fill="#0D8136"/>
<path d="M21.0001 11.1438C19.9113 11.1438 18.8223 11.1438 17.7256 11.1438C17.7256 12.2351 17.7256 13.3222 17.7256 14.4173C16.6303 14.4173 15.5429 14.4173 14.4474 14.4173C14.4474 15.5124 14.4474 16.5993 14.4474 17.6928C9.8553 17.6928 5.2714 17.6928 0.67334 17.6928C0.67334 17.4801 0.67334 17.2634 0.67334 17.0466C0.71764 17.0456 0.76193 17.0437 0.80644 17.0437C5.0846 17.0435 9.3627 17.0435 13.6408 17.0435C13.6847 17.0435 13.7288 17.0435 13.7875 17.0435C13.7875 16.9937 13.7875 16.9508 13.7875 16.908C13.7875 13.7198 13.7875 10.5317 13.7875 7.34372C13.7875 7.29942 13.7889 7.25522 13.7897 7.21072C14.0063 7.21072 14.2231 7.21072 14.4398 7.21092C14.4421 7.42932 14.4441 7.64772 14.4464 7.86612C14.4464 8.08492 14.4464 8.30352 14.4464 8.52232C14.4454 9.10602 14.4435 9.68942 14.4435 10.2731C14.4435 10.7815 14.4454 11.2901 14.4464 11.7985C14.4464 12.2357 14.4464 12.6731 14.4464 13.1103C14.4464 13.3246 14.4464 13.539 14.4464 13.7596C15.318 13.7596 16.1838 13.7596 17.0658 13.7596C17.0658 13.718 17.0658 13.6751 17.0658 13.6325C17.0658 10.4437 17.0658 7.25492 17.0658 4.06641C17.0658 4.02212 17.0673 3.97761 17.0681 3.93332C17.2847 3.93332 17.5014 3.93332 17.7182 3.93352C17.7205 4.15193 17.7225 4.37034 17.7248 4.58875C17.7248 4.80757 17.7248 5.02622 17.7248 5.24502C17.7237 5.82862 17.7219 6.41212 17.7219 6.99572C17.7219 7.50412 17.7237 8.01272 17.7248 8.52112C17.7248 8.95832 17.7248 9.39582 17.7248 9.83302C17.7248 10.0473 17.7248 10.2616 17.7248 10.4823C18.5963 10.4823 19.4622 10.4823 20.3442 10.4823C20.3442 10.4404 20.3442 10.3978 20.3442 10.3551C20.3442 7.16292 20.3442 3.97085 20.3444 0.778602C20.3444 0.737592 20.3463 0.696782 20.3473 0.655762C20.5649 0.655762 20.7825 0.655962 21.0001 0.655962C21.0001 4.15173 21.0001 7.64792 21.0001 11.1438Z" fill="#020203"/>
<path d="M14.4464 7.8657C14.4441 7.6473 14.442 7.4289 14.4398 7.2105C14.4398 6.9939 14.4398 6.7776 14.4398 6.5583C14.2156 6.5583 14.0015 6.5583 13.7874 6.5583C13.7466 6.5571 13.7056 6.555 13.6648 6.555C11.9985 6.5548 10.3321 6.5548 8.66584 6.5548C8.62504 6.5548 8.58404 6.5528 8.54324 6.5518C8.54324 6.3366 8.54324 6.1215 8.54324 5.8998C8.31194 5.8998 8.09884 5.8998 7.88574 5.8998C7.88714 5.6824 7.88924 5.4653 7.89064 5.2479C8.32564 5.2458 8.76064 5.2438 9.19554 5.2417L9.20054 5.2452C9.20054 5.4618 9.20054 5.6785 9.20054 5.8943C9.42344 5.8943 9.63384 5.8943 9.85364 5.8943C9.85364 5.6753 9.85364 5.4614 9.85364 5.2473C10.29 5.2454 10.7264 5.2436 11.1628 5.2417C11.5999 5.2417 12.0369 5.2417 12.4741 5.2417L12.479 5.2452C12.479 5.4618 12.479 5.6785 12.479 5.8943C12.702 5.8943 12.9124 5.8943 13.1322 5.8943C13.1322 5.6753 13.1322 5.4614 13.1322 5.2473C13.5686 5.2454 14.005 5.2436 14.4414 5.2417C14.6578 5.2417 14.8743 5.2417 15.1014 5.2417C15.1014 5.4735 15.1014 5.6876 15.1014 5.9015C15.101 6.5565 15.1008 7.2113 15.1003 7.8663C14.8821 7.8661 14.6643 7.8659 14.4464 7.8657Z" fill="white"/>
<path d="M17.7247 4.58809C17.7225 4.36968 17.7204 4.15127 17.7182 3.93286C17.7182 3.7163 17.7182 3.49994 17.7182 3.28071C17.494 3.28071 17.2799 3.28071 17.0658 3.28071C17.025 3.27948 16.984 3.27743 16.9432 3.27743C15.2769 3.27723 13.6104 3.27723 11.9442 3.27723C11.9034 3.27723 11.8624 3.27518 11.8215 3.27415C11.8215 3.05903 11.8215 2.8439 11.8215 2.62221C11.5902 2.62221 11.3771 2.62221 11.1641 2.62221C11.1655 2.40483 11.1675 2.18765 11.169 1.97027C11.604 1.96822 12.0389 1.96616 12.4739 1.96411L12.4788 1.9676C12.4788 2.18416 12.4788 2.40093 12.4788 2.61667C12.7017 2.61667 12.9121 2.61667 13.132 2.61667C13.132 2.39765 13.132 2.18375 13.132 1.96965C13.5684 1.9678 14.0048 1.96596 14.4412 1.96411C14.8782 1.96411 15.3153 1.96411 15.7525 1.96411L15.7574 1.9676C15.7574 2.18416 15.7574 2.40093 15.7574 2.61667C15.9803 2.61667 16.1907 2.61667 16.4106 2.61667C16.4106 2.39765 16.4106 2.18375 16.4106 1.96965C16.847 1.9678 17.2834 1.96596 17.7198 1.96411C17.9362 1.96411 18.1527 1.96411 18.3797 1.96411C18.3797 2.19585 18.3797 2.40975 18.3797 2.62385C18.3793 3.27887 18.3791 3.93368 18.3787 4.5887C18.1605 4.5885 17.9425 4.58829 17.7247 4.58809Z" fill="white"/>
<path d="M12.4791 15.7337C12.4791 15.9478 12.4791 16.1619 12.4791 16.3822C12.4461 16.3846 12.4233 16.3877 12.4006 16.3877C11.3497 16.3879 10.2987 16.3879 9.24788 16.3877C9.23088 16.3877 9.21388 16.3856 9.19678 16.3846C9.19718 16.1668 9.19788 15.9492 9.19828 15.7314C9.85118 15.7314 10.5042 15.7314 11.1629 15.7314C11.1629 15.5067 11.1629 15.2928 11.1629 15.0789C11.3793 15.0789 11.5958 15.0789 11.8229 15.0789C11.8229 14.8471 11.8229 14.633 11.8229 14.4191C12.0398 14.4189 12.2568 14.4187 12.474 14.4187L12.4807 14.4255C12.4793 14.6427 12.4781 14.8599 12.4766 15.077C12.4773 15.2961 12.4781 15.5149 12.4791 15.7337Z" fill="#C0C0BF"/>
<path d="M1.32819 15.735C1.11388 15.735 0.899776 15.735 0.679516 15.735C0.677056 15.702 0.673986 15.6792 0.673986 15.6565C0.673776 14.6058 0.673776 13.5552 0.673986 12.5046C0.673986 12.4876 0.676036 12.4706 0.677056 12.4536C0.894856 12.454 1.11265 12.4546 1.33044 12.455C1.33044 13.1078 1.33044 13.7605 1.33044 14.419C1.55541 14.419 1.76931 14.419 1.98321 14.419C1.98321 14.6354 1.98321 14.8517 1.98321 15.0788C2.21515 15.0788 2.42905 15.0788 2.64294 15.0788C2.64315 15.2957 2.64335 15.5127 2.64335 15.7297L2.63659 15.7364C2.41941 15.735 2.20202 15.7338 1.98485 15.7323C1.76603 15.7334 1.54721 15.7342 1.32819 15.735Z" fill="#C0C0BF"/>
<path d="M17.7246 9.83257C17.7246 9.39527 17.7246 8.95787 17.7246 8.52067C17.94 8.52067 18.1553 8.52067 18.3792 8.52067C18.3792 8.29077 18.3792 8.07747 18.3792 7.86417C18.5962 7.86397 18.8132 7.86377 19.0304 7.86377L19.0371 7.87057C19.0357 8.08777 19.0345 8.30487 19.033 8.52207C19.0339 8.74087 19.0349 8.95997 19.0357 9.17877C19.0357 9.39247 19.0357 9.60617 19.0357 9.83277C18.5925 9.83257 18.1586 9.83257 17.7246 9.83257Z" fill="#C0C0BF"/>
<path d="M14.4463 13.1101C14.4463 12.6729 14.4463 12.2355 14.4463 11.7983C14.6616 11.7983 14.877 11.7983 15.1009 11.7983C15.1009 11.5684 15.1009 11.3551 15.1009 11.1418C15.3179 11.1416 15.5348 11.1414 15.752 11.1414L15.7588 11.1482C15.7574 11.3653 15.7561 11.5825 15.7547 11.7997C15.7555 12.0185 15.7565 12.2375 15.7574 12.4564C15.7574 12.67 15.7574 12.8837 15.7574 13.1104C15.3142 13.1101 14.8802 13.1101 14.4463 13.1101Z" fill="#C0C0BF"/>
<path d="M13.129 12.4557C13.129 13.1113 13.129 13.7668 13.1288 14.4224C12.9126 14.4234 12.6965 14.4245 12.4803 14.4255L12.4736 14.4187C12.4738 13.7641 12.474 13.1095 12.4742 12.4551C12.6926 12.4553 12.9108 12.4555 13.129 12.4557Z" fill="#C0C0BF"/>
<path d="M8.53925 2.62453C8.32255 2.62453 8.10555 2.62453 7.88875 2.62453L7.88205 2.61797C7.88345 2.40079 7.88465 2.18361 7.88615 1.96644C7.88445 1.74762 7.88285 1.5288 7.88135 1.30998L7.88775 1.30957C8.10595 1.30998 8.32395 1.3106 8.54215 1.31101C8.76075 1.31101 8.97935 1.31121 9.19795 1.31121C9.19835 1.52961 9.19825 1.74762 9.19865 1.96603C8.98185 1.96603 8.76505 1.96603 8.54625 1.96603C8.54625 2.19551 8.54625 2.40674 8.54625 2.61776L8.53925 2.62453Z" fill="#C0C0BF"/>
<path d="M9.19877 0.658447C9.85437 0.658447 10.5103 0.658447 11.1659 0.658447C11.1669 0.874397 11.1677 1.09055 11.1688 1.3065L11.1622 1.31326C10.5072 1.31224 9.85237 1.31142 9.19727 1.31039C9.19747 1.093 9.19857 0.876037 9.19877 0.658447Z" fill="#C0C0BF"/>
<path d="M16.4074 9.17833C16.4074 9.83393 16.4074 10.4894 16.4072 11.145C16.1911 11.146 15.9749 11.147 15.7588 11.1481L15.752 11.1413C15.7522 10.4867 15.7524 9.83213 15.7526 9.17773C15.971 9.17793 16.1892 9.17813 16.4074 9.17833Z" fill="#C0C0BF"/>
<path d="M0.676758 11.1428C0.676758 10.4874 0.676758 9.83167 0.676968 9.17627C0.894758 9.17667 1.11255 9.17727 1.33035 9.17767C1.33076 9.83297 1.33096 10.4884 1.33137 11.1436C1.11317 11.1432 0.894968 11.143 0.676758 11.1428Z" fill="#C0C0BF"/>
<path d="M12.4772 0.658447C13.1329 0.658447 13.7887 0.658447 14.4443 0.658447C14.4439 0.876237 14.4433 1.09383 14.4429 1.31162C13.7875 1.31203 13.132 1.31224 12.4766 1.31265C12.4768 1.09485 12.477 0.876647 12.4772 0.658447Z" fill="#C0C0BF"/>
<path d="M4.60695 16.385C3.95128 16.385 3.29544 16.385 2.6398 16.385C2.63878 16.1689 2.63775 15.9529 2.63672 15.7368L2.64349 15.73C3.29831 15.7302 3.95292 15.7304 4.60775 15.7306C4.60735 15.9486 4.60715 16.1668 4.60695 16.385Z" fill="#C0C0BF"/>
<path d="M15.7555 0.658447C16.4111 0.658447 17.067 0.658447 17.7226 0.658447C17.7222 0.876237 17.7216 1.09383 17.7212 1.31162C17.0657 1.31203 16.4103 1.31224 15.7549 1.31265C15.7549 1.09485 15.7553 0.876647 15.7555 0.658447Z" fill="#C0C0BF"/>
<path d="M19.6856 2.6233C19.6856 3.27893 19.6856 3.93436 19.6856 4.59C19.4678 4.58959 19.25 4.58897 19.0322 4.58856C19.0327 3.93313 19.0331 3.2775 19.0335 2.62207C19.2508 2.62207 19.4678 2.62289 19.6856 2.6233Z" fill="#C0C0BF"/>
<path d="M5.92035 3.93604C6.57595 3.93604 7.23185 3.93604 7.88745 3.93624C7.88845 4.15219 7.88935 4.36833 7.89035 4.58428L7.88375 4.59105C7.22875 4.59003 6.57395 4.5892 5.91895 4.58817C5.91935 4.37058 5.92015 4.15362 5.92035 3.93604Z" fill="#C0C0BF"/>
<path d="M9.19884 3.93604C9.85444 3.93604 10.5103 3.93604 11.1659 3.93604C11.1655 4.15383 11.1649 4.37141 11.1645 4.5892C10.5091 4.58961 9.85364 4.58982 9.19824 4.59023C9.19824 4.37244 9.19864 4.15424 9.19884 3.93604Z" fill="#C0C0BF"/>
<path d="M9.19884 7.21362C9.85444 7.21362 10.5103 7.21362 11.1659 7.21382C11.1655 7.43162 11.1649 7.64922 11.1645 7.86702C10.5091 7.86742 9.85364 7.86762 9.19824 7.86802C9.19824 7.65002 9.19864 7.43182 9.19884 7.21362Z" fill="#C0C0BF"/>
<path d="M5.92003 7.21362C6.57573 7.21362 7.23153 7.21362 7.88723 7.21382C7.88673 7.43162 7.88613 7.64922 7.88573 7.86702C7.23033 7.86742 6.57493 7.86762 5.91943 7.86802C5.91963 7.65002 5.91983 7.43182 5.92003 7.21362Z" fill="#C0C0BF"/>
<path d="M12.4772 3.93604C13.1329 3.93604 13.7887 3.93604 14.4443 3.93604C14.4439 4.15383 14.4433 4.37141 14.4429 4.5892C13.7875 4.58961 13.132 4.58982 12.4766 4.59023C12.4768 4.37244 12.477 4.15424 12.4772 3.93604Z" fill="#C0C0BF"/>
<path d="M2.64173 7.21362C3.29736 7.21362 3.9532 7.21362 4.60882 7.21382C4.60842 7.43162 4.60782 7.64922 4.60742 7.86702C3.95197 7.86742 3.29654 7.86762 2.64111 7.86802C2.64111 7.65002 2.64152 7.43182 2.64173 7.21362Z" fill="#C0C0BF"/>
<path d="M19.686 5.90075C19.686 6.55635 19.686 7.21185 19.686 7.86745C19.4699 7.86845 19.2537 7.86955 19.0376 7.87055L19.0308 7.86375C19.031 7.20915 19.0312 6.55455 19.0314 5.90015C19.2494 5.90015 19.4676 5.90055 19.686 5.90075Z" fill="#C0C0BF"/>
<path d="M5.26093 5.9021C5.04413 5.9021 4.82713 5.9021 4.61043 5.9021L4.60363 5.8956C4.60503 5.6784 4.60633 5.4612 4.60773 5.244C4.60613 5.0252 4.60443 4.80639 4.60303 4.58757L4.60933 4.58716C4.82753 4.58757 5.04553 4.58818 5.26373 4.58859C5.48243 4.58859 5.70103 4.5888 5.91963 4.5888C5.92003 4.80721 5.91983 5.0252 5.92023 5.2436C5.70343 5.2436 5.48673 5.2436 5.26783 5.2436C5.26783 5.4731 5.26783 5.6843 5.26783 5.8954L5.26093 5.9021Z" fill="#C0C0BF"/>
<path d="M16.4071 5.90075C16.4071 6.55615 16.4071 7.21185 16.4068 7.86745C16.1891 7.86705 15.9713 7.86645 15.7535 7.86605C15.7531 7.21075 15.7529 6.55535 15.7524 5.90015C15.9706 5.90015 16.1888 5.90055 16.4071 5.90075Z" fill="#C0C0BF"/>
<path d="M7.88507 16.3849C7.22937 16.3849 6.57357 16.3849 5.91797 16.3849C5.91837 16.1671 5.91897 15.9495 5.91937 15.7317C6.57477 15.7313 7.23027 15.7311 7.88567 15.7307C7.88567 15.9485 7.88527 16.1667 7.88507 16.3849Z" fill="#C0C0BF"/>
<path d="M13.1287 9.17833C13.1287 9.83393 13.1287 10.4894 13.1285 11.145C12.9107 11.1446 12.6929 11.144 12.4751 11.1436C12.4747 10.4883 12.4745 9.83293 12.4741 9.17773C12.6923 9.17773 12.9105 9.17813 13.1287 9.17833Z" fill="#C0C0BF"/>
<path d="M5.91764 6.55291C5.70414 6.55291 5.49064 6.55291 5.26074 6.55291C5.26074 6.33351 5.26074 6.11781 5.26074 5.90201L5.26754 5.89551C5.48494 5.89691 5.70254 5.89851 5.91984 5.90001C5.91904 6.11761 5.91844 6.33521 5.91764 6.55291Z" fill="#C0C0BF"/>
<path d="M5.91797 6.55299C5.91877 6.33539 5.91937 6.11759 5.92027 5.89999C6.13877 5.89919 6.35667 5.89879 6.57507 5.89819C6.57547 6.11659 6.57607 6.33479 6.57647 6.55319C6.35707 6.55299 6.13757 6.55299 5.91797 6.55299Z" fill="#808123"/>
<path d="M6.57633 6.55319C6.57593 6.33479 6.57533 6.11659 6.57493 5.89819L6.57373 5.89979C6.79313 5.89979 7.01273 5.89979 7.23223 5.89979L7.23093 5.89839C7.23053 6.11659 7.22993 6.33499 7.22953 6.55319C7.01173 6.55319 6.79393 6.55319 6.57633 6.55319Z" fill="#808181"/>
<path d="M7.22949 6.55299C7.22999 6.33479 7.23059 6.11639 7.23099 5.89819C7.44939 5.89899 7.66779 5.89959 7.88619 5.90039C7.88699 6.11819 7.88719 6.33539 7.88809 6.55319C7.66839 6.55299 7.44899 6.55299 7.22949 6.55299Z" fill="#808123"/>
<path d="M7.88745 6.5531C7.88665 6.3353 7.88605 6.1177 7.88525 5.8999C8.09825 5.8999 8.31135 5.8999 8.54265 5.8999C8.54265 6.1216 8.54265 6.3367 8.54265 6.5518C8.32445 6.5525 8.10585 6.5527 7.88745 6.5531Z" fill="#C0C0BF"/>
<path d="M15.7544 4.58667C15.9687 4.58667 16.183 4.58667 16.4072 4.58667C16.4072 4.8098 16.4072 5.02638 16.4072 5.24308C16.1896 5.24358 15.972 5.24378 15.7544 5.24418C15.755 5.02698 15.7554 4.8098 15.7561 4.59262L15.7544 4.58667Z" fill="white"/>
<path d="M4.61032 5.90201C4.61032 6.11551 4.61032 6.32901 4.61032 6.54881C4.38842 6.54881 4.17612 6.54881 3.95508 6.54881C3.95508 6.33111 3.95508 6.11471 3.95508 5.89851C4.17122 5.89751 4.38742 5.89651 4.60352 5.89551L4.61032 5.90201Z" fill="#C0C0BF"/>
<path d="M4.60317 4.58765C4.60477 4.80646 4.60637 5.02526 4.60787 5.24406C4.39027 5.24456 4.17267 5.24476 3.95508 5.24516C3.95508 5.03086 3.95508 4.81651 3.95508 4.58765C4.17537 4.58765 4.38927 4.58765 4.60317 4.58765Z" fill="#808181"/>
<path d="M15.0981 3.93579C15.3116 3.93579 15.5251 3.93579 15.7548 3.93579C15.7548 4.15523 15.7548 4.37097 15.7548 4.58671L15.7562 4.59266C15.5372 4.59122 15.3181 4.58979 15.0991 4.58835C15.0987 4.37097 15.0985 4.15338 15.0981 3.93579Z" fill="#808181"/>
<path d="M13.7871 6.55859C14.0012 6.55859 14.2153 6.55859 14.4395 6.55859C14.4395 6.77779 14.4395 6.99419 14.4395 7.21069C14.2227 7.21069 14.0062 7.21069 13.7894 7.21049C13.7888 6.99319 13.788 6.77579 13.7871 6.55859Z" fill="#F4E600"/>
<path d="M1.32764 7.86598C1.32764 7.65168 1.32764 7.43738 1.32764 7.21338C1.55077 7.21338 1.76753 7.21338 1.9843 7.21338C1.98471 7.43098 1.98492 7.64858 1.98533 7.86598C1.76815 7.86538 1.55097 7.86498 1.33379 7.86438L1.32764 7.86598Z" fill="white"/>
<path d="M1.98491 7.86622C1.9845 7.64862 1.9843 7.43102 1.98389 7.21362C2.20312 7.21362 2.42234 7.21382 2.64157 7.21382C2.64137 7.43202 2.64116 7.65002 2.64075 7.86822L2.64198 7.86642C2.42296 7.86622 2.20394 7.86622 1.98491 7.86622Z" fill="#808181"/>
<path d="M15.098 3.93579C15.0984 4.15338 15.0986 4.37097 15.099 4.58835C14.8802 4.58856 14.6612 4.58856 14.4424 4.58876C14.4428 4.37097 14.4438 4.15379 14.4442 3.936C14.6622 3.936 14.88 3.936 15.098 3.93579Z" fill="white"/>
<path d="M4.60741 7.86702C4.60781 7.64922 4.60841 7.43162 4.60881 7.21382C4.82681 7.21382 5.04461 7.21362 5.26261 7.21362C5.26301 7.43122 5.26321 7.64882 5.26361 7.86622C5.04481 7.86642 4.82621 7.86682 4.60741 7.86702Z" fill="white"/>
<path d="M5.2637 7.86622C5.2633 7.64862 5.2631 7.43102 5.2627 7.21362C5.4819 7.21362 5.70109 7.21382 5.92039 7.21382C5.92019 7.43202 5.9199 7.65002 5.9195 7.86822L5.9208 7.86642C5.7017 7.86622 5.4827 7.86622 5.2637 7.86622Z" fill="#808181"/>
<path d="M12.477 3.936C12.4768 4.1542 12.4766 4.3722 12.4762 4.5904L12.4774 4.58856C12.2584 4.58856 12.0394 4.58856 11.8204 4.58835C11.82 4.37076 11.8197 4.15317 11.8193 3.93579C12.0386 3.936 12.2578 3.936 12.477 3.936Z" fill="#808181"/>
<path d="M7.88565 7.86702C7.88605 7.64922 7.88665 7.43162 7.88705 7.21382C8.10505 7.21382 8.32285 7.21362 8.54085 7.21362C8.54125 7.43122 8.54145 7.64882 8.54185 7.86622C8.32305 7.86642 8.10445 7.86682 7.88565 7.86702Z" fill="white"/>
<path d="M8.54202 7.86622C8.54162 7.64862 8.54142 7.43102 8.54102 7.21362C8.76022 7.21362 8.97952 7.21382 9.19872 7.21382C9.19852 7.43202 9.19832 7.65002 9.19792 7.86822L9.19912 7.86642C8.98012 7.86622 8.76102 7.86622 8.54202 7.86622Z" fill="#808181"/>
<path d="M11.8197 3.93579C11.8201 4.15338 11.8203 4.37097 11.8208 4.58835C11.6019 4.58856 11.3829 4.58856 11.1641 4.58876C11.1645 4.37097 11.1655 4.15379 11.1659 3.936C11.3839 3.936 11.6019 3.936 11.8197 3.93579Z" fill="white"/>
<path d="M11.1645 7.86702C11.1649 7.64922 11.1656 7.43162 11.166 7.21382C11.384 7.21382 11.6018 7.21362 11.8198 7.21362C11.8202 7.43122 11.8204 7.64882 11.8208 7.86622C11.602 7.86642 11.3833 7.86682 11.1645 7.86702Z" fill="white"/>
<path d="M11.8208 7.86622C11.8204 7.64862 11.8202 7.43102 11.8198 7.21362C12.0332 7.21362 12.2467 7.21362 12.4766 7.21362C12.4766 7.43312 12.4766 7.64882 12.4766 7.86452L12.4781 7.87052C12.2588 7.86912 12.0398 7.86762 11.8208 7.86622Z" fill="#808181"/>
<path d="M0.676758 8.5226C0.676758 8.3091 0.676758 8.0956 0.676758 7.8659C0.896198 7.8659 1.11194 7.8659 1.32788 7.8659L1.33383 7.8645C1.3324 8.0835 1.33096 8.3025 1.32953 8.5213C1.11194 8.5217 0.894348 8.5221 0.676758 8.5226Z" fill="#808181"/>
<path d="M9.19872 3.936C9.19852 4.1542 9.19832 4.3722 9.19792 4.5904L9.19912 4.58856C8.98012 4.58856 8.76102 4.58856 8.54202 4.58835C8.54162 4.37076 8.54142 4.15317 8.54102 3.93579C8.76022 3.936 8.97952 3.936 9.19872 3.936Z" fill="#808181"/>
<path d="M8.54101 3.93579C8.54141 4.15338 8.54161 4.37097 8.54201 4.58835C8.32461 4.58692 8.10741 4.58548 7.89011 4.58404C7.88901 4.3681 7.88821 4.15194 7.88721 3.936C8.10521 3.936 8.32301 3.936 8.54101 3.93579Z" fill="white"/>
<path d="M19.6859 5.90066C19.4677 5.90046 19.2494 5.90026 19.0312 5.89986L19.0331 5.90106C19.0331 5.68206 19.0331 5.46306 19.0333 5.24426C19.2508 5.24376 19.4685 5.24356 19.6861 5.24316C19.6859 5.46246 19.6859 5.68146 19.6859 5.90066Z" fill="#808181"/>
<path d="M5.9195 4.5888C5.7009 4.5888 5.4823 4.58858 5.2637 4.58858C5.2633 4.371 5.2631 4.15342 5.2627 3.93604C5.4819 3.93604 5.70109 3.93624 5.92039 3.93624C5.91989 4.15362 5.9197 4.37121 5.9195 4.5888Z" fill="#808181"/>
<path d="M19.6858 5.24336C19.4682 5.24376 19.2507 5.24396 19.0331 5.24436C19.0329 5.02556 19.0329 4.80671 19.0327 4.58789C19.2505 4.5883 19.4678 4.58933 19.6856 4.58974C19.6856 4.80753 19.6856 5.02556 19.6858 5.24336Z" fill="white"/>
<path d="M5.26277 3.93579C5.26317 4.15338 5.26337 4.37097 5.26377 4.58835C5.04557 4.58794 4.82757 4.58733 4.60938 4.58692C4.60938 4.37281 4.60938 4.15892 4.60938 3.93579C4.82968 3.93579 5.04617 3.93579 5.26277 3.93579Z" fill="white"/>
<path d="M17.0659 3.28101C17.28 3.28101 17.4941 3.28101 17.7182 3.28101C17.7182 3.50024 17.7182 3.71659 17.7182 3.93316C17.5015 3.93316 17.2849 3.93316 17.0682 3.93295C17.0675 3.71557 17.0667 3.49818 17.0659 3.28101Z" fill="#F4E600"/>
<path d="M12.4763 7.86426C12.6906 7.86426 12.9049 7.86426 13.1288 7.86426C13.1288 8.08736 13.1288 8.30416 13.1288 8.52076C12.9112 8.52116 12.6936 8.52136 12.4761 8.52176C12.4767 8.30456 12.4771 8.08736 12.4777 7.87026L12.4763 7.86426Z" fill="white"/>
<path d="M15.7539 7.86588C15.9717 7.86628 16.1894 7.86688 16.4072 7.86728C16.4072 8.08508 16.4074 8.30308 16.4074 8.52088C16.1899 8.52128 15.9723 8.52148 15.7547 8.52188C15.7545 8.30308 15.7541 8.08468 15.7539 7.86588Z" fill="white"/>
<path d="M11.1641 2.62231C11.3772 2.62231 11.5903 2.62231 11.8216 2.62231C11.8216 2.844 11.8216 3.05913 11.8216 3.27426C11.6032 3.27467 11.3848 3.27487 11.1662 3.27528C11.1656 3.0577 11.1649 2.84011 11.1641 2.62231Z" fill="#C0C0BF"/>
<path d="M19.0373 7.87029C19.2534 7.86919 19.4696 7.86819 19.6857 7.86719C19.6857 8.08499 19.6859 8.30299 19.6859 8.52079C19.4683 8.52119 19.2507 8.52139 19.0332 8.52179C19.0346 8.30459 19.036 8.08739 19.0373 7.87029Z" fill="white"/>
<path d="M0.676758 8.52248C0.894348 8.52208 1.11194 8.52188 1.32953 8.52148C1.32973 8.74028 1.32973 8.95908 1.32994 9.17798C1.11214 9.17748 0.894758 9.17648 0.676968 9.17608C0.676968 8.95808 0.676758 8.74028 0.676758 8.52248Z" fill="white"/>
<path d="M11.164 2.62225C11.1648 2.84004 11.1655 3.05763 11.1663 3.27542C10.9468 3.27542 10.7274 3.27542 10.5078 3.27542C10.5082 3.05722 10.5086 2.83881 10.5092 2.62061C10.7276 2.62143 10.9456 2.62143 11.164 2.62225Z" fill="#808123"/>
<path d="M12.4761 8.52175C12.6937 8.52135 12.9113 8.52115 13.1289 8.52075C13.1289 8.73995 13.1287 8.95905 13.1287 9.17825C12.9105 9.17805 12.6923 9.17785 12.4741 9.17745L12.4759 9.17865C12.4761 8.95985 12.4761 8.74085 12.4761 8.52175Z" fill="#808181"/>
<path d="M10.5091 2.62036C10.5087 2.83857 10.5083 3.05697 10.5076 3.27518C10.2898 3.27518 10.0723 3.27518 9.85453 3.27518C9.85413 3.05739 9.85343 2.83939 9.85303 2.62159C10.0721 2.62159 10.2913 2.6218 10.5103 2.6218L10.5091 2.62036Z" fill="#808181"/>
<path d="M15.7545 8.52175C15.9721 8.52135 16.1897 8.52115 16.4073 8.52075C16.4073 8.73995 16.4071 8.95905 16.4071 9.17825C16.1888 9.17805 15.9706 9.17785 15.7524 9.17745L15.7543 9.17865C15.7543 8.95985 15.7543 8.74085 15.7545 8.52175Z" fill="#808181"/>
<path d="M19.0332 8.52175C19.2507 8.52135 19.4683 8.52115 19.6859 8.52075C19.6859 8.73405 19.6859 8.94735 19.6859 9.17845C19.4669 9.17845 19.2514 9.17845 19.0358 9.17845C19.035 8.95965 19.0342 8.74065 19.0332 8.52175Z" fill="#808181"/>
<path d="M9.8529 2.62207C9.8533 2.83986 9.8539 3.05786 9.8543 3.27565C9.6349 3.27565 9.4155 3.27565 9.1958 3.27565C9.1964 3.05786 9.1973 2.84027 9.1981 2.62248C9.4167 2.62248 9.6343 2.62207 9.8529 2.62207Z" fill="#808123"/>
<path d="M9.19816 2.62223C9.19736 2.84002 9.19666 3.05761 9.19586 3.2754C8.98236 3.2754 8.76896 3.2754 8.53906 3.2754C8.53906 3.05597 8.53906 2.84023 8.53906 2.62448L8.54576 2.61792C8.76336 2.61936 8.98076 2.62079 9.19816 2.62223Z" fill="#C0C0BF"/>
<path d="M7.8886 2.62448C7.8886 2.83797 7.8886 3.05146 7.8886 3.2713C7.6668 3.2713 7.4545 3.2713 7.2334 3.2713C7.2334 3.05351 7.2334 2.83715 7.2334 2.621C7.4496 2.61997 7.6657 2.61895 7.8819 2.61792L7.8886 2.62448Z" fill="#C0C0BF"/>
<path d="M19.6859 2.6233C19.4683 2.62309 19.2507 2.62268 19.0332 2.62248C19.0332 2.40387 19.0334 2.18546 19.0334 1.96684C19.251 1.96643 19.4685 1.96623 19.6861 1.96582C19.6859 2.18484 19.6859 2.40407 19.6859 2.6233Z" fill="#808181"/>
<path d="M15.7545 5.24426C15.9721 5.24376 16.1897 5.24356 16.4073 5.24316C16.4073 5.46246 16.4071 5.68146 16.4071 5.90066C16.1888 5.90046 15.9706 5.90026 15.7524 5.89986L15.7543 5.90106C15.7543 5.68226 15.7543 5.46326 15.7545 5.24426Z" fill="#808181"/>
<path d="M0.676968 11.1427C0.895168 11.1429 1.11337 11.1432 1.33158 11.1436L1.32973 11.1423C1.32973 11.3614 1.32973 11.5804 1.32953 11.7992C1.11194 11.7996 0.894348 11.7998 0.676758 11.8002C0.676758 11.581 0.676968 11.362 0.676968 11.1427Z" fill="#808181"/>
<path d="M12.4751 11.1433C12.6929 11.1437 12.9107 11.1443 13.1285 11.1447C13.1285 11.3625 13.1287 11.5805 13.1287 11.7983C12.9111 11.7987 12.6935 11.7989 12.4759 11.7993C12.4757 11.5805 12.4753 11.3622 12.4751 11.1433Z" fill="white"/>
<path d="M15.7585 11.1479C15.9747 11.1468 16.1908 11.1458 16.407 11.1448C16.407 11.3626 16.4072 11.5806 16.4072 11.7984C16.1896 11.7988 15.972 11.799 15.7544 11.7994C15.7556 11.5822 15.7571 11.365 15.7585 11.1479Z" fill="white"/>
<path d="M0.676758 11.8003C0.894348 11.7999 1.11194 11.7997 1.32953 11.7993C1.32973 12.0181 1.32973 12.2369 1.32994 12.4557C1.11214 12.4553 0.894758 12.4543 0.676968 12.4539C0.676968 12.2359 0.676758 12.0181 0.676758 11.8003Z" fill="white"/>
<path d="M12.4761 11.7994C12.6937 11.799 12.9113 11.7987 13.1289 11.7983C13.1289 12.0176 13.1287 12.2366 13.1287 12.4558C12.9105 12.4556 12.6923 12.4554 12.4741 12.455L12.4759 12.4562C12.4761 12.2374 12.4761 12.0184 12.4761 11.7994Z" fill="#808181"/>
<path d="M15.7544 11.7994C15.972 11.799 16.1896 11.7987 16.4072 11.7983C16.4072 12.0116 16.4072 12.2249 16.4072 12.456C16.1882 12.456 15.9726 12.456 15.7571 12.456C15.7563 12.2372 15.7552 12.0184 15.7544 11.7994Z" fill="#808181"/>
<path d="M7.882 2.61808C7.6659 2.61911 7.4497 2.62014 7.2336 2.62116C7.2336 2.40337 7.2334 2.18537 7.2334 1.96758C7.451 1.96717 7.6686 1.96696 7.8861 1.96655C7.8847 2.18373 7.8835 2.40091 7.882 2.61808Z" fill="white"/>
<path d="M19.6859 1.96554C19.4684 1.96595 19.2508 1.96615 19.0332 1.96656C19.0338 1.74939 19.0342 1.53221 19.0348 1.31503L19.0334 1.30908C19.2477 1.30908 19.462 1.30908 19.6861 1.30908C19.6859 1.53221 19.6859 1.74877 19.6859 1.96554Z" fill="white"/>
<path d="M7.8861 1.96651C7.6686 1.96692 7.451 1.96713 7.2334 1.96754C7.2334 1.75323 7.2334 1.53893 7.2334 1.31006C7.4536 1.31006 7.6675 1.31006 7.8814 1.31006C7.8829 1.52867 7.8845 1.74749 7.8861 1.96651Z" fill="#808181"/>
<path d="M18.3765 0.658447C18.59 0.658447 18.8035 0.658447 19.0332 0.658447C19.0332 0.877877 19.0332 1.09362 19.0332 1.30936L19.0346 1.31531C18.8156 1.31387 18.5966 1.31244 18.3775 1.311C18.3773 1.09362 18.3769 0.876027 18.3765 0.658447Z" fill="#808181"/>
<path d="M18.3763 0.658447C18.3767 0.876027 18.3769 1.09362 18.3773 1.311C18.1585 1.31121 17.9395 1.31121 17.7207 1.31141C17.7211 1.09362 17.7221 0.876438 17.7225 0.658648C17.9405 0.658648 18.1585 0.658647 18.3763 0.658447Z" fill="white"/>
<path d="M15.7558 0.658648C15.7556 0.876848 15.7554 1.09485 15.755 1.31305L15.7562 1.31121C15.5372 1.31121 15.3181 1.31121 15.0991 1.311C15.0987 1.09342 15.0985 0.875827 15.0981 0.658447C15.3173 0.658647 15.5366 0.658648 15.7558 0.658648Z" fill="#808181"/>
<path d="M15.098 0.658447C15.0984 0.876027 15.0986 1.09362 15.099 1.311C14.8802 1.31121 14.6612 1.31121 14.4424 1.31141C14.4428 1.09362 14.4438 0.876438 14.4442 0.658648C14.6622 0.658648 14.88 0.658647 15.098 0.658447Z" fill="white"/>
<path d="M12.4802 14.4255C12.6963 14.4245 12.9125 14.4234 13.1286 14.4224C13.1286 14.6402 13.1288 14.8582 13.1288 15.076C12.9112 15.0764 12.6936 15.0766 12.4761 15.077C12.4775 14.8598 12.4789 14.6427 12.4802 14.4255Z" fill="white"/>
<path d="M12.477 0.658648C12.4768 0.876848 12.4766 1.09485 12.4762 1.31305L12.4774 1.31121C12.2584 1.31121 12.0394 1.31121 11.8204 1.311C11.82 1.09342 11.8197 0.875827 11.8193 0.658447C12.0386 0.658647 12.2578 0.658648 12.477 0.658648Z" fill="#808181"/>
<path d="M11.8193 0.658447C11.8197 0.876027 11.8199 1.09362 11.8203 1.311C11.603 1.30957 11.3858 1.30813 11.1684 1.3067C11.1674 1.09075 11.1666 0.874598 11.1655 0.658648C11.3835 0.658648 11.6015 0.658647 11.8193 0.658447Z" fill="white"/>
<path d="M3.95508 5.24514C4.17267 5.24474 4.39027 5.24454 4.60787 5.24414C4.60637 5.46134 4.60517 5.67844 4.60377 5.89564C4.38757 5.89664 4.17147 5.89774 3.95529 5.89874C3.95529 5.68074 3.95529 5.46294 3.95508 5.24514Z" fill="white"/>
<path d="M9.19872 0.658447C9.19852 0.876037 9.19812 1.09362 9.19792 1.31121C8.97922 1.31121 8.76062 1.31101 8.54202 1.31101C8.54162 1.09342 8.54142 0.875827 8.54102 0.658447C8.76022 0.658447 8.97952 0.658447 9.19872 0.658447Z" fill="#808181"/>
<path d="M12.4761 15.077C12.6936 15.0765 12.9112 15.0763 13.1288 15.0759C13.1288 15.2892 13.1288 15.5025 13.1288 15.7336C12.9098 15.7336 12.6943 15.7336 12.4787 15.7336C12.4779 15.5148 12.4771 15.296 12.4761 15.077Z" fill="#808181"/>
<path d="M1.32812 15.735C1.54714 15.7342 1.76596 15.7332 1.98499 15.7324C1.9854 15.9499 1.98561 16.1675 1.98602 16.3851C1.77254 16.3851 1.55925 16.3851 1.32812 16.3851C1.32812 16.1661 1.32812 15.9506 1.32812 15.735Z" fill="#808181"/>
<path d="M1.98589 16.3851C1.98548 16.1675 1.98527 15.9499 1.98486 15.7324C2.20204 15.7338 2.41942 15.735 2.6366 15.7365C2.63762 15.9526 2.63865 16.1686 2.63968 16.3847C2.42168 16.3849 2.20368 16.3849 1.98589 16.3851Z" fill="white"/>
<path d="M8.5411 0.658447C8.5415 0.876027 8.5417 1.09362 8.5421 1.311C8.3239 1.31059 8.1059 1.30998 7.8877 1.30957C7.8877 1.09547 7.8877 0.881567 7.8877 0.658447C8.1079 0.658447 8.3245 0.658447 8.5411 0.658447Z" fill="white"/>
<path d="M4.60684 16.3849C4.60704 16.1667 4.60725 15.9487 4.60775 15.7305L4.60645 15.7324C4.82545 15.7324 5.04455 15.7324 5.26355 15.7326C5.26395 15.9502 5.26414 16.1678 5.26454 16.3853C5.04514 16.3849 4.82614 16.3849 4.60684 16.3849Z" fill="#808181"/>
<path d="M5.26418 16.3853C5.26378 16.1677 5.26358 15.9501 5.26318 15.7325C5.48198 15.7323 5.70098 15.7323 5.91978 15.7321C5.91938 15.9499 5.91838 16.167 5.91798 16.3848C5.69998 16.385 5.48218 16.385 5.26418 16.3853Z" fill="white"/>
<path d="M7.88527 16.3849C7.88547 16.1667 7.88567 15.9487 7.88607 15.7305L7.88477 15.7324C8.10387 15.7324 8.32287 15.7324 8.54187 15.7326C8.54227 15.9502 8.54247 16.1678 8.54287 16.3853C8.32367 16.3849 8.10447 16.3849 7.88527 16.3849Z" fill="#808181"/>
<path d="M8.54309 16.3853C8.54269 16.1677 8.54249 15.9501 8.54199 15.7325C8.76089 15.7323 8.97989 15.7323 9.19869 15.7321C9.19829 15.9499 9.19729 16.167 9.19689 16.3848C8.97889 16.385 8.76089 16.385 8.54309 16.3853Z" fill="white"/>
<path d="M15.1014 11.1416C15.1014 11.3549 15.1014 11.5681 15.1014 11.798C14.8774 11.798 14.6621 11.798 14.4468 11.798C14.4457 11.2896 14.4437 10.781 14.4439 10.2727C14.4439 9.68901 14.4457 9.10561 14.4468 8.52191C14.6641 8.52151 14.8813 8.52091 15.0987 8.52051C15.0995 8.74011 15.1006 8.95951 15.1014 9.17921C15.1014 9.83341 15.1014 10.4874 15.1014 11.1416Z" fill="white"/>
<path d="M18.3792 7.86402C18.3792 8.07732 18.3792 8.29062 18.3792 8.52052C18.1553 8.52052 17.9399 8.52052 17.7246 8.52052C17.7236 8.01212 17.7215 7.50352 17.7217 6.99512C17.7217 6.41152 17.7236 5.82802 17.7246 5.24442C17.942 5.24402 18.1591 5.24342 18.3765 5.24292C18.3774 5.46262 18.3784 5.68202 18.3792 5.90172C18.3792 6.55592 18.3792 7.20982 18.3792 7.86402Z" fill="white"/>
<path d="M15.0982 8.52068C14.8808 8.52108 14.6636 8.52168 14.4463 8.52208C14.4463 8.30328 14.4463 8.08468 14.4463 7.86588C14.6643 7.86608 14.8821 7.86628 15.1001 7.86648L15.098 7.86548C15.098 8.08408 15.0982 8.30228 15.0982 8.52068Z" fill="#292E69"/>
<path d="M18.3766 5.24316C18.1592 5.24356 17.942 5.24416 17.7246 5.24456C17.7246 5.02576 17.7246 4.80712 17.7246 4.5883C17.9426 4.5885 18.1604 4.58871 18.3784 4.58891L18.3764 4.58789C18.3764 4.8063 18.3764 5.02466 18.3766 5.24316Z" fill="#292E69"/>
<path d="M9.19791 4.59051C9.85341 4.5901 10.5088 4.58989 11.1642 4.58948C11.1638 4.80707 11.163 5.02446 11.1626 5.24206C10.7262 5.24386 10.2898 5.24576 9.85341 5.24756C9.63561 5.24696 9.41801 5.24636 9.20021 5.24556L9.19531 5.24206C9.19651 5.02426 9.19791 4.80645 9.19921 4.58887L9.19791 4.59051Z" fill="#0D8136"/>
<path d="M15.7525 5.8999C15.7529 6.5551 15.7533 7.2104 15.7535 7.8658C15.5347 7.8658 15.3165 7.8656 15.0977 7.8656L15.0997 7.8666C15.1001 7.2116 15.1003 6.5568 15.1007 5.9017C15.3185 5.9015 15.5363 5.9013 15.7541 5.9013L15.7525 5.8999Z" fill="#0D8136"/>
<path d="M12.4763 4.59051C13.1317 4.5901 13.7872 4.58989 14.4426 4.58948C14.4422 4.80707 14.4414 5.02446 14.4409 5.24206C14.0045 5.24386 13.5681 5.24576 13.1317 5.24756C12.9139 5.24696 12.6963 5.24636 12.4786 5.24556L12.4736 5.24206C12.4749 5.02426 12.4763 4.80645 12.4775 4.58887L12.4763 4.59051Z" fill="#0D8136"/>
<path d="M14.4409 5.242C14.4414 5.0244 14.4418 4.80662 14.4422 4.58903C14.661 4.58883 14.88 4.58883 15.0988 4.58862C15.3179 4.59006 15.5369 4.59149 15.7559 4.59293C15.7553 4.81011 15.7549 5.0273 15.7543 5.2445C15.7543 5.4635 15.7543 5.6825 15.7541 5.9013C15.5363 5.9015 15.3185 5.9017 15.1007 5.9017C15.1007 5.6878 15.1007 5.4739 15.1007 5.242C14.8739 5.242 14.6575 5.242 14.4409 5.242Z" fill="#C0C0BF"/>
<path d="M9.1989 4.58878C9.1977 4.80657 9.1962 5.02434 9.195 5.24194C8.76 5.24404 8.3251 5.24604 7.8901 5.24814L7.8833 5.24154C7.8833 5.02474 7.8833 4.80801 7.8833 4.59124L7.8899 4.58447C8.1073 4.58591 8.3244 4.58734 8.5418 4.58878C8.7609 4.58858 8.9799 4.58858 9.1989 4.58878Z" fill="#C0C0BF"/>
<path d="M12.4777 4.58883C12.4765 4.80662 12.4751 5.0244 12.4738 5.242C12.0368 5.242 11.5998 5.242 11.1626 5.242C11.163 5.0244 11.1634 4.80662 11.1638 4.58903C11.3826 4.58883 11.6016 4.58883 11.8205 4.58862C12.0397 4.58862 12.2587 4.58862 12.4777 4.58883Z" fill="#C0C0BF"/>
<path d="M12.4785 5.24561C12.6963 5.24621 12.9139 5.24681 13.1317 5.24761C13.1317 5.46171 13.1317 5.67561 13.1317 5.89471C12.9119 5.89471 12.7015 5.89471 12.4785 5.89471C12.4785 5.67891 12.4785 5.46211 12.4785 5.24561Z" fill="#F4E600"/>
<path d="M9.2002 5.24561C9.418 5.24621 9.6356 5.24681 9.8534 5.24761C9.8534 5.46171 9.8534 5.67561 9.8534 5.89471C9.6335 5.89471 9.4231 5.89471 9.2002 5.89471C9.2002 5.67891 9.2002 5.46211 9.2002 5.24561Z" fill="#F4E600"/>
<path d="M7.88616 5.90036C7.66776 5.89956 7.44936 5.89896 7.23096 5.89816L7.23216 5.89956C7.23216 5.68176 7.23216 5.46396 7.23216 5.24616C7.44936 5.24456 7.66676 5.24306 7.88396 5.24146L7.89066 5.24806C7.88906 5.46556 7.88766 5.68296 7.88616 5.90036Z" fill="#C0C0BF"/>
<path d="M12.4763 1.31292C13.1317 1.31251 13.7872 1.3123 14.4426 1.31189C14.4422 1.52948 14.4414 1.74687 14.4409 1.96445C14.0045 1.9663 13.5681 1.96814 13.1317 1.96999C12.9139 1.96937 12.6963 1.96876 12.4786 1.96794L12.4736 1.96445C12.4749 1.74666 12.4763 1.52887 12.4775 1.31128L12.4763 1.31292Z" fill="#0D8136"/>
<path d="M15.755 1.31292C16.4105 1.31251 17.0659 1.3123 17.7213 1.31189C17.7209 1.52948 17.7201 1.74687 17.7197 1.96445C17.2833 1.9663 16.8469 1.96814 16.4105 1.96999C16.1927 1.96937 15.9751 1.96876 15.7573 1.96794L15.7524 1.96445C15.7536 1.74666 15.755 1.52887 15.7563 1.31128L15.755 1.31292Z" fill="#0D8136"/>
<path d="M17.7197 1.96441C17.7201 1.74683 17.7205 1.52903 17.7209 1.31145C17.9397 1.31124 18.1587 1.31124 18.3776 1.31104C18.5966 1.31247 18.8156 1.31391 19.0346 1.31534C19.034 1.53252 19.0336 1.7497 19.033 1.96688C19.033 2.18549 19.0328 2.4039 19.0328 2.62251C18.8148 2.62333 18.5974 2.62354 18.3794 2.62436C18.3794 2.41046 18.3794 2.19656 18.3794 1.96462C18.1526 1.96441 17.9362 1.96441 17.7197 1.96441Z" fill="#C0C0BF"/>
<path d="M18.3796 2.62405C18.5976 2.62322 18.8156 2.6224 19.0336 2.62158C19.0332 3.27701 19.0328 3.93265 19.0324 4.58808C18.8136 4.58808 18.5953 4.58787 18.3765 4.58787L18.3786 4.5889C18.379 3.93388 18.3794 3.27886 18.3796 2.62405Z" fill="#0D8136"/>
<path d="M12.4777 1.31095C12.4764 1.52874 12.475 1.74654 12.4738 1.96412C12.0388 1.96617 11.6038 1.96822 11.1689 1.97028L11.1621 1.96371C11.1621 1.74695 11.1621 1.53018 11.1621 1.31341L11.1686 1.30664C11.386 1.30808 11.6032 1.30951 11.8206 1.31095C12.0396 1.31095 12.2586 1.31095 12.4777 1.31095Z" fill="#C0C0BF"/>
<path d="M15.7561 1.311C15.7548 1.52879 15.7534 1.74658 15.7522 1.96417C15.3151 1.96417 14.8781 1.96417 14.4409 1.96417C14.4413 1.74658 14.4417 1.52879 14.4421 1.3112C14.6609 1.311 14.88 1.311 15.0988 1.31079C15.318 1.311 15.537 1.311 15.7561 1.311Z" fill="#C0C0BF"/>
<path d="M15.7573 1.96802C15.9751 1.96863 16.1926 1.96925 16.4104 1.97007C16.4104 2.18417 16.4104 2.39807 16.4104 2.61709C16.1906 2.61709 15.9802 2.61709 15.7573 2.61709C15.7573 2.40135 15.7573 2.18458 15.7573 1.96802Z" fill="#F4E600"/>
<path d="M12.4785 1.96802C12.6963 1.96863 12.9139 1.96925 13.1317 1.97007C13.1317 2.18417 13.1317 2.39807 13.1317 2.61709C12.9119 2.61709 12.7015 2.61709 12.4785 2.61709C12.4785 2.40135 12.4785 2.18458 12.4785 1.96802Z" fill="#F4E600"/>
<path d="M11.1646 2.62278C10.9461 2.62196 10.7277 2.62135 10.5093 2.62053L10.5106 2.62196C10.5106 2.40417 10.5106 2.18638 10.5106 1.96858C10.7277 1.96694 10.9451 1.96551 11.1623 1.96387L11.1691 1.97043C11.1676 2.18802 11.166 2.4054 11.1646 2.62278Z" fill="#C0C0BF"/>
<path d="M2.64265 15.0791C2.42875 15.0791 2.21465 15.0791 1.98291 15.0791C1.98291 14.8523 1.98291 14.6359 1.98291 14.4194C1.98476 14.2016 1.9866 13.9838 1.98845 13.766C2.2048 13.766 2.42116 13.766 2.63547 13.766C2.63547 13.5394 2.63547 13.3294 2.63547 13.1103C2.41624 13.1103 2.20234 13.1103 1.98845 13.1103C1.9866 12.8925 1.98476 12.6748 1.98291 12.457C1.98353 12.0189 1.98414 11.5811 1.98455 11.143C2.20214 11.1445 2.41911 11.1463 2.6367 11.1475C2.6367 11.3627 2.6367 11.5778 2.6367 11.7972C2.87192 11.7972 3.0852 11.7972 3.29849 11.7972C3.51566 11.7972 3.73284 11.7972 3.95002 11.7972C4.1658 11.7972 4.3815 11.7972 4.6118 11.7972C4.6118 11.5731 4.6118 11.3604 4.6118 11.1477C4.83 11.1471 5.048 11.1465 5.2662 11.1459C5.2662 11.3625 5.2662 11.579 5.2662 11.7927C5.4897 11.7927 5.7026 11.7927 5.9179 11.7927C5.9179 11.5716 5.9179 11.3571 5.9179 11.1426C6.1374 11.1426 6.3566 11.1426 6.576 11.1426C6.576 11.359 6.576 11.5753 6.576 11.7919C6.7992 11.7919 7.0139 11.7919 7.2294 11.7919C7.2294 11.5704 7.2294 11.3565 7.2294 11.1426C7.4489 11.1426 7.6681 11.1426 7.8873 11.1426C7.8873 11.3588 7.8873 11.5747 7.8873 11.798C8.1106 11.798 8.3268 11.798 8.5429 11.798C8.5429 12.0152 8.5429 12.2322 8.5429 12.4488C8.7665 12.4488 8.9796 12.4488 9.1912 12.4488C9.1912 12.2295 9.1912 12.0165 9.1912 11.8005C8.9701 11.8005 8.7554 11.8005 8.5407 11.8005C8.5407 11.5813 8.5407 11.3618 8.5409 11.1426C8.7599 11.1418 8.9787 11.1412 9.1978 11.1404C9.4164 11.1404 9.635 11.1404 9.8534 11.1404C10.2908 11.1412 10.7285 11.1418 11.1659 11.1426C11.1659 11.3598 11.1659 11.5768 11.1659 11.7982C11.3909 11.7982 11.6054 11.7982 11.8199 11.7982C11.8207 12.0179 11.8217 12.2373 11.8226 12.457C11.8226 13.1112 11.8226 13.7652 11.8226 14.4194C11.8226 14.6332 11.8226 14.8471 11.8226 15.0791C11.5955 15.0791 11.3792 15.0791 11.1626 15.0791C10.5078 15.0783 9.8532 15.0772 9.1984 15.0764C9.197 14.8582 9.1957 14.6396 9.1943 14.4214C9.1951 14.2028 9.1959 13.984 9.1965 13.7654C9.4158 13.7654 9.635 13.7654 9.8542 13.7654C9.8542 13.9823 9.8542 14.1993 9.8542 14.4153C10.2968 14.4153 10.7283 14.4153 11.1583 14.4153C11.1583 14.196 11.1583 13.9832 11.1583 13.7668C10.7188 13.7668 10.2859 13.7668 9.8528 13.7668C9.8528 13.5502 9.8528 13.3337 9.8528 13.1173C9.6278 13.1173 9.4156 13.1173 9.1978 13.1173C9.1978 13.3384 9.1978 13.5525 9.1978 13.7666C8.7605 13.7652 8.3233 13.7637 7.8861 13.7623C7.8861 13.5463 7.8861 13.3306 7.8861 13.1105C7.6572 13.1105 7.4433 13.1105 7.2294 13.1105C7.2294 12.8936 7.2294 12.6766 7.2294 12.4607C5.9126 12.4607 4.6071 12.4607 3.30238 12.4607C3.30238 12.6797 3.30238 12.8925 3.30238 13.1136C3.74166 13.1136 4.1746 13.1136 4.6075 13.1136C4.6075 13.3298 4.6075 13.5461 4.6075 13.7623C4.1721 13.7623 3.73653 13.7623 3.29951 13.7623C3.29951 13.9924 3.29951 14.2067 3.29951 14.4212C3.29828 14.6386 3.29726 14.856 3.29603 15.0733C3.07823 15.0754 2.86044 15.0772 2.64265 15.0791ZM11.1597 12.4617C10.9401 12.4617 10.7276 12.4617 10.5166 12.4617C10.5166 12.6811 10.5166 12.8936 10.5166 13.1054C10.7346 13.1054 10.9446 13.1054 11.1597 13.1054C11.1597 12.8903 11.1597 12.6803 11.1597 12.4617Z" fill="white"/>
<path d="M11.8228 14.4191C11.8228 13.7649 11.8228 13.1109 11.8228 12.4567C12.0406 12.4565 12.2584 12.4563 12.4762 12.4563L12.4743 12.4551C12.4741 13.1097 12.4739 13.7643 12.4737 14.4187C12.2569 14.4189 12.0398 14.4189 11.8228 14.4191Z" fill="#0D8136"/>
<path d="M9.19864 15.0764C9.85344 15.0772 10.508 15.0782 11.1628 15.0791C11.1628 15.293 11.1628 15.5069 11.1628 15.7316C10.5041 15.7316 9.85124 15.7316 9.19824 15.7316C9.19824 15.513 9.19864 15.295 9.19864 15.0764Z" fill="#0D8136"/>
<path d="M1.9883 13.7658C1.98645 13.9835 1.98461 14.2013 1.98276 14.4191C1.76887 14.4191 1.55497 14.4191 1.33 14.4191C1.33 13.7606 1.33 13.1079 1.33 12.4551C1.54779 12.4555 1.76497 12.4563 1.98276 12.4567C1.98461 12.6745 1.98645 12.8923 1.9883 13.1101C1.9883 13.3287 1.9883 13.5471 1.9883 13.7658Z" fill="#0D8136"/>
<path d="M2.64307 15.0791C2.86086 15.0772 3.07886 15.0754 3.29665 15.0735C3.51527 15.0735 3.73388 15.0735 3.95249 15.0735C4.17027 15.0754 4.38827 15.0772 4.60607 15.0791C4.60627 15.2969 4.60627 15.5146 4.60647 15.7322L4.60767 15.7304C3.9529 15.7302 3.29829 15.73 2.64348 15.7298C2.64328 15.513 2.64328 15.296 2.64307 15.0791Z" fill="#0D8136"/>
<path d="M18.3794 7.86415C18.3794 7.20995 18.3794 6.55595 18.3794 5.90175C18.5972 5.90155 18.815 5.90135 19.0328 5.90135L19.0309 5.90015C19.0307 6.55475 19.0305 7.20915 19.0303 7.86375C18.8133 7.86375 18.5963 7.86395 18.3794 7.86415Z" fill="#0D8136"/>
<path d="M15.1011 11.1417C15.1011 10.4875 15.1011 9.83353 15.1011 9.17933C15.3188 9.17913 15.5366 9.17893 15.7544 9.17893L15.7526 9.17773C15.7524 9.83233 15.7522 10.4869 15.752 11.1413C15.535 11.1413 15.318 11.1415 15.1011 11.1417Z" fill="#0D8136"/>
<path d="M11.1622 1.96397C10.945 1.96561 10.7276 1.96704 10.5105 1.96868C10.291 1.96868 10.0714 1.96868 9.85197 1.96868C9.63397 1.96766 9.41597 1.96663 9.19817 1.96581C9.19777 1.7474 9.19777 1.5292 9.19727 1.31079C9.85237 1.31182 10.5072 1.31264 11.1622 1.31366C11.1622 1.53023 11.1622 1.7472 11.1622 1.96397Z" fill="#0D8136"/>
<path d="M9.1982 2.62248C8.9808 2.62104 8.7633 2.6194 8.5459 2.61797C8.5459 2.40674 8.5459 2.19551 8.5459 1.96623C8.7649 1.96623 8.9815 1.96623 9.1982 1.96623C9.1982 2.18525 9.1982 2.40346 9.1982 2.62248Z" fill="white"/>
<path d="M1.33123 11.1436C1.33082 10.4883 1.33062 9.83313 1.33021 9.17773C1.5478 9.17833 1.76497 9.17913 1.98256 9.17973C1.9842 9.39693 1.98563 9.61413 1.98728 9.83133C1.98728 10.0507 1.98728 10.2701 1.98728 10.4896C1.98625 10.7076 1.98522 10.9253 1.9844 11.1433C1.766 11.1431 1.548 11.1425 1.32959 11.1423L1.33123 11.1436Z" fill="#0D8136"/>
<path d="M7.88385 5.24154C7.66665 5.24324 7.44925 5.24464 7.23205 5.24624C7.01265 5.24624 6.79304 5.24624 6.57354 5.24624C6.35554 5.24524 6.13754 5.24424 5.91974 5.24344C5.91924 5.02504 5.91935 4.80679 5.91895 4.58838C6.57395 4.58941 7.22885 4.59023 7.88385 4.59125C7.88385 4.80802 7.88385 5.02474 7.88385 5.24154Z" fill="#0D8136"/>
<path d="M9.19791 7.86811C9.85341 7.86761 10.5088 7.86741 11.1642 7.86701C11.1638 8.08461 11.163 8.30201 11.1626 8.51961C10.7262 8.52141 10.2898 8.52331 9.85341 8.52511C9.63561 8.52451 9.41801 8.52391 9.20021 8.52311L9.19531 8.51961C9.19651 8.30181 9.19771 8.08401 9.19921 7.86621L9.19791 7.86811Z" fill="#0D8136"/>
<path d="M5.91969 7.86811C6.57509 7.86761 7.23059 7.86741 7.88599 7.86701C7.88559 8.08461 7.88479 8.30201 7.88439 8.51961C7.44799 8.52141 7.01149 8.52331 6.57509 8.52511C6.35739 8.52451 6.13979 8.52391 5.92199 8.52311L5.91699 8.51961C5.91829 8.30181 5.91949 8.08401 5.92089 7.86621L5.91969 7.86811Z" fill="#0D8136"/>
<path d="M2.64111 7.86811C3.29654 7.86761 3.95197 7.86741 4.60736 7.86701C4.60736 8.08521 4.60696 8.30301 4.60696 8.52121C4.38896 8.52221 4.17136 8.52291 3.95361 8.52371C3.73417 8.52371 3.51453 8.52371 3.2951 8.52371C3.07792 8.52211 2.86054 8.52061 2.64336 8.51901C2.64295 8.30141 2.64275 8.08381 2.64234 7.86621L2.64111 7.86811Z" fill="#0D8136"/>
<path d="M5.91988 5.89986C5.70248 5.89836 5.48488 5.89676 5.26758 5.89536C5.26758 5.68406 5.26758 5.47286 5.26758 5.24356C5.48658 5.24356 5.70308 5.24356 5.91988 5.24356C5.91988 5.46256 5.91988 5.68086 5.91988 5.89986Z" fill="white"/>
<path d="M7.88589 15.7306C7.23049 15.731 6.57509 15.7314 5.91959 15.7316C5.91859 15.514 5.91799 15.2967 5.91699 15.0791L5.92189 15.0756C6.13969 15.075 6.35729 15.0743 6.57509 15.0735C7.01149 15.0754 7.44789 15.0772 7.88429 15.0791C7.88449 15.2969 7.88449 15.5146 7.88469 15.7322L7.88589 15.7306Z" fill="#0D8136"/>
<path d="M12.4741 9.17749C12.4745 9.83279 12.4747 10.4882 12.4751 11.1434C12.2567 11.1434 12.0387 11.143 11.8203 11.143L11.8211 11.1446C11.8215 10.4894 11.822 9.83439 11.8224 9.17919C12.0402 9.17899 12.2579 9.17899 12.4757 9.17879L12.4741 9.17749Z" fill="#0D8136"/>
<path d="M5.91943 5.90026C5.91943 5.68126 5.91943 5.46216 5.91943 5.24316C6.13743 5.24426 6.35543 5.24526 6.57323 5.24606C6.57323 5.46386 6.57323 5.68166 6.57323 5.89946L6.57453 5.89776C6.35623 5.89886 6.13783 5.89966 5.91943 5.90026Z" fill="#C0C0BF"/>
<path d="M6.57373 5.89974C6.57373 5.68194 6.57373 5.46414 6.57373 5.24634C6.79313 5.24634 7.01273 5.24634 7.23223 5.24634C7.23223 5.46414 7.23223 5.68194 7.23223 5.89974C7.01253 5.89974 6.79313 5.89974 6.57373 5.89974Z" fill="#808123"/>
<path d="M2.64201 7.86645C2.64242 8.08405 2.64263 8.30165 2.64304 8.51925L2.63647 8.52595C2.4234 8.52595 2.21012 8.52595 1.98904 8.52595C1.98904 8.74705 1.98904 8.96015 1.98904 9.17315L1.98228 9.17975C1.76469 9.17915 1.5471 9.17875 1.32951 9.17815C1.32931 8.95925 1.32931 8.74045 1.3291 8.52165C1.33054 8.30265 1.33197 8.08365 1.33341 7.86475C1.55059 7.86545 1.76776 7.86585 1.98494 7.86645C2.20396 7.86625 2.42299 7.86625 2.64201 7.86645Z" fill="#C0C0BF"/>
<path d="M4.60693 8.52121C4.60693 8.30301 4.60693 8.08481 4.60693 7.86661C4.82583 7.86641 5.04483 7.86641 5.26363 7.86621C5.48263 7.86621 5.70163 7.86621 5.92073 7.86641C5.91943 8.08421 5.91823 8.30201 5.91683 8.51981C5.48023 8.52021 5.04353 8.52081 4.60693 8.52121Z" fill="#C0C0BF"/>
<path d="M7.88428 8.51961C7.88468 8.30201 7.88518 8.08421 7.88558 7.86661C8.10438 7.86641 8.32338 7.86641 8.54218 7.86621C8.76118 7.86621 8.98028 7.86621 9.19928 7.86641C9.19808 8.08421 9.19678 8.30201 9.19538 8.51981C8.75858 8.51961 8.32138 8.51961 7.88428 8.51961Z" fill="#C0C0BF"/>
<path d="M12.4763 9.17891C12.2585 9.17911 12.0407 9.17911 11.8229 9.17931C11.8229 8.96301 11.8229 8.74661 11.8229 8.51961C11.5909 8.51961 11.377 8.51961 11.1631 8.51961C11.1636 8.30201 11.164 8.08421 11.1644 7.86661C11.3832 7.86641 11.6022 7.86641 11.821 7.86621C12.0401 7.86761 12.2591 7.86911 12.4781 7.87051C12.4775 8.08771 12.4771 8.30491 12.4765 8.52211C12.4763 8.74091 12.4763 8.95991 12.4763 9.17891Z" fill="#C0C0BF"/>
<path d="M19.0327 5.9011C18.8149 5.9013 18.5971 5.9015 18.3793 5.9015C18.3785 5.6819 18.3775 5.4625 18.3767 5.2428C18.3767 5.0244 18.3765 4.80602 18.3765 4.58761C18.5953 4.58761 18.8139 4.5874 19.0327 4.5874C19.0329 4.80622 19.0329 5.025 19.0331 5.2439C19.0329 5.4633 19.0329 5.6823 19.0327 5.9011Z" fill="#C0C0BF"/>
<path d="M15.7544 9.17893C15.5366 9.17913 15.3188 9.17933 15.101 9.17933C15.1002 8.95973 15.0991 8.74023 15.0983 8.52063C15.0983 8.30223 15.0981 8.08383 15.0981 7.86543C15.3169 7.86543 15.5356 7.86523 15.7544 7.86523C15.7546 8.08403 15.7546 8.30283 15.7548 8.52163C15.7544 8.74093 15.7544 8.95993 15.7544 9.17893Z" fill="#C0C0BF"/>
<path d="M9.85205 1.96851C10.0715 1.96851 10.2912 1.96851 10.5106 1.96851C10.5106 2.1863 10.5106 2.40409 10.5106 2.62189C10.2916 2.62189 10.0724 2.62168 9.85325 2.62168C9.85255 2.40388 9.85265 2.1865 9.85205 1.96851Z" fill="#808123"/>
<path d="M9.85165 1.96869C9.85235 2.18669 9.85295 2.40469 9.85355 2.62268C9.63495 2.62268 9.41635 2.62289 9.19775 2.62289C9.19775 2.40387 9.19775 2.18484 9.19775 1.96582C9.41575 1.96684 9.63375 1.96787 9.85165 1.96869Z" fill="#C0C0BF"/>
<path d="M1.32968 11.1421C1.54809 11.1423 1.7665 11.1425 1.98491 11.1427C1.98429 11.5808 1.98388 12.0186 1.98327 12.4566C1.76548 12.4562 1.54789 12.4558 1.33009 12.4554C1.32989 12.2366 1.32989 12.0178 1.32968 11.799C1.32948 11.5801 1.32968 11.3611 1.32968 11.1421Z" fill="#C0C0BF"/>
<path d="M11.8204 11.1428C12.0388 11.1428 12.2572 11.1428 12.4756 11.1428C12.4758 11.3617 12.4758 11.5805 12.4761 11.7993C12.4761 12.0183 12.4761 12.2373 12.4758 12.4562C12.2581 12.4564 12.0403 12.4566 11.8225 12.4566C11.8216 12.2369 11.8206 12.0175 11.8198 11.7979C11.82 11.5797 11.8202 11.3613 11.8204 11.1428Z" fill="#C0C0BF"/>
<path d="M5.91706 15.0791C5.91806 15.2967 5.91906 15.5145 5.92016 15.732C5.70126 15.7323 5.48226 15.7323 5.26346 15.7325C5.04446 15.7325 4.82536 15.7325 4.60636 15.7323C4.60616 15.5145 4.60616 15.2967 4.60596 15.0791C5.04296 15.0791 5.48006 15.0791 5.91706 15.0791Z" fill="#C0C0BF"/>
<path d="M7.88468 15.7322C7.88448 15.5144 7.88448 15.2966 7.88428 15.079C8.10378 15.0776 8.32318 15.0761 8.54258 15.0747C8.76148 15.0751 8.98028 15.0755 9.19908 15.0759C9.19908 15.2946 9.19868 15.5134 9.19868 15.732C8.97988 15.7322 8.76078 15.7322 8.54198 15.7324C8.32298 15.7324 8.10398 15.7324 7.88468 15.7322Z" fill="#C0C0BF"/>
<path d="M3.2998 14.4214C3.2998 14.2069 3.2998 13.9926 3.2998 13.7625C3.73682 13.7625 4.17223 13.7625 4.60783 13.7625C4.82643 13.7625 5.04502 13.7625 5.26342 13.7625C5.91902 13.7625 6.57492 13.7625 7.23053 13.7625C7.44912 13.7625 7.66772 13.7625 7.88622 13.7625C8.32342 13.7639 8.76062 13.7654 9.19782 13.7668L9.19642 13.7654C9.19562 13.984 9.19483 14.2028 9.19413 14.4214C8.97683 14.4226 8.75943 14.4237 8.54183 14.4249C7.88623 14.4249 7.23033 14.4249 6.57473 14.4249C6.35613 14.4249 6.13742 14.4249 5.91902 14.4249C5.26342 14.4249 4.60762 14.4249 3.95195 14.4249C3.73457 14.4237 3.51719 14.4226 3.2998 14.4214Z" fill="#292E69"/>
<path d="M4.60782 13.1136C4.17492 13.1136 3.7418 13.1136 3.30273 13.1136C3.30273 12.8925 3.30273 12.6795 3.30273 12.4607C4.60742 12.4607 5.91292 12.4607 7.22982 12.4607C7.22982 12.6766 7.22982 12.8936 7.22982 13.1105L7.23102 13.1091C7.15962 13.1095 7.08822 13.1101 7.01692 13.1101C6.43242 13.1114 5.84792 13.1124 5.26372 13.1136C5.04492 13.1136 4.82622 13.1136 4.60782 13.1136Z" fill="#292E69"/>
<path d="M9.85303 13.7669C10.2861 13.7669 10.719 13.7669 11.1585 13.7669C11.1585 13.9832 11.1585 14.1961 11.1585 14.4153C10.7285 14.4153 10.297 14.4153 9.85443 14.4153C9.85443 14.1994 9.85443 13.9824 9.85443 13.7654L9.85303 13.7669Z" fill="#292E69"/>
<path d="M11.1657 11.1426C10.7283 11.1418 10.2907 11.1412 9.85323 11.1403C9.85323 10.9225 9.85303 10.7047 9.85303 10.487C10.0716 10.4863 10.2903 10.4855 10.5089 10.4849C10.7262 10.4861 10.9436 10.4872 11.1612 10.4884C11.162 10.7072 11.1627 10.9262 11.1635 11.145L11.1657 11.1426Z" fill="#292E69"/>
<path d="M1.98389 11.1434C1.98491 10.9254 1.98594 10.7076 1.98676 10.4898C2.20476 10.4892 2.42296 10.4886 2.64096 10.4878C2.64157 10.7056 2.64239 10.9234 2.64301 11.1412L2.63624 11.1475C2.41886 11.1463 2.20147 11.1448 1.98389 11.1434Z" fill="#C0C0BF"/>
<path d="M5.26608 11.1456C5.04788 11.1462 4.82988 11.1468 4.61168 11.1474L4.60498 11.1411C4.60558 10.9233 4.60638 10.7055 4.60698 10.4877C4.82498 10.4873 5.04298 10.4867 5.26098 10.4863C5.26198 10.7063 5.26308 10.9266 5.26408 11.1466L5.26608 11.1456Z" fill="#C0C0BF"/>
<path d="M6.57607 11.1424C6.35667 11.1424 6.13747 11.1424 5.91797 11.1424L5.92027 11.1449C5.92027 10.9285 5.92027 10.7122 5.92027 10.4958C6.14337 10.4958 6.35807 10.4958 6.57367 10.4958C6.57367 10.7173 6.57367 10.9312 6.57367 11.1449L6.57607 11.1424Z" fill="#292E69"/>
<path d="M7.88739 11.1425C7.66789 11.1425 7.44869 11.1425 7.22949 11.1425L7.23169 11.1449C7.23249 10.9261 7.23319 10.7071 7.23399 10.4883C7.45029 10.4883 7.66649 10.4883 7.88279 10.4883C7.88369 10.7071 7.88429 10.9261 7.88509 11.1449L7.88739 11.1425Z" fill="#292E69"/>
<path d="M9.19743 11.1402C8.97843 11.141 8.75963 11.1416 8.54053 11.1424L8.54283 11.1449C8.54283 10.9265 8.54283 10.7081 8.54283 10.4868C8.77063 10.4868 8.98413 10.4868 9.19743 10.4868C9.19743 10.7046 9.19743 10.9224 9.19743 11.1402Z" fill="#292E69"/>
<path d="M9.19788 11.1402C9.19788 10.9224 9.19808 10.7046 9.19808 10.4868L9.19678 10.4892C9.41608 10.4892 9.63548 10.4892 9.85468 10.4892L9.85348 10.4868C9.85348 10.7046 9.85368 10.9224 9.85368 11.1402C9.63488 11.1402 9.41628 11.1402 9.19788 11.1402Z" fill="#F4E600"/>
<path d="M3.29851 11.7971C3.08523 11.7971 2.87195 11.7971 2.63672 11.7971C2.63672 11.5779 2.63672 11.3627 2.63672 11.1474L2.64349 11.1411C2.86129 11.1417 3.07928 11.1425 3.29708 11.1431C3.29749 11.3611 3.2981 11.5791 3.29851 11.7971Z" fill="#C0C0BF"/>
<path d="M3.29865 11.7971C3.29824 11.5791 3.29762 11.3611 3.29721 11.1431L3.29639 11.1439C3.51521 11.1439 3.73403 11.1439 3.95264 11.1439L3.95182 11.1431C3.95141 11.3611 3.95079 11.5791 3.95038 11.7971C3.733 11.7971 3.51582 11.7971 3.29865 11.7971Z" fill="#808123"/>
<path d="M3.9502 11.7971C3.95061 11.5791 3.95121 11.3611 3.95162 11.1431C4.16946 11.1425 4.38747 11.1417 4.60517 11.1411L4.61197 11.1474C4.61197 11.3601 4.61197 11.5727 4.61197 11.7969C4.38167 11.7971 4.16597 11.7971 3.9502 11.7971Z" fill="#C0C0BF"/>
<path d="M5.91825 11.1426C5.91825 11.3571 5.91825 11.5716 5.91825 11.7927C5.70295 11.7927 5.48985 11.7927 5.26645 11.7927C5.26645 11.579 5.26645 11.3625 5.26645 11.1459L5.26465 11.1469C5.48325 11.1463 5.70205 11.1457 5.92065 11.1453L5.91825 11.1426Z" fill="#292E69"/>
<path d="M7.22933 11.1426C7.22933 11.3565 7.22933 11.5704 7.22933 11.7919C7.01383 11.7919 6.79913 11.7919 6.57603 11.7919C6.57603 11.5753 6.57603 11.359 6.57603 11.1426L6.57373 11.1451C6.79313 11.1451 7.01243 11.1451 7.23183 11.1451L7.22933 11.1426Z" fill="#292E69"/>
<path d="M8.54315 11.798C8.32695 11.798 8.11085 11.798 7.88755 11.798C7.88755 11.5747 7.88755 11.3586 7.88755 11.1426L7.88525 11.1451C8.10465 11.1451 8.32395 11.1451 8.54335 11.1451L8.54105 11.1426C8.54105 11.3618 8.54105 11.5813 8.54085 11.8005L8.54315 11.798Z" fill="#292E69"/>
<path d="M11.8204 11.143C11.8202 11.3614 11.82 11.5798 11.8198 11.7983C11.6053 11.7983 11.3908 11.7983 11.1658 11.7983C11.1658 11.5768 11.1658 11.3596 11.1658 11.1426L11.1636 11.1451C11.3828 11.1451 11.602 11.1449 11.8212 11.1449L11.8204 11.143Z" fill="#292E69"/>
<path d="M8.54053 11.8004C8.75523 11.8004 8.97003 11.8004 9.19103 11.8004C9.19103 12.0165 9.19103 12.2294 9.19103 12.4486C8.97963 12.4486 8.76653 12.4486 8.54283 12.4486C8.54283 12.2323 8.54283 12.0151 8.54283 11.7979L8.54053 11.8004Z" fill="#292E69"/>
<path d="M11.1597 12.4614C11.1597 12.6801 11.1597 12.8901 11.1597 13.1052C10.9448 13.1052 10.7346 13.1052 10.5166 13.1052C10.5166 12.8935 10.5166 12.6809 10.5166 12.4614C10.7276 12.4614 10.9401 12.4614 11.1597 12.4614Z" fill="#F4E600"/>
<path d="M1.98828 13.7658C1.98828 13.5472 1.98828 13.3285 1.98828 13.1101C2.20218 13.1101 2.41607 13.1101 2.6353 13.1101C2.6353 13.3294 2.6353 13.5394 2.6353 13.7658C2.421 13.7658 2.20464 13.7658 1.98828 13.7658Z" fill="#F4E600"/>
<path d="M4.93587 13.897C5.19197 13.897 5.39957 13.6916 5.39957 13.4382C5.39957 13.1849 5.19197 12.9795 4.93587 12.9795C4.67977 12.9795 4.47217 13.1849 4.47217 13.4382C4.47217 13.6916 4.67977 13.897 4.93587 13.897Z" fill="#F4E600"/>
<path d="M7.88609 13.7623C7.66749 13.7623 7.44889 13.7623 7.23049 13.7623C7.23049 13.5445 7.23069 13.3267 7.23069 13.1091L7.22949 13.1105C7.44339 13.1105 7.65729 13.1105 7.88609 13.1105C7.88609 13.3306 7.88609 13.5463 7.88609 13.7623Z" fill="#F4E600"/>
<path d="M9.85448 13.7656C9.63528 13.7656 9.41608 13.7656 9.19678 13.7656L9.19828 13.767C9.19828 13.5529 9.19828 13.3388 9.19828 13.1177C9.41588 13.1177 9.62828 13.1177 9.85328 13.1177C9.85328 13.3341 9.85328 13.5506 9.85328 13.7672L9.85448 13.7656Z" fill="#F4E600"/>
<path d="M3.29967 14.4214C3.51705 14.4227 3.73443 14.4237 3.95202 14.4249C3.95202 14.6411 3.95202 14.8574 3.95223 15.0736C3.73361 15.0736 3.515 15.0736 3.29639 15.0736C3.29721 14.8562 3.29844 14.6388 3.29967 14.4214Z" fill="#F4E600"/>
<path d="M8.54199 14.4249C8.75939 14.4237 8.97679 14.4227 9.19439 14.4214C9.19579 14.6396 9.19749 14.8578 9.19889 15.076C8.98009 15.0756 8.76129 15.0752 8.54269 15.0748C8.54249 14.8582 8.54229 14.6415 8.54199 14.4249Z" fill="#F4E600"/>
<path d="M3.95236 15.0735C3.95236 14.8573 3.95236 14.641 3.95215 14.4248C4.60775 14.4248 5.26365 14.4248 5.91925 14.4248C5.92005 14.6418 5.92115 14.8585 5.92195 15.0755L5.91705 15.079C5.47995 15.079 5.04295 15.079 4.60575 15.079C4.38815 15.0772 4.17015 15.0753 3.95236 15.0735Z" fill="white"/>
<path d="M1.98714 9.8312C1.9855 9.614 1.98406 9.3968 1.98242 9.1796L1.98919 9.1731C2.20513 9.1731 2.42088 9.1733 2.63682 9.1733L2.64339 9.1798C2.64277 9.3976 2.64195 9.6154 2.64134 9.8332C2.42313 9.8326 2.20513 9.832 1.98714 9.8312Z" fill="#C0C0BF"/>
<path d="M1.9873 9.8313C2.2053 9.832 2.4235 9.8326 2.6415 9.8334L2.64068 9.8326C2.64068 10.0514 2.64068 10.27 2.64068 10.4888L2.6415 10.488C2.4235 10.4886 2.2053 10.4894 1.9873 10.49C1.9873 10.2704 1.9873 10.0508 1.9873 9.8313Z" fill="#808123"/>
<path d="M11.8211 11.1448C11.6019 11.1448 11.3826 11.145 11.1634 11.145C11.1626 10.9262 11.162 10.7071 11.1612 10.4883C11.1612 10.2716 11.1612 10.0546 11.1612 9.83778C10.9395 9.83778 10.7291 9.83778 10.5088 9.83778C10.5088 10.0568 10.5088 10.2709 10.5088 10.485C10.2902 10.4857 10.0716 10.4865 9.85305 10.4871L9.85425 10.4896C9.85425 10.2724 9.85425 10.0552 9.85425 9.83918C9.62825 9.83918 9.41495 9.83918 9.19635 9.83918C9.19635 10.0601 9.19635 10.2748 9.19635 10.4896L9.19755 10.4871C8.98405 10.4871 8.77065 10.4871 8.54275 10.4871C8.54275 10.7084 8.54275 10.9268 8.54275 11.1452C8.32335 11.1452 8.10415 11.1452 7.88465 11.1452C7.88385 10.9264 7.88325 10.7073 7.88245 10.4885C7.88245 10.2722 7.88245 10.056 7.88245 9.84008C7.66035 9.84008 7.44805 9.84008 7.23355 9.84008C7.23355 10.0609 7.23355 10.2748 7.23355 10.4885C7.23275 10.7073 7.23215 10.9264 7.23125 11.1452C7.01185 11.1452 6.79265 11.1452 6.57315 11.1452C6.57315 10.9313 6.57315 10.7174 6.57315 10.4961C6.35765 10.4961 6.14295 10.4961 5.91985 10.4961C5.91985 10.7127 5.91985 10.929 5.91985 11.1452C5.70125 11.1458 5.48235 11.1462 5.26375 11.1468C5.26275 10.9268 5.26175 10.7065 5.26065 10.4865C5.26065 10.2693 5.26065 10.0521 5.26065 9.83488C5.26065 9.61918 5.26065 9.40368 5.26065 9.17338C5.03635 9.17338 4.82365 9.17338 4.61105 9.17338C4.60955 8.95598 4.60815 8.73838 4.60695 8.52098C5.04365 8.52038 5.47995 8.52038 5.91655 8.51978L5.92145 8.52328C5.92145 8.73978 5.92145 8.95658 5.92145 9.17228C6.14435 9.17228 6.35475 9.17228 6.57465 9.17228C6.57465 8.95328 6.57465 8.73938 6.57465 8.52528C7.01105 8.52348 7.44745 8.52158 7.88385 8.51978C8.32085 8.51978 8.75785 8.51978 9.19515 8.51978L9.20005 8.52328C9.20005 8.73978 9.20005 8.95658 9.20005 9.17228C9.42295 9.17228 9.63335 9.17228 9.85325 9.17228C9.85325 8.95328 9.85325 8.73938 9.85325 8.52528C10.2896 8.52348 10.726 8.52158 11.1624 8.51978C11.3763 8.51978 11.5904 8.51978 11.8221 8.51978C11.8221 8.74658 11.8221 8.96317 11.8221 9.17947C11.8219 9.83427 11.8215 10.4896 11.8211 11.1448Z" fill="white"/>
<path d="M9.8534 8.52519C9.8534 8.73929 9.8534 8.95319 9.8534 9.17219C9.6335 9.17219 9.4231 9.17219 9.2002 9.17219C9.2002 8.95649 9.2002 8.73989 9.2002 8.52319C9.4178 8.52379 9.6356 8.52459 9.8534 8.52519Z" fill="#F4E600"/>
<path d="M6.57507 8.52519C6.57507 8.73929 6.57507 8.95319 6.57507 9.17219C6.35527 9.17219 6.14488 9.17219 5.92188 9.17219C5.92188 8.95649 5.92188 8.73989 5.92188 8.52319C6.13968 8.52379 6.35727 8.52459 6.57507 8.52519Z" fill="#F4E600"/>
<path d="M2.64329 8.51929C2.86046 8.52089 3.07785 8.52229 3.29503 8.52399C3.29564 8.74199 3.29626 8.95999 3.29708 9.17799C3.07928 9.17859 2.86129 9.17939 2.64349 9.17999L2.63693 9.17349C2.63693 8.95769 2.63672 8.74179 2.63672 8.52599L2.64329 8.51929Z" fill="#C0C0BF"/>
<path d="M3.29697 9.17793C3.29636 8.95993 3.29554 8.74193 3.29492 8.52393C3.51435 8.52393 3.73399 8.52393 3.95343 8.52393C3.95343 8.74173 3.95343 8.95953 3.95343 9.17723C3.7342 9.17723 3.51497 9.17703 3.29595 9.17703L3.29697 9.17793Z" fill="#808123"/>
<path d="M3.95358 9.17705C3.95358 8.95925 3.95358 8.74145 3.95358 8.52365C4.17162 8.52265 4.38962 8.52155 4.60742 8.52075C4.60882 8.73815 4.61022 8.95575 4.61152 9.17315L4.60512 9.17985C4.38752 9.17845 4.16972 9.17725 3.95215 9.17575L3.95358 9.17705Z" fill="#C0C0BF"/>
<path d="M8.54181 14.4248C8.54201 14.6414 8.54221 14.8581 8.54241 15.0747C8.32301 15.0761 8.10351 15.0776 7.88411 15.079C7.44771 15.0772 7.01131 15.0753 6.57491 15.0735C6.57491 14.8573 6.57491 14.641 6.57471 14.4248C7.23051 14.4248 7.88621 14.4248 8.54181 14.4248Z" fill="white"/>
<path d="M6.57503 14.4248C6.57503 14.641 6.57503 14.8573 6.57523 15.0735C6.35743 15.0741 6.13983 15.0749 5.92213 15.0755C5.92123 14.8585 5.92023 14.6418 5.91943 14.4248C6.13783 14.4248 6.35643 14.4248 6.57503 14.4248Z" fill="#F4E600"/>
<path d="M2.6367 8.52588C2.6367 8.74168 2.6369 8.95758 2.6369 9.17338C2.42095 9.17338 2.20521 9.17318 1.98926 9.17318C1.98926 8.96008 1.98926 8.74698 1.98926 8.52588C2.21034 8.52588 2.42341 8.52588 2.6367 8.52588Z" fill="white"/>
<path d="M7.23048 13.1091C7.23048 13.3269 7.23028 13.5447 7.23028 13.7623C6.57468 13.7623 5.91878 13.7623 5.26318 13.7623C5.26318 13.5461 5.26318 13.3298 5.26318 13.1136C5.84768 13.1124 6.43218 13.1113 7.01638 13.1101C7.08778 13.1099 7.15918 13.1095 7.23048 13.1091Z" fill="white"/>
<path d="M10.5088 10.4848C10.5088 10.2707 10.5088 10.0566 10.5088 9.83765C10.729 9.83765 10.9395 9.83765 11.1611 9.83765C11.1611 10.0546 11.1611 10.2713 11.1611 10.4881C10.9438 10.4871 10.7264 10.486 10.5088 10.4848Z" fill="#F4E600"/>
<path d="M3.29708 11.1432C3.07928 11.1426 2.86129 11.1418 2.6435 11.1412C2.64289 10.9234 2.64207 10.7056 2.64145 10.4878L2.64062 10.4886C2.85945 10.4884 3.07847 10.488 3.29729 10.4878C3.29688 10.7066 3.29667 10.9254 3.29626 11.1442L3.29708 11.1432Z" fill="#808123"/>
<path d="M5.26142 9.83467C5.26142 10.0519 5.26142 10.2691 5.26142 10.4863C5.04342 10.4867 4.82542 10.4873 4.60742 10.4877L4.60822 10.4885C4.60822 10.2697 4.60822 10.0511 4.60822 9.83228L4.60742 9.83308C4.82542 9.83368 5.04342 9.83427 5.26142 9.83467Z" fill="#808123"/>
<path d="M4.60498 11.1411C4.38718 11.1417 4.16918 11.1425 3.95138 11.1431L3.9522 11.1439C3.95179 10.9251 3.95158 10.7063 3.95117 10.4875C4.16998 10.4877 4.38898 10.4881 4.60788 10.4883L4.60698 10.4875C4.60638 10.7055 4.60558 10.9233 4.60498 11.1411Z" fill="#808123"/>
<path d="M7.23389 10.4883C7.23389 10.2744 7.23389 10.0607 7.23389 9.83984C7.44839 9.83984 7.66059 9.83984 7.88269 9.83984C7.88269 10.0558 7.88269 10.2721 7.88269 10.4883C7.66659 10.4883 7.45019 10.4883 7.23389 10.4883Z" fill="#F4E600"/>
<path d="M9.19629 10.4894C9.19629 10.2746 9.19629 10.0599 9.19629 9.83911C9.41489 9.83911 9.62799 9.83911 9.85419 9.83911C9.85419 10.055 9.85419 10.2722 9.85419 10.4894C9.63499 10.4894 9.41569 10.4894 9.19629 10.4894Z" fill="#292E69"/>
<path d="M3.95133 10.4878C3.95174 10.7066 3.95194 10.9254 3.95235 11.1442C3.73353 11.1442 3.51471 11.1442 3.2961 11.1442C3.29651 10.9254 3.29672 10.7066 3.29713 10.4878L3.2959 10.489C3.51492 10.489 3.73394 10.489 3.95297 10.489L3.95133 10.4878Z" fill="#808181"/>
<path d="M2.64321 9.1798C2.86101 9.1792 3.079 9.1784 3.2968 9.1778L3.29598 9.177C3.29618 9.3958 3.29659 9.6146 3.2968 9.8334C3.07798 9.833 2.85916 9.8328 2.64014 9.8324L2.64096 9.8332C2.64178 9.6154 2.64239 9.3976 2.64321 9.1798Z" fill="#808123"/>
<path d="M2.64014 9.83248C2.85896 9.83288 3.07777 9.83308 3.2968 9.83348L3.29557 9.83228C3.29557 10.0513 3.29557 10.2701 3.29557 10.4891L3.2968 10.4879C3.07798 10.4881 2.85896 10.4885 2.64014 10.4887C2.64014 10.2699 2.64014 10.0511 2.64014 9.83248Z" fill="#808181"/>
<path d="M5.26147 9.8346C5.04347 9.8342 4.82557 9.8336 4.60757 9.8332C4.60687 9.6154 4.60607 9.3976 4.60547 9.1798L4.61187 9.1731C4.82447 9.1731 5.03737 9.1731 5.26147 9.1731C5.26147 9.4034 5.26147 9.6189 5.26147 9.8346Z" fill="#C0C0BF"/>
<path d="M3.29713 9.8333C3.29693 9.6145 3.29652 9.3956 3.29631 9.1768C3.51554 9.1768 3.73457 9.177 3.95379 9.177L3.95236 9.1758C3.95215 9.395 3.95195 9.6141 3.95174 9.8333L3.95297 9.8321C3.73395 9.8321 3.51493 9.8321 3.2959 9.8321L3.29713 9.8333Z" fill="#808181"/>
<path d="M3.95117 9.83328C3.95138 9.61398 3.95158 9.39498 3.95179 9.17578C4.16938 9.17718 4.38718 9.17838 4.60478 9.17988C4.60538 9.39768 4.60618 9.61548 4.60678 9.83328L4.60758 9.83238C4.38898 9.83258 4.17018 9.83308 3.95117 9.83328Z" fill="#808123"/>
<path d="M3.95117 9.83327C4.16998 9.83307 4.38898 9.83268 4.60788 9.83248C4.60788 10.0513 4.60788 10.2699 4.60788 10.4887C4.38898 10.4885 4.16998 10.4881 3.95117 10.4879L3.9524 10.4891C3.9524 10.2701 3.9524 10.0513 3.9524 9.83228L3.95117 9.83327Z" fill="#808181"/>
<path d="M3.62498 10.6248C3.88152 10.6244 4.08914 10.416 4.08864 10.1595C4.08824 9.903 3.87989 9.6954 3.62336 9.6958C3.36682 9.6963 3.15922 9.9046 3.15967 10.1611C3.16012 10.4177 3.36844 10.6253 3.62498 10.6248Z" fill="#808123"/>
</g>
</svg>
