<svg width="21" height="21" viewBox="0 0 21 21" fill="none" xmlns="http://www.w3.org/2000/svg">
<path d="M11.5683 0C13.7387 0 15.9089 0 18.0792 0C18.0792 0.23964 18.0792 0.47906 18.0792 0.72731C18.5685 0.72731 19.0448 0.72731 19.53 0.72731C19.53 0.97148 19.53 1.20682 19.53 1.44669C19.7758 1.44669 20.0127 1.44669 20.2494 1.44669C20.2494 2.17015 20.2494 2.89338 20.2494 3.61684C20.0106 3.61684 19.7721 3.61684 19.5219 3.61684C19.5219 3.86418 19.5219 4.10156 19.5219 4.34143C19.2741 4.34143 19.038 4.34143 18.802 4.34143C18.802 3.85966 18.802 3.3781 18.802 2.897C18.5499 2.897 18.3139 2.897 18.0779 2.897C17.8376 2.897 17.5972 2.897 17.3569 2.897C17.1175 2.897 16.8781 2.897 16.6312 2.897C16.6312 3.14298 16.6312 3.37946 16.6312 3.61616C16.3922 3.61616 16.1535 3.61594 15.9077 3.61594C15.9077 3.86712 15.9077 4.10337 15.9077 4.33962C15.6687 4.33962 15.43 4.3394 15.1843 4.3394C15.1843 4.59058 15.1843 4.82683 15.1843 5.06308C14.9453 5.06308 14.7068 5.06286 14.459 5.06286C14.459 5.31336 14.459 5.54939 14.459 5.78541C14.2191 5.78722 13.9795 5.78903 13.7396 5.79084C13.5002 5.79084 13.2608 5.79084 13.0139 5.79084C13.0139 6.0368 13.0139 6.2733 13.0139 6.51C12.7747 6.51 12.536 6.5098 12.2981 6.5098C12.2981 7.0004 12.2981 7.476 12.2981 7.9587C12.5412 7.9587 12.7776 7.9587 13.0141 7.9587C13.0141 8.1977 13.0139 8.4362 13.0139 8.684C13.2644 8.684 13.5004 8.684 13.7364 8.684C13.7364 8.9232 13.7364 9.1626 13.7364 9.4018C13.4977 9.4018 13.259 9.4018 13.0139 9.4018C13.0139 9.6548 13.0139 9.891 13.0139 10.1273C12.7747 10.1273 12.5355 10.1271 12.295 10.1271C12.295 10.3794 12.295 10.6161 12.295 10.8528C12.295 11.0922 12.295 11.3314 12.295 11.5794C12.0426 11.5794 11.8073 11.5794 11.5692 11.5794C11.5692 11.8252 11.5692 12.0621 11.5692 12.2988C11.3296 12.2988 11.0902 12.2988 10.8406 12.2988C10.8406 11.8087 10.8406 11.3325 10.8406 10.8548C10.5935 10.8548 10.3568 10.8548 10.1201 10.8548C9.8793 10.8548 9.6385 10.8551 9.398 10.8551C9.1585 10.8537 8.9189 10.8521 8.6795 10.8508C8.6788 10.6107 8.6779 10.3708 8.6772 10.1307C8.918 10.1287 9.1585 10.1266 9.3993 10.1244C9.6385 10.1244 9.8777 10.1244 10.1232 10.1244C10.1232 9.8781 10.1232 9.6414 10.1232 9.4047C10.3624 9.4047 10.6014 9.4047 10.8376 9.4047C10.8376 8.9137 10.8376 8.438 10.8376 7.9612C10.5937 7.9612 10.357 7.9612 10.1205 7.9612C9.8802 7.9612 9.6399 7.9612 9.3995 7.9612C9.1603 7.9612 8.9212 7.9612 8.6722 7.9612C8.6722 8.2061 8.6722 8.4423 8.6722 8.6783C8.4339 8.6783 8.1954 8.6783 7.9488 8.6783C7.9488 8.9304 7.9488 9.166 7.9488 9.4018C7.7105 9.4018 7.472 9.4018 7.2253 9.4018C7.2253 9.6539 7.2253 9.8895 7.2253 10.1253C6.987 10.1253 6.7485 10.1253 6.5019 10.1253C6.5019 10.3773 6.5019 10.6129 6.5019 10.8487C6.2613 10.8508 6.0205 10.8528 5.78 10.8548C5.5408 10.8548 5.3016 10.8548 5.0572 10.8548C5.0572 11.101 5.0572 11.3375 5.0572 11.5742C4.8178 11.5742 4.5786 11.5742 4.3378 11.5742C4.3378 11.824 4.3378 12.0605 4.3378 12.297C4.3378 12.5362 4.3378 12.7754 4.3378 13.0243C4.5827 13.0243 4.8189 13.0243 5.0549 13.0243C5.0549 13.2626 5.0549 13.5011 5.0549 13.7478C5.307 13.7478 5.5428 13.7478 5.7784 13.7478C5.7784 13.9872 5.7784 14.2264 5.7784 14.4658C5.5401 14.4658 5.3016 14.4658 5.0549 14.4658C5.0549 14.7179 5.0549 14.9534 5.0549 15.1892C4.816 15.1892 4.5772 15.1892 4.3378 15.1892C4.3378 15.4436 4.3378 15.6801 4.3378 15.9166C4.3365 16.1571 4.3351 16.3977 4.3337 16.6382C4.0932 16.6396 3.85264 16.6409 3.61209 16.6423C3.3729 16.6423 3.13348 16.6423 2.89406 16.6423C2.89406 16.8864 2.89406 17.1211 2.89406 17.3632C3.1371 17.3632 3.37358 17.3632 3.61005 17.3632C3.6105 17.6042 3.61096 17.8452 3.61141 18.0862C3.13144 18.0862 2.65148 18.0862 2.15997 18.0862C2.15997 18.334 2.15997 18.5687 2.15997 18.809C1.91195 18.809 1.67547 18.809 1.43877 18.809C1.43877 18.3284 1.43877 17.8477 1.43877 17.3583C1.68837 17.3583 1.92372 17.3583 2.15748 17.3583C2.15748 16.8729 2.15748 16.3967 2.15748 15.9113C1.9158 15.9113 1.68045 15.9113 1.43651 15.9113C1.43651 15.6672 1.43651 15.4318 1.43651 15.1877C1.19234 15.1877 0.95699 15.1877 0.71305 15.1877C0.71305 14.7023 0.71305 14.2259 0.71305 13.7407C0.46888 13.7407 0.23353 13.7407 0 13.7407C0 12.0499 0 10.3683 0 8.6774C0.24145 8.6774 0.4768 8.6774 0.72074 8.6774C0.72074 8.192 0.72074 7.7157 0.72074 7.2305C0.96491 7.2305 1.20026 7.2305 1.4442 7.2305C1.4442 6.9863 1.4442 6.751 1.4442 6.5068C1.68837 6.5068 1.92372 6.5068 2.16789 6.5068C2.16789 6.2627 2.16789 6.0273 2.16789 5.78337C2.65329 5.78337 3.12963 5.78337 3.61481 5.78337C3.61481 5.5392 3.61481 5.30386 3.61481 5.06014C5.0644 5.06014 6.5052 5.06014 7.9549 5.06014C7.9549 4.57519 7.9549 4.09885 7.9549 3.61367C8.1991 3.61367 8.4344 3.61367 8.6783 3.61367C8.6783 3.12828 8.6783 2.65193 8.6783 2.16676C8.9225 2.16676 9.1579 2.16676 9.4018 2.16676C9.4018 1.92259 9.4018 1.68724 9.4018 1.44307C9.646 1.44307 9.8813 1.44307 10.1255 1.44307C10.1255 1.1989 10.1255 0.96356 10.1255 0.71961C10.6109 0.71961 11.0872 0.71961 11.5683 0.71961C11.5683 0.47363 11.5683 0.2367 11.5683 0Z" fill="#020203"/>
<path d="M19.5249 7.23527C19.7664 7.23477 20.0081 7.23427 20.2495 7.23407C20.2495 7.47537 20.2495 7.71637 20.2495 7.95757C20.0081 7.95707 19.7664 7.95667 19.5249 7.95647L19.5274 7.95887C19.5274 7.71697 19.5274 7.47487 19.5274 7.23297L19.5249 7.23527Z" fill="#020202"/>
<path d="M13.7401 5.79057C13.98 5.78876 14.2196 5.78695 14.4595 5.78513C14.6982 5.78513 14.937 5.78513 15.185 5.78513C15.185 5.5344 15.185 5.29838 15.185 5.06258C15.4235 5.06258 15.6616 5.06281 15.9085 5.06281C15.9085 4.81049 15.9085 4.57492 15.9085 4.33912C16.147 4.33912 16.385 4.33935 16.6319 4.33935C16.6319 4.08703 16.6319 3.85146 16.6319 3.61566C16.8697 3.61566 17.1074 3.61589 17.3574 3.61589C17.3574 3.36629 17.3574 3.1314 17.3574 2.89673C17.5977 2.89673 17.8381 2.89673 18.0784 2.89673C18.0795 3.37873 18.0804 3.86074 18.0816 4.34274C18.0816 4.58193 18.0816 4.8209 18.0816 5.06846C17.5891 5.06846 17.113 5.06846 16.6367 5.06846C16.6367 5.31354 16.6367 5.55024 16.6367 5.78672C16.6367 6.02544 16.6367 6.26424 16.6367 6.50384C16.8802 6.50384 17.1144 6.50384 17.3563 6.50384C17.3563 6.26194 17.3563 6.02614 17.3563 5.79057C17.5971 5.79057 17.8376 5.79034 18.0784 5.79034C18.0791 6.51294 18.0797 7.23544 18.0804 7.95804C17.8412 7.95804 17.6025 7.95774 17.3518 7.95774C17.3518 8.68984 17.3518 9.40334 17.3518 10.1265C16.1393 10.1265 14.9388 10.1265 13.7383 10.1265L13.7397 10.1279C13.7388 9.88554 13.7379 9.64344 13.7372 9.40104C13.7372 9.16184 13.7372 8.92244 13.7372 8.68324C13.7372 8.44454 13.7372 8.20584 13.7372 7.95774C13.4864 7.95774 13.2504 7.95774 13.0146 7.95774C13.0146 7.47484 13.0149 6.99214 13.0149 6.50904C13.2528 6.50904 13.4903 6.50924 13.7403 6.50924C13.7401 6.26014 13.7401 6.02544 13.7401 5.79057Z" fill="white"/>
<path d="M11.5697 12.2985C11.5697 12.0615 11.5697 11.8248 11.5697 11.5791C11.808 11.5791 12.0431 11.5791 12.2954 11.5791C12.2954 11.331 12.2954 11.0916 12.2954 10.8524C12.5328 10.8524 12.7702 10.8524 13.0146 10.8524C13.0146 10.597 13.0146 10.3618 13.0146 10.1267C13.2563 10.1272 13.4977 10.1278 13.7396 10.1285L13.7382 10.1272C13.7382 10.3657 13.7382 10.604 13.7382 10.8515C13.9924 10.8515 14.2282 10.8515 14.464 10.8515C14.464 11.0907 14.464 11.3299 14.464 11.5773C14.7109 11.5773 14.9471 11.5773 15.1834 11.5773C15.1831 12.2989 15.1831 13.0208 15.1829 13.7424C14.9419 13.744 14.7009 13.7454 14.4599 13.747C14.2198 13.7451 13.9799 13.7431 13.7398 13.7413C13.7398 13.5037 13.7398 13.2661 13.7398 13.0237C13.4837 13.0237 13.2483 13.0237 13.013 13.0237C12.7729 13.0221 12.5328 13.0206 12.2927 13.0192C12.2927 12.78 12.2927 12.541 12.2927 12.2962C12.0411 12.2962 11.8046 12.2962 11.5679 12.2962L11.5697 12.2985Z" fill="white"/>
<path d="M1.43848 18.8083C1.67496 18.8083 1.91166 18.8083 2.15968 18.8083C2.15968 18.568 2.15968 18.3331 2.15968 18.0856C2.65096 18.0856 3.13115 18.0856 3.61112 18.0856L3.60999 18.0835C3.60999 18.3229 3.60999 18.5624 3.60999 18.8079C4.10266 18.8079 4.58006 18.8079 5.05786 18.8079C5.05786 19.0471 5.05786 19.2863 5.05786 19.5311C5.54996 19.5311 6.02746 19.5311 6.50496 19.5311C6.50496 19.7705 6.50496 20.01 6.50496 20.255C5.28796 20.255 4.08676 20.255 2.8854 20.255L2.88721 20.2568C2.88721 20.0174 2.88721 19.778 2.88721 19.5277C2.39751 19.5277 1.92184 19.5277 1.44029 19.5277C1.44029 19.2799 1.44029 19.0432 1.44029 18.8065L1.43848 18.8083Z" fill="#2B4B9B"/>
<path d="M10.1203 10.8545C10.357 10.8545 10.5937 10.8545 10.8409 10.8545C10.8409 11.3322 10.8409 11.8083 10.8409 12.2985C11.0905 12.2985 11.3301 12.2985 11.5695 12.2985L11.5677 12.296C11.5673 12.5377 11.5666 12.7791 11.5661 13.0208L11.5675 13.0188C11.0857 13.0199 10.6039 13.021 10.1221 13.0222C10.1221 12.7839 10.1221 12.5454 10.1221 12.2983C9.8685 12.2983 9.6329 12.2983 9.3973 12.2983C9.3973 12.0561 9.3973 11.8142 9.3976 11.5721L9.396 11.5737C9.634 11.5737 9.8721 11.5737 10.1203 11.5737C10.1203 11.3241 10.1203 11.0892 10.1203 10.8545Z" fill="#C0C0BF"/>
<path d="M10.12 7.96094C10.3567 7.96094 10.5932 7.96094 10.8371 7.96094C10.8371 8.43774 10.8371 8.91364 10.8371 9.40444C10.6009 9.40444 10.3619 9.40444 10.1227 9.40444C9.88077 9.40424 9.63887 9.40374 9.39697 9.40354L9.39837 9.40494C9.39837 9.16324 9.39837 8.92174 9.39837 8.68014L9.39697 8.68144C9.63617 8.68144 9.87537 8.68144 10.1198 8.68144C10.12 8.42734 10.12 8.19404 10.12 7.96094Z" fill="#C0C0BF"/>
<path d="M13.0148 6.50952C13.0148 6.99242 13.0148 7.47532 13.0148 7.95842C12.7783 7.95842 12.542 7.95842 12.2988 7.95842C12.2988 7.47572 12.2988 7.00032 12.2988 6.50952C12.5366 6.50952 12.7756 6.50952 13.0148 6.50952Z" fill="#C0C0BF"/>
<path d="M18.0813 4.34299C18.0802 3.86098 18.0793 3.37898 18.0781 2.89697C18.3141 2.89697 18.5502 2.89697 18.8023 2.89697C18.8023 3.37807 18.8023 3.85962 18.8023 4.3414L18.8048 4.33959C18.5635 4.34095 18.3223 4.34208 18.0813 4.34299Z" fill="#C0C0BF"/>
<path d="M13.0146 10.1267C13.0146 10.3618 13.0146 10.597 13.0146 10.8524C12.7704 10.8524 12.5328 10.8524 12.2954 10.8524C12.2954 10.6157 12.2954 10.379 12.2954 10.1267C12.536 10.1267 12.7752 10.1267 13.0146 10.1267Z" fill="#C0C0BF"/>
<path d="M16.6318 3.61597C16.6318 3.85154 16.6318 4.08734 16.6318 4.33965C16.385 4.33965 16.1467 4.33965 15.9082 4.33965C15.9082 4.1034 15.9082 3.86715 15.9082 3.61597C16.1539 3.61597 16.3929 3.61597 16.6318 3.61597Z" fill="#C0C0BF"/>
<path d="M5.05713 11.5739C5.05713 11.3374 5.05713 11.1007 5.05713 10.8545C5.30153 10.8545 5.54073 10.8545 5.77993 10.8545C5.78063 11.0946 5.78103 11.3349 5.78173 11.575C5.54053 11.575 5.29923 11.575 5.05823 11.5748L5.05713 11.5739Z" fill="white"/>
<path d="M5.78158 11.575C5.78088 11.3349 5.78049 11.0946 5.77979 10.8545C6.02029 10.8524 6.26109 10.8504 6.50169 10.8484L6.50958 10.8563C6.50798 11.0959 6.50638 11.3356 6.50508 11.575C6.26338 11.5745 6.02188 11.5741 5.78018 11.5736L5.78158 11.575Z" fill="#C0C0BF"/>
<path d="M8.67949 10.8503C8.91889 10.8517 9.15859 10.8533 9.39799 10.8546C9.39729 11.0943 9.39659 11.3341 9.39569 11.5738L9.39729 11.5722C9.15629 11.5729 8.91549 11.5735 8.67449 11.5742C8.67339 11.335 8.67249 11.0958 8.67139 10.8564L8.67949 10.8503Z" fill="#2B4B9B"/>
<path d="M9.396 11.5739C9.3967 11.3342 9.3973 11.0943 9.3982 10.8547C9.639 10.8547 9.8798 10.8545 10.1203 10.8545C10.1203 11.0894 10.1203 11.3243 10.1203 11.5739C9.8723 11.5739 9.634 11.5739 9.396 11.5739Z" fill="white"/>
<path d="M8.67728 10.1302C8.67798 10.3703 8.67888 10.6102 8.67958 10.8503L8.67168 10.8564C8.43138 10.8548 8.19098 10.8532 7.95068 10.8517C7.95118 10.61 7.95158 10.3685 7.95208 10.1268L7.95068 10.1282C8.19038 10.1262 8.42998 10.1244 8.66958 10.1223L8.67728 10.1302Z" fill="#C0C0BF"/>
<path d="M4.3374 12.2964C4.3374 12.06 4.3374 11.8235 4.3374 11.5737C4.5782 11.5737 4.8174 11.5737 5.0568 11.5737L5.0579 11.5748C5.0579 11.816 5.0579 12.0572 5.0582 12.2983C4.8178 12.2976 4.5775 12.2971 4.3374 12.2964Z" fill="white"/>
<path d="M6.50146 10.8483C6.50146 10.6127 6.50146 10.3769 6.50146 10.1248C6.74806 10.1248 6.98666 10.1248 7.22486 10.1248L7.23286 10.1327C7.23126 10.3724 7.22966 10.612 7.22826 10.8514C6.98866 10.853 6.74906 10.8546 6.50956 10.856L6.50146 10.8483Z" fill="#C0C0BF"/>
<path d="M4.3374 12.2964C4.5775 12.2971 4.8178 12.2976 5.0579 12.2982L5.0566 12.2969C5.0586 12.5365 5.0604 12.7762 5.0625 13.0158L5.0545 13.0237C4.8183 13.0237 4.5823 13.0237 4.3374 13.0237C4.3374 12.7748 4.3374 12.5356 4.3374 12.2964Z" fill="#C0C0BF"/>
<path d="M13.7394 10.1282C13.4977 10.1278 13.2561 10.1273 13.0142 10.1266C13.0142 9.89042 13.0142 9.65432 13.0142 9.40112C13.2592 9.40112 13.498 9.40112 13.7367 9.40112C13.7378 9.64372 13.7385 9.88612 13.7394 10.1282Z" fill="#C0C0BF"/>
<path d="M5.77809 13.7473C5.54259 13.7473 5.30679 13.7473 5.05469 13.7473C5.05469 13.5007 5.05469 13.2624 5.05469 13.0239L5.06259 13.0159C5.30229 13.0175 5.54189 13.0191 5.78149 13.0205C5.78309 13.2601 5.78469 13.4997 5.78609 13.7392L5.77809 13.7473Z" fill="#C0C0BF"/>
<path d="M9.39746 9.40356C9.63936 9.40386 9.88126 9.40426 10.1232 9.40446C10.1232 9.64116 10.1232 9.87766 10.1232 10.1241C9.87786 10.1241 9.63866 10.1241 9.39926 10.1241C9.39876 9.88376 9.39806 9.64366 9.39746 9.40356Z" fill="white"/>
<path d="M17.357 2.89697C17.357 3.13164 17.357 3.36631 17.357 3.61613C17.1069 3.61613 16.8691 3.61613 16.6313 3.61613C16.6313 3.37966 16.6313 3.14295 16.6313 2.89697C16.8782 2.89697 17.1176 2.89697 17.357 2.89697Z" fill="#C0C0BF"/>
<path d="M9.39763 9.40356C9.39833 9.64366 9.39883 9.88396 9.39943 10.1241C9.15873 10.1262 8.91813 10.1282 8.67733 10.1305L8.66943 10.1226C8.67143 9.88286 8.67353 9.64326 8.67533 9.40356L8.67393 9.40496C8.91563 9.40496 9.15713 9.40496 9.39883 9.40496L9.39763 9.40356Z" fill="#C0C0BF"/>
<path d="M5.77832 14.4654C5.77832 14.226 5.77832 13.9868 5.77832 13.7474L5.78632 13.7395C6.02592 13.7411 6.26562 13.7426 6.50522 13.744C6.50522 13.9855 6.50522 14.2271 6.50522 14.4686C6.26562 14.4702 6.02592 14.4718 5.78632 14.4731L5.77832 14.4654Z" fill="#C0C0BF"/>
<path d="M7.2251 10.1249C7.2251 9.88927 7.2251 9.65347 7.2251 9.40137C7.4718 9.40137 7.7103 9.40137 7.9486 9.40137L7.9565 9.40937C7.9544 9.64897 7.9526 9.88857 7.9506 10.1283L7.952 10.1269C7.7123 10.129 7.4727 10.1308 7.233 10.1328L7.2251 10.1249Z" fill="#C0C0BF"/>
<path d="M5.05469 15.1886C5.05469 14.953 5.05469 14.7172 5.05469 14.4651C5.30139 14.4651 5.53989 14.4651 5.77819 14.4651L5.78609 14.473C5.78449 14.7127 5.78289 14.9523 5.78159 15.1917C5.54189 15.1933 5.30229 15.1949 5.06269 15.1963L5.05469 15.1886Z" fill="#C0C0BF"/>
<path d="M7.94873 9.40148C7.94873 9.16588 7.94873 8.93008 7.94873 8.67798C8.19533 8.67798 8.43393 8.67798 8.67213 8.67798L8.68013 8.68588C8.67803 8.92558 8.67623 9.16518 8.67423 9.40488L8.67553 9.40348C8.43593 9.40548 8.19633 9.40728 7.95663 9.40938L7.94873 9.40148Z" fill="#C0C0BF"/>
<path d="M4.3374 15.916C4.3374 15.6795 4.3374 15.443 4.3374 15.1887C4.5768 15.1887 4.8158 15.1887 5.0545 15.1887L5.0625 15.1966C5.0609 15.4362 5.0593 15.6759 5.0579 15.9155C4.8178 15.9157 4.5777 15.9157 4.3374 15.916Z" fill="#C0C0BF"/>
<path d="M4.3376 15.9159C4.5777 15.9157 4.818 15.9154 5.0581 15.9152L5.0567 15.9138C5.0572 16.1555 5.0576 16.397 5.0581 16.6387C4.8169 16.6387 4.5756 16.6387 4.3346 16.6384L4.3335 16.6373C4.3349 16.397 4.3362 16.1564 4.3376 15.9159Z" fill="white"/>
<path d="M13.0142 7.95801C13.25 7.95801 13.486 7.95801 13.7367 7.95801C13.7367 8.20581 13.7367 8.44481 13.7367 8.68351C13.5007 8.68351 13.2647 8.68351 13.0142 8.68351C13.0142 8.43601 13.0142 8.19701 13.0142 7.95801Z" fill="#C0C0BF"/>
<path d="M3.61003 17.3626C3.37355 17.3626 3.13708 17.3626 2.89404 17.3626C2.89404 17.1207 2.89404 16.8858 2.89404 16.6416C3.13346 16.6416 3.37265 16.6416 3.61207 16.6416C3.61139 16.8819 3.61071 17.1222 3.61003 17.3626Z" fill="#C0C0BF"/>
<path d="M3.60996 17.3626C3.61064 17.1222 3.61132 16.8819 3.612 16.6416C3.85255 16.6402 4.09312 16.6389 4.33362 16.6375L4.33482 16.6385C4.33482 16.8798 4.33482 17.1211 4.33502 17.3621C4.09332 17.3621 3.85164 17.3624 3.60996 17.3626Z" fill="white"/>
<path d="M10.1202 7.96094C10.1202 8.19424 10.1202 8.42754 10.1202 8.68144C9.87556 8.68144 9.63666 8.68144 9.39746 8.68144C9.39806 8.44134 9.39856 8.20104 9.39926 7.96094C9.63956 7.96094 9.87986 7.96094 10.1202 7.96094Z" fill="white"/>
<path d="M3.60986 17.3622C3.85154 17.3622 4.09324 17.3622 4.33494 17.362L4.33354 17.3606C4.33424 17.6007 4.33494 17.8411 4.33534 18.0812C4.09364 18.0818 3.85199 18.0827 3.61009 18.0834L3.61122 18.0855C3.61099 17.8445 3.61054 17.6032 3.60986 17.3622Z" fill="#C0C0BF"/>
<path d="M9.39917 7.96094C9.39847 8.20104 9.39808 8.44134 9.39738 8.68144L9.39878 8.68014C9.15908 8.68214 8.91948 8.68394 8.67978 8.68594L8.67188 8.67804C8.67188 8.44204 8.67188 8.20574 8.67188 7.96094C8.92077 7.96094 9.15997 7.96094 9.39917 7.96094Z" fill="#C0C0BF"/>
<path d="M15.9083 4.33936C15.9083 4.57493 15.9083 4.81072 15.9083 5.06304C15.6614 5.06304 15.4232 5.06304 15.1846 5.06304C15.1846 4.82679 15.1846 4.59054 15.1846 4.33936C15.4304 4.33936 15.6694 4.33936 15.9083 4.33936Z" fill="#C0C0BF"/>
<path d="M13.7399 5.79053C13.7399 6.02521 13.7399 6.25991 13.7399 6.50971C13.4899 6.50971 13.252 6.50971 13.0142 6.50971C13.0142 6.27321 13.0142 6.03651 13.0142 5.79053C13.2611 5.79053 13.5005 5.79053 13.7399 5.79053Z" fill="#C0C0BF"/>
<path d="M15.1845 5.06299C15.1845 5.29878 15.1845 5.53481 15.1845 5.78554C14.9367 5.78554 14.6978 5.78554 14.459 5.78554C14.459 5.54952 14.459 5.31349 14.459 5.06299C14.7068 5.06299 14.9458 5.06299 15.1845 5.06299Z" fill="#C0C0BF"/>
<path d="M10.1222 13.0222C10.604 13.021 11.0857 13.0199 11.5675 13.0188C11.5671 13.2598 11.5668 13.5005 11.5664 13.7415C11.3281 13.7415 11.0898 13.7415 10.8474 13.7415C10.8474 13.9945 10.8474 14.2301 10.8474 14.4657C10.8474 14.7046 10.8474 14.9438 10.8474 15.1891C11.5813 15.1891 12.2996 15.1891 13.0176 15.1891C13.257 15.1891 13.4967 15.1891 13.7361 15.1891C14.9424 15.1898 16.1486 15.1903 17.355 15.1909L17.357 15.193C17.357 15.4297 17.357 15.6664 17.357 15.9078C17.3369 15.9108 17.323 15.9149 17.309 15.9149C14.9128 15.9146 12.5166 15.9144 10.1201 15.914L10.1226 15.9164C10.1226 14.9518 10.1222 13.9869 10.1222 13.0222Z" fill="#020203"/>
<path d="M2.88574 20.2549C4.08694 20.2549 5.28804 20.2549 6.50534 20.2549C6.50534 20.0099 6.50534 19.7704 6.50534 19.531L6.50414 19.5319C6.74494 19.5308 6.98554 19.5294 7.22624 19.5283C7.46814 19.5292 7.71004 19.5301 7.95224 19.531C7.95224 19.7702 7.95224 20.0096 7.95224 20.2554C8.44394 20.2554 8.92124 20.2554 9.39864 20.2554C9.39864 20.4924 9.39824 20.7286 9.39824 20.9721C7.22924 20.9721 5.06494 20.9721 2.88574 20.9721C2.88574 20.734 2.88574 20.4944 2.88574 20.2549Z" fill="#020203"/>
<path d="M10.1203 15.9136C10.1203 16.1501 10.1203 16.3866 10.1203 16.6348C9.64046 16.6348 9.16206 16.6348 8.67326 16.6348C8.67326 17.1263 8.67326 17.6063 8.67326 18.086L8.67506 18.0842C8.43566 18.0842 8.19646 18.0842 7.94806 18.0842C7.94806 17.595 7.94806 17.122 7.94806 16.6384C7.46126 16.6384 6.98376 16.6384 6.50656 16.6384C6.50636 16.3972 6.50606 16.1562 6.50586 15.915C7.71156 15.9152 8.91706 15.9156 10.1227 15.9159L10.1203 15.9136Z" fill="#020203"/>
<path d="M15.1833 11.5769C14.9471 11.5769 14.7108 11.5769 14.4639 11.5769C14.4639 11.3296 14.4639 11.0904 14.4639 10.8512C15.6696 10.8514 16.8751 10.8519 18.0808 10.8521L18.0783 10.8496C18.0783 11.0861 18.0783 11.3226 18.0783 11.5708C17.5986 11.5708 17.1204 11.5708 16.6314 11.5708C16.6314 12.0623 16.6314 12.5423 16.6314 13.022L16.6332 13.0202C16.3942 13.0202 16.1553 13.0202 15.9045 13.0202C15.9045 12.5303 15.9045 12.0553 15.9045 11.5767C15.6561 11.5769 15.4198 11.5769 15.1833 11.5769Z" fill="#020203"/>
<path d="M19.525 7.9563C19.525 8.1928 19.525 8.4295 19.525 8.6746C19.2886 8.6746 19.0534 8.6746 18.8072 8.6746C18.8072 9.4021 18.8072 10.1211 18.8072 10.8499C18.5567 10.8499 18.3175 10.8499 18.0781 10.8499L18.0806 10.8524C18.0806 9.8877 18.0804 8.9231 18.0804 7.9584C18.5628 7.9584 19.0451 7.9588 19.5275 7.9588L19.525 7.9563Z" fill="#020203"/>
<path d="M1.44053 18.8064C1.44053 19.0432 1.44053 19.2796 1.44053 19.5276C1.92185 19.5276 2.39775 19.5276 2.88745 19.5276C2.88745 19.7782 2.88745 20.0173 2.88745 20.2568C2.16829 20.2568 1.44913 20.2568 0.723633 20.2568C0.723633 19.7739 0.723633 19.2975 0.723633 18.8064C0.961243 18.8064 1.20088 18.8064 1.44053 18.8064Z" fill="#020203"/>
<path d="M9.39795 18.8086C9.63495 18.8086 9.87165 18.8086 10.1176 18.8086C10.1176 19.0482 10.1176 19.2836 10.1176 19.5277C10.3617 19.5277 10.5971 19.5277 10.8385 19.5277C10.8385 19.7719 10.8385 20.007 10.8385 20.2548C10.3592 20.2548 9.87865 20.2548 9.39795 20.2548C9.39795 19.7723 9.39795 19.291 9.39795 18.8086Z" fill="#020203"/>
<path d="M17.357 13.7432C17.5937 13.7432 17.8302 13.7432 18.0757 13.7432C18.0757 13.9849 18.0757 14.22 18.0757 14.464C18.3195 14.464 18.5548 14.464 18.7963 14.464C18.7963 14.7079 18.7963 14.943 18.7963 15.1924C18.3177 15.1924 17.8372 15.1924 17.357 15.1924L17.355 15.1904C17.355 14.7086 17.355 14.227 17.355 13.7453L17.357 13.7432Z" fill="#020203"/>
<path d="M16.6313 13.0224C16.8683 13.0224 17.1052 13.0224 17.3573 13.0224C17.3573 13.2645 17.3573 13.5039 17.3573 13.7433L17.3552 13.7454C17.1142 13.7442 16.873 13.7431 16.632 13.742C16.6325 13.5014 16.6329 13.2609 16.6334 13.0203L16.6313 13.0224Z" fill="#020203"/>
<path d="M8.67334 18.086C8.91194 18.086 9.15044 18.086 9.39774 18.086C9.39774 18.3318 9.39774 18.5701 9.39774 18.8086C9.15624 18.8089 8.91524 18.8088 8.67384 18.809C8.67424 18.5674 8.67474 18.3259 8.67514 18.0842L8.67334 18.086Z" fill="#020203"/>
<path d="M18.081 4.34301C18.3223 4.34188 18.5633 4.34075 18.8045 4.33984C18.8034 4.82275 18.8025 5.30544 18.8013 5.78835L18.8038 5.78586C18.5619 5.78744 18.3198 5.78902 18.0779 5.79061C17.8371 5.79061 17.5965 5.79083 17.3558 5.79083C17.1159 5.78948 16.876 5.78835 16.6362 5.78699C16.6362 5.55029 16.6362 5.31381 16.6362 5.06873C17.1127 5.06873 17.5888 5.06873 18.081 5.06873C18.081 4.8214 18.081 4.5822 18.081 4.34301Z" fill="#020203"/>
<path d="M18.8013 5.7884C19.0376 5.7884 19.2738 5.7884 19.5248 5.7884C19.5248 6.27133 19.5248 6.75333 19.5248 7.23533L19.5273 7.23283C19.2885 7.23283 19.0498 7.23283 18.8038 7.23283C18.8038 6.74403 18.8038 6.26493 18.8038 5.78613L18.8013 5.7884Z" fill="#020203"/>
<path d="M18.8041 5.78589C18.8041 6.26493 18.8041 6.74403 18.8041 7.23253C19.0501 7.23253 19.2888 7.23253 19.5275 7.23253C19.5275 7.47453 19.5275 7.71663 19.5275 7.95853C19.0451 7.95853 18.5626 7.95833 18.0802 7.95833C18.0795 7.23573 18.0788 6.51323 18.0781 5.79064C18.32 5.78906 18.5622 5.78747 18.8041 5.78589Z" fill="#C0C0BF"/>
<path d="M18.0802 7.95801C18.0802 8.92271 18.0804 9.88741 18.0804 10.8521C16.8747 10.8519 15.6692 10.8514 14.4636 10.8512C14.2278 10.8512 13.992 10.8512 13.7378 10.8512C13.7378 10.6036 13.7378 10.3651 13.7378 10.1268C14.9383 10.1268 16.1386 10.1268 17.3513 10.1268C17.3513 9.40381 17.3513 8.69031 17.3513 7.95801C17.602 7.95801 17.841 7.95801 18.0802 7.95801Z" fill="#C0C0BF"/>
<path d="M16.6362 5.78711C16.8761 5.78847 17.1159 5.7896 17.3558 5.79096C17.3558 6.02678 17.3558 6.26228 17.3558 6.50428C17.1139 6.50428 16.8795 6.50428 16.6362 6.50428C16.6362 6.26458 16.6362 6.02588 16.6362 5.78711Z" fill="#2B4B9B"/>
<path d="M16.6319 13.7421C16.8729 13.7432 17.1142 13.7444 17.3552 13.7455C17.3552 14.2273 17.3552 14.7088 17.3552 15.1906C16.1488 15.1899 14.9426 15.1895 13.7363 15.1888C13.7363 14.951 13.7363 14.7131 13.7363 14.4671C13.4855 14.4671 13.25 14.4671 13.0146 14.4671L13.0162 14.4687C13.0158 14.2275 13.0153 13.9863 13.0149 13.7453L13.0164 13.7437C13.2577 13.7428 13.4989 13.7419 13.7401 13.741C13.9802 13.7428 14.2201 13.7448 14.4602 13.7466C14.4602 13.9851 14.4602 14.2237 14.4602 14.4644C14.713 14.4644 14.9488 14.4644 15.1845 14.4644C15.424 14.4644 15.6632 14.4644 15.9125 14.4644C15.9125 14.2187 15.9125 13.9867 15.9125 13.7419C16.159 13.7421 16.3954 13.7421 16.6319 13.7421Z" fill="#801810"/>
<path d="M16.6318 13.7421C16.3953 13.7421 16.1591 13.7421 15.9122 13.7421C15.9122 13.9869 15.9122 14.2189 15.9122 14.4646C15.6628 14.4646 15.4234 14.4646 15.1842 14.4646C15.1838 14.2239 15.1833 13.9831 15.1826 13.7423C15.1829 13.0207 15.1829 12.2988 15.1831 11.5771C15.4193 11.5771 15.6558 11.5771 15.9043 11.5771C15.9043 12.0558 15.9043 12.5307 15.9043 13.0207C16.1552 13.0207 16.394 13.0207 16.633 13.0207C16.6327 13.261 16.6323 13.5015 16.6318 13.7421Z" fill="#808181"/>
<path d="M11.5666 13.7414C11.5671 13.5004 11.5673 13.2596 11.5677 13.0186L11.5664 13.0207C11.8085 13.02 12.0507 13.0193 12.2928 13.0189C12.5329 13.0205 12.773 13.022 13.0131 13.0234C13.0142 13.2635 13.0153 13.5036 13.0162 13.7437L13.0147 13.7453C12.532 13.7439 12.0493 13.7426 11.5666 13.7414Z" fill="#801810"/>
<path d="M12.2928 13.0187C12.0507 13.0194 11.8085 13.0201 11.5664 13.0205C11.5668 12.7789 11.5675 12.5374 11.568 12.2957C11.8047 12.2957 12.0414 12.2957 12.2928 12.2957C12.2928 12.5406 12.2928 12.7798 12.2928 13.0187Z" fill="#020203"/>
<path d="M13.0159 13.7437C13.0148 13.5036 13.0136 13.2635 13.0127 13.0234C13.2481 13.0234 13.4837 13.0234 13.7396 13.0234C13.7396 13.266 13.7396 13.5034 13.7396 13.741C13.4984 13.7419 13.2571 13.7428 13.0159 13.7437Z" fill="#C0C0BF"/>
<path d="M15.1827 13.7422C15.1832 13.983 15.1836 14.2238 15.1843 14.4646C14.9485 14.4646 14.7127 14.4646 14.46 14.4646C14.46 14.2236 14.46 13.9851 14.46 13.7468C14.7007 13.7452 14.9417 13.7436 15.1827 13.7422Z" fill="#C0C0BF"/>
<path d="M6.50493 19.5311C6.02743 19.5311 5.54993 19.5311 5.05773 19.5311C5.05773 19.2865 5.05773 19.0471 5.05773 18.8079C5.29843 18.8065 5.53863 18.8061 5.77963 18.8047C6.02043 18.8068 6.26093 18.8088 6.50153 18.8111C6.50223 19.0514 6.50283 19.2919 6.50373 19.5323L6.50493 19.5311Z" fill="#020203"/>
<path d="M3.61035 18.0835C3.85203 18.0829 4.09374 18.0819 4.33564 18.0813C4.57614 18.0826 4.81674 18.084 5.05724 18.0853C5.05724 18.3263 5.05754 18.5673 5.05754 18.8083C4.58014 18.8083 4.10294 18.8077 3.61035 18.8077C3.61035 18.5624 3.61035 18.3229 3.61035 18.0835Z" fill="#020203"/>
<path d="M8.67522 11.5743C8.91622 11.5736 9.15702 11.573 9.39802 11.5723C9.39802 11.8144 9.39802 12.0563 9.39772 12.2984L9.39912 12.2971C9.15742 12.2975 8.91602 12.298 8.67432 12.2984C8.67452 12.0572 8.67502 11.8155 8.67522 11.5743Z" fill="white"/>
<path d="M9.39746 12.2985C9.63296 12.2985 9.86856 12.2985 10.1223 12.2985C10.1223 12.5456 10.1223 12.7839 10.1223 13.0224C9.88056 13.0224 9.63906 13.0221 9.39746 13.0219C9.39786 12.7802 9.39836 12.5388 9.39876 12.2971L9.39746 12.2985Z" fill="white"/>
<path d="M8.68022 8.68608C8.91982 8.68408 9.15942 8.68228 9.39912 8.68018C9.39912 8.92188 9.39912 9.16338 9.39912 9.40508C9.15742 9.40508 8.91602 9.40508 8.67432 9.40508C8.67612 9.16538 8.67812 8.92578 8.68022 8.68608Z" fill="white"/>
<path d="M5.05824 12.2983C5.05824 12.057 5.05824 11.8158 5.05804 11.5748C5.29924 11.5748 5.54044 11.5748 5.78144 11.575L5.78014 11.5737C5.78054 11.8153 5.78104 12.0568 5.78144 12.2985C5.53984 12.298 5.29834 12.2976 5.05664 12.2971L5.05824 12.2983Z" fill="#C0C0BF"/>
<path d="M6.50952 10.8562C6.74922 10.8546 6.98882 10.853 7.22822 10.8517L7.22692 10.8503C7.22732 11.092 7.22782 11.3334 7.22822 11.5751C6.98662 11.5747 6.74512 11.5742 6.50342 11.5738L6.50482 11.5751C6.50662 11.3353 6.50822 11.0958 6.50952 10.8562Z" fill="white"/>
<path d="M5.78157 12.2984C5.78117 12.0567 5.78067 11.8152 5.78027 11.5735C6.02187 11.574 6.26337 11.5745 6.50507 11.5749L6.50367 11.5735C6.50417 11.8152 6.50457 12.0567 6.50507 12.2984C6.26337 12.2979 6.02187 12.2975 5.78027 12.297L5.78157 12.2984Z" fill="white"/>
<path d="M7.95039 10.8517C8.19079 10.8533 8.4311 10.8548 8.6714 10.8564C8.6725 11.0956 8.67349 11.335 8.67459 11.5742C8.43339 11.5744 8.1917 11.5749 7.9502 11.5751C7.9507 11.3334 7.9511 11.092 7.9516 10.8503L7.95039 10.8517Z" fill="white"/>
<path d="M7.23295 10.1326C7.47255 10.1306 7.71215 10.1288 7.95185 10.1267C7.95135 10.3684 7.95095 10.6099 7.95045 10.8515L7.95185 10.8502C7.71015 10.8502 7.46875 10.8502 7.22705 10.8502L7.22835 10.8515C7.22995 10.6119 7.23135 10.3723 7.23295 10.1326Z" fill="white"/>
<path d="M7.95648 9.40922C8.19618 9.40712 8.43578 9.40532 8.67548 9.40332C8.67338 9.64292 8.67158 9.88262 8.66958 10.1222C8.42998 10.1243 8.19028 10.1261 7.95068 10.1281C7.95268 9.88852 7.95448 9.64882 7.95648 9.40922Z" fill="white"/>
<path d="M5.05664 12.2971C5.29824 12.2975 5.53974 12.298 5.78144 12.2985L5.78004 12.2971C5.78004 12.5388 5.78004 12.7802 5.78004 13.0219L5.78144 13.0206C5.54174 13.019 5.30214 13.0174 5.06244 13.016C5.06064 12.7764 5.05864 12.5367 5.05664 12.2971Z" fill="white"/>
<path d="M6.50507 13.744C6.26537 13.7424 6.02577 13.7409 5.78607 13.7395C5.78457 13.4999 5.78297 13.2602 5.78157 13.0208L5.78027 13.0221C6.02187 13.0217 6.26337 13.0212 6.50507 13.0208C6.50457 13.2625 6.50417 13.5039 6.50367 13.7456L6.50507 13.744Z" fill="white"/>
<path d="M6.50521 14.4685C6.50521 14.227 6.50521 13.9854 6.50521 13.7439L6.50391 13.7453C6.74551 13.7448 6.98701 13.7443 7.22871 13.7439C7.22871 13.9854 7.22871 14.227 7.22871 14.4685C6.98701 14.468 6.74551 14.4676 6.50391 14.4671L6.50521 14.4685Z" fill="white"/>
<path d="M5.78157 15.1919C5.78317 14.9522 5.78477 14.7126 5.78607 14.4732C6.02577 14.4716 6.26537 14.47 6.50507 14.4686L6.50367 14.4673C6.50367 14.7056 6.50367 14.9438 6.50367 15.1907C6.25137 15.1907 6.01577 15.1907 5.78027 15.1907L5.78157 15.1919Z" fill="white"/>
<path d="M5.05794 15.9155C5.05954 15.6759 5.06114 15.4362 5.06244 15.1966C5.30214 15.195 5.54174 15.1934 5.78144 15.1921L5.78004 15.1907C5.78054 15.4324 5.78094 15.6738 5.78144 15.9155C5.53974 15.9151 5.29824 15.9146 5.05664 15.9142L5.05794 15.9155Z" fill="white"/>
<path d="M5.05664 15.9141C5.29824 15.9145 5.53974 15.915 5.78144 15.9154L5.78004 15.9141C5.78054 16.1557 5.78094 16.3972 5.78144 16.6389C5.53974 16.6384 5.29824 16.638 5.05664 16.6375L5.05794 16.6389C5.05754 16.3972 5.05704 16.1555 5.05664 15.9141Z" fill="#C0C0BF"/>
<path d="M4.33461 17.3621C4.33461 17.1209 4.33461 16.8795 4.33441 16.6385C4.57561 16.6385 4.81681 16.6386 5.05781 16.6389L5.05651 16.6375C5.05691 16.8792 5.05741 17.1206 5.05781 17.3623C4.81611 17.3619 4.57471 17.3614 4.33301 17.361L4.33461 17.3621Z" fill="#C0C0BF"/>
<path d="M4.3335 17.3606C4.5751 17.3611 4.8166 17.3616 5.0583 17.362L5.0569 17.3606C5.0574 17.6019 5.0578 17.8431 5.058 18.0843L5.0569 18.0855C4.8164 18.0841 4.5758 18.0828 4.3353 18.0814C4.3348 17.8411 4.3341 17.601 4.3335 17.3606Z" fill="white"/>
<path d="M5.78157 15.9155C5.78117 15.6738 5.78067 15.4324 5.78027 15.1907C6.01577 15.1907 6.25137 15.1907 6.50367 15.1907C6.50367 14.9438 6.50367 14.7055 6.50367 14.4673C6.74537 14.4677 6.98677 14.4682 7.22847 14.4686L7.22717 14.4673C7.22717 14.706 7.22717 14.945 7.22717 15.1832C7.47807 15.1832 7.70917 15.1832 7.95197 15.1832C7.95197 14.9393 7.95197 14.7033 7.95197 14.4673L7.95057 14.4686C8.19227 14.4682 8.43377 14.4677 8.67537 14.4673C8.67537 14.7062 8.67537 14.9454 8.67537 15.1826C8.92597 15.1826 9.15737 15.1826 9.39047 15.1826C9.39047 14.9422 9.39047 14.711 9.39047 14.4686C9.14677 14.4686 8.91027 14.4686 8.67407 14.4686C8.67407 14.2269 8.67407 13.9855 8.67427 13.7438C8.91257 13.7438 9.15087 13.7438 9.39907 13.7438C9.39907 13.4915 9.39907 13.2559 9.39907 13.0203L9.39777 13.0217C9.63947 13.0217 9.88107 13.0217 10.1228 13.0219C10.1228 13.9866 10.123 14.9513 10.123 15.916C8.91737 15.9158 7.71187 15.9153 6.50617 15.9151C6.26427 15.9146 6.02237 15.9144 5.78047 15.9139L5.78157 15.9155Z" fill="#C0C0BF"/>
<path d="M13.0179 15.1888C12.2996 15.1888 11.5816 15.1888 10.8477 15.1888C10.8477 14.9435 10.8477 14.7045 10.8477 14.4653C11.5705 14.4665 12.2935 14.4676 13.0163 14.4685L13.0147 14.4669C13.0158 14.7077 13.0168 14.9482 13.0179 15.1888Z" fill="#801810"/>
<path d="M13.0163 14.4688C12.2935 14.4677 11.5705 14.4666 10.8477 14.4657C10.8477 14.2301 10.8477 13.9947 10.8477 13.7415C11.0903 13.7415 11.3286 13.7415 11.5667 13.7415C12.0494 13.7427 12.532 13.744 13.0147 13.7451C13.0154 13.9864 13.0158 14.2276 13.0163 14.4688Z" fill="#E52521"/>
<path d="M13.0178 15.1887C13.0167 14.9481 13.0155 14.7076 13.0146 14.467C13.25 14.467 13.4855 14.467 13.7363 14.467C13.7363 14.713 13.7363 14.9508 13.7363 15.1887C13.4969 15.1887 13.2572 15.1887 13.0178 15.1887Z" fill="#E52521"/>
<path d="M8.67545 18.0841C8.67505 18.3258 8.67455 18.5673 8.67415 18.8089L8.67575 18.8078C8.43675 18.8078 8.19755 18.8078 7.95065 18.8078C7.95065 19.0601 7.95065 19.2964 7.95065 19.5329L7.95185 19.5313C7.70985 19.5304 7.46795 19.5295 7.22585 19.5286C7.22545 19.2878 7.22515 19.047 7.22475 18.8062C7.22475 18.5666 7.22475 18.3269 7.22475 18.0873C7.22475 17.8492 7.22475 17.6109 7.22475 17.3582C6.97765 17.3582 6.74245 17.3582 6.50765 17.3582C6.50445 17.1172 6.50125 16.8762 6.49805 16.6354L6.50355 16.6338L6.50625 16.6388C6.98375 16.6388 7.46095 16.6388 7.94775 16.6388C7.94775 17.1224 7.94775 17.5953 7.94775 18.0846C8.19685 18.0841 8.43605 18.0841 8.67545 18.0841Z" fill="#808181"/>
<path d="M8.67388 18.8089C8.91538 18.8087 9.15678 18.8083 9.39828 18.808C9.39828 19.2905 9.39828 19.7729 9.39828 20.2554C8.92078 20.2554 8.44328 20.2554 7.95178 20.2554C7.95178 20.0096 7.95178 19.7705 7.95178 19.531L7.95068 19.5326C8.18988 19.5326 8.42908 19.5326 8.67568 19.5326C8.67568 19.2805 8.67568 19.0441 8.67568 18.8076L8.67388 18.8089Z" fill="#2B4B9B"/>
<path d="M7.22466 18.8062C7.22516 19.047 7.22536 19.2877 7.22586 19.5285C6.98506 19.5296 6.74446 19.531 6.50366 19.5321C6.50306 19.2918 6.50236 19.0513 6.50146 18.8109L6.50936 18.803C6.74786 18.8041 6.98636 18.8053 7.22466 18.8062Z" fill="#C0C0BF"/>
<path d="M5.78027 15.9141C6.02217 15.9145 6.26407 15.9147 6.50597 15.9152C6.50617 16.1564 6.50637 16.3974 6.50667 16.6387L6.50387 16.6337L6.49847 16.6353C6.25907 16.6359 6.01967 16.6368 5.78047 16.6375L5.78177 16.6389C5.78117 16.3972 5.78067 16.1555 5.78027 15.9141Z" fill="white"/>
<path d="M5.05733 18.8086C5.05733 18.5676 5.05713 18.3266 5.05713 18.0856L5.05823 18.0845C5.29953 18.0845 5.54073 18.0845 5.78173 18.0842C5.78103 18.3243 5.78063 18.5646 5.77993 18.8047C5.53913 18.8061 5.29833 18.8072 5.05733 18.8086Z" fill="white"/>
<path d="M5.77979 18.8047C5.78049 18.5646 5.78088 18.3243 5.78158 18.0842L5.78018 18.0856C6.02188 18.0856 6.26338 18.0856 6.50508 18.0856L6.50368 18.0842C6.50568 18.3239 6.50748 18.5635 6.50958 18.8032L6.50169 18.8111C6.26109 18.809 6.02029 18.8068 5.77979 18.8047Z" fill="#C0C0BF"/>
<path d="M7.95068 11.5748C8.19188 11.5746 8.43308 11.5746 8.67458 11.5743C8.67428 11.8156 8.67428 12.0568 8.67408 12.298L8.67548 12.2967C8.43378 12.2971 8.19228 12.2976 7.95068 12.298C7.95108 12.0563 7.95158 11.8149 7.95198 11.5732L7.95068 11.5748Z" fill="#C0C0BF"/>
<path d="M9.39912 12.2971C9.39862 12.5388 9.39822 12.7802 9.39772 13.0219L9.39912 13.0206C9.15742 13.021 8.91602 13.0215 8.67432 13.0219C8.67472 12.7802 8.67522 12.5388 8.67562 12.2971L8.67432 12.2985C8.91602 12.298 9.15742 12.2975 9.39912 12.2971Z" fill="#C0C0BF"/>
<path d="M7.22705 10.8503C7.46875 10.8503 7.71015 10.8503 7.95185 10.8503C7.95135 11.092 7.95095 11.3334 7.95045 11.5751L7.95185 11.5738C7.71015 11.5738 7.46875 11.5738 7.22705 11.5738L7.22835 11.5751C7.22795 11.3334 7.22745 11.0918 7.22705 10.8503Z" fill="#C0C0BF"/>
<path d="M6.50521 12.2984C6.50481 12.0567 6.50431 11.8152 6.50391 11.5735C6.74551 11.574 6.98701 11.5745 7.22871 11.5749L7.22731 11.5735C7.22781 11.8152 7.22821 12.0567 7.22871 12.2984C6.98701 12.2979 6.74551 12.2975 6.50391 12.297L6.50521 12.2984Z" fill="#C0C0BF"/>
<path d="M6.50507 13.0206C6.26337 13.021 6.02187 13.0215 5.78027 13.0219C5.78027 12.7802 5.78027 12.5388 5.78027 12.2971C6.02187 12.2975 6.26337 12.298 6.50507 12.2985L6.50367 12.2971C6.50367 12.5388 6.50367 12.7802 6.50367 13.0219L6.50507 13.0206Z" fill="#C0C0BF"/>
<path d="M7.22871 13.744C6.98701 13.7445 6.74551 13.7449 6.50391 13.7454C6.50431 13.5037 6.50481 13.2622 6.50521 13.0205L6.50391 13.0219C6.74551 13.0215 6.98701 13.021 7.22871 13.0205C7.22821 13.2622 7.22781 13.5037 7.22731 13.7454L7.22871 13.744Z" fill="#C0C0BF"/>
<path d="M7.22835 14.4685C7.22835 14.227 7.22835 13.9854 7.22835 13.7439L7.22705 13.7453C7.46875 13.7448 7.71015 13.7443 7.95185 13.7439C7.95135 13.9856 7.95095 14.227 7.95045 14.4687L7.95185 14.4674C7.71015 14.4674 7.46875 14.4674 7.22705 14.4674L7.22835 14.4685Z" fill="#C0C0BF"/>
<path d="M5.05794 17.362C5.05754 17.1203 5.05704 16.8789 5.05664 16.6372C5.29824 16.6377 5.53974 16.6381 5.78144 16.6386L5.78004 16.6372C5.78054 16.8789 5.78094 17.1203 5.78144 17.362C5.53974 17.3616 5.29824 17.3611 5.05664 17.3607L5.05794 17.362Z" fill="white"/>
<path d="M5.05664 17.3606C5.29824 17.3611 5.53974 17.3616 5.78144 17.362L5.78004 17.3606C5.78004 17.6023 5.78004 17.8438 5.78004 18.0855L5.78144 18.0841C5.54024 18.0841 5.29894 18.0841 5.05794 18.0843C5.05754 17.8431 5.05704 17.6019 5.05664 17.3606Z" fill="#C0C0BF"/>
<path d="M8.67432 13.0219C8.91602 13.0215 9.15742 13.021 9.39912 13.0205C9.39912 13.2561 9.39912 13.4917 9.39912 13.744C9.15082 13.744 8.91262 13.744 8.67432 13.744L8.67562 13.7454C8.67562 13.5037 8.67562 13.2622 8.67562 13.0205L8.67432 13.0219Z" fill="white"/>
<path d="M7.95068 14.4687C7.95108 14.227 7.95158 13.9856 7.95198 13.7439L7.95068 13.7453C8.19228 13.7453 8.43378 13.7453 8.67548 13.7453L8.67408 13.7439C8.67408 13.9856 8.67408 14.227 8.67388 14.4687L8.67528 14.4674C8.43378 14.4676 8.19228 14.4683 7.95068 14.4687Z" fill="white"/>
<path d="M7.22705 14.467C7.46875 14.467 7.71015 14.467 7.95185 14.467C7.95185 14.7031 7.95185 14.9391 7.95185 15.183C7.70905 15.183 7.47795 15.183 7.22705 15.183C7.22705 14.9447 7.22705 14.706 7.22705 14.467Z" fill="white"/>
<path d="M8.67432 14.4686C8.91052 14.4686 9.14702 14.4686 9.39072 14.4686C9.39072 14.711 9.39072 14.9423 9.39072 15.1826C9.15762 15.1826 8.92612 15.1826 8.67562 15.1826C8.67562 14.9454 8.67562 14.7062 8.67562 14.4673L8.67432 14.4686Z" fill="white"/>
<path d="M5.78139 17.3621C5.78099 17.1204 5.78049 16.879 5.78009 16.6373C6.01949 16.6364 6.25889 16.6357 6.49809 16.635C6.50129 16.876 6.50439 17.117 6.50759 17.3578L6.50029 17.3651C6.26029 17.3635 6.02019 17.3621 5.77979 17.3605L5.78139 17.3621Z" fill="#C0C0BF"/>
<path d="M6.50779 17.3579C6.74269 17.3579 6.97759 17.3579 7.22489 17.3579C7.22489 17.6109 7.22489 17.849 7.22489 18.087C6.98459 18.0861 6.74399 18.085 6.50369 18.0841L6.50509 18.0855C6.50349 17.8454 6.50209 17.6053 6.50049 17.3652L6.50779 17.3579Z" fill="#C0C0BF"/>
<path d="M6.50391 18.0842C6.74421 18.0851 6.98471 18.0863 7.22511 18.0872C7.22511 18.3268 7.22511 18.5665 7.22511 18.8061C6.98651 18.8052 6.74831 18.8041 6.50971 18.8032C6.50791 18.5635 6.50591 18.3239 6.50391 18.0842Z" fill="white"/>
<path d="M8.67568 18.8079C8.67568 19.0444 8.67568 19.2806 8.67568 19.5329C8.42908 19.5329 8.18988 19.5329 7.95068 19.5329C7.95068 19.2967 7.95068 19.0604 7.95068 18.8079C8.19758 18.8079 8.43678 18.8079 8.67568 18.8079Z" fill="#020203"/>
<path d="M6.50057 17.3652C6.50217 17.6053 6.50347 17.8454 6.50507 18.0855C6.26337 18.0855 6.02197 18.0855 5.78027 18.0855C5.78027 17.8438 5.78027 17.6023 5.78027 17.3606C6.02017 17.3622 6.26047 17.3636 6.50057 17.3652Z" fill="white"/>
<path d="M7.22835 12.2984C7.22795 12.0567 7.22745 11.8152 7.22705 11.5735C7.46875 11.5735 7.71015 11.5735 7.95185 11.5735C7.95135 11.815 7.95095 12.0567 7.95045 12.2984L7.95185 12.297C7.71015 12.297 7.46875 12.297 7.22705 12.297L7.22835 12.2984Z" fill="white"/>
<path d="M8.67548 12.2971C8.67498 12.5388 8.67458 12.7802 8.67408 13.0219L8.67548 13.0206C8.43378 13.0206 8.19228 13.0206 7.95068 13.0206L7.95198 13.0219C7.95198 12.7802 7.95198 12.5388 7.95198 12.2971L7.95068 12.2985C8.19228 12.298 8.43378 12.2975 8.67548 12.2971Z" fill="white"/>
<path d="M7.22871 13.0206C6.98701 13.021 6.74551 13.0215 6.50391 13.0219C6.50391 12.7802 6.50391 12.5388 6.50391 12.2971C6.74551 12.2975 6.98701 12.298 7.22871 12.2985L7.22731 12.2971C7.22731 12.5388 7.22731 12.7802 7.22731 13.0219L7.22871 13.0206Z" fill="white"/>
<path d="M7.95185 13.744C7.71015 13.7445 7.46875 13.7449 7.22705 13.7454C7.22745 13.5037 7.22795 13.2622 7.22835 13.0205L7.22705 13.0219C7.46875 13.0219 7.71015 13.0219 7.95185 13.0219L7.95045 13.0205C7.95045 13.2622 7.95045 13.5037 7.95045 13.7454L7.95185 13.744Z" fill="white"/>
<path d="M8.32063 13.8952C8.60373 13.8912 8.82993 13.6584 8.82583 13.3754C8.82183 13.0923 8.58913 12.8662 8.30613 12.8702C8.02303 12.8742 7.79683 13.1069 7.80083 13.39C7.80493 13.673 8.03763 13.8992 8.32063 13.8952Z" fill="#C0C0BF"/>
<path d="M7.95185 13.0219C7.71015 13.0219 7.46875 13.0219 7.22705 13.0219C7.22705 12.7802 7.22705 12.5388 7.22705 12.2971C7.46875 12.2971 7.71015 12.2971 7.95185 12.2971C7.95185 12.5388 7.95185 12.7805 7.95185 13.0219Z" fill="#C0C0BF"/>
</svg>
