<svg width="105" height="15" viewBox="0 0 105 15" fill="none" xmlns="http://www.w3.org/2000/svg">
<path d="M13.4364 3H15.5091V7H13.4364V9H5.1455V15H1V1H13.4364V3ZM11.3636 7V3H5.1455V7H11.3636Z" fill="#0E0E0E"/>
<path d="M19.6547 11H17.582V1H21.7275V11H25.8729V13H32.0911V15H23.8002V13H19.6547V11Z" fill="#0E0E0E"/>
<path d="M36.2364 13H34.1636V11H36.2364V9H44.5273V7H36.2364V5H46.6V7H48.6727V15H36.2364V13ZM38.3091 13H44.5273V11H38.3091V13Z" fill="#0E0E0E"/>
<path d="M50.7456 15V13H54.891V11H52.8183V9H50.7456V5H54.891V9H56.9637V11H59.0365V9H61.1092V5H65.2546V9H63.1819V11H61.1092V13H59.0365V15H50.7456Z" fill="#0E0E0E"/>
<path d="M75 15V13H79.1455V3H75V1H87.4364V3H83.2909V13H87.4364V15H75Z" fill="#0E0E0E"/>
<path d="M91.582 3V1H104.018V3H99.8732V15H95.7272V3H91.582Z" fill="#0E0E0E"/>
<path d="M12.4364 2H14.5091V6H12.4364V8H4.1455V14H0V0H12.4364V2ZM10.3636 6V2H4.1455V6H10.3636Z" fill="white"/>
<path d="M18.6547 10H16.582V0H20.7275V10H24.8729V12H31.0911V14H22.8002V12H18.6547V10Z" fill="white"/>
<path d="M35.2364 12H33.1636V10H35.2364V8H43.5273V6H35.2364V4H45.6V6H47.6727V14H35.2364V12ZM37.3091 12H43.5273V10H37.3091V12Z" fill="white"/>
<path d="M49.7456 14V12H53.891V10H51.8183V8H49.7456V4H53.891V8H55.9637V10H58.0365V8H60.1092V4H64.2546V8H62.1819V10H60.1092V12H58.0365V14H49.7456Z" fill="white"/>
<path d="M74 14V12H78.1455V2H74V0H86.4364V2H82.2909V12H86.4364V14H74Z" fill="white"/>
<path d="M90.582 2V0H103.018V2H98.8732V14H94.7272V2H90.582Z" fill="white"/>
</svg>
