<svg width="21" height="105" viewBox="0 0 21 105" fill="none" xmlns="http://www.w3.org/2000/svg">
<path d="M4.76 91.7999L4.76 100.6H9.16001L9.16 91.7999H11.36L11.36 100.6H15.76V98.3999H17.96V105H15.76V102.8H4.76V105H2.56L2.56 91.7999H4.76V89.5999H9.16V91.7999H4.76Z" fill="#BCBCBC"/>
<path d="M17.96 88.2842H15.76V86.0842H4.76V88.2842H2.56L2.56 83.8842H15.76V81.6842H17.96V88.2842Z" fill="#BCBCBC"/>
<path d="M6.96 78.1685V69.3685H9.16V67.1685H15.76L15.76 64.9685H17.96V67.1685H15.76V69.3685H13.56L13.56 78.1685H11.36L11.36 69.3685H9.16V78.1685H6.96ZM13.56 80.3685V78.1685H15.76V69.3685H17.96L17.96 78.1685H15.76V80.3685H13.56Z" fill="#BCBCBC"/>
<path d="M17.96 63.6528V54.8528H20.16V63.6528H17.96ZM13.56 54.8528V63.6528H11.36L11.36 54.8528H6.96V52.6528L17.96 52.6528V54.8528H13.56ZM6.96 65.8528V63.6528H11.36V65.8528H6.96Z" fill="#BCBCBC"/>
<path d="M17.96 51.3371H15.76V49.1371H4.76V51.3371H2.56L2.56 44.7371H4.76V46.9371H15.76L15.76 44.7371H17.96V51.3371Z" fill="#BCBCBC"/>
<path d="M15.76 39.0214V36.8214H4.76L4.76 41.2214H6.96V43.4213H2.56L2.56 28.0213H6.96V30.2213H4.76V34.6213H15.76V32.4213H17.96V39.0214H15.76Z" fill="#BCBCBC"/>
<path d="M2.24 15.7405V13.5005L17.92 13.5005V15.7405H11.2V22.4605H8.96V24.7005H2.24V22.4605H8.96L8.96 15.7405H2.24L2.24 22.4605H8.81795e-07L5.88055e-07 15.7405H2.24ZM17.92 22.4605V15.7405H20.16V22.4605H17.92V24.7005H15.68V22.4605H17.92Z" fill="white"/>
<path d="M2.24 11.2474L2.24 9.00736H8.96V11.2474L2.24 11.2474ZM8.96 9.00736V2.28736H11.2L11.2 9.00736H8.96ZM2.24 2.28736V0.047364L8.96 0.0473637V2.28736L2.24 2.28736ZM2.93741e-07 9.00736L0 2.28736L2.24 2.28736L2.24 9.00736H2.93741e-07ZM11.2 11.2474V9.00736H17.92L17.92 11.2474H11.2ZM17.92 9.00736V2.28736H20.16L20.16 9.00736H17.92ZM11.2 2.28736V0.0473636L17.92 0.0473633V2.28736L11.2 2.28736Z" fill="white"/>
</svg>
